# https://github.com/mikedh/trimesh

o box_simple_0000.obj
v 0.25334364 0.68688777 0.81634969
v 0.56346116 -0.84181643 0.41985859
v 0.11518354 0.98947499 -0.45836298
v 0.42530106 -0.53922921 -0.85485408
v -0.42530106 0.53922921 0.85485408
v -0.11518354 -0.98947499 0.45836298
v -0.56346116 0.84181643 -0.41985859
v -0.25334364 -0.68688777 -0.81634969
v 0.40840240 -0.07746433 0.61810414
v 0.18426359 0.83818138 0.17899335
v 0.33932235 0.07382928 -0.01925219
v 0.49438111 -0.69052282 -0.21749774
v 0.27024230 0.22512289 -0.65660853
v -0.08597871 0.61305849 0.83560188
v 0.06908005 -0.15129361 0.63735634
v -0.15505876 0.76435210 0.19824555
v 0.22413881 -0.91564571 0.43911079
v -0.27024230 -0.22512289 0.65660853
v -0.22413881 0.91564571 -0.43911079
v -0.49438111 0.69052282 0.21749774
v -0.33932235 -0.07382928 0.01925219
v 0.15505876 -0.76435210 -0.19824555
v -0.06908005 0.15129361 -0.63735634
v 0.08597871 -0.61305849 -0.83560188
v -0.18426359 -0.83818138 -0.17899335
v -0.40840240 0.07746433 -0.61810414
v 0.33087302 0.30471172 0.71722692
v 0.48593178 -0.45964038 0.51898137
v 0.21880362 0.76253457 0.49767152
v 0.14972356 0.91382818 -0.13968481
v 0.29633300 0.38035852 0.39854875
v 0.38231170 -0.23269996 -0.43705314
v 0.37386238 -0.00181753 0.29942597
v 0.26179297 0.45600533 0.07987058
v 0.52892114 -0.76616962 0.10118043
v 0.45984108 -0.61487601 -0.53617591
v 0.45139176 -0.38399357 0.20030320
v 0.41685173 -0.30834677 -0.11837497
v 0.19271292 0.60729894 -0.55748576
v 0.34777168 -0.15705316 -0.75573130
v 0.22725294 0.53165213 -0.23880759
v 0.30478232 0.14947608 -0.33793036
v 0.08368247 0.64997313 0.82597579
v -0.25563988 0.57614385 0.84522798
v 0.16121185 0.26779708 0.72685301
v 0.04914244 0.72561993 0.50729762
v 0.31627061 -0.49655502 0.52860746
v -0.17811050 0.19396780 0.74610521
v 0.23874123 -0.11437897 0.62773024
v -0.00844933 0.23088244 0.73647911
v -0.01993761 0.87691354 -0.13005872
v -0.29017991 0.65179065 0.52654981
v 0.01460241 0.80126674 0.18861945
v -0.12051873 0.68870529 0.51692372
v 0.39379999 -0.87873107 0.42948469
v 0.05447764 -0.95256035 0.44873688
v 0.14660943 -0.53346966 0.53823356
v -0.34777168 0.15705316 0.75573130
v -0.19271292 -0.60729894 0.55748576
v -0.10058112 -0.18820825 0.64698243
v -0.02305174 -0.57038430 0.54785966
v -0.05447764 0.95256035 -0.44873688
v -0.39379999 0.87873107 -0.42948469
v -0.18959879 0.83999890 -0.12043262
v -0.45984108 0.61487601 0.53617591
v -0.52892114 0.76616962 -0.10118043
v -0.32471994 0.72743746 0.20787164
v -0.38231170 0.23269996 0.43705314
v -0.35925996 0.80308426 -0.11080652
v -0.22725294 -0.53165213 0.23880759
v -0.45139176 0.38399357 -0.20030320
v -0.30478232 -0.14947608 0.33793036
v -0.41685173 0.30834677 0.11837497
v 0.35925996 -0.80308426 0.11080652
v -0.04914244 -0.72561993 -0.50729762
v 0.32471994 -0.72743746 -0.20787164
v 0.18959879 -0.83999890 0.12043262
v 0.02305174 0.57038430 -0.54785966
v -0.16121185 -0.26779708 -0.72685301
v 0.10058112 0.18820825 -0.64698243
v -0.14660943 0.53346966 -0.53823356
v 0.25563988 -0.57614385 -0.84522798
v -0.08368247 -0.64997313 -0.82597579
v 0.29017991 -0.65179065 -0.52654981
v 0.17811050 -0.19396780 -0.74610521
v 0.12051873 -0.68870529 -0.51692372
v 0.00844933 -0.23088244 -0.73647911
v -0.14972356 -0.91382818 0.13968481
v -0.21880362 -0.76253457 -0.49767152
v 0.01993761 -0.87691354 0.13005872
v -0.26179297 -0.45600533 -0.07987058
v -0.01460241 -0.80126674 -0.18861945
v -0.48593178 0.45964038 -0.51898137
v -0.33087302 -0.30471172 -0.71722692
v -0.31627061 0.49655502 -0.52860746
v -0.37386238 0.00181753 -0.29942597
v -0.23874123 0.11437897 -0.62773024
v -0.29633300 -0.38035852 -0.39854875
v 0.29210833 0.49579974 0.76678830
v 0.36963771 0.11362369 0.66766553
v 0.52469647 -0.65072840 0.46941998
v 0.44716709 -0.26855235 0.56854275
v 0.23607363 0.72471117 0.65701061
v 0.20153360 0.80035797 0.33833244
v 0.13245355 0.95165158 -0.29902390
v 0.16699358 0.87600478 0.01965427
v 0.27483832 0.53362314 0.60744922
v 0.31782767 0.22709390 0.18964828
v 0.31360301 0.34253512 0.55788783
v 0.25756831 0.57144655 0.44811013
v 0.40380638 -0.38596458 -0.64595361
v 0.36081703 -0.07943534 -0.22815267
v 0.39113239 -0.03964093 0.45876506
v 0.35659236 0.03600588 0.14008689
v 0.35236770 0.15144710 0.50832644
v 0.33509769 0.18927050 0.34898736
v 0.22302828 0.64709335 0.12943197
v 0.30055766 0.26491730 0.03030919
v 0.24029829 0.60926995 0.28877105
v 0.27906298 0.41818193 0.23920966
v 0.54619115 -0.80399302 0.26051951
v 0.51165112 -0.72834622 -0.05815866
v 0.50742646 -0.61290500 0.31008090
v 0.44257107 -0.57705261 -0.69551499
v 0.47711110 -0.65269941 -0.37683683
v 0.42107639 -0.42378799 -0.48661452
v 0.42989708 -0.23072895 0.40920367
v 0.47288643 -0.53725820 -0.00859727
v 0.46866177 -0.42181698 0.35964228
v 0.41262707 -0.19290555 0.24986459
v 0.49015645 -0.57508160 0.15074181
v 0.37808704 -0.11725874 -0.06881358
v 0.45561642 -0.49943479 -0.16793636
v 0.39958172 -0.27052337 -0.27771405
v 0.39535705 -0.15508215 0.09052550
v 0.43834641 -0.46161139 -0.32727544
v 0.43412174 -0.34617017 0.04096412
v 0.15394823 0.79838696 -0.50792437
v 0.23147761 0.41621091 -0.60704714
v 0.17121824 0.76056356 -0.34858529
v 0.38653637 -0.34814118 -0.80529269
v 0.30900699 0.03403487 -0.70616992
v 0.36504169 -0.19487656 -0.59639222
v 0.20575827 0.68491675 -0.02990712
v 0.24874762 0.37838751 -0.44770806
v 0.18848825 0.72274016 -0.18924620
v 0.24452296 0.49382873 -0.07946850
v 0.20998293 0.56947554 -0.39814667
v 0.32205234 0.11165268 -0.17859128
v 0.28751231 0.18729949 -0.49726945
v 0.34354701 -0.04161194 -0.38749175
v 0.28328765 0.30274071 -0.12902989
v 0.32627700 -0.00378854 -0.54683083
v 0.26601763 0.34056411 -0.28836898
v 0.16851306 0.66843045 0.82116274
v -0.00114812 0.63151581 0.83078883
v 0.20727775 0.47734242 0.77160135
v 0.15124304 0.70625385 0.66182365
v -0.34047047 0.55768653 0.85004103
v -0.17080929 0.59460117 0.84041493
v 0.28480713 0.09516637 0.67247858
v 0.03761657 0.44042778 0.78122745
v 0.24604244 0.28625440 0.72203996
v 0.12244716 0.45888510 0.77641440
v 0.11670302 0.78190065 0.34314549
v -0.01841813 0.66933921 0.67144975
v 0.13397303 0.74407725 0.50248457
v 0.06641245 0.68779653 0.66663670
v 0.43986589 -0.66918572 0.47423303
v 0.19267533 -0.32392431 0.58298190
v 0.40110120 -0.47809770 0.52379442
v -0.30170578 0.36659850 0.80047964
v -0.05451522 0.02133709 0.69173077
v -0.21687519 0.38505582 0.79566659
v 0.32357182 -0.09592165 0.62291719
v 0.15391064 -0.13283629 0.63254329
v 0.36233651 -0.28700967 0.57335580
v 0.19997654 0.07670905 0.67729163
v 0.27750592 -0.30546699 0.57816885
v -0.04721402 0.42197046 0.78604050
v 0.03031536 0.03979441 0.68691772
v -0.13204460 0.40351314 0.79085354
v 0.07638126 0.24933976 0.73166606
v -0.09327991 0.21242512 0.74129216
v 0.11514595 0.05825173 0.68210467
v 0.04762296 0.93319426 -0.29421085
v -0.08749819 0.82063282 0.03409342
v 0.06489297 0.89537086 -0.13487177
v -0.35774048 0.59550993 0.69070195
v -0.22261933 0.70807137 0.36239768
v -0.27290989 0.61396725 0.68588890
v 0.09943300 0.81972406 0.18380640
v -0.07022817 0.78280942 0.19343250
v 0.08216299 0.85754746 0.02446732
v 0.03187243 0.76344333 0.34795853
v -0.00266760 0.83909014 0.02928037
v -0.10324872 0.65088189 0.67626280
v -0.13778875 0.72652869 0.35758463
v -0.18807931 0.63242457 0.68107585
v -0.03568815 0.70716261 0.51211067
v -0.20534932 0.67024797 0.52173676
v -0.05295816 0.74498601 0.35277158
v 0.47863058 -0.86027375 0.42467164
v 0.30896940 -0.89718839 0.43429774
v 0.35503530 -0.68764304 0.47904608
v -0.03035295 -0.97101767 0.45354993
v 0.13930823 -0.93410303 0.44392384
v 0.10784474 -0.34238163 0.58779495
v 0.18537412 -0.72455768 0.48867217
v 0.23144002 -0.51501234 0.53342051
v 0.27020471 -0.70610036 0.48385913
v -0.38653637 0.34814118 0.80529269
v -0.30900699 -0.03403487 0.70616992
v -0.26294109 0.17551048 0.75091826
v -0.15394823 -0.79838696 0.50792437
v -0.23147761 -0.41621091 0.60704714
v -0.06911764 -0.77992964 0.50311132
v -0.01575053 -0.16975093 0.64216938
v -0.18541171 -0.20666557 0.65179548
v -0.13934581 0.00287977 0.69654382
v 0.02301416 -0.36083895 0.59260800
v -0.22417640 -0.01557755 0.70135687
v 0.10054354 -0.74301500 0.49348522
v -0.14664702 -0.39775359 0.60223409
v 0.01571295 -0.76147232 0.49829827
v 0.06177885 -0.55192698 0.54304661
v -0.10788233 -0.58884162 0.55267271
v -0.06181643 -0.37929627 0.59742105
v 0.03035295 0.97101767 -0.45354993
v -0.13930823 0.93410303 -0.44392384
v -0.03720763 0.91473694 -0.28939780
v -0.47863058 0.86027375 -0.42467164
v -0.30896940 0.89718839 -0.43429774
v -0.17232877 0.80217550 0.03890646
v -0.20686880 0.87782230 -0.27977170
v -0.10476820 0.85845622 -0.12524567
v -0.12203821 0.89627962 -0.28458475
v -0.44257107 0.57705261 0.69551499
v -0.47711110 0.65269941 0.37683683
v -0.37501050 0.63333333 0.53136286
v -0.40380638 0.38596458 0.64595361
v -0.54619115 0.80399302 -0.26051951
v -0.51165112 0.72834622 0.05815866
v -0.46136056 0.82245034 -0.26533256
v -0.23988935 0.74589478 0.20305860
v -0.40955052 0.70898014 0.21268469
v -0.30744992 0.68961405 0.36721073
v -0.25715936 0.78371818 0.04371951
v -0.39228051 0.67115673 0.37202378
v -0.32627700 0.00378854 0.54683083
v -0.43834641 0.46161139 0.32727544
v -0.36504169 0.19487656 0.59639222
v -0.42107639 0.42378799 0.48661452
v -0.29169939 0.85936498 -0.27495866
v -0.42682054 0.74680354 0.05334561
v -0.37652998 0.84090766 -0.27014561
v -0.27442937 0.82154158 -0.11561957
v -0.44409055 0.78462694 -0.10599347
v -0.34198995 0.76526086 0.04853256
v -0.17121824 -0.76056356 0.34858529
v -0.28328765 -0.30274071 0.12902989
v -0.20998293 -0.56947554 0.39814667
v -0.50742646 0.61290500 -0.31008090
v -0.39535705 0.15508215 -0.09052550
v -0.49015645 0.57508160 -0.15074181
v -0.28751231 -0.18729949 0.49726945
v -0.32205234 -0.11165268 0.17859128
v -0.24874762 -0.37838751 0.44770806
v -0.34354701 0.04161194 0.38749175
v -0.26601763 -0.34056411 0.28836898
v -0.45561642 0.49943479 0.16793636
v -0.37808704 0.11725874 0.06881358
v -0.47288643 0.53725820 0.00859727
v -0.39958172 0.27052337 0.27771405
v -0.43412174 0.34617017 -0.04096412
v -0.36081703 0.07943534 0.22815267
v 0.46136056 -0.82245034 0.26533256
v 0.25715936 -0.78371818 -0.04371951
v 0.44409055 -0.78462694 0.10599347
v 0.37652998 -0.84090766 0.27014561
v -0.15124304 -0.70625385 -0.66182365
v 0.05295816 -0.74498601 -0.35277158
v 0.40955052 -0.70898014 -0.21268469
v 0.23988935 -0.74589478 -0.20305860
v 0.42682054 -0.74680354 -0.05334561
v 0.34198995 -0.76526086 -0.04853256
v 0.20686880 -0.87782230 0.27977170
v 0.17232877 -0.80217550 -0.03890646
v 0.29169939 -0.85936498 0.27495866
v 0.27442937 -0.82154158 0.11561957
v 0.06911764 0.77992964 -0.50311132
v -0.02301416 0.36083895 -0.59260800
v 0.10788233 0.58884162 -0.55267271
v -0.01571295 0.76147232 -0.49829827
v -0.20727775 -0.47734242 -0.77160135
v -0.11514595 -0.05825173 -0.68210467
v 0.18541171 0.20666557 -0.65179548
v 0.01575053 0.16975093 -0.64216938
v 0.14664702 0.39775359 -0.60223409
v 0.06181643 0.37929627 -0.59742105
v -0.18537412 0.72455768 -0.48867217
v -0.10784474 0.34238163 -0.58779495
v -0.10054354 0.74301500 -0.49348522
v -0.06177885 0.55192698 -0.54304661
v 0.34047047 -0.55768653 -0.85004103
v 0.17080929 -0.59460117 -0.84041493
v 0.35774048 -0.59550993 -0.69070195
v 0.30170578 -0.36659850 -0.80047964
v -0.16851306 -0.66843045 -0.82116274
v 0.00114812 -0.63151581 -0.83078883
v -0.06641245 -0.68779653 -0.66663670
v -0.12244716 -0.45888510 -0.77641440
v 0.39228051 -0.67115673 -0.37202378
v 0.18807931 -0.63242457 -0.68107585
v 0.37501050 -0.63333333 -0.53136286
v 0.30744992 -0.68961405 -0.36721073
v 0.27290989 -0.61396725 -0.68588890
v 0.22417640 0.01557755 -0.70135687
v 0.13204460 -0.40351314 -0.79085354
v 0.26294109 -0.17551048 -0.75091826
v 0.13934581 -0.00287977 -0.69654382
v 0.21687519 -0.38505582 -0.79566659
v 0.13778875 -0.72652869 -0.35758463
v 0.10324872 -0.65088189 -0.67626280
v 0.03568815 -0.70716261 -0.51211067
v 0.22261933 -0.70807137 -0.36239768
v 0.01841813 -0.66933921 -0.67144975
v 0.20534932 -0.67024797 -0.52173676
v -0.03031536 -0.03979441 -0.68691772
v 0.04721402 -0.42197046 -0.78604050
v -0.07638126 -0.24933976 -0.73166606
v 0.05451522 -0.02133709 -0.69173077
v -0.03761657 -0.44042778 -0.78122745
v 0.09327991 -0.21242512 -0.74129216
v -0.13245355 -0.95165158 0.29902390
v -0.16699358 -0.87600478 -0.01965427
v -0.04762296 -0.93319426 0.29421085
v -0.18848825 -0.72274016 0.18924620
v -0.23607363 -0.72471117 -0.65701061
v -0.20153360 -0.80035797 -0.33833244
v -0.13397303 -0.74407725 -0.50248457
v 0.12203821 -0.89627962 0.28458475
v -0.08216299 -0.85754746 -0.02446732
v 0.03720763 -0.91473694 0.28939780
v 0.10476820 -0.85845622 0.12524567
v -0.06489297 -0.89537086 0.13487177
v -0.30055766 -0.26491730 -0.03030919
v -0.22302828 -0.64709335 -0.12943197
v -0.24452296 -0.49382873 0.07946850
v -0.20575827 -0.68491675 0.02990712
v 0.07022817 -0.78280942 -0.19343250
v -0.09943300 -0.81972406 -0.18380640
v -0.03187243 -0.76344333 -0.34795853
v 0.08749819 -0.82063282 -0.03409342
v -0.11670302 -0.78190065 -0.34314549
v 0.00266760 -0.83909014 -0.02928037
v -0.52469647 0.65072840 -0.46941998
v -0.44716709 0.26855235 -0.56854275
v -0.43986589 0.66918572 -0.47423303
v -0.46866177 0.42181698 -0.35964228
v -0.29210833 -0.49579974 -0.76678830
v -0.36963771 -0.11362369 -0.66766553
v -0.24604244 -0.28625440 -0.72203996
v -0.27483832 -0.53362314 -0.60744922
v -0.27020471 0.70610036 -0.48385913
v -0.36233651 0.28700967 -0.57335580
v -0.35503530 0.68764304 -0.47904608
v -0.23144002 0.51501234 -0.53342051
v -0.40110120 0.47809770 -0.52379442
v -0.35659236 -0.03600588 -0.14008689
v -0.39113239 0.03964093 -0.45876506
v -0.41262707 0.19290555 -0.24986459
v -0.31782767 -0.22709390 -0.18964828
v -0.42989708 0.23072895 -0.40920367
v -0.15391064 0.13283629 -0.63254329
v -0.32357182 0.09592165 -0.62291719
v -0.19997654 -0.07670905 -0.67729163
v -0.19267533 0.32392431 -0.58298190
v -0.28480713 -0.09516637 -0.67247858
v -0.27750592 0.30546699 -0.57816885
v -0.24029829 -0.60926995 -0.28877105
v -0.35236770 -0.15144710 -0.50832644
v -0.25756831 -0.57144655 -0.44811013
v -0.27906298 -0.41818193 -0.23920966
v -0.31360301 -0.34253512 -0.55788783
v -0.33509769 -0.18927050 -0.34898736
vn 0.51258750 0.53833637 0.66891554
vn 0.73508208 -0.55843619 0.38445202
vn 0.39149013 0.80355418 -0.44837056
vn 0.61398469 -0.29321838 -0.73283407
vn -0.61398469 0.29321838 0.73283407
vn -0.39149013 -0.80355418 0.44837056
vn -0.73508208 0.55843619 -0.38445202
vn -0.51258750 -0.53833637 -0.66891554
vn 0.76403847 -0.01230858 0.64505327
vn 0.55363223 0.82173677 0.13505568
vn 0.97564015 0.21227841 -0.05535505
vn 0.82613130 -0.52152979 -0.21333954
vn 0.61572506 0.31251560 -0.72333716
vn -0.06209284 0.50922123 0.85839281
vn 0.10487338 -0.22968537 0.96759816
vn -0.19268595 0.94983288 0.24635263
vn 0.21040625 -0.83404535 0.50999762
vn -0.61572506 -0.31251559 0.72333716
vn -0.21040625 0.83404535 -0.50999761
vn -0.82613130 0.52152978 0.21333955
vn -0.97564015 -0.21227841 0.05535505
vn 0.19268594 -0.94983289 -0.24635263
vn -0.10487338 0.22968535 -0.96759817
vn 0.06209284 -0.50922122 -0.85839282
vn -0.55363222 -0.82173677 -0.13505568
vn -0.76403847 0.01230858 -0.64505327
vn 0.76403843 -0.01230859 0.64505331
vn 0.76403846 -0.01230857 0.64505328
vn 0.55363223 0.82173677 0.13505564
vn 0.55363220 0.82173680 0.13505564
vn 0.97564014 0.21227841 -0.05535508
vn 0.97564014 0.21227841 -0.05535508
vn 0.97564014 0.21227841 -0.05535508
vn 0.97564015 0.21227841 -0.05535506
vn 0.82613132 -0.52152976 -0.21333955
vn 0.82613131 -0.52152977 -0.21333956
vn 0.97564014 0.21227841 -0.05535508
vn 0.97564015 0.21227841 -0.05535506
vn 0.61572506 0.31251557 -0.72333717
vn 0.61572511 0.31251556 -0.72333714
vn 0.97564014 0.21227841 -0.05535508
vn 0.97564014 0.21227841 -0.05535508
vn -0.06209287 0.50922118 0.85839284
vn -0.06209283 0.50922120 0.85839283
vn 0.10487342 -0.22968535 0.96759816
vn -0.19268595 0.94983289 0.24635260
vn 0.10487338 -0.22968537 0.96759816
vn 0.10487342 -0.22968535 0.96759816
vn 0.10487342 -0.22968537 0.96759816
vn 0.10487342 -0.22968536 0.96759816
vn -0.19268595 0.94983289 0.24635260
vn -0.19268594 0.94983289 0.24635260
vn -0.19268595 0.94983288 0.24635264
vn -0.19268596 0.94983289 0.24635260
vn 0.21040625 -0.83404536 0.50999759
vn 0.21040622 -0.83404538 0.50999757
vn 0.10487342 -0.22968536 0.96759816
vn -0.61572510 -0.31251558 0.72333713
vn -0.61572506 -0.31251557 0.72333717
vn 0.10487342 -0.22968535 0.96759816
vn 0.10487342 -0.22968536 0.96759816
vn -0.21040623 0.83404537 -0.50999758
vn -0.21040625 0.83404536 -0.50999759
vn -0.19268595 0.94983289 0.24635261
vn -0.82613130 0.52152977 0.21333955
vn -0.82613132 0.52152976 0.21333955
vn -0.19268596 0.94983288 0.24635263
vn -0.97564014 -0.21227841 0.05535508
vn -0.19268594 0.94983289 0.24635260
vn -0.97564014 -0.21227841 0.05535508
vn -0.97564014 -0.21227841 0.05535508
vn -0.97564014 -0.21227841 0.05535508
vn -0.97564015 -0.21227840 0.05535506
vn 0.19268594 -0.94983289 -0.24635260
vn 0.19268594 -0.94983289 -0.24635260
vn 0.19268596 -0.94983288 -0.24635264
vn 0.19268596 -0.94983289 -0.24635261
vn -0.10487343 0.22968537 -0.96759816
vn -0.10487342 0.22968536 -0.96759816
vn -0.10487342 0.22968536 -0.96759816
vn -0.10487343 0.22968537 -0.96759816
vn 0.06209283 -0.50922120 -0.85839283
vn 0.06209286 -0.50922119 -0.85839283
vn 0.19268594 -0.94983289 -0.24635260
vn -0.10487342 0.22968535 -0.96759816
vn 0.19268597 -0.94983289 -0.24635261
vn -0.10487343 0.22968537 -0.96759816
vn -0.55363220 -0.82173679 -0.13505565
vn -0.55363223 -0.82173677 -0.13505564
vn 0.19268595 -0.94983289 -0.24635260
vn -0.97564015 -0.21227841 0.05535506
vn 0.19268595 -0.94983288 -0.24635264
vn -0.76403846 0.01230857 -0.64505328
vn -0.76403843 0.01230857 -0.64505331
vn -0.10487337 0.22968535 -0.96759817
vn -0.97564014 -0.21227841 0.05535508
vn -0.10487343 0.22968538 -0.96759816
vn -0.97564014 -0.21227841 0.05535508
vn 0.76403847 -0.01230856 0.64505327
vn 0.76403846 -0.01230858 0.64505328
vn 0.76403847 -0.01230858 0.64505327
vn 0.76403847 -0.01230856 0.64505326
vn 0.55363221 0.82173678 0.13505566
vn 0.55363221 0.82173678 0.13505566
vn 0.55363223 0.82173677 0.13505568
vn 0.55363223 0.82173677 0.13505564
vn 0.97564015 0.21227840 -0.05535505
vn 0.97564014 0.21227841 -0.05535508
vn 0.97564015 0.21227841 -0.05535506
vn 0.97564014 0.21227841 -0.05535508
vn 0.97564015 0.21227840 -0.05535505
vn 0.97564014 0.21227841 -0.05535508
vn 0.97564015 0.21227841 -0.05535505
vn 0.97564014 0.21227841 -0.05535508
vn 0.97564015 0.21227840 -0.05535505
vn 0.97564014 0.21227841 -0.05535508
vn 0.97564015 0.21227841 -0.05535505
vn 0.97564015 0.21227840 -0.05535505
vn 0.97564014 0.21227842 -0.05535509
vn 0.97564014 0.21227841 -0.05535508
vn 0.82613131 -0.52152976 -0.21333955
vn 0.82613130 -0.52152977 -0.21333956
vn 0.97564015 0.21227841 -0.05535506
vn 0.82613131 -0.52152977 -0.21333953
vn 0.82613131 -0.52152976 -0.21333957
vn 0.97564014 0.21227841 -0.05535508
vn 0.97564015 0.21227841 -0.05535506
vn 0.97564014 0.21227841 -0.05535508
vn 0.97564015 0.21227840 -0.05535505
vn 0.97564014 0.21227842 -0.05535508
vn 0.97564014 0.21227841 -0.05535508
vn 0.97564015 0.21227840 -0.05535505
vn 0.97564015 0.21227840 -0.05535505
vn 0.97564014 0.21227841 -0.05535508
vn 0.97564014 0.21227841 -0.05535508
vn 0.97564014 0.21227842 -0.05535509
vn 0.97564014 0.21227841 -0.05535508
vn 0.61572506 0.31251559 -0.72333716
vn 0.61572507 0.31251557 -0.72333717
vn 0.97564015 0.21227841 -0.05535505
vn 0.61572506 0.31251559 -0.72333717
vn 0.61572507 0.31251558 -0.72333716
vn 0.97564015 0.21227841 -0.05535506
vn 0.97564014 0.21227841 -0.05535508
vn 0.97564015 0.21227841 -0.05535506
vn 0.97564014 0.21227841 -0.05535508
vn 0.97564014 0.21227842 -0.05535508
vn 0.97564015 0.21227840 -0.05535505
vn 0.97564014 0.21227841 -0.05535508
vn 0.97564015 0.21227840 -0.05535505
vn 0.97564014 0.21227842 -0.05535509
vn 0.97564014 0.21227841 -0.05535508
vn 0.97564015 0.21227840 -0.05535505
vn 0.97564014 0.21227841 -0.05535508
vn -0.06209283 0.50922120 0.85839283
vn -0.06209287 0.50922122 0.85839281
vn 0.10487342 -0.22968536 0.96759816
vn -0.19268595 0.94983289 0.24635260
vn -0.06209283 0.50922120 0.85839283
vn -0.06209284 0.50922120 0.85839283
vn 0.10487343 -0.22968535 0.96759816
vn 0.10487342 -0.22968535 0.96759816
vn 0.10487338 -0.22968536 0.96759816
vn 0.10487342 -0.22968536 0.96759816
vn -0.19268596 0.94983288 0.24635263
vn -0.19268595 0.94983289 0.24635261
vn -0.19268594 0.94983289 0.24635261
vn -0.19268595 0.94983289 0.24635261
vn 0.10487342 -0.22968536 0.96759816
vn 0.10487343 -0.22968537 0.96759816
vn 0.10487338 -0.22968536 0.96759816
vn 0.10487342 -0.22968535 0.96759816
vn 0.10487342 -0.22968536 0.96759816
vn 0.10487342 -0.22968535 0.96759816
vn 0.10487343 -0.22968537 0.96759816
vn 0.10487342 -0.22968535 0.96759816
vn 0.10487343 -0.22968535 0.96759816
vn 0.10487338 -0.22968537 0.96759816
vn 0.10487342 -0.22968536 0.96759816
vn 0.10487338 -0.22968536 0.96759816
vn 0.10487343 -0.22968535 0.96759816
vn 0.10487338 -0.22968536 0.96759816
vn 0.10487342 -0.22968536 0.96759816
vn 0.10487343 -0.22968535 0.96759816
vn 0.10487338 -0.22968537 0.96759816
vn -0.19268594 0.94983288 0.24635264
vn -0.19268596 0.94983289 0.24635260
vn -0.19268596 0.94983289 0.24635260
vn -0.19268595 0.94983289 0.24635260
vn -0.19268595 0.94983288 0.24635264
vn -0.19268595 0.94983289 0.24635260
vn -0.19268594 0.94983288 0.24635263
vn -0.19268595 0.94983288 0.24635264
vn -0.19268594 0.94983289 0.24635261
vn -0.19268595 0.94983288 0.24635263
vn -0.19268595 0.94983289 0.24635260
vn -0.19268595 0.94983289 0.24635261
vn -0.19268595 0.94983288 0.24635263
vn -0.19268595 0.94983289 0.24635261
vn -0.19268595 0.94983289 0.24635260
vn -0.19268596 0.94983289 0.24635260
vn -0.19268594 0.94983288 0.24635263
vn 0.21040626 -0.83404536 0.50999759
vn 0.21040624 -0.83404536 0.50999760
vn 0.10487342 -0.22968535 0.96759816
vn 0.21040625 -0.83404536 0.50999759
vn 0.21040624 -0.83404535 0.50999762
vn 0.10487342 -0.22968536 0.96759816
vn 0.10487338 -0.22968536 0.96759816
vn 0.10487342 -0.22968535 0.96759816
vn 0.10487338 -0.22968537 0.96759816
vn -0.61572507 -0.31251558 0.72333716
vn -0.61572506 -0.31251557 0.72333717
vn 0.10487338 -0.22968537 0.96759816
vn -0.61572506 -0.31251559 0.72333717
vn -0.61572507 -0.31251557 0.72333717
vn 0.10487343 -0.22968537 0.96759816
vn 0.10487338 -0.22968537 0.96759816
vn 0.10487342 -0.22968537 0.96759816
vn 0.10487343 -0.22968537 0.96759816
vn 0.10487343 -0.22968535 0.96759816
vn 0.10487342 -0.22968536 0.96759816
vn 0.10487343 -0.22968535 0.96759816
vn 0.10487338 -0.22968537 0.96759816
vn 0.10487342 -0.22968536 0.96759816
vn 0.10487343 -0.22968537 0.96759816
vn 0.10487342 -0.22968535 0.96759816
vn 0.10487338 -0.22968537 0.96759816
vn -0.21040625 0.83404536 -0.50999759
vn -0.21040622 0.83404534 -0.50999763
vn -0.19268595 0.94983288 0.24635264
vn -0.21040626 0.83404536 -0.50999759
vn -0.21040625 0.83404536 -0.50999759
vn -0.19268596 0.94983289 0.24635260
vn -0.19268596 0.94983288 0.24635263
vn -0.19268595 0.94983289 0.24635261
vn -0.19268595 0.94983288 0.24635263
vn -0.82613131 0.52152977 0.21333953
vn -0.82613131 0.52152976 0.21333957
vn -0.19268595 0.94983289 0.24635261
vn -0.97564015 -0.21227841 0.05535505
vn -0.82613131 0.52152976 0.21333955
vn -0.82613130 0.52152977 0.21333955
vn -0.19268595 0.94983288 0.24635263
vn -0.19268595 0.94983288 0.24635263
vn -0.19268595 0.94983288 0.24635263
vn -0.19268594 0.94983288 0.24635263
vn -0.19268595 0.94983289 0.24635260
vn -0.19268594 0.94983288 0.24635263
vn -0.97564015 -0.21227841 0.05535505
vn -0.97564014 -0.21227841 0.05535508
vn -0.97564015 -0.21227841 0.05535505
vn -0.97564014 -0.21227841 0.05535508
vn -0.19268595 0.94983288 0.24635263
vn -0.19268595 0.94983289 0.24635261
vn -0.19268595 0.94983288 0.24635263
vn -0.19268595 0.94983289 0.24635261
vn -0.19268596 0.94983289 0.24635260
vn -0.19268594 0.94983289 0.24635261
vn -0.97564015 -0.21227841 0.05535505
vn -0.97564014 -0.21227841 0.05535508
vn -0.97564015 -0.21227841 0.05535505
vn -0.97564015 -0.21227841 0.05535505
vn -0.97564014 -0.21227841 0.05535508
vn -0.97564014 -0.21227841 0.05535509
vn -0.97564015 -0.21227841 0.05535505
vn -0.97564014 -0.21227841 0.05535508
vn -0.97564015 -0.21227840 0.05535506
vn -0.97564014 -0.21227841 0.05535508
vn -0.97564014 -0.21227841 0.05535508
vn -0.97564015 -0.21227841 0.05535505
vn -0.97564015 -0.21227841 0.05535505
vn -0.97564014 -0.21227841 0.05535508
vn -0.97564014 -0.21227841 0.05535508
vn -0.97564014 -0.21227841 0.05535508
vn -0.97564014 -0.21227841 0.05535509
vn 0.19268595 -0.94983288 -0.24635263
vn 0.19268594 -0.94983289 -0.24635260
vn 0.19268595 -0.94983289 -0.24635260
vn 0.19268595 -0.94983288 -0.24635263
vn 0.19268596 -0.94983289 -0.24635261
vn 0.19268594 -0.94983289 -0.24635263
vn 0.19268595 -0.94983288 -0.24635263
vn 0.19268595 -0.94983288 -0.24635263
vn 0.19268596 -0.94983289 -0.24635261
vn 0.19268595 -0.94983289 -0.24635260
vn 0.19268595 -0.94983288 -0.24635263
vn 0.19268597 -0.94983289 -0.24635261
vn 0.19268595 -0.94983288 -0.24635263
vn 0.19268595 -0.94983289 -0.24635261
vn -0.10487343 0.22968537 -0.96759816
vn -0.10487342 0.22968536 -0.96759816
vn -0.10487342 0.22968536 -0.96759816
vn -0.10487343 0.22968537 -0.96759816
vn -0.10487343 0.22968537 -0.96759816
vn -0.10487337 0.22968535 -0.96759817
vn -0.10487343 0.22968538 -0.96759816
vn -0.10487338 0.22968535 -0.96759817
vn -0.10487337 0.22968535 -0.96759817
vn -0.10487337 0.22968535 -0.96759817
vn -0.10487338 0.22968535 -0.96759817
vn -0.10487343 0.22968537 -0.96759816
vn -0.10487342 0.22968536 -0.96759816
vn -0.10487343 0.22968537 -0.96759816
vn 0.06209283 -0.50922121 -0.85839283
vn 0.06209283 -0.50922120 -0.85839283
vn 0.19268596 -0.94983289 -0.24635261
vn -0.10487342 0.22968536 -0.96759816
vn 0.06209283 -0.50922120 -0.85839283
vn 0.06209288 -0.50922123 -0.85839281
vn 0.19268595 -0.94983289 -0.24635261
vn -0.10487343 0.22968537 -0.96759816
vn 0.19268594 -0.94983289 -0.24635263
vn 0.19268595 -0.94983289 -0.24635260
vn 0.19268595 -0.94983289 -0.24635261
vn 0.19268594 -0.94983289 -0.24635263
vn 0.19268595 -0.94983289 -0.24635261
vn -0.10487343 0.22968537 -0.96759816
vn -0.10487338 0.22968535 -0.96759817
vn -0.10487337 0.22968535 -0.96759817
vn -0.10487343 0.22968537 -0.96759816
vn -0.10487342 0.22968535 -0.96759816
vn 0.19268595 -0.94983288 -0.24635263
vn 0.19268595 -0.94983289 -0.24635260
vn 0.19268595 -0.94983289 -0.24635260
vn 0.19268595 -0.94983288 -0.24635264
vn 0.19268596 -0.94983289 -0.24635261
vn 0.19268595 -0.94983289 -0.24635260
vn -0.10487342 0.22968536 -0.96759816
vn -0.10487338 0.22968535 -0.96759817
vn -0.10487343 0.22968537 -0.96759816
vn -0.10487343 0.22968537 -0.96759816
vn -0.10487342 0.22968536 -0.96759816
vn -0.10487342 0.22968536 -0.96759816
vn -0.55363223 -0.82173677 -0.13505568
vn -0.55363223 -0.82173677 -0.13505564
vn 0.19268594 -0.94983288 -0.24635263
vn -0.97564014 -0.21227841 0.05535508
vn -0.55363221 -0.82173678 -0.13505566
vn -0.55363221 -0.82173678 -0.13505567
vn 0.19268595 -0.94983289 -0.24635260
vn 0.19268595 -0.94983288 -0.24635263
vn 0.19268594 -0.94983289 -0.24635260
vn 0.19268595 -0.94983288 -0.24635264
vn 0.19268594 -0.94983289 -0.24635260
vn 0.19268596 -0.94983289 -0.24635261
vn -0.97564015 -0.21227841 0.05535505
vn -0.97564015 -0.21227841 0.05535506
vn -0.97564014 -0.21227841 0.05535508
vn -0.97564014 -0.21227841 0.05535508
vn 0.19268595 -0.94983288 -0.24635264
vn 0.19268594 -0.94983289 -0.24635263
vn 0.19268595 -0.94983288 -0.24635263
vn 0.19268597 -0.94983289 -0.24635261
vn 0.19268596 -0.94983288 -0.24635264
vn 0.19268594 -0.94983289 -0.24635260
vn -0.76403847 0.01230858 -0.64505327
vn -0.76403847 0.01230856 -0.64505326
vn -0.10487343 0.22968537 -0.96759816
vn -0.97564015 -0.21227841 0.05535505
vn -0.76403847 0.01230858 -0.64505327
vn -0.76403846 0.01230858 -0.64505328
vn -0.10487338 0.22968535 -0.96759817
vn -0.97564015 -0.21227841 0.05535505
vn -0.10487337 0.22968535 -0.96759817
vn -0.10487342 0.22968536 -0.96759816
vn -0.10487342 0.22968536 -0.96759816
vn -0.10487342 0.22968536 -0.96759816
vn -0.10487338 0.22968535 -0.96759817
vn -0.97564014 -0.21227841 0.05535508
vn -0.97564015 -0.21227841 0.05535506
vn -0.97564014 -0.21227841 0.05535508
vn -0.97564014 -0.21227841 0.05535508
vn -0.97564015 -0.21227841 0.05535506
vn -0.10487342 0.22968536 -0.96759816
vn -0.10487343 0.22968537 -0.96759816
vn -0.10487337 0.22968535 -0.96759817
vn -0.10487343 0.22968537 -0.96759816
vn -0.10487342 0.22968536 -0.96759816
vn -0.10487343 0.22968537 -0.96759816
vn -0.97564014 -0.21227841 0.05535508
vn -0.97564015 -0.21227841 0.05535505
vn -0.97564014 -0.21227841 0.05535508
vn -0.97564014 -0.21227841 0.05535508
vn -0.97564015 -0.21227841 0.05535505
vn -0.97564014 -0.21227841 0.05535509
f 2//2 121//121 101//101
f 121//121 35//35 123//123
f 101//101 123//123 28//28
f 121//121 123//123 101//101
f 35//35 122//122 131//131
f 122//122 12//12 128//128
f 131//131 128//128 37//37
f 122//122 128//128 131//131
f 28//28 129//129 102//102
f 129//129 37//37 127//127
f 102//102 127//127 9//9
f 129//129 127//127 102//102
f 35//35 131//131 123//123
f 131//131 37//37 129//129
f 123//123 129//129 28//28
f 131//131 129//129 123//123
f 12//12 125//125 133//133
f 125//125 36//36 136//136
f 133//133 136//136 38//38
f 125//125 136//136 133//133
f 36//36 124//124 126//126
f 124//124 4//4 111//111
f 126//126 111//111 32//32
f 124//124 111//111 126//126
f 38//38 134//134 132//132
f 134//134 32//32 112//112
f 132//132 112//112 11//11
f 134//134 112//112 132//132
f 36//36 126//126 136//136
f 126//126 32//32 134//134
f 136//136 134//134 38//38
f 126//126 134//134 136//136
f 9//9 113//113 100//100
f 113//113 33//33 115//115
f 100//100 115//115 27//27
f 113//113 115//115 100//100
f 33//33 114//114 116//116
f 114//114 11//11 108//108
f 116//116 108//108 31//31
f 114//114 108//108 116//116
f 27//27 109//109 99//99
f 109//109 31//31 107//107
f 99//99 107//107 1//1
f 109//109 107//107 99//99
f 33//33 116//116 115//115
f 116//116 31//31 109//109
f 115//115 109//109 27//27
f 116//116 109//109 115//115
f 12//12 133//133 128//128
f 133//133 38//38 137//137
f 128//128 137//137 37//37
f 133//133 137//137 128//128
f 38//38 132//132 135//135
f 132//132 11//11 114//114
f 135//135 114//114 33//33
f 132//132 114//114 135//135
f 37//37 130//130 127//127
f 130//130 33//33 113//113
f 127//127 113//113 9//9
f 130//130 113//113 127//127
f 38//38 135//135 137//137
f 135//135 33//33 130//130
f 137//137 130//130 37//37
f 135//135 130//130 137//137
f 5//5 172//172 159//159
f 172//172 48//48 174//174
f 159//159 174//174 44//44
f 172//172 174//174 159//159
f 48//48 173//173 184//184
f 173//173 15//15 181//181
f 184//184 181//181 50//50
f 173//173 181//181 184//184
f 44//44 182//182 160//160
f 182//182 50//50 180//180
f 160//160 180//180 14//14
f 182//182 180//180 160//160
f 48//48 184//184 174//174
f 184//184 50//50 182//182
f 174//174 182//182 44//44
f 184//184 182//182 174//174
f 15//15 170//170 176//176
f 170//170 47//47 179//179
f 176//176 179//179 49//49
f 170//170 179//179 176//176
f 47//47 169//169 171//171
f 169//169 2//2 101//101
f 171//171 101//101 28//28
f 169//169 101//101 171//171
f 49//49 177//177 175//175
f 177//177 28//28 102//102
f 175//175 102//102 9//9
f 177//177 102//102 175//175
f 47//47 171//171 179//179
f 171//171 28//28 177//177
f 179//179 177//177 49//49
f 171//171 177//177 179//179
f 14//14 162//162 156//156
f 162//162 45//45 164//164
f 156//156 164//164 43//43
f 162//162 164//164 156//156
f 45//45 161//161 163//163
f 161//161 9//9 100//100
f 163//163 100//100 27//27
f 161//161 100//100 163//163
f 43//43 157//157 155//155
f 157//157 27//27 99//99
f 155//155 99//99 1//1
f 157//157 99//99 155//155
f 45//45 163//163 164//164
f 163//163 27//27 157//157
f 164//164 157//157 43//43
f 163//163 157//157 164//164
f 15//15 176//176 181//181
f 176//176 49//49 185//185
f 181//181 185//185 50//50
f 176//176 185//185 181//181
f 49//49 175//175 178//178
f 175//175 9//9 161//161
f 178//178 161//161 45//45
f 175//175 161//161 178//178
f 50//50 183//183 180//180
f 183//183 45//45 162//162
f 180//180 162//162 14//14
f 183//183 162//162 180//180
f 49//49 178//178 185//185
f 178//178 45//45 183//183
f 185//185 183//183 50//50
f 178//178 183//183 185//185
f 1//1 107//107 103//103
f 107//107 31//31 110//110
f 103//103 110//110 29//29
f 107//107 110//110 103//103
f 31//31 108//108 120//120
f 108//108 11//11 118//118
f 120//120 118//118 34//34
f 108//108 118//118 120//120
f 29//29 119//119 104//104
f 119//119 34//34 117//117
f 104//104 117//117 10//10
f 119//119 117//117 104//104
f 31//31 120//120 110//110
f 120//120 34//34 119//119
f 110//110 119//119 29//29
f 120//120 119//119 110//110
f 11//11 112//112 149//149
f 112//112 32//32 151//151
f 149//149 151//151 42//42
f 112//112 151//151 149//149
f 32//32 111//111 143//143
f 111//111 4//4 141//141
f 143//143 141//141 40//40
f 111//111 141//141 143//143
f 42//42 153//153 150//150
f 153//153 40//40 142//142
f 150//150 142//142 13//13
f 153//153 142//142 150//150
f 32//32 143//143 151//151
f 143//143 40//40 153//153
f 151//151 153//153 42//42
f 143//143 153//153 151//151
f 10//10 144//144 106//106
f 144//144 41//41 146//146
f 106//106 146//146 30//30
f 144//144 146//146 106//106
f 41//41 145//145 148//148
f 145//145 13//13 139//139
f 148//148 139//139 39//39
f 145//145 139//139 148//148
f 30//30 140//140 105//105
f 140//140 39//39 138//138
f 105//105 138//138 3//3
f 140//140 138//138 105//105
f 41//41 148//148 146//146
f 148//148 39//39 140//140
f 146//146 140//140 30//30
f 148//148 140//140 146//146
f 11//11 149//149 118//118
f 149//149 42//42 152//152
f 118//118 152//152 34//34
f 149//149 152//152 118//118
f 42//42 150//150 154//154
f 150//150 13//13 145//145
f 154//154 145//145 41//41
f 150//150 145//145 154//154
f 34//34 147//147 117//117
f 147//147 41//41 144//144
f 117//117 144//144 10//10
f 147//147 144//144 117//117
f 42//42 154//154 152//152
f 154//154 41//41 147//147
f 152//152 147//147 34//34
f 154//154 147//147 152//152
f 3//3 186//186 105//105
f 186//186 51//51 188//188
f 105//105 188//188 30//30
f 186//186 188//188 105//105
f 51//51 187//187 196//196
f 187//187 16//16 193//193
f 196//196 193//193 53//53
f 187//187 193//193 196//196
f 30//30 194//194 106//106
f 194//194 53//53 192//192
f 106//106 192//192 10//10
f 194//194 192//192 106//106
f 51//51 196//196 188//188
f 196//196 53//53 194//194
f 188//188 194//194 30//30
f 196//196 194//194 188//188
f 16//16 190//190 198//198
f 190//190 52//52 201//201
f 198//198 201//201 54//54
f 190//190 201//201 198//198
f 52//52 189//189 191//191
f 189//189 5//5 159//159
f 191//191 159//159 44//44
f 189//189 159//159 191//191
f 54//54 199//199 197//197
f 199//199 44//44 160//160
f 197//197 160//160 14//14
f 199//199 160//160 197//197
f 52//52 191//191 201//201
f 191//191 44//44 199//199
f 201//201 199//199 54//54
f 191//191 199//199 201//201
f 10//10 165//165 104//104
f 165//165 46//46 167//167
f 104//104 167//167 29//29
f 165//165 167//167 104//104
f 46//46 166//166 168//168
f 166//166 14//14 156//156
f 168//168 156//156 43//43
f 166//166 156//156 168//168
f 29//29 158//158 103//103
f 158//158 43//43 155//155
f 103//103 155//155 1//1
f 158//158 155//155 103//103
f 46//46 168//168 167//167
f 168//168 43//43 158//158
f 167//167 158//158 29//29
f 168//168 158//158 167//167
f 16//16 198//198 193//193
f 198//198 54//54 202//202
f 193//193 202//202 53//53
f 198//198 202//202 193//193
f 54//54 197//197 200//200
f 197//197 14//14 166//166
f 200//200 166//166 46//46
f 197//197 166//166 200//200
f 53//53 195//195 192//192
f 195//195 46//46 165//165
f 192//192 165//165 10//10
f 195//195 165//165 192//192
f 54//54 200//200 202//202
f 200//200 46//46 195//195
f 202//202 195//195 53//53
f 200//200 195//195 202//202
f 2//2 277//277 121//121
f 277//277 74//74 279//279
f 121//121 279//279 35//35
f 277//277 279//279 121//121
f 74//74 278//278 286//286
f 278//278 22//22 284//284
f 286//286 284//284 76//76
f 278//278 284//284 286//286
f 35//35 285//285 122//122
f 285//285 76//76 283//283
f 122//122 283//283 12//12
f 285//285 283//283 122//122
f 74//74 286//286 279//279
f 286//286 76//76 285//285
f 279//279 285//285 35//35
f 286//286 285//285 279//279
f 22//22 282//282 323//323
f 282//282 75//75 325//325
f 323//323 325//325 86//86
f 282//282 325//325 323//323
f 75//75 281//281 311//311
f 281//281 8//8 309//309
f 311//311 309//309 83//83
f 281//281 309//309 311//311
f 86//86 327//327 324//324
f 327//327 83//83 310//310
f 324//324 310//310 24//24
f 327//327 310//310 324//324
f 75//75 311//311 325//325
f 311//311 83//83 327//327
f 325//325 327//327 86//86
f 311//311 327//327 325//325
f 12//12 313//313 125//125
f 313//313 84//84 315//315
f 125//125 315//315 36//36
f 313//313 315//315 125//125
f 84//84 314//314 317//317
f 314//314 24//24 306//306
f 317//317 306//306 82//82
f 314//314 306//306 317//317
f 36//36 307//307 124//124
f 307//307 82//82 305//305
f 124//124 305//305 4//4
f 307//307 305//305 124//124
f 84//84 317//317 315//315
f 317//317 82//82 307//307
f 315//315 307//307 36//36
f 317//317 307//307 315//315
f 22//22 323//323 284//284
f 323//323 86//86 326//326
f 284//284 326//326 76//76
f 323//323 326//326 284//284
f 86//86 324//324 328//328
f 324//324 24//24 314//314
f 328//328 314//314 84//84
f 324//324 314//314 328//328
f 76//76 316//316 283//283
f 316//316 84//84 313//313
f 283//283 313//313 12//12
f 316//316 313//313 283//283
f 86//86 328//328 326//326
f 328//328 84//84 316//316
f 326//326 316//316 76//76
f 328//328 316//316 326//326
f 6//6 206//206 215//215
f 206//206 56//56 217//217
f 215//215 217//217 59//59
f 206//206 217//217 215//215
f 56//56 207//207 225//225
f 207//207 17//17 223//223
f 225//225 223//223 61//61
f 207//207 223//223 225//225
f 59//59 227//227 216//216
f 227//227 61//61 224//224
f 216//216 224//224 18//18
f 227//227 224//224 216//216
f 56//56 225//225 217//217
f 225//225 61//61 227//227
f 217//217 227//227 59//59
f 225//225 227//227 217//217
f 17//17 204//204 209//209
f 204//204 55//55 211//211
f 209//209 211//211 57//57
f 204//204 211//211 209//209
f 55//55 203//203 205//205
f 203//203 2//2 169//169
f 205//205 169//169 47//47
f 203//203 169//169 205//205
f 57//57 210//210 208//208
f 210//210 47//47 170//170
f 208//208 170//170 15//15
f 210//210 170//170 208//208
f 55//55 205//205 211//211
f 205//205 47//47 210//210
f 211//211 210//210 57//57
f 205//205 210//210 211//211
f 18//18 219//219 213//213
f 219//219 60//60 222//222
f 213//213 222//222 58//58
f 219//219 222//222 213//213
f 60//60 218//218 220//220
f 218//218 15//15 173//173
f 220//220 173//173 48//48
f 218//218 173//173 220//220
f 58//58 214//214 212//212
f 214//214 48//48 172//172
f 212//212 172//172 5//5
f 214//214 172//172 212//212
f 60//60 220//220 222//222
f 220//220 48//48 214//214
f 222//222 214//214 58//58
f 220//220 214//214 222//222
f 17//17 209//209 223//223
f 209//209 57//57 226//226
f 223//223 226//226 61//61
f 209//209 226//226 223//223
f 57//57 208//208 221//221
f 208//208 15//15 218//218
f 221//221 218//218 60//60
f 208//208 218//218 221//221
f 61//61 228//228 224//224
f 228//228 60//60 219//219
f 224//224 219//219 18//18
f 228//228 219//219 224//224
f 57//57 221//221 226//226
f 221//221 60//60 228//228
f 226//226 228//228 61//61
f 221//221 228//228 226//226
f 6//6 335//335 206//206
f 335//335 88//88 337//337
f 206//206 337//337 56//56
f 335//335 337//337 206//206
f 88//88 336//336 346//346
f 336//336 25//25 343//343
f 346//346 343//343 90//90
f 336//336 343//343 346//346
f 56//56 344//344 207//207
f 344//344 90//90 342//342
f 207//207 342//342 17//17
f 344//344 342//342 207//207
f 88//88 346//346 337//337
f 346//346 90//90 344//344
f 337//337 344//344 56//56
f 346//346 344//344 337//337
f 25//25 340//340 352//352
f 340//340 89//89 355//355
f 352//352 355//355 92//92
f 340//340 355//355 352//352
f 89//89 339//339 341//341
f 339//339 8//8 281//281
f 341//341 281//281 75//75
f 339//339 281//281 341//341
f 92//92 353//353 351//351
f 353//353 75//75 282//282
f 351//351 282//282 22//22
f 353//353 282//282 351//351
f 89//89 341//341 355//355
f 341//341 75//75 353//353
f 355//355 353//353 92//92
f 341//341 353//353 355//355
f 17//17 287//287 204//204
f 287//287 77//77 289//289
f 204//204 289//289 55//55
f 287//287 289//289 204//204
f 77//77 288//288 290//290
f 288//288 22//22 278//278
f 290//290 278//278 74//74
f 288//288 278//278 290//290
f 55//55 280//280 203//203
f 280//280 74//74 277//277
f 203//203 277//277 2//2
f 280//280 277//277 203//203
f 77//77 290//290 289//289
f 290//290 74//74 280//280
f 289//289 280//280 55//55
f 290//290 280//280 289//289
f 25//25 352//352 343//343
f 352//352 92//92 356//356
f 343//343 356//356 90//90
f 352//352 356//356 343//343
f 92//92 351//351 354//354
f 351//351 22//22 288//288
f 354//354 288//288 77//77
f 351//351 288//288 354//354
f 90//90 345//345 342//342
f 345//345 77//77 287//287
f 342//342 287//287 17//17
f 345//345 287//287 342//342
f 92//92 354//354 356//356
f 354//354 77//77 345//345
f 356//356 345//345 90//90
f 354//354 345//345 356//356
f 4//4 305//305 141//141
f 305//305 82//82 308//308
f 141//141 308//308 40//40
f 305//305 308//308 141//141
f 82//82 306//306 322//322
f 306//306 24//24 319//319
f 322//322 319//319 85//85
f 306//306 319//319 322//322
f 40//40 320//320 142//142
f 320//320 85//85 318//318
f 142//142 318//318 13//13
f 320//320 318//318 142//142
f 82//82 322//322 308//308
f 322//322 85//85 320//320
f 308//308 320//320 40//40
f 322//322 320//320 308//308
f 24//24 310//310 330//330
f 310//310 83//83 333//333
f 330//330 333//333 87//87
f 310//310 333//333 330//330
f 83//83 309//309 312//312
f 309//309 8//8 295//295
f 312//312 295//295 79//79
f 309//309 295//295 312//312
f 87//87 331//331 329//329
f 331//331 79//79 296//296
f 329//329 296//296 23//23
f 331//331 296//296 329//329
f 83//83 312//312 333//333
f 312//312 79//79 331//331
f 333//333 331//331 87//87
f 312//312 331//331 333//333
f 13//13 297//297 139//139
f 297//297 80//80 299//299
f 139//139 299//299 39//39
f 297//297 299//299 139//139
f 80//80 298//298 300//300
f 298//298 23//23 292//292
f 300//300 292//292 78//78
f 298//298 292//292 300//300
f 39//39 293//293 138//138
f 293//293 78//78 291//291
f 138//138 291//291 3//3
f 293//293 291//291 138//138
f 80//80 300//300 299//299
f 300//300 78//78 293//293
f 299//299 293//293 39//39
f 300//300 293//293 299//299
f 24//24 330//330 319//319
f 330//330 87//87 334//334
f 319//319 334//334 85//85
f 330//330 334//334 319//319
f 87//87 329//329 332//332
f 329//329 23//23 298//298
f 332//332 298//298 80//80
f 329//329 298//298 332//332
f 85//85 321//321 318//318
f 321//321 80//80 297//297
f 318//318 297//297 13//13
f 321//321 297//297 318//318
f 87//87 332//332 334//334
f 332//332 80//80 321//321
f 334//334 321//321 85//85
f 332//332 321//321 334//334
f 7//7 242//242 232//232
f 242//242 66//66 244//244
f 232//232 244//244 63//63
f 242//242 244//244 232//232
f 66//66 243//243 258//258
f 243//243 20//20 255//255
f 258//258 255//255 69//69
f 243//243 255//255 258//258
f 63//63 256//256 233//233
f 256//256 69//69 254//254
f 233//233 254//254 19//19
f 256//256 254//254 233//233
f 66//66 258//258 244//244
f 258//258 69//69 256//256
f 244//244 256//256 63//63
f 258//258 256//256 244//244
f 20//20 239//239 246//246
f 239//239 65//65 249//249
f 246//246 249//249 67//67
f 239//239 249//249 246//246
f 65//65 238//238 240//240
f 238//238 5//5 189//189
f 240//240 189//189 52//52
f 238//238 189//189 240//240
f 67//67 247//247 245//245
f 247//247 52//52 190//190
f 245//245 190//190 16//16
f 247//247 190//190 245//245
f 65//65 240//240 249//249
f 240//240 52//52 247//247
f 249//249 247//247 67//67
f 240//240 247//247 249//249
f 19//19 235//235 230//230
f 235//235 64//64 237//237
f 230//230 237//237 62//62
f 235//235 237//237 230//230
f 64//64 234//234 236//236
f 234//234 16//16 187//187
f 236//236 187//187 51//51
f 234//234 187//187 236//236
f 62//62 231//231 229//229
f 231//231 51//51 186//186
f 229//229 186//186 3//3
f 231//231 186//186 229//229
f 64//64 236//236 237//237
f 236//236 51//51 231//231
f 237//237 231//231 62//62
f 236//236 231//231 237//237
f 20//20 246//246 255//255
f 246//246 67//67 259//259
f 255//255 259//259 69//69
f 246//246 259//259 255//255
f 67//67 245//245 248//248
f 245//245 16//16 234//234
f 248//248 234//234 64//64
f 245//245 234//234 248//248
f 69//69 257//257 254//254
f 257//257 64//64 235//235
f 254//254 235//235 19//19
f 257//257 235//235 254//254
f 67//67 248//248 259//259
f 248//248 64//64 257//257
f 259//259 257//257 69//69
f 248//248 257//257 259//259
f 3//3 291//291 229//229
f 291//291 78//78 294//294
f 229//229 294//294 62//62
f 291//291 294//294 229//229
f 78//78 292//292 304//304
f 292//292 23//23 302//302
f 304//304 302//302 81//81
f 292//292 302//302 304//304
f 62//62 303//303 230//230
f 303//303 81//81 301//301
f 230//230 301//301 19//19
f 303//303 301//301 230//230
f 78//78 304//304 294//294
f 304//304 81//81 303//303
f 294//294 303//303 62//62
f 304//304 303//303 294//294
f 23//23 296//296 375//375
f 296//296 79//79 377//377
f 375//375 377//377 97//97
f 296//296 377//377 375//375
f 79//79 295//295 363//363
f 295//295 8//8 361//361
f 363//363 361//361 94//94
f 295//295 361//361 363//363
f 97//97 379//379 376//376
f 379//379 94//94 362//362
f 376//376 362//362 26//26
f 379//379 362//362 376//376
f 79//79 363//363 377//377
f 363//363 94//94 379//379
f 377//377 379//379 97//97
f 363//363 379//379 377//377
f 19//19 365//365 233//233
f 365//365 95//95 367//367
f 233//233 367//367 63//63
f 365//365 367//367 233//233
f 95//95 366//366 369//369
f 366//366 26//26 358//358
f 369//369 358//358 93//93
f 366//366 358//358 369//369
f 63//63 359//359 232//232
f 359//359 93//93 357//357
f 232//232 357//357 7//7
f 359//359 357//357 232//232
f 95//95 369//369 367//367
f 369//369 93//93 359//359
f 367//367 359//359 63//63
f 369//369 359//359 367//367
f 23//23 375//375 302//302
f 375//375 97//97 378//378
f 302//302 378//378 81//81
f 375//375 378//378 302//302
f 97//97 376//376 380//380
f 376//376 26//26 366//366
f 380//380 366//366 95//95
f 376//376 366//366 380//380
f 81//81 368//368 301//301
f 368//368 95//95 365//365
f 301//301 365//365 19//19
f 368//368 365//365 301//301
f 97//97 380//380 378//378
f 380//380 95//95 368//368
f 378//378 368//368 81//81
f 380//380 368//368 378//378
f 7//7 263//263 242//242
f 263//263 71//71 265//265
f 242//242 265//265 66//66
f 263//263 265//265 242//242
f 71//71 264//264 275//275
f 264//264 21//21 272//272
f 275//275 272//272 73//73
f 264//264 272//272 275//275
f 66//66 273//273 243//243
f 273//273 73//73 271//271
f 243//243 271//271 20//20
f 273//273 271//271 243//243
f 71//71 275//275 265//265
f 275//275 73//73 273//273
f 265//265 273//273 66//66
f 275//275 273//273 265//265
f 21//21 261//261 267//267
f 261//261 70//70 270//270
f 267//267 270//270 72//72
f 261//261 270//270 267//267
f 70//70 260//260 262//262
f 260//260 6//6 215//215
f 262//262 215//215 59//59
f 260//260 215//215 262//262
f 72//72 268//268 266//266
f 268//268 59//59 216//216
f 266//266 216//216 18//18
f 268//268 216//216 266//266
f 70//70 262//262 270//270
f 262//262 59//59 268//268
f 270//270 268//268 72//72
f 262//262 268//268 270//270
f 20//20 251//251 239//239
f 251//251 68//68 253//253
f 239//239 253//253 65//65
f 251//251 253//253 239//239
f 68//68 250//250 252//252
f 250//250 18//18 213//213
f 252//252 213//213 58//58
f 250//250 213//213 252//252
f 65//65 241//241 238//238
f 241//241 58//58 212//212
f 238//238 212//212 5//5
f 241//241 212//212 238//238
f 68//68 252//252 253//253
f 252//252 58//58 241//241
f 253//253 241//241 65//65
f 252//252 241//241 253//253
f 21//21 267//267 272//272
f 267//267 72//72 276//276
f 272//272 276//276 73//73
f 267//267 276//276 272//272
f 72//72 266//266 269//269
f 266//266 18//18 250//250
f 269//269 250//250 68//68
f 266//266 250//250 269//269
f 73//73 274//274 271//271
f 274//274 68//68 251//251
f 271//271 251//251 20//20
f 274//274 251//251 271//271
f 72//72 269//269 276//276
f 269//269 68//68 274//274
f 276//276 274//274 73//73
f 269//269 274//274 276//276
f 8//8 339//339 361//361
f 339//339 89//89 364//364
f 361//361 364//364 94//94
f 339//339 364//364 361//361
f 89//89 340//340 383//383
f 340//340 25//25 381//381
f 383//383 381//381 98//98
f 340//340 381//381 383//383
f 94//94 385//385 362//362
f 385//385 98//98 382//382
f 362//362 382//382 26//26
f 385//385 382//382 362//362
f 89//89 383//383 364//364
f 383//383 98//98 385//385
f 364//364 385//385 94//94
f 383//383 385//385 364//364
f 25//25 336//336 348//348
f 336//336 88//88 350//350
f 348//348 350//350 91//91
f 336//336 350//350 348//348
f 88//88 335//335 338//338
f 335//335 6//6 260//260
f 338//338 260//260 70//70
f 335//335 260//260 338//338
f 91//91 349//349 347//347
f 349//349 70//70 261//261
f 347//347 261//261 21//21
f 349//349 261//261 347//347
f 88//88 338//338 350//350
f 338//338 70//70 349//349
f 350//350 349//349 91//91
f 338//338 349//349 350//350
f 26//26 371//371 358//358
f 371//371 96//96 374//374
f 358//358 374//374 93//93
f 371//371 374//374 358//358
f 96//96 370//370 372//372
f 370//370 21//21 264//264
f 372//372 264//264 71//71
f 370//370 264//264 372//372
f 93//93 360//360 357//357
f 360//360 71//71 263//263
f 357//357 263//263 7//7
f 360//360 263//263 357//357
f 96//96 372//372 374//374
f 372//372 71//71 360//360
f 374//374 360//360 93//93
f 372//372 360//360 374//374
f 25//25 348//348 381//381
f 348//348 91//91 384//384
f 381//381 384//384 98//98
f 348//348 384//384 381//381
f 91//91 347//347 373//373
f 347//347 21//21 370//370
f 373//373 370//370 96//96
f 347//347 370//370 373//373
f 98//98 386//386 382//382
f 386//386 96//96 371//371
f 382//382 371//371 26//26
f 386//386 371//371 382//382
f 91//91 373//373 384//384
f 373//373 96//96 386//386
f 384//384 386//386 98//98
f 373//373 386//386 384//384

