# https://github.com/mikedh/trimesh
v 0.94123897 -1.56883347 0.01498165
v -0.24316004 -0.53578152 1.73239864
v -0.60814514 -0.69346676 -1.58008133
v -1.79254414 0.33958518 0.13733565
v 1.79254414 -0.33958518 -0.13733565
v 0.60814514 0.69346676 1.58008133
v 0.24316004 0.53578152 -1.73239864
v -0.94123896 1.56883347 -0.01498165
v -1.20034464 -0.17694079 -0.72137284
v 1.20034464 0.17694079 0.72137284
v -0.18249255 -0.07884262 -1.65623999
v 1.01785209 0.09809817 -0.93486714
v 0.42565259 0.61462414 -0.07615865
v -0.16654691 1.13115011 0.78254984
v -0.34903946 1.05230749 -0.87369015
v -0.90424489 -0.43520378 -1.15072709
v -1.49644439 0.08132220 -0.29201860
v 1.49644439 -0.08132220 0.29201860
v 0.90424489 0.43520378 1.15072709
v -0.39531884 -0.38615469 -1.61816066
v 0.03033375 0.22846945 -1.69431931
v 0.20485348 -0.29768430 -1.25747424
v 1.40519812 -0.12074351 -0.53610140
v 0.63050607 0.31693984 -1.33363289
v 1.10909837 0.13751948 -0.10674715
v 0.51689886 0.65404545 0.75196134
v 0.33440632 0.57520283 -0.90427864
v 0.81299861 0.39578246 0.32260710
v 0.72175234 0.35636115 -0.50551290
v -0.69141859 -0.12789171 -1.18880641
v -1.15406526 1.26152140 0.02309767
v 0.22079911 0.91230844 1.18131559
v -0.55389294 1.34999179 0.38378409
v 0.12955284 0.87288713 0.35319559
v -0.05293971 0.79404451 -1.30304439
v -0.64513921 1.31057048 -0.44433590
v -0.26576600 0.48673244 -1.26496507
v 0.03830656 0.83346582 -0.47492440
v -0.56186576 0.74499542 -0.83561082
v -0.25779319 1.09172880 -0.04557015
vn 0.34103648 -0.93987894 0.01793609
vn -0.24643536 -0.42747651 0.86978931
vn -0.40759692 -0.51691813 -0.75276849
vn -0.99506875 -0.00451571 0.09908474
vn 0.99506875 0.00451571 -0.09908473
vn 0.40759692 0.51691813 0.75276849
vn 0.24643535 0.42747651 -0.86978931
vn -0.34103647 0.93987894 -0.01793608
vn -0.56640857 -0.81786975 0.10134301
vn 0.85895379 0.31931172 0.40029791
vn -0.09869089 -0.05477158 -0.99360967
vn 0.76026290 0.26454013 -0.59331176
vn 0.56640857 0.81786975 -0.10134300
vn 0.04075977 0.89210237 0.44999111
vn -0.05793112 0.83733079 -0.54361856
vn -0.85895379 -0.31931170 -0.40029792
vn -0.56640857 -0.81786975 0.10134300
vn 0.85895379 0.31931170 0.40029791
vn 0.85895379 0.31931172 0.40029791
vn -0.09869090 -0.05477160 -0.99360967
vn -0.09869088 -0.05477159 -0.99360967
vn 0.72606494 0.68161522 0.09072152
vn 0.76026290 0.26454012 -0.59331177
vn 0.76026290 0.26454012 -0.59331176
vn 0.56640856 0.81786976 -0.10134300
vn 0.56640857 0.81786975 -0.10134301
vn 0.56640857 0.81786975 -0.10134300
vn 0.56640856 0.81786976 -0.10134301
vn 0.56640856 0.81786975 -0.10134300
vn -0.47350064 -0.88048608 -0.02326803
vn -0.50876554 0.44375352 0.73772654
vn 0.04075977 0.89210237 0.44999111
vn 0.04075979 0.89210237 0.44999111
vn 0.56640856 0.81786975 -0.10134301
vn -0.05793111 0.83733079 -0.54361856
vn -0.05793111 0.83733079 -0.54361856
vn -0.64833553 0.36629480 -0.66744974
vn 0.56640856 0.81786976 -0.10134300
vn -0.64833553 0.36629480 -0.66744974
vn 0.56640856 0.81786975 -0.10134301
f 5//5 2//2 1//1
f 2//2 4//4 17//17
f 2//2 17//17 9//9
f 2//2 9//9 16//16
f 1//1 16//16 3//3
f 2//2 16//16 1//1
f 2//2 8//8 31//31
f 2//2 31//31 4//4
f 6//6 2//2 19//19
f 19//19 2//2 10//10
f 10//10 2//2 18//18
f 18//18 2//2 5//5
f 6//6 32//32 2//2
f 32//32 14//14 2//2
f 14//14 33//33 2//2
f 33//33 8//8 2//2
f 17//17 4//4 9//9
f 16//16 30//30 3//3
f 4//4 30//30 16//16
f 7//7 24//24 21//21
f 24//24 12//12 1//1
f 21//21 1//1 11//11
f 24//24 1//1 21//21
f 12//12 23//23 1//1
f 23//23 5//5 1//1
f 11//11 22//22 20//20
f 20//20 1//1 3//3
f 22//22 1//1 20//20
f 1//1 22//22 11//11
f 3//3 30//30 20//20
f 20//20 4//4 11//11
f 30//30 4//4 20//20
f 4//4 8//8 36//36
f 39//39 36//36 15//15
f 4//4 36//36 39//39
f 11//11 37//37 21//21
f 37//37 15//15 35//35
f 21//21 35//35 7//7
f 37//37 35//35 21//21
f 39//39 15//15 37//37
f 4//4 37//37 11//11
f 39//39 37//37 4//4
f 7//7 27//27 24//24
f 27//27 13//13 29//29
f 24//24 29//29 12//12
f 27//27 29//29 24//24
f 13//13 26//26 28//28
f 26//26 6//6 19//19
f 28//28 19//19 10//10
f 26//26 19//19 28//28
f 12//12 25//25 23//23
f 25//25 10//10 18//18
f 23//23 18//18 5//5
f 25//25 18//18 23//23
f 13//13 28//28 29//29
f 28//28 10//10 25//25
f 29//29 25//25 12//12
f 28//28 25//25 29//29
f 8//8 33//33 36//36
f 33//33 14//14 40//40
f 36//36 40//40 15//15
f 33//33 40//40 36//36
f 14//14 32//32 34//34
f 32//32 6//6 26//26
f 34//34 26//26 13//13
f 32//32 26//26 34//34
f 15//15 38//38 35//35
f 38//38 13//13 27//27
f 35//35 27//27 7//7
f 38//38 27//27 35//35
f 14//14 34//34 40//40
f 34//34 13//13 38//38
f 40//40 38//38 15//15
f 34//34 38//38 40//40

