# https://github.com/mikedh/trimesh

o box_simple_0001.obj
v 0.94123896 -1.56883347 0.01498165
v -0.24316004 -0.53578152 1.73239864
v -0.60814514 -0.69346676 -1.58008133
v -1.79254414 0.33958518 0.13733565
v 1.79254414 -0.33958518 -0.13733565
v 0.60814514 0.69346676 1.58008133
v 0.24316004 0.53578152 -1.73239864
v -0.94123896 1.56883347 -0.01498165
v 0.34903946 -1.05230749 0.87369015
v 0.16654691 -1.13115011 -0.78254984
v -0.42565259 -0.61462414 0.07615865
v -1.01785209 -0.09809817 0.93486714
v -1.20034464 -0.17694079 -0.72137284
v 1.36689155 -0.95420933 -0.06117700
v 0.77469205 -0.43768335 0.79753149
v 0.59219950 -0.51652597 -0.85870849
v 0.18249255 0.07884262 1.65623999
v 1.20034464 0.17694079 0.72137284
v -0.18249255 -0.07884262 -1.65623999
v 1.01785209 0.09809817 -0.93486714
v 0.42565259 0.61462414 -0.07615865
v -0.59219950 0.51652597 0.85870849
v -0.77469205 0.43768335 -0.79753149
v -1.36689155 0.95420933 0.06117700
v -0.16654691 1.13115011 0.78254984
v -0.34903946 1.05230749 -0.87369015
v 0.64513921 -1.31057048 0.44433590
v 0.05293971 -0.79404451 1.30304439
v 0.55389294 -1.34999179 -0.38378409
v -0.22079911 -0.91230844 -1.18131559
v 0.25779319 -1.09172880 0.04557015
v -1.10909837 -0.13751948 0.10674715
v -0.03830656 -0.83346582 0.47492440
v -0.12955284 -0.87288713 -0.35319559
v -0.63050607 -0.31693984 1.33363289
v -1.40519812 0.12074351 0.53610140
v -0.33440632 -0.57520283 0.90427864
v -0.72175234 -0.35636115 0.50551290
v -0.90424489 -0.43520378 -1.15072709
v -1.49644439 0.08132220 -0.29201860
v -0.51689886 -0.65404545 -0.75196134
v -0.81299861 -0.39578246 -0.32260710
v 1.15406526 -1.26152140 -0.02309767
v 1.57971785 -0.64689726 -0.09925632
v 0.85796551 -1.00325841 0.40625657
v 0.76671923 -1.04267972 -0.42186342
v 0.26576600 -0.48673244 1.26496507
v 1.28361810 -0.38863427 0.33009792
v 0.56186576 -0.74499542 0.83561082
v 1.07079180 -0.69594634 0.36817725
v -0.00797282 -0.60499637 -1.21939491
v 1.19237182 -0.42805558 -0.49802207
v 0.37937321 -0.82383804 -0.82062917
v 0.97954553 -0.73536765 -0.45994274
v -0.03033375 -0.22846945 1.69431931
v 0.39531884 0.38615469 1.61816066
v 0.47859230 -0.17942037 1.22688574
v 1.49644439 -0.08132220 0.29201860
v 0.90424489 0.43520378 1.15072709
v 0.98751835 -0.13037128 0.75945217
v 0.69141859 0.12789171 1.18880641
v -0.39531884 -0.38615469 -1.61816066
v 0.03033375 0.22846945 -1.69431931
v 0.20485348 -0.29768430 -1.25747424
v 1.40519812 -0.12074351 -0.53610140
v 0.63050607 0.31693984 -1.33363289
v 0.80502580 -0.20921390 -0.89678782
v 1.10909837 0.13751948 -0.10674715
v 0.41767977 0.00962777 -1.29555356
v 0.51689886 0.65404545 0.75196134
v 0.33440632 0.57520283 -0.90427864
v 0.81299861 0.39578246 0.32260710
v 0.72175234 0.35636115 -0.50551290
v -0.41767977 -0.00962777 1.29555356
v -0.76671923 1.04267972 0.42186342
v -0.80502580 0.20921390 0.89678782
v -0.20485348 0.29768430 1.25747424
v -0.69141859 -0.12789171 -1.18880641
v -0.85796551 1.00325841 -0.40625657
v -0.98751835 0.13037128 -0.75945217
v -0.47859230 0.17942037 -1.22688574
v -1.57971785 0.64689726 0.09925632
v -1.15406526 1.26152140 0.02309767
v -1.19237182 0.42805558 0.49802207
v -1.28361810 0.38863427 -0.33009792
v -0.97954553 0.73536765 0.45994274
v -1.07079180 0.69594634 -0.36817725
v 0.22079911 0.91230844 1.18131559
v -0.55389294 1.34999179 0.38378409
v 0.00797282 0.60499637 1.21939491
v 0.12955284 0.87288713 0.35319559
v -0.37937321 0.82383804 0.82062917
v -0.05293971 0.79404451 -1.30304439
v -0.64513921 1.31057048 -0.44433590
v -0.26576600 0.48673244 -1.26496507
v 0.03830656 0.83346582 -0.47492440
v -0.56186576 0.74499542 -0.83561082
v -0.25779319 1.09172880 -0.04557015
vn 0.34103647 -0.93987894 0.01793607
vn -0.24643536 -0.42747650 0.86978932
vn -0.40759692 -0.51691813 -0.75276849
vn -0.99506875 -0.00451572 0.09908474
vn 0.99506875 0.00451572 -0.09908474
vn 0.40759692 0.51691813 0.75276848
vn 0.24643535 0.42747651 -0.86978931
vn -0.34103647 0.93987894 -0.01793608
vn 0.05793112 -0.83733078 0.54361856
vn -0.04075978 -0.89210237 -0.44999110
vn -0.56640857 -0.81786975 0.10134301
vn -0.76026290 -0.26454013 0.59331175
vn -0.85895379 -0.31931172 -0.40029790
vn 0.81819401 -0.57279066 -0.04969321
vn 0.64833553 -0.36629480 0.66744974
vn 0.50876554 -0.44375352 -0.73772653
vn 0.09869090 0.05477158 0.99360967
vn 0.85895379 0.31931172 0.40029791
vn -0.09869089 -0.05477158 -0.99360967
vn 0.76026289 0.26454014 -0.59331176
vn 0.56640857 0.81786975 -0.10134300
vn -0.50876554 0.44375352 0.73772653
vn -0.64833553 0.36629480 -0.66744974
vn -0.81819401 0.57279066 0.04969321
vn 0.04075978 0.89210237 0.44999111
vn -0.05793112 0.83733079 -0.54361856
vn 0.05793111 -0.83733079 0.54361856
vn 0.05793111 -0.83733079 0.54361856
vn -0.04075978 -0.89210237 -0.44999111
vn -0.04075977 -0.89210237 -0.44999112
vn -0.56640857 -0.81786975 0.10134301
vn -0.56640856 -0.81786975 0.10134300
vn -0.56640857 -0.81786975 0.10134300
vn -0.56640857 -0.81786975 0.10134301
vn -0.76026290 -0.26454012 0.59331177
vn -0.76026289 -0.26454012 0.59331177
vn -0.56640857 -0.81786975 0.10134300
vn -0.56640856 -0.81786975 0.10134301
vn -0.85895379 -0.31931171 -0.40029791
vn -0.85895379 -0.31931171 -0.40029792
vn -0.56640857 -0.81786975 0.10134301
vn -0.56640857 -0.81786975 0.10134300
vn 0.81819401 -0.57279066 -0.04969319
vn 0.81819402 -0.57279065 -0.04969319
vn 0.64833553 -0.36629480 0.66744974
vn 0.50876554 -0.44375352 -0.73772654
vn 0.64833553 -0.36629480 0.66744974
vn 0.64833553 -0.36629480 0.66744974
vn 0.64833554 -0.36629480 0.66744974
vn 0.64833553 -0.36629480 0.66744974
vn 0.50876554 -0.44375352 -0.73772654
vn 0.50876553 -0.44375353 -0.73772653
vn 0.50876554 -0.44375352 -0.73772654
vn 0.50876554 -0.44375352 -0.73772654
vn 0.09869088 0.05477159 0.99360967
vn 0.09869089 0.05477159 0.99360967
vn 0.64833554 -0.36629480 0.66744974
vn 0.85895379 0.31931170 0.40029791
vn 0.85895379 0.31931171 0.40029791
vn 0.64833553 -0.36629480 0.66744974
vn 0.64833554 -0.36629480 0.66744974
vn -0.09869090 -0.05477160 -0.99360967
vn -0.09869088 -0.05477159 -0.99360967
vn 0.50876554 -0.44375352 -0.73772653
vn 0.76026290 0.26454011 -0.59331176
vn 0.76026290 0.26454011 -0.59331176
vn 0.50876554 -0.44375352 -0.73772654
vn 0.56640856 0.81786976 -0.10134300
vn 0.50876554 -0.44375352 -0.73772654
vn 0.56640857 0.81786975 -0.10134301
vn 0.56640857 0.81786975 -0.10134300
vn 0.56640856 0.81786976 -0.10134301
vn 0.56640856 0.81786975 -0.10134300
vn -0.50876554 0.44375352 0.73772653
vn -0.50876554 0.44375352 0.73772654
vn -0.50876554 0.44375352 0.73772653
vn -0.50876554 0.44375352 0.73772653
vn -0.64833553 0.36629480 -0.66744974
vn -0.64833553 0.36629480 -0.66744974
vn -0.64833553 0.36629480 -0.66744974
vn -0.64833554 0.36629479 -0.66744973
vn -0.81819401 0.57279066 0.04969319
vn -0.81819401 0.57279066 0.04969319
vn -0.50876553 0.44375352 0.73772654
vn -0.64833553 0.36629480 -0.66744974
vn -0.50876553 0.44375352 0.73772654
vn -0.64833553 0.36629480 -0.66744974
vn 0.04075977 0.89210237 0.44999111
vn 0.04075978 0.89210237 0.44999111
vn -0.50876554 0.44375352 0.73772653
vn 0.56640856 0.81786975 -0.10134301
vn -0.50876554 0.44375352 0.73772653
vn -0.05793111 0.83733079 -0.54361856
vn -0.05793111 0.83733079 -0.54361856
vn -0.64833553 0.36629480 -0.66744974
vn 0.56640856 0.81786976 -0.10134300
vn -0.64833554 0.36629480 -0.66744974
vn 0.56640856 0.81786975 -0.10134301
f 2//2 35//35 28//28
f 35//35 12//12 37//37
f 28//28 37//37 9//9
f 35//35 37//37 28//28
f 12//12 36//36 38//38
f 36//36 4//4 32//32
f 38//38 32//32 11//11
f 36//36 32//32 38//38
f 9//9 33//33 27//27
f 33//33 11//11 31//31
f 27//27 31//31 1//1
f 33//33 31//31 27//27
f 12//12 38//38 37//37
f 38//38 11//11 33//33
f 37//37 33//33 9//9
f 38//38 33//33 37//37
f 5//5 48//48 44//44
f 48//48 15//15 50//50
f 44//44 50//50 14//14
f 48//48 50//50 44//44
f 15//15 47//47 49//49
f 47//47 2//2 28//28
f 49//49 28//28 9//9
f 47//47 28//28 49//49
f 14//14 45//45 43//43
f 45//45 9//9 27//27
f 43//43 27//27 1//1
f 45//45 27//27 43//43
f 15//15 49//49 50//50
f 49//49 9//9 45//45
f 50//50 45//45 14//14
f 49//49 45//45 50//50
f 1//1 31//31 29//29
f 31//31 11//11 34//34
f 29//29 34//34 10//10
f 31//31 34//34 29//29
f 11//11 32//32 42//42
f 32//32 4//4 40//40
f 42//42 40//40 13//13
f 32//32 40//40 42//42
f 10//10 41//41 30//30
f 41//41 13//13 39//39
f 30//30 39//39 3//3
f 41//41 39//39 30//30
f 11//11 42//42 34//34
f 42//42 13//13 41//41
f 34//34 41//41 10//10
f 42//42 41//41 34//34
f 3//3 51//51 30//30
f 51//51 16//16 53//53
f 30//30 53//53 10//10
f 51//51 53//53 30//30
f 16//16 52//52 54//54
f 52//52 5//5 44//44
f 54//54 44//44 14//14
f 52//52 44//44 54//54
f 10//10 46//46 29//29
f 46//46 14//14 43//43
f 29//29 43//43 1//1
f 46//46 43//43 29//29
f 16//16 54//54 53//53
f 54//54 14//14 46//46
f 53//53 46//46 10//10
f 54//54 46//46 53//53
f 2//2 74//74 35//35
f 74//74 22//22 76//76
f 35//35 76//76 12//12
f 74//74 76//76 35//35
f 22//22 75//75 86//86
f 75//75 8//8 83//83
f 86//86 83//83 24//24
f 75//75 83//83 86//86
f 12//12 84//84 36//36
f 84//84 24//24 82//82
f 36//36 82//82 4//4
f 84//84 82//82 36//36
f 22//22 86//86 76//76
f 86//86 24//24 84//84
f 76//76 84//84 12//12
f 86//86 84//84 76//76
f 6//6 56//56 59//59
f 56//56 17//17 61//61
f 59//59 61//61 18//18
f 56//56 61//61 59//59
f 17//17 55//55 57//57
f 55//55 2//2 47//47
f 57//57 47//47 15//15
f 55//55 47//47 57//57
f 18//18 60//60 58//58
f 60//60 15//15 48//48
f 58//58 48//48 5//5
f 60//60 48//48 58//58
f 17//17 57//57 61//61
f 57//57 15//15 60//60
f 61//61 60//60 18//18
f 57//57 60//60 61//61
f 6//6 88//88 56//56
f 88//88 25//25 90//90
f 56//56 90//90 17//17
f 88//88 90//90 56//56
f 25//25 89//89 92//92
f 89//89 8//8 75//75
f 92//92 75//75 22//22
f 89//89 75//75 92//92
f 17//17 77//77 55//55
f 77//77 22//22 74//74
f 55//55 74//74 2//2
f 77//77 74//74 55//55
f 25//25 92//92 90//90
f 92//92 22//22 77//77
f 90//90 77//77 17//17
f 92//92 77//77 90//90
f 4//4 82//82 40//40
f 82//82 24//24 85//85
f 40//40 85//85 13//13
f 82//82 85//85 40//40
f 24//24 83//83 87//87
f 83//83 8//8 79//79
f 87//87 79//79 23//23
f 83//83 79//79 87//87
f 13//13 80//80 39//39
f 80//80 23//23 78//78
f 39//39 78//78 3//3
f 80//80 78//78 39//39
f 24//24 87//87 85//85
f 87//87 23//23 80//80
f 85//85 80//80 13//13
f 87//87 80//80 85//85
f 7//7 66//66 63//63
f 66//66 20//20 69//69
f 63//63 69//69 19//19
f 66//66 69//69 63//63
f 20//20 65//65 67//67
f 65//65 5//5 52//52
f 67//67 52//52 16//16
f 65//65 52//52 67//67
f 19//19 64//64 62//62
f 64//64 16//16 51//51
f 62//62 51//51 3//3
f 64//64 51//51 62//62
f 20//20 67//67 69//69
f 67//67 16//16 64//64
f 69//69 64//64 19//19
f 67//67 64//64 69//69
f 3//3 78//78 62//62
f 78//78 23//23 81//81
f 62//62 81//81 19//19
f 78//78 81//81 62//62
f 23//23 79//79 97//97
f 79//79 8//8 94//94
f 97//97 94//94 26//26
f 79//79 94//94 97//97
f 19//19 95//95 63//63
f 95//95 26//26 93//93
f 63//63 93//93 7//7
f 95//95 93//93 63//63
f 23//23 97//97 81//81
f 97//97 26//26 95//95
f 81//81 95//95 19//19
f 97//97 95//95 81//81
f 7//7 71//71 66//66
f 71//71 21//21 73//73
f 66//66 73//73 20//20
f 71//71 73//73 66//66
f 21//21 70//70 72//72
f 70//70 6//6 59//59
f 72//72 59//59 18//18
f 70//70 59//59 72//72
f 20//20 68//68 65//65
f 68//68 18//18 58//58
f 65//65 58//58 5//5
f 68//68 58//58 65//65
f 21//21 72//72 73//73
f 72//72 18//18 68//68
f 73//73 68//68 20//20
f 72//72 68//68 73//73
f 8//8 89//89 94//94
f 89//89 25//25 98//98
f 94//94 98//98 26//26
f 89//89 98//98 94//94
f 25//25 88//88 91//91
f 88//88 6//6 70//70
f 91//91 70//70 21//21
f 88//88 70//70 91//91
f 26//26 96//96 93//93
f 96//96 21//21 71//71
f 93//93 71//71 7//7
f 96//96 71//71 93//93
f 25//25 91//91 98//98
f 91//91 21//21 96//96
f 98//98 96//96 26//26
f 91//91 96//96 98//98

