# https://github.com/mikedh/trimesh
v 0.25334364 0.68688777 0.81634969
v 0.56346116 -0.84181643 0.41985859
v 0.11518354 0.98947499 -0.45836298
v 0.42530106 -0.53922921 -0.85485408
v -0.42530106 0.53922921 0.85485408
v -0.11518354 -0.98947498 0.45836298
v -0.25334364 -0.68688777 -0.81634969
v 0.40840240 -0.07746433 0.61810414
v 0.18426359 0.83818138 0.17899335
v 0.33932235 0.07382928 -0.01925219
v 0.49438111 -0.69052282 -0.21749774
v 0.27024230 0.22512289 -0.65660853
v -0.08597871 0.61305849 0.83560188
v -0.56346116 0.84181642 -0.41985859
v -0.22413881 0.91564571 -0.43911079
v -0.06908005 0.15129361 -0.63735634
v 0.08597871 -0.61305849 -0.83560188
v -0.40840240 0.07746433 -0.61810414
v 0.33087302 0.30471172 0.71722692
v 0.48593178 -0.45964038 0.51898137
v 0.21880362 0.76253457 0.49767152
v 0.14972356 0.91382818 -0.13968481
v 0.29633300 0.38035852 0.39854875
v 0.38231170 -0.23269996 -0.43705314
v 0.37386238 -0.00181753 0.29942597
v 0.26179297 0.45600533 0.07987058
v 0.52892114 -0.76616962 0.10118043
v 0.45984108 -0.61487601 -0.53617591
v 0.45139176 -0.38399357 0.20030320
v 0.41685173 -0.30834677 -0.11837497
v 0.19271292 0.60729894 -0.55748576
v 0.34777168 -0.15705316 -0.75573130
v 0.22725294 0.53165213 -0.23880759
v 0.30478232 0.14947608 -0.33793036
v 0.08368247 0.64997313 0.82597579
v -0.25563988 0.57614385 0.84522798
v -0.18959879 0.83999890 -0.12043262
v 0.02305174 0.57038430 -0.54785966
v -0.16121185 -0.26779708 -0.72685301
v 0.10058112 0.18820825 -0.64698243
v -0.14660943 0.53346966 -0.53823356
v 0.25563988 -0.57614385 -0.84522798
v -0.08368247 -0.64997313 -0.82597579
v 0.17811050 -0.19396780 -0.74610521
v 0.00844933 -0.23088244 -0.73647911
v -0.33087302 -0.30471172 -0.71722692
v -0.23874123 0.11437897 -0.62773024
v 0.29210833 0.49579974 0.76678830
v 0.36963771 0.11362369 0.66766553
v 0.52469647 -0.65072840 0.46941998
v 0.44716709 -0.26855235 0.56854275
v 0.23607363 0.72471117 0.65701061
v 0.20153360 0.80035797 0.33833244
v 0.13245355 0.95165158 -0.29902390
v 0.16699358 0.87600478 0.01965427
v 0.27483832 0.53362314 0.60744922
v 0.31782767 0.22709390 0.18964828
v 0.31360301 0.34253512 0.55788783
v 0.25756831 0.57144655 0.44811013
v 0.40380638 -0.38596458 -0.64595361
v 0.36081703 -0.07943534 -0.22815267
v 0.39113239 -0.03964093 0.45876506
v 0.35659236 0.03600588 0.14008689
v 0.35236770 0.15144710 0.50832644
v 0.33509769 0.18927050 0.34898736
v 0.22302828 0.64709335 0.12943197
v 0.30055766 0.26491730 0.03030919
v 0.24029829 0.60926995 0.28877105
v 0.27906298 0.41818193 0.23920966
v 0.54619115 -0.80399302 0.26051951
v 0.51165112 -0.72834622 -0.05815866
v 0.50742646 -0.61290500 0.31008090
v 0.44257107 -0.57705261 -0.69551499
v 0.47711110 -0.65269941 -0.37683683
v 0.42107639 -0.42378799 -0.48661452
v 0.42989708 -0.23072895 0.40920367
v 0.47288643 -0.53725820 -0.00859727
v 0.46866177 -0.42181698 0.35964228
v 0.41262707 -0.19290555 0.24986459
v 0.49015645 -0.57508160 0.15074181
v 0.37808704 -0.11725874 -0.06881358
v 0.45561642 -0.49943479 -0.16793636
v 0.39958172 -0.27052337 -0.27771405
v 0.39535705 -0.15508215 0.09052550
v 0.43834641 -0.46161139 -0.32727544
v 0.43412174 -0.34617017 0.04096412
v 0.15394823 0.79838696 -0.50792437
v 0.23147761 0.41621091 -0.60704714
v 0.17121824 0.76056356 -0.34858529
v 0.38653637 -0.34814118 -0.80529269
v 0.30900699 0.03403487 -0.70616992
v 0.36504169 -0.19487656 -0.59639222
v 0.20575827 0.68491675 -0.02990712
v 0.24874762 0.37838751 -0.44770806
v 0.18848825 0.72274016 -0.18924620
v 0.24452296 0.49382873 -0.07946850
v 0.20998293 0.56947554 -0.39814667
v 0.32205234 0.11165268 -0.17859128
v 0.28751231 0.18729949 -0.49726945
v 0.34354701 -0.04161194 -0.38749175
v 0.28328765 0.30274071 -0.12902989
v 0.32627700 -0.00378854 -0.54683083
v 0.26601763 0.34056411 -0.28836898
v 0.16851306 0.66843045 0.82116274
v -0.00114812 0.63151581 0.83078883
v -0.34047047 0.55768653 0.85004103
v -0.17080929 0.59460117 0.84041493
v 0.04762296 0.93319426 -0.29421085
v -0.27290989 0.61396725 0.68588890
v -0.10324872 0.65088189 0.67626280
v 0.03035295 0.97101767 -0.45354993
v -0.13930823 0.93410303 -0.44392384
v -0.03720763 0.91473694 -0.28939780
v -0.10476820 0.85845622 -0.12524567
v -0.44257107 0.57705261 0.69551499
v -0.02301416 0.36083895 -0.59260800
v 0.10788233 0.58884162 -0.55267271
v -0.20727775 -0.47734242 -0.77160135
v -0.11514595 -0.05825173 -0.68210467
v 0.18541171 0.20666557 -0.65179548
v 0.01575053 0.16975093 -0.64216938
v 0.14664702 0.39775359 -0.60223409
v 0.06181643 0.37929627 -0.59742105
v -0.18537412 0.72455768 -0.48867217
v -0.10784474 0.34238163 -0.58779495
v -0.10054354 0.74301500 -0.49348522
v -0.06177885 0.55192698 -0.54304661
v 0.34047047 -0.55768653 -0.85004103
v 0.17080929 -0.59460117 -0.84041493
v 0.30170578 -0.36659850 -0.80047964
v -0.16851306 -0.66843045 -0.82116274
v 0.00114812 -0.63151581 -0.83078883
v -0.12244716 -0.45888510 -0.77641440
v 0.22417640 0.01557755 -0.70135687
v 0.13204460 -0.40351314 -0.79085354
v 0.26294109 -0.17551048 -0.75091826
v 0.13934581 -0.00287977 -0.69654382
v 0.21687519 -0.38505582 -0.79566659
v -0.03031536 -0.03979441 -0.68691772
v 0.04721402 -0.42197046 -0.78604050
v -0.07638126 -0.24933976 -0.73166606
v 0.05451522 -0.02133709 -0.69173077
v -0.03761657 -0.44042778 -0.78122745
v 0.09327991 -0.21242512 -0.74129216
v -0.29210833 -0.49579974 -0.76678830
v -0.24604244 -0.28625440 -0.72203996
v -0.27020471 0.70610036 -0.48385913
v -0.23144002 0.51501234 -0.53342051
v -0.15391064 0.13283629 -0.63254329
v -0.19997654 -0.07670905 -0.67729163
v -0.19267533 0.32392431 -0.58298190
v -0.28480713 -0.09516637 -0.67247858
vn 0.51258750 0.53833637 0.66891554
vn 0.73508207 -0.55843620 0.38445203
vn 0.39149014 0.80355418 -0.44837055
vn 0.61398469 -0.29321838 -0.73283407
vn -0.61398469 0.29321838 0.73283408
vn -0.39149012 -0.80355417 0.44837058
vn -0.51258751 -0.53833637 -0.66891554
vn 0.76403847 -0.01230858 0.64505327
vn 0.55363221 0.82173678 0.13505569
vn 0.97564015 0.21227841 -0.05535505
vn 0.82613129 -0.52152979 -0.21333955
vn 0.61572506 0.31251560 -0.72333716
vn -0.06209283 0.50922121 0.85839282
vn -0.73508208 0.55843618 -0.38445204
vn -0.10487341 0.22968534 -0.96759817
vn -0.10487338 0.22968535 -0.96759817
vn 0.06209285 -0.50922122 -0.85839282
vn 0.00000000 0.00000000 0.00000000
vn 0.76403844 -0.01230857 0.64505331
vn 0.76403844 -0.01230857 0.64505330
vn 0.55363224 0.82173677 0.13505563
vn 0.55363220 0.82173679 0.13505565
vn 0.97564014 0.21227841 -0.05535508
vn 0.97564014 0.21227841 -0.05535508
vn 0.97564014 0.21227841 -0.05535508
vn 0.97564015 0.21227841 -0.05535506
vn 0.82613131 -0.52152976 -0.21333955
vn 0.82613131 -0.52152977 -0.21333956
vn 0.97564014 0.21227841 -0.05535508
vn 0.97564015 0.21227841 -0.05535506
vn 0.61572506 0.31251557 -0.72333717
vn 0.61572511 0.31251556 -0.72333714
vn 0.97564014 0.21227841 -0.05535508
vn 0.97564014 0.21227841 -0.05535508
vn -0.06209286 0.50922119 0.85839283
vn -0.06209283 0.50922121 0.85839283
vn -0.00000000 0.00000000 0.00000000
vn -0.10487343 0.22968536 -0.96759816
vn -0.10487342 0.22968536 -0.96759816
vn -0.10487342 0.22968536 -0.96759816
vn -0.10487343 0.22968537 -0.96759816
vn 0.06209283 -0.50922120 -0.85839283
vn 0.06209286 -0.50922119 -0.85839283
vn -0.10487342 0.22968535 -0.96759816
vn -0.10487343 0.22968537 -0.96759816
vn -0.76403843 0.01230857 -0.64505331
vn -0.10487342 0.22968537 -0.96759816
vn 0.76403846 -0.01230857 0.64505327
vn 0.76403846 -0.01230859 0.64505328
vn 0.76403846 -0.01230858 0.64505327
vn 0.76403847 -0.01230857 0.64505327
vn 0.55363222 0.82173678 0.13505567
vn 0.55363221 0.82173679 0.13505566
vn 0.55363223 0.82173677 0.13505568
vn 0.55363223 0.82173677 0.13505564
vn 0.97564015 0.21227840 -0.05535505
vn 0.97564014 0.21227841 -0.05535508
vn 0.97564015 0.21227841 -0.05535506
vn 0.97564014 0.21227841 -0.05535508
vn 0.97564015 0.21227840 -0.05535505
vn 0.97564014 0.21227841 -0.05535508
vn 0.97564015 0.21227841 -0.05535505
vn 0.97564014 0.21227841 -0.05535508
vn 0.97564015 0.21227840 -0.05535505
vn 0.97564014 0.21227841 -0.05535508
vn 0.97564015 0.21227841 -0.05535505
vn 0.97564015 0.21227840 -0.05535505
vn 0.97564014 0.21227842 -0.05535509
vn 0.97564014 0.21227841 -0.05535508
vn 0.82613131 -0.52152976 -0.21333955
vn 0.82613130 -0.52152978 -0.21333955
vn 0.97564015 0.21227841 -0.05535506
vn 0.82613131 -0.52152977 -0.21333953
vn 0.82613131 -0.52152976 -0.21333956
vn 0.97564014 0.21227841 -0.05535508
vn 0.97564015 0.21227841 -0.05535506
vn 0.97564014 0.21227841 -0.05535508
vn 0.97564015 0.21227840 -0.05535505
vn 0.97564014 0.21227842 -0.05535508
vn 0.97564014 0.21227841 -0.05535508
vn 0.97564015 0.21227840 -0.05535505
vn 0.97564015 0.21227840 -0.05535505
vn 0.97564014 0.21227841 -0.05535508
vn 0.97564014 0.21227841 -0.05535508
vn 0.97564014 0.21227842 -0.05535509
vn 0.97564014 0.21227841 -0.05535508
vn 0.61572507 0.31251559 -0.72333716
vn 0.61572507 0.31251557 -0.72333717
vn 0.97564015 0.21227841 -0.05535505
vn 0.61572506 0.31251559 -0.72333717
vn 0.61572507 0.31251558 -0.72333716
vn 0.97564015 0.21227841 -0.05535506
vn 0.97564014 0.21227841 -0.05535508
vn 0.97564015 0.21227841 -0.05535506
vn 0.97564014 0.21227841 -0.05535508
vn 0.97564014 0.21227842 -0.05535508
vn 0.97564015 0.21227840 -0.05535505
vn 0.97564014 0.21227841 -0.05535508
vn 0.97564015 0.21227840 -0.05535505
vn 0.97564014 0.21227842 -0.05535509
vn 0.97564014 0.21227841 -0.05535508
vn 0.97564015 0.21227840 -0.05535505
vn 0.97564014 0.21227841 -0.05535508
vn -0.06209283 0.50922120 0.85839283
vn -0.06209289 0.50922121 0.85839282
vn -0.06209283 0.50922121 0.85839283
vn -0.06209283 0.50922120 0.85839283
vn 0.10487343 -0.22968538 0.96759816
vn -0.95602995 -0.23828407 0.17096035
vn -0.92790472 -0.25803137 0.26909597
vn -0.19268594 0.94983288 0.24635266
vn -0.97703534 -0.16243872 -0.13789708
vn -0.07265700 -0.26417854 0.96173315
vn -0.00000000 -0.00000000 0.00000000
vn -0.97564015 -0.21227841 0.05535506
vn -0.10487342 0.22968536 -0.96759816
vn -0.10487341 0.22968536 -0.96759816
vn -0.10487343 0.22968537 -0.96759816
vn -0.10487337 0.22968535 -0.96759817
vn -0.10487343 0.22968538 -0.96759816
vn -0.10487338 0.22968535 -0.96759817
vn -0.10487337 0.22968535 -0.96759817
vn -0.10487337 0.22968535 -0.96759817
vn -0.10487338 0.22968535 -0.96759817
vn -0.10487343 0.22968537 -0.96759816
vn -0.84400054 -0.53516233 -0.03555788
vn -0.10487343 0.22968536 -0.96759816
vn 0.06209283 -0.50922120 -0.85839283
vn 0.06209283 -0.50922120 -0.85839283
vn -0.10487342 0.22968536 -0.96759816
vn 0.06209283 -0.50922120 -0.85839283
vn 0.06209288 -0.50922122 -0.85839281
vn -0.10487343 0.22968537 -0.96759816
vn -0.10487343 0.22968537 -0.96759816
vn -0.10487338 0.22968535 -0.96759817
vn -0.10487337 0.22968535 -0.96759817
vn -0.10487343 0.22968537 -0.96759816
vn -0.10487342 0.22968535 -0.96759816
vn -0.10487342 0.22968536 -0.96759816
vn -0.10487338 0.22968535 -0.96759817
vn -0.10487343 0.22968537 -0.96759816
vn -0.10487343 0.22968537 -0.96759816
vn -0.10487342 0.22968536 -0.96759816
vn -0.10487342 0.22968536 -0.96759816
vn -0.76403847 0.01230858 -0.64505327
vn -0.10487338 0.22968535 -0.96759817
vn -0.10487339 0.22968534 -0.96759817
vn -0.10487341 0.22968536 -0.96759816
vn -0.10487342 0.22968536 -0.96759816
vn -0.10487337 0.22968535 -0.96759817
vn -0.10487342 0.22968537 -0.96759816
vn -0.10487342 0.22968535 -0.96759816
f 2//2 70//70 50//50
f 70//70 27//27 72//72
f 50//50 72//72 20//20
f 70//70 72//72 50//50
f 27//27 71//71 80//80
f 71//71 11//11 77//77
f 80//80 77//77 29//29
f 71//71 77//77 80//80
f 20//20 78//78 51//51
f 78//78 29//29 76//76
f 51//51 76//76 8//8
f 78//78 76//76 51//51
f 27//27 80//80 72//72
f 80//80 29//29 78//78
f 72//72 78//78 20//20
f 80//80 78//78 72//72
f 11//11 74//74 82//82
f 74//74 28//28 85//85
f 82//82 85//85 30//30
f 74//74 85//85 82//82
f 28//28 73//73 75//75
f 73//73 4//4 60//60
f 75//75 60//60 24//24
f 73//73 60//60 75//75
f 30//30 83//83 81//81
f 83//83 24//24 61//61
f 81//81 61//61 10//10
f 83//83 61//61 81//81
f 28//28 75//75 85//85
f 75//75 24//24 83//83
f 85//85 83//83 30//30
f 75//75 83//83 85//85
f 8//8 62//62 49//49
f 62//62 25//25 64//64
f 49//49 64//64 19//19
f 62//62 64//64 49//49
f 25//25 63//63 65//65
f 63//63 10//10 57//57
f 65//65 57//57 23//23
f 63//63 57//57 65//65
f 19//19 58//58 48//48
f 58//58 23//23 56//56
f 48//48 56//56 1//1
f 58//58 56//56 48//48
f 25//25 65//65 64//64
f 65//65 23//23 58//58
f 64//64 58//58 19//19
f 65//65 58//58 64//64
f 11//11 82//82 77//77
f 82//82 30//30 86//86
f 77//77 86//86 29//29
f 82//82 86//86 77//77
f 30//30 81//81 84//84
f 81//81 10//10 63//63
f 84//84 63//63 25//25
f 81//81 63//63 84//84
f 29//29 79//79 76//76
f 79//79 25//25 62//62
f 76//76 62//62 8//8
f 79//79 62//62 76//76
f 30//30 84//84 86//86
f 84//84 25//25 79//79
f 86//86 79//79 29//29
f 84//84 79//79 86//86
f 5//5 6//6 106//106
f 106//106 6//6 36//36
f 36//36 6//6 107//107
f 107//107 6//6 13//13
f 6//6 2//2 50//50
f 6//6 50//50 20//20
f 6//6 20//20 51//51
f 6//6 51//51 8//8
f 13//13 6//6 105//105
f 105//105 6//6 35//35
f 6//6 8//8 49//49
f 6//6 49//49 19//19
f 35//35 6//6 104//104
f 6//6 19//19 48//48
f 104//104 48//48 1//1
f 6//6 48//48 104//104
f 1//1 56//56 52//52
f 56//56 23//23 59//59
f 52//52 59//59 21//21
f 56//56 59//59 52//52
f 23//23 57//57 69//69
f 57//57 10//10 67//67
f 69//69 67//67 26//26
f 57//57 67//67 69//69
f 21//21 68//68 53//53
f 68//68 26//26 66//66
f 53//53 66//66 9//9
f 68//68 66//66 53//53
f 23//23 69//69 59//59
f 69//69 26//26 68//68
f 59//59 68//68 21//21
f 69//69 68//68 59//59
f 10//10 61//61 98//98
f 61//61 24//24 100//100
f 98//98 100//100 34//34
f 61//61 100//100 98//98
f 24//24 60//60 92//92
f 60//60 4//4 90//90
f 92//92 90//90 32//32
f 60//60 90//90 92//92
f 34//34 102//102 99//99
f 102//102 32//32 91//91
f 99//99 91//91 12//12
f 102//102 91//91 99//99
f 24//24 92//92 100//100
f 92//92 32//32 102//102
f 100//100 102//102 34//34
f 92//92 102//102 100//100
f 9//9 93//93 55//55
f 93//93 33//33 95//95
f 55//55 95//95 22//22
f 93//93 95//95 55//55
f 33//33 94//94 97//97
f 94//94 12//12 88//88
f 97//97 88//88 31//31
f 94//94 88//88 97//97
f 22//22 89//89 54//54
f 89//89 31//31 87//87
f 54//54 87//87 3//3
f 89//89 87//87 54//54
f 33//33 97//97 95//95
f 97//97 31//31 89//89
f 95//95 89//89 22//22
f 97//97 89//89 95//95
f 10//10 98//98 67//67
f 98//98 34//34 101//101
f 67//67 101//101 26//26
f 98//98 101//101 67//67
f 34//34 99//99 103//103
f 99//99 12//12 94//94
f 103//103 94//94 33//33
f 99//99 94//94 103//103
f 26//26 96//96 66//66
f 96//96 33//33 93//93
f 66//66 93//93 9//9
f 96//96 93//93 66//66
f 34//34 103//103 101//101
f 103//103 33//33 96//96
f 101//101 96//96 26//26
f 103//103 96//96 101//101
f 3//3 108//108 54//54
f 54//54 14//14 22//22
f 108//108 14//14 54//54
f 22//22 14//14 55//55
f 55//55 14//14 9//9
f 14//14 5//5 106//106
f 109//109 106//106 36//36
f 14//14 106//106 109//109
f 14//14 36//36 107//107
f 110//110 107//107 13//13
f 14//14 107//107 110//110
f 109//109 36//36 14//14
f 9//9 14//14 53//53
f 53//53 14//14 21//21
f 14//14 13//13 105//105
f 14//14 105//105 35//35
f 21//21 14//14 52//52
f 14//14 35//35 104//104
f 52//52 104//104 1//1
f 14//14 104//104 52//52
f 110//110 13//13 14//14
f 2//2 6//6 70//70
f 70//70 6//6 27//27
f 27//27 6//6 71//71
f 71//71 6//6 11//11
f 6//6 7//7 131//131
f 6//6 131//131 43//43
f 6//6 43//43 132//132
f 6//6 132//132 17//17
f 11//11 6//6 74//74
f 74//74 6//6 28//28
f 6//6 17//17 129//129
f 6//6 129//129 42//42
f 28//28 6//6 73//73
f 6//6 42//42 128//128
f 73//73 128//128 4//4
f 6//6 128//128 73//73
f 4//4 128//128 90//90
f 128//128 42//42 130//130
f 90//90 130//130 32//32
f 128//128 130//130 90//90
f 42//42 129//129 138//138
f 129//129 17//17 135//135
f 138//138 135//135 44//44
f 129//129 135//135 138//138
f 32//32 136//136 91//91
f 136//136 44//44 134//134
f 91//91 134//134 12//12
f 136//136 134//134 91//91
f 42//42 138//138 130//130
f 138//138 44//44 136//136
f 130//130 136//136 32//32
f 138//138 136//136 130//130
f 17//17 132//132 140//140
f 132//132 43//43 143//143
f 140//140 143//143 45//45
f 132//132 143//143 140//140
f 43//43 131//131 133//133
f 131//131 7//7 118//118
f 133//133 118//118 39//39
f 131//131 118//118 133//133
f 45//45 141//141 139//139
f 141//141 39//39 119//119
f 139//139 119//119 16//16
f 141//141 119//119 139//139
f 43//43 133//133 143//143
f 133//133 39//39 141//141
f 143//143 141//141 45//45
f 133//133 141//141 143//143
f 12//12 120//120 88//88
f 120//120 40//40 122//122
f 88//88 122//122 31//31
f 120//120 122//122 88//88
f 40//40 121//121 123//123
f 121//121 16//16 116//116
f 123//123 116//116 38//38
f 121//121 116//116 123//123
f 31//31 117//117 87//87
f 117//117 38//38 14//14
f 87//87 14//14 3//3
f 117//117 14//14 87//87
f 40//40 123//123 122//122
f 123//123 38//38 117//117
f 122//122 117//117 31//31
f 123//123 117//117 122//122
f 17//17 140//140 135//135
f 140//140 45//45 144//144
f 135//135 144//144 44//44
f 140//140 144//144 135//135
f 45//45 139//139 142//142
f 139//139 16//16 121//121
f 142//142 121//121 40//40
f 139//139 121//121 142//142
f 44//44 137//137 134//134
f 137//137 40//40 120//120
f 134//134 120//120 12//12
f 137//137 120//120 134//134
f 45//45 142//142 144//144
f 142//142 40//40 137//137
f 144//144 137//137 44//44
f 142//142 137//137 144//144
f 37//37 14//14 114//114
f 14//14 113//113 111//111
f 113//113 14//14 108//108
f 111//111 108//108 3//3
f 113//113 108//108 111//111
f 37//37 114//114 14//14
f 114//114 14//14 113//113
f 114//114 113//113 14//14
f 38//38 116//116 127//127
f 116//116 16//16 125//125
f 127//127 125//125 41//41
f 116//116 125//125 127//127
f 14//14 126//126 112//112
f 126//126 41//41 124//124
f 112//112 124//124 15//15
f 126//126 124//124 112//112
f 38//38 127//127 14//14
f 127//127 41//41 126//126
f 127//127 126//126 14//14
f 16//16 119//119 149//149
f 119//119 39//39 150//150
f 149//149 150//150 47//47
f 119//119 150//150 149//149
f 39//39 118//118 146//146
f 118//118 7//7 145//145
f 146//146 145//145 46//46
f 118//118 145//145 146//146
f 47//47 152//152 14//14
f 152//152 46//46 14//14
f 39//39 146//146 150//150
f 146//146 46//46 152//152
f 150//150 152//152 47//47
f 146//146 152//152 150//150
f 15//15 147//147 14//14
f 16//16 149//149 125//125
f 149//149 47//47 151//151
f 125//125 151//151 41//41
f 149//149 151//151 125//125
f 41//41 148//148 124//124
f 148//148 14//14 147//147
f 124//124 147//147 15//15
f 148//148 147//147 124//124
f 47//47 14//14 151//151
f 151//151 148//148 41//41
f 14//14 148//148 151//151
f 14//14 6//6 115//115
f 115//115 6//6 5//5
f 7//7 6//6 145//145
f 145//145 6//6 46//46
f 46//46 6//6 14//14
f 14//14 6//6 18//18
f 18//18 6//6 14//14

