# https://github.com/mikedh/trimesh
v -0.03675878 0.21615394 0.64494507
v 0.66125000 0.02528891 0.16166877
v -0.36669749 0.57342413 0.02730564
v 0.33131129 0.38255909 -0.45597066
v -0.33131129 -0.38255909 0.45597066
v 0.36669749 -0.57342413 -0.02730564
v -0.66125000 -0.02528891 -0.16166877
v 0.03675878 -0.21615395 -0.64494507
v -0.20172814 0.39478904 0.33612535
v -0.01769310 0.47799161 -0.21433251
v -0.18403504 -0.08320257 0.55045787
v -0.49628065 -0.20392401 0.14715095
v 0.01769310 -0.47799161 0.21433251
v -0.51397374 0.27406761 -0.06718156
v -0.14727625 -0.29935652 -0.09448720
v -0.16496935 0.17863509 -0.30881972
v -0.31224561 -0.12072143 -0.40330692
v -0.11924346 0.30547149 0.49053521
v -0.28421281 0.48410658 0.18171550
v -0.19219529 0.52570787 -0.09351344
v 0.15680909 0.43027535 -0.33515159
v -0.10971062 0.43639032 0.06089642
v -0.11039691 0.06647568 0.59770147
v -0.25767316 -0.23288083 0.50321426
v -0.19288159 0.15579323 0.44329161
v -0.15680909 -0.43027535 0.33515159
v 0.19219529 -0.52570787 0.09351344
v -0.44033562 0.42374587 -0.01993796
v -0.58761187 0.12438935 -0.11442517
v 0.10971062 -0.43639032 -0.06089642
v -0.40426312 -0.16232272 -0.12807798
v -0.26583342 0.37602961 -0.14075704
v -0.33947155 0.22635135 -0.18800064
v 0.25767316 0.23288083 -0.50321426
v 0.08317097 0.28059709 -0.38239519
v 0.28421281 -0.48410658 -0.18171550
v 0.11924346 -0.30547149 -0.49053521
v 0.02722594 -0.34707278 -0.21530628
v -0.48674780 -0.07300517 -0.28248784
v -0.41310967 0.07667309 -0.23524424
vn 0.02441991 0.36269080 0.93158953
vn 0.95066188 0.10941719 0.29029272
vn -0.46021582 0.88747281 0.02436002
vn 0.46602617 0.63419918 -0.61693679
vn -0.46602616 -0.63419918 0.61693680
vn 0.46021582 -0.88747281 -0.02436002
vn -0.95066188 -0.10941718 -0.29029273
vn -0.02441990 -0.36269080 -0.93158953
vn -0.26686942 0.76556574 0.58539714
vn 0.00355810 0.93182999 -0.36287768
vn -0.27042752 -0.16626427 0.94827483
vn -0.86754070 -0.45537018 0.20002783
vn -0.00355809 -0.93182999 0.36287769
vn -0.86398263 0.47645980 -0.16284987
vn -0.42473874 -0.86333206 -0.27249726
vn -0.41970686 0.45447454 -0.78568381
vn -0.41970684 0.45447457 -0.78568380
vn -0.26686940 0.76556573 0.58539716
vn -0.26686940 0.76556574 0.58539715
vn 0.00355810 0.93182999 -0.36287768
vn 0.00355807 0.93182998 -0.36287771
vn 0.42473875 0.86333205 0.27249726
vn -0.27042748 -0.16626425 0.94827484
vn -0.27042749 -0.16626429 0.94827483
vn -0.80214908 0.21934139 0.55537933
vn -0.00355808 -0.93182997 0.36287773
vn -0.00355809 -0.93182999 0.36287768
vn -0.86398262 0.47645981 -0.16284984
vn -0.86398260 0.47645983 -0.16284989
vn -0.42473875 -0.86333206 -0.27249726
vn -0.42473874 -0.86333206 -0.27249726
vn -0.41970685 0.45447455 -0.78568381
vn -0.41970687 0.45447454 -0.78568381
vn 0.27042750 0.16626425 -0.94827484
vn -0.41970685 0.45447454 -0.78568381
vn 0.26686941 -0.76556574 -0.58539714
vn 0.00000000 0.00000000 -0.00000000
vn -0.42473875 -0.86333206 -0.27249725
vn -0.59711320 -0.28910592 -0.74824701
vn -0.41970685 0.45447454 -0.78568381
f 5//5 2//2 24//24
f 24//24 2//2 11//11
f 11//11 2//2 23//23
f 23//23 2//2 1//1
f 1//1 2//2 18//18
f 18//18 2//2 9//9
f 2//2 4//4 21//21
f 2//2 21//21 10//10
f 9//9 22//22 19//19
f 22//22 10//10 20//20
f 19//19 20//20 3//3
f 22//22 20//20 19//19
f 2//2 10//10 22//22
f 2//2 22//22 9//9
f 3//3 12//12 19//19
f 19//19 12//12 9//9
f 12//12 5//5 24//24
f 12//12 24//24 11//11
f 9//9 25//25 18//18
f 25//25 11//11 23//23
f 18//18 23//23 1//1
f 25//25 23//23 18//18
f 12//12 11//11 25//25
f 12//12 25//25 9//9
f 2//2 8//8 34//34
f 2//2 34//34 4//4
f 6//6 2//2 27//27
f 27//27 2//2 13//13
f 13//13 2//2 26//26
f 26//26 2//2 5//5
f 6//6 36//36 2//2
f 36//36 8//8 2//2
f 8//8 37//37 2//2
f 37//37 8//8 2//2
f 4//4 34//34 21//21
f 34//34 8//8 35//35
f 21//21 35//35 10//10
f 34//34 35//35 21//21
f 10//10 8//8 20//20
f 20//20 32//32 3//3
f 8//8 32//32 20//20
f 35//35 8//8 10//10
f 7//7 12//12 29//29
f 29//29 12//12 14//14
f 14//14 12//12 28//28
f 28//28 12//12 3//3
f 3//3 32//32 28//28
f 32//32 16//16 33//33
f 28//28 33//33 14//14
f 32//32 33//33 28//28
f 14//14 40//40 29//29
f 40//40 17//17 39//39
f 29//29 39//39 7//7
f 40//40 39//39 29//29
f 16//16 8//8 33//33
f 8//8 17//17 40//40
f 33//33 40//40 14//14
f 8//8 40//40 33//33
f 7//7 31//31 12//12
f 31//31 15//15 12//12
f 15//15 30//30 12//12
f 30//30 6//6 27//27
f 12//12 27//27 13//13
f 30//30 27//27 12//12
f 12//12 13//13 26//26
f 12//12 26//26 5//5
f 8//8 36//36 38//38
f 36//36 6//6 30//30
f 38//38 30//30 15//15
f 36//36 30//30 38//38
f 8//8 15//15 31//31
f 39//39 31//31 7//7
f 8//8 31//31 39//39
f 38//38 15//15 8//8

