# https://github.com/mikedh/trimesh

o box_simple_0002.obj
v -0.03675878 0.21615394 0.64494507
v 0.66125000 0.02528891 0.16166877
v -0.36669749 0.57342413 0.02730564
v 0.33131129 0.38255909 -0.45597066
v -0.33131129 -0.38255909 0.45597066
v 0.36669749 -0.57342413 -0.02730564
v -0.66125000 -0.02528891 -0.16166877
v 0.03675878 -0.21615394 -0.64494507
v 0.31224561 0.12072143 0.40330692
v -0.20172814 0.39478904 0.33612535
v 0.14727625 0.29935652 0.09448720
v 0.49628064 0.20392400 -0.14715095
v -0.01769310 0.47799161 -0.21433251
v -0.18403504 -0.08320257 0.55045787
v 0.16496935 -0.17863509 0.30881972
v -0.34900439 0.09543252 0.24163815
v 0.51397374 -0.27406761 0.06718156
v 0.01769310 -0.47799161 0.21433251
v -0.51397374 0.27406761 -0.06718156
v -0.49628064 -0.20392400 0.14715095
v -0.14727625 -0.29935652 -0.09448720
v 0.34900439 -0.09543252 -0.24163815
v -0.16496935 0.17863509 -0.30881972
v 0.18403504 0.08320257 -0.55045787
v 0.20172814 -0.39478904 -0.33612535
v -0.31224561 -0.12072143 -0.40330692
v 0.13774341 0.16843769 0.52412599
v 0.48674780 0.07300517 0.28248784
v -0.11924346 0.30547149 0.49053521
v -0.28421281 0.48410658 0.18171550
v 0.05525874 0.25775523 0.36971614
v 0.23929377 0.34095781 -0.18074173
v 0.22976093 0.21003897 0.24889706
v -0.02722594 0.34707278 0.21530628
v 0.57876532 0.11460646 0.00725891
v 0.41379597 0.29324155 -0.30156081
v 0.40426312 0.16232272 0.12807798
v 0.32177845 0.25164026 -0.02633187
v -0.19219529 0.52570787 -0.09351344
v 0.15680909 0.43027535 -0.33515159
v -0.10971062 0.43639032 0.06089642
v 0.06479158 0.38867407 -0.05992265
v -0.11039691 0.06647568 0.59770147
v -0.25767316 -0.23288083 0.50321426
v 0.06410529 0.01875943 0.47688239
v -0.19288159 0.15579323 0.44329161
v 0.41310967 -0.07667309 0.23524424
v -0.08317097 -0.28059709 0.38239519
v 0.23860748 -0.02895683 0.35606332
v -0.00953284 -0.13091883 0.42963879
v -0.35785094 0.33442832 0.13447189
v -0.34015784 -0.14356329 0.34880441
v -0.27536626 0.24511078 0.28888175
v -0.26651971 0.00611497 0.39604801
v 0.58761187 -0.12438935 0.11442517
v 0.44033562 -0.42374587 0.01993796
v 0.33947155 -0.22635135 0.18800064
v -0.15680909 -0.43027535 0.33515159
v 0.19219529 -0.52570787 0.09351344
v 0.09133123 -0.32831335 0.26157611
v 0.26583342 -0.37602961 0.14075704
v -0.44033562 0.42374587 -0.01993796
v -0.58761187 0.12438935 -0.11442517
v -0.43148907 0.18475006 0.08722829
v -0.41379597 -0.29324155 0.30156081
v -0.57876532 -0.11460646 -0.00725891
v -0.42264252 -0.05424574 0.19439455
v -0.23929377 -0.34095781 0.18074173
v -0.50512719 0.03507180 0.03998469
v 0.10971062 -0.43639032 -0.06089642
v -0.40426312 -0.16232272 -0.12807798
v -0.06479158 -0.38867407 0.05992265
v -0.32177845 -0.25164026 0.02633187
v 0.50512719 -0.03507180 -0.03998469
v 0.19288159 -0.15579323 -0.44329161
v 0.42264252 0.05424574 -0.19439455
v 0.43148907 -0.18475006 -0.08722829
v -0.26583342 0.37602961 -0.14075704
v -0.06410529 -0.01875943 -0.47688239
v -0.09133123 0.32831335 -0.26157611
v -0.33947155 0.22635135 -0.18800064
v 0.25767316 0.23288083 -0.50321426
v 0.11039691 -0.06647568 -0.59770147
v 0.34015784 0.14356329 -0.34880441
v 0.08317097 0.28059709 -0.38239519
v 0.26651971 -0.00611497 -0.39604801
v 0.00953284 0.13091883 -0.42963879
v 0.28421281 -0.48410658 -0.18171550
v 0.11924346 -0.30547149 -0.49053521
v 0.35785094 -0.33442832 -0.13447189
v 0.02722594 -0.34707278 -0.21530628
v 0.27536626 -0.24511078 -0.28888175
v -0.48674780 -0.07300517 -0.28248784
v -0.13774341 -0.16843769 -0.52412599
v -0.41310967 0.07667309 -0.23524424
v -0.22976093 -0.21003897 -0.24889706
v -0.23860748 0.02895683 -0.35606332
v -0.05525874 -0.25775523 -0.36971614
vn 0.02441992 0.36269079 0.93158953
vn 0.95066188 0.10941718 0.29029273
vn -0.46021583 0.88747281 0.02436002
vn 0.46602616 0.63419918 -0.61693680
vn -0.46602615 -0.63419919 0.61693680
vn 0.46021582 -0.88747281 -0.02436002
vn -0.95066188 -0.10941718 -0.29029273
vn -0.02441991 -0.36269079 -0.93158953
vn 0.59711320 0.28910593 0.74824701
vn -0.26686943 0.76556573 0.58539714
vn 0.42473876 0.86333205 0.27249727
vn 0.86754071 0.45537017 -0.20002782
vn 0.00355808 0.93182998 -0.36287769
vn -0.27042754 -0.16626427 0.94827482
vn 0.41970685 -0.45447455 0.78568381
vn -0.80214908 0.21934140 0.55537934
vn 0.86398262 -0.47645981 0.16284984
vn -0.00355808 -0.93182998 0.36287770
vn -0.86398263 0.47645979 -0.16284985
vn -0.86754071 -0.45537016 0.20002782
vn -0.42473874 -0.86333205 -0.27249727
vn 0.80214909 -0.21934140 -0.55537932
vn -0.41970684 0.45447455 -0.78568381
vn 0.27042753 0.16626425 -0.94827483
vn 0.26686943 -0.76556572 -0.58539715
vn -0.59711321 -0.28910593 -0.74824700
vn 0.59711320 0.28910595 0.74824700
vn 0.59711320 0.28910592 0.74824701
vn -0.26686941 0.76556573 0.58539716
vn -0.26686941 0.76556573 0.58539715
vn 0.42473875 0.86333206 0.27249726
vn 0.42473874 0.86333206 0.27249725
vn 0.42473874 0.86333206 0.27249725
vn 0.42473874 0.86333206 0.27249726
vn 0.86754070 0.45537018 -0.20002783
vn 0.86754071 0.45537016 -0.20002784
vn 0.42473874 0.86333206 0.27249726
vn 0.42473875 0.86333206 0.27249726
vn 0.00355810 0.93182999 -0.36287769
vn 0.00355806 0.93182997 -0.36287772
vn 0.42473873 0.86333207 0.27249726
vn 0.42473874 0.86333206 0.27249726
vn -0.27042747 -0.16626425 0.94827484
vn -0.27042750 -0.16626426 0.94827484
vn 0.41970685 -0.45447454 0.78568381
vn -0.80214909 0.21934139 0.55537932
vn 0.41970685 -0.45447454 0.78568382
vn 0.41970684 -0.45447454 0.78568382
vn 0.41970685 -0.45447455 0.78568381
vn 0.41970684 -0.45447455 0.78568381
vn -0.80214908 0.21934138 0.55537934
vn -0.80214907 0.21934139 0.55537935
vn -0.80214910 0.21934138 0.55537931
vn -0.80214910 0.21934138 0.55537931
vn 0.86398261 -0.47645982 0.16284988
vn 0.86398263 -0.47645980 0.16284985
vn 0.41970685 -0.45447454 0.78568381
vn -0.00355807 -0.93182997 0.36287773
vn -0.00355808 -0.93182999 0.36287768
vn 0.41970685 -0.45447455 0.78568381
vn 0.41970685 -0.45447454 0.78568381
vn -0.86398263 0.47645981 -0.16284984
vn -0.86398261 0.47645983 -0.16284988
vn -0.80214909 0.21934138 0.55537932
vn -0.86754070 -0.45537017 0.20002784
vn -0.86754070 -0.45537018 0.20002783
vn -0.80214910 0.21934139 0.55537931
vn -0.42473875 -0.86333206 -0.27249724
vn -0.80214910 0.21934138 0.55537931
vn -0.42473874 -0.86333206 -0.27249727
vn -0.42473873 -0.86333206 -0.27249727
vn -0.42473874 -0.86333206 -0.27249727
vn -0.42473875 -0.86333206 -0.27249726
vn 0.80214909 -0.21934139 -0.55537932
vn 0.80214909 -0.21934139 -0.55537932
vn 0.80214909 -0.21934139 -0.55537932
vn 0.80214909 -0.21934138 -0.55537933
vn -0.41970685 0.45447455 -0.78568381
vn -0.41970686 0.45447454 -0.78568381
vn -0.41970684 0.45447455 -0.78568381
vn -0.41970687 0.45447454 -0.78568381
vn 0.27042750 0.16626427 -0.94827483
vn 0.27042749 0.16626426 -0.94827484
vn 0.80214909 -0.21934139 -0.55537933
vn -0.41970685 0.45447454 -0.78568381
vn 0.80214909 -0.21934139 -0.55537932
vn -0.41970685 0.45447455 -0.78568381
vn 0.26686941 -0.76556574 -0.58539715
vn 0.26686942 -0.76556573 -0.58539715
vn 0.80214909 -0.21934138 -0.55537933
vn -0.42473874 -0.86333206 -0.27249725
vn 0.80214909 -0.21934139 -0.55537932
vn -0.59711320 -0.28910593 -0.74824701
vn -0.59711320 -0.28910594 -0.74824700
vn -0.41970685 0.45447454 -0.78568381
vn -0.42473874 -0.86333206 -0.27249725
vn -0.41970685 0.45447454 -0.78568381
vn -0.42473874 -0.86333206 -0.27249726
f 2//2 35//35 28//28
f 35//35 12//12 37//37
f 28//28 37//37 9//9
f 35//35 37//37 28//28
f 12//12 36//36 38//38
f 36//36 4//4 32//32
f 38//38 32//32 11//11
f 36//36 32//32 38//38
f 9//9 33//33 27//27
f 33//33 11//11 31//31
f 27//27 31//31 1//1
f 33//33 31//31 27//27
f 12//12 38//38 37//37
f 38//38 11//11 33//33
f 37//37 33//33 9//9
f 38//38 33//33 37//37
f 5//5 48//48 44//44
f 48//48 15//15 50//50
f 44//44 50//50 14//14
f 48//48 50//50 44//44
f 15//15 47//47 49//49
f 47//47 2//2 28//28
f 49//49 28//28 9//9
f 47//47 28//28 49//49
f 14//14 45//45 43//43
f 45//45 9//9 27//27
f 43//43 27//27 1//1
f 45//45 27//27 43//43
f 15//15 49//49 50//50
f 49//49 9//9 45//45
f 50//50 45//45 14//14
f 49//49 45//45 50//50
f 1//1 31//31 29//29
f 31//31 11//11 34//34
f 29//29 34//34 10//10
f 31//31 34//34 29//29
f 11//11 32//32 42//42
f 32//32 4//4 40//40
f 42//42 40//40 13//13
f 32//32 40//40 42//42
f 10//10 41//41 30//30
f 41//41 13//13 39//39
f 30//30 39//39 3//3
f 41//41 39//39 30//30
f 11//11 42//42 34//34
f 42//42 13//13 41//41
f 34//34 41//41 10//10
f 42//42 41//41 34//34
f 3//3 51//51 30//30
f 51//51 16//16 53//53
f 30//30 53//53 10//10
f 51//51 53//53 30//30
f 16//16 52//52 54//54
f 52//52 5//5 44//44
f 54//54 44//44 14//14
f 52//52 44//44 54//54
f 10//10 46//46 29//29
f 46//46 14//14 43//43
f 29//29 43//43 1//1
f 46//46 43//43 29//29
f 16//16 54//54 53//53
f 54//54 14//14 46//46
f 53//53 46//46 10//10
f 54//54 46//46 53//53
f 2//2 74//74 35//35
f 74//74 22//22 76//76
f 35//35 76//76 12//12
f 74//74 76//76 35//35
f 22//22 75//75 86//86
f 75//75 8//8 83//83
f 86//86 83//83 24//24
f 75//75 83//83 86//86
f 12//12 84//84 36//36
f 84//84 24//24 82//82
f 36//36 82//82 4//4
f 84//84 82//82 36//36
f 22//22 86//86 76//76
f 86//86 24//24 84//84
f 76//76 84//84 12//12
f 86//86 84//84 76//76
f 6//6 56//56 59//59
f 56//56 17//17 61//61
f 59//59 61//61 18//18
f 56//56 61//61 59//59
f 17//17 55//55 57//57
f 55//55 2//2 47//47
f 57//57 47//47 15//15
f 55//55 47//47 57//57
f 18//18 60//60 58//58
f 60//60 15//15 48//48
f 58//58 48//48 5//5
f 60//60 48//48 58//58
f 17//17 57//57 61//61
f 57//57 15//15 60//60
f 61//61 60//60 18//18
f 57//57 60//60 61//61
f 6//6 88//88 56//56
f 88//88 25//25 90//90
f 56//56 90//90 17//17
f 88//88 90//90 56//56
f 25//25 89//89 92//92
f 89//89 8//8 75//75
f 92//92 75//75 22//22
f 89//89 75//75 92//92
f 17//17 77//77 55//55
f 77//77 22//22 74//74
f 55//55 74//74 2//2
f 77//77 74//74 55//55
f 25//25 92//92 90//90
f 92//92 22//22 77//77
f 90//90 77//77 17//17
f 92//92 77//77 90//90
f 4//4 82//82 40//40
f 82//82 24//24 85//85
f 40//40 85//85 13//13
f 82//82 85//85 40//40
f 24//24 83//83 87//87
f 83//83 8//8 79//79
f 87//87 79//79 23//23
f 83//83 79//79 87//87
f 13//13 80//80 39//39
f 80//80 23//23 78//78
f 39//39 78//78 3//3
f 80//80 78//78 39//39
f 24//24 87//87 85//85
f 87//87 23//23 80//80
f 85//85 80//80 13//13
f 87//87 80//80 85//85
f 7//7 66//66 63//63
f 66//66 20//20 69//69
f 63//63 69//69 19//19
f 66//66 69//69 63//63
f 20//20 65//65 67//67
f 65//65 5//5 52//52
f 67//67 52//52 16//16
f 65//65 52//52 67//67
f 19//19 64//64 62//62
f 64//64 16//16 51//51
f 62//62 51//51 3//3
f 64//64 51//51 62//62
f 20//20 67//67 69//69
f 67//67 16//16 64//64
f 69//69 64//64 19//19
f 67//67 64//64 69//69
f 3//3 78//78 62//62
f 78//78 23//23 81//81
f 62//62 81//81 19//19
f 78//78 81//81 62//62
f 23//23 79//79 97//97
f 79//79 8//8 94//94
f 97//97 94//94 26//26
f 79//79 94//94 97//97
f 19//19 95//95 63//63
f 95//95 26//26 93//93
f 63//63 93//93 7//7
f 95//95 93//93 63//63
f 23//23 97//97 81//81
f 97//97 26//26 95//95
f 81//81 95//95 19//19
f 97//97 95//95 81//81
f 7//7 71//71 66//66
f 71//71 21//21 73//73
f 66//66 73//73 20//20
f 71//71 73//73 66//66
f 21//21 70//70 72//72
f 70//70 6//6 59//59
f 72//72 59//59 18//18
f 70//70 59//59 72//72
f 20//20 68//68 65//65
f 68//68 18//18 58//58
f 65//65 58//58 5//5
f 68//68 58//58 65//65
f 21//21 72//72 73//73
f 72//72 18//18 68//68
f 73//73 68//68 20//20
f 72//72 68//68 73//73
f 8//8 89//89 94//94
f 89//89 25//25 98//98
f 94//94 98//98 26//26
f 89//89 98//98 94//94
f 25//25 88//88 91//91
f 88//88 6//6 70//70
f 91//91 70//70 21//21
f 88//88 70//70 91//91
f 26//26 96//96 93//93
f 96//96 21//21 71//71
f 93//93 71//71 7//7
f 96//96 71//71 93//93
f 25//25 91//91 98//98
f 91//91 21//21 96//96
f 98//98 96//96 26//26
f 91//91 96//96 98//98

