# https://github.com/mikedh/trimesh
v -1.06286131 2.77042510 0.02233909
v -0.40614567 2.93492608 -0.16726207
v -0.67247673 2.61403556 0.23173756
v -0.67244320 2.37838095 0.08521194
v -0.64744103 2.42575066 -0.21778301
v -1.28721819 2.50700043 0.04316035
v 0.29604512 2.66804144 -0.33852159
v -0.06479467 2.43829620 -0.28467393
v 0.10431506 2.38586893 -0.66714756
v -0.16499579 2.79189475 -0.61987513
v 0.19920854 2.81473585 -0.71390284
v 0.42497945 2.79174729 -0.53854684
v 0.64331379 2.35607055 -1.04752448
v 1.09542262 2.40444863 -0.78548138
v 0.56409919 2.25492936 -0.59012412
v 0.91980312 2.43270671 -1.05935264
v 0.89435239 1.94238052 -0.99252638
v 1.25094526 1.79599414 -0.80138717
v 1.41541767 1.98563257 -1.21575402
v 1.82015320 1.60197001 -1.12451914
v 1.40038412 1.33971142 -1.17578660
v 1.73071061 1.23173044 -1.38173618
v 1.79913556 1.43977963 -1.30568819
v 1.95913353 1.24581241 -0.97735563
v 1.56926520 1.23626168 -0.92794080
v 1.98180109 0.62429909 -0.85964311
v 1.69157767 0.75291214 -1.03726496
v 2.19563429 0.59433840 -1.23327377
v 2.31016025 0.29127703 -0.90114675
v 1.92286349 0.02366534 -1.10523445
v 1.88654195 0.19612737 -0.86599395
v 2.11318416 0.00256248 -1.22392178
v 2.36435775 -0.25117429 -0.96037612
v 1.93885680 -0.82623859 -0.86254157
v 2.07577608 -0.46588026 -0.53987383
v 1.88947606 -0.51078779 -0.70464218
v 2.17323355 -0.67092194 -0.98280612
v 2.27528235 -1.02739649 -0.62575927
v 2.14660496 -1.24836713 -0.23793708
v 1.59167168 -1.81845880 -0.19502010
v 1.92792783 -1.04149568 -0.21025959
v 1.74275106 -1.06803710 -0.37877958
v 2.09023958 -1.44420313 -0.47422300
v 1.42829585 -1.49564811 -0.03336021
v 1.79702899 -1.85120600 0.04466373
v 1.55504718 -1.52761826 0.27450774
v 1.36488023 -1.92912144 0.65428081
v 0.90536349 -2.00561304 0.44054655
v 1.21021099 -2.08687394 0.27902475
v 1.32475895 -2.10064870 0.52693256
v 1.12028851 -1.65373889 0.61697692
v 1.09526941 -1.65011322 0.38786503
v 0.63727655 -1.69688354 0.70695189
v 0.57402245 -2.09928341 0.94283227
v 0.79160663 -2.01984516 1.08186987
v 0.64504060 -1.56021561 1.06979844
v 0.04547614 -1.33329530 1.63266267
v 0.16262771 -1.79273763 1.02162187
v 0.16682804 -1.75547245 1.44270071
v 0.22643263 -1.29938092 1.20488402
v -0.01620925 -1.71606917 1.33163238
v 0.04912953 -1.38424104 1.09720278
v -0.11038280 -0.87531171 1.59502531
v -0.60198445 -0.85994312 1.41946773
v -0.36629001 -1.19982814 1.65364496
v -0.19928040 -0.72192160 1.41070428
v -0.37943048 -0.78787610 1.29749348
v -0.39968620 -0.13824972 1.67780629
v -0.65776141 -0.63176633 1.66170449
v -0.50900573 -0.46124130 1.77639487
v -0.74859089 -0.02819139 1.64088674
v -0.36030085 -0.07421287 1.34887620
v -0.64627344 0.09806879 1.19693886
v -0.83503413 0.11275206 1.38889670
v -0.50420295 0.44786911 1.57595257
v -0.77764199 0.48758545 1.42418126
v -0.33515835 0.34418208 1.32296588
v -0.45334819 0.27160854 1.14530500
v -0.58929153 0.80025251 0.84057877
v -0.49049938 1.11938756 1.10671427
v -0.26695210 1.00598287 1.14409593
v -0.19628985 0.79278261 1.04895066
v -0.25752312 0.69929035 0.93770222
v -0.38337847 0.69275505 0.82810805
v -0.63135864 1.02949075 0.95113799
v -0.02137099 1.34895482 0.65728382
v -0.10973289 1.16497360 0.13908289
v -0.17226165 1.37996447 0.43900440
v 0.17735916 1.13084456 0.57056141
v 0.05043935 0.90149064 0.52275977
v -0.07838208 0.93645222 0.29736663
v 0.12153521 0.86156738 0.29096808
v 0.15910716 1.25318337 -0.07102668
v 0.40325269 1.24683178 0.16869698
v 0.44443544 0.81042100 0.12553090
v 0.19821356 0.80126036 -0.19969232
v 0.43671393 1.17716088 -0.13084792
v 0.84608306 0.33235307 -0.34917347
v 0.31062022 0.66678745 -0.05086581
v 0.61148647 0.78888569 -0.50422034
v 0.75850877 0.74211822 -0.34482577
v 0.45391071 0.56172318 -0.59355062
v 0.57568604 0.44777454 -0.13490558
v 0.34466086 0.40696962 -0.33565578
v 0.58925900 -0.05769312 -0.31532852
v 0.38786066 -0.05025163 -0.60509184
v 0.84601494 0.08479691 -0.62833189
v 0.40718051 0.05356239 -0.43415790
v 0.50748083 -0.21088398 -0.80584656
v 0.69889050 0.21519941 -0.72463663
v 0.56170524 -0.86061859 -0.38986111
v 0.75600950 -0.55814412 -0.58729245
v 0.64449616 -0.48027558 -0.78737689
v 0.28419342 -0.51050423 -0.42844391
v 0.41553912 -0.67398647 -0.30700692
v 0.14568844 -0.68804706 -0.61272279
v 0.41060357 -1.14017500 -0.51861094
v 0.20273467 -1.12116820 -0.66898535
v -0.07201841 -0.96764077 -0.17319964
v -0.05197353 -0.84714237 -0.34839651
v -0.24598949 -1.14507642 -0.51390186
v -0.04897669 -1.21264621 -0.06923780
v -0.27564964 -0.94819249 -0.33683164
v -0.11595945 -1.43973288 -0.20105611
v -0.30830485 -1.41731969 -0.38511149
v -0.84498396 -1.00871151 -0.18930042
v -0.89609132 -1.24716312 -0.18391568
v -0.86873022 -1.40125096 0.01543253
v -0.76389280 -1.31882395 0.20074753
v -0.70645139 -1.06895071 0.22915499
v -0.68747830 -0.91481858 0.05596518
v -0.77073505 -0.91252019 -0.08879737
v -1.48167066 -0.85967962 0.06353620
v -1.37047933 -0.93304129 0.34925528
v -1.43600575 -0.58369751 0.48601837
v -1.22560598 -0.48624033 0.34843909
v -1.10362529 -0.59447805 0.14009429
v -1.23739349 -0.67028212 -0.02470545
v -1.66197747 0.39046541 0.44960398
v -1.70345050 -0.29787765 0.05849204
v -1.69735675 -0.47902476 0.37842793
v -1.36683492 -0.28394324 0.07700496
v -1.89297591 -0.03685749 0.20662253
v -1.84793475 0.11216024 0.40693712
v -1.49232233 0.39973080 0.24777996
v -1.55608103 0.35791236 0.03847925
v -1.75524545 0.48843645 -0.05480816
v -1.93028106 0.72358832 0.24234806
v -1.87652848 0.95359003 -0.12099053
v -1.77680245 1.42161212 -0.11354514
v -1.69021885 1.36220724 0.07715302
v -1.38328425 1.53961011 -0.01387762
v -1.37553488 1.10918441 -0.00215489
v -1.42990751 1.04981641 -0.21132453
v -1.29644743 1.42513340 -0.53201287
v -1.31586818 1.94544689 -0.33038254
v -0.98315647 1.62515844 -0.42140187
v -1.39513300 1.89469192 -0.58361324
v -0.75952480 2.03585559 -0.56094743
v -0.87237676 2.03125188 -1.06087965
v -0.80949739 1.71818763 -0.87355847
v -0.79810832 2.20986023 -0.96172243
v -0.57573671 2.21844486 -0.80283126
v -0.59326402 1.75421406 -0.80230844
v -0.38184597 1.77090496 -1.24307405
v -0.09964021 1.77117138 -1.06354546
v -0.20096116 2.18218252 -1.36233835
v 0.00359659 2.14926953 -1.12199446
v 0.27041173 1.74958381 -1.75749293
v 0.44053952 1.96901069 -1.61512646
v 0.38412763 1.50908786 -1.37711956
v 0.25873900 1.49494474 -1.59499920
v 0.71541302 1.64757686 -1.84328584
v 0.93676136 1.42255543 -1.51149862
v 1.12668829 1.35522658 -1.74152881
v 0.85356054 1.07961115 -1.55994189
v 0.73636006 1.04903284 -1.78175713
v 0.97891890 0.90650432 -2.00456238
v 1.23668086 0.99792154 -2.01255346
v 1.37095862 0.65937449 -1.61406472
v 1.50991278 0.74875900 -1.76721864
v 1.17757847 0.43927913 -1.66366908
v 1.67434919 0.20817988 -1.96169013
v 1.54822848 -0.51849099 -1.91823682
v 1.61947084 -0.08216115 -2.02840520
v 1.79562454 -0.06138699 -1.68661076
v 1.48261070 -0.21421925 -1.53182586
v 1.35243937 -0.26092131 -1.74971105
v 1.88367622 -0.67607509 -1.73475132
v 1.87692176 -1.18433640 -1.30924779
v 1.65349722 -0.92233078 -1.28691838
v 1.46675048 -0.94976905 -1.39428973
v 1.42557559 -1.17314456 -1.49012616
v 1.50522302 -1.86515283 -1.36154820
v 1.79977671 -1.20354702 -1.65635489
v 1.74618235 -1.87986143 -1.14161989
v 1.37956978 -2.38071622 -0.40970100
v 1.50892094 -1.58312688 -0.92311586
v 1.32017709 -1.62066595 -1.08539021
v 1.01836070 -2.28359563 -0.71995371
v 1.25486993 -2.44339699 -0.84829581
v 1.39223177 -2.48471894 -0.59995143
v 1.22400827 -2.09061562 -0.45718894
v 0.94812013 -2.21567248 -0.49513746
v 0.77643390 -2.67789002 -0.38613360
v 0.76985907 -2.86912367 0.15073799
v 0.86955914 -2.35527256 0.00050053
v -0.17538360 -2.71319540 0.58880274
v 0.59815685 -2.91555181 0.05581374
v 0.49726483 -2.71007119 0.57557404
v 0.50691903 -2.40144566 0.27370962
v 0.34451386 -2.48869578 0.10379814
v 0.05961071 -2.32669887 0.80636874
v -0.14318356 -2.79896643 0.78572553
v -0.04273114 -2.68415531 1.02858031
v -0.16676282 -2.38171167 0.61443577
v -0.53330422 -2.24622834 1.50610418
v -0.73875057 -2.38174561 1.29145777
v -0.47282632 -1.96377120 1.21141882
v -0.65585213 -2.02549862 1.04999495
v -0.77359869 -1.58482812 1.58709637
v -1.16937504 -1.80870603 1.41448303
v -1.09725278 -1.76824809 1.76084304
v -0.90881735 -1.41038254 1.47727255
v -1.08640296 -1.47657385 1.37126375
v -1.40942514 -1.33008726 1.80528790
v -1.18280807 -1.02729914 1.97258671
v -1.44339803 -0.66265666 2.05459296
v -1.12026671 -0.72120831 1.78424269
v -1.25413638 -0.75226584 1.56580743
v -1.60484375 -0.74564806 1.71498607
v -1.62127943 -0.43267394 1.96958334
v -1.54629497 0.08232792 1.58798651
v -1.31237374 0.50406614 1.95496679
v -1.27570345 -0.02419384 1.64907470
v -1.71294317 0.11009392 1.73702141
v -1.58389482 0.47085230 1.96091144
v -1.49772252 0.95040531 1.42806541
v -1.15570205 0.72485481 1.71938734
v -1.27069915 0.68495576 1.49789980
v -1.64107345 0.82070978 1.66502298
v -1.40563464 1.27217744 1.74062742
v -1.05195574 1.55647958 1.64125192
v -0.98211555 1.99003145 0.97645682
v -0.92507517 1.32377005 1.49589332
v -1.04010597 1.26581159 1.27955424
v -1.29999565 1.66663418 1.48729736
v -0.71977122 1.69507752 0.94167235
v -0.81768499 2.12686334 1.21083249
v -0.47010647 1.83299804 1.11636100
v -0.14501303 2.27247917 0.90956068
v -0.24013084 2.19285698 0.41226611
v -0.48995363 2.28960580 0.64432840
v -0.28975208 2.39197353 0.79992218
v -0.05828138 1.95266353 0.74449153
v -0.26664516 1.88334725 0.67441197
v 0.14573441 1.91727873 0.29684995
v 0.30145221 2.34570448 0.17950587
v 0.39105441 2.35273041 0.43427411
v 0.51362307 1.88634628 0.41558139
v 1.24973333 1.69785965 0.02776568
v 0.54822710 1.99282294 -0.11032253
v 0.95134643 2.07020658 -0.00922704
v 0.80587518 1.58994606 0.11851061
v 0.90348463 1.96581179 -0.19416601
v 0.73398825 1.60466634 -0.09326395
v 1.35035286 1.22432781 -0.00541255
v 1.31869519 1.06167671 -0.50066122
v 1.40638404 1.49258484 -0.32026861
v 1.23208924 1.01262772 -0.08666738
v 1.15965973 1.00748832 -0.29725770
v 1.65749283 0.49228627 -0.06532743
v 1.60879198 0.89945421 -0.44250543
v 1.71256885 0.80000988 -0.23345494
v 1.73809204 0.30670760 -0.37236927
v 1.35052597 0.35293286 -0.07943063
v 1.31897413 0.09127724 -0.33455221
v 1.55287968 0.08930090 -0.46863541
v 1.71050525 -0.10832953 -0.02950104
v 1.64837381 -0.24249936 -0.30792333
v 1.40595986 -0.04278209 0.04977675
v 1.25502301 -0.04596002 -0.11757653
v 1.11344882 -0.65271725 -0.16862124
v 1.40382987 -0.86231117 0.06415421
v 1.35624793 -0.69937723 0.25235594
v 1.20381247 -0.50919380 0.24266989
v 1.09597283 -0.46329073 0.13717080
v 1.02482304 -0.51220676 -0.00579104
v 1.27612555 -0.84800727 -0.12456186
v 0.90354525 -1.10064800 0.47364311
v 0.40097047 -1.08299856 0.23427690
v 0.74445475 -1.21890849 0.29453378
v 0.72403298 -0.87712844 0.58500248
v 0.66528580 -0.70003448 0.39478323
v 0.49445548 -0.81933947 0.23602977
v 0.41988226 -0.70917385 0.40311651
v 0.14998995 -1.16618138 0.46728199
v 0.30961995 -1.04617852 0.74518916
v 0.16780712 -0.63809226 0.65934979
v -0.07499386 -0.76657754 0.35765708
v 0.00425212 -1.05304154 0.69615616
v -0.48467679 -0.23062760 0.81248788
v -0.03256175 -0.55394024 0.46586973
v -0.47402211 -0.75019338 0.68044647
v -0.37261458 -0.63350005 0.83953314
v -0.56328662 -0.59250936 0.45333324
v -0.33389318 -0.17803996 0.61311857
v -0.50611326 -0.29402737 0.32769501
v -0.39491296 -0.10545615 0.43598249
v -0.79872644 -0.07148655 0.68895465
v -0.93716869 0.08993913 0.25499672
v -0.82340286 -0.25024610 0.56501466
v -0.69416771 0.82333420 0.22004730
v -0.86912361 0.52630574 0.44228278
v -0.49551498 0.23116885 0.31321887
v -0.71720736 0.15088466 0.11385678
v -1.01184348 0.37687780 0.31644617
v -0.53875880 0.63930365 0.14904215
v -0.57679791 0.45918926 0.01127651
v -0.75793100 0.51571828 -0.17215790
v -0.83310494 1.02125296 -0.02302602
v -0.91560729 0.92051496 -0.24490080
v -0.34405495 0.85052801 -0.36019678
v -0.48944393 0.69474885 -0.34568809
v -0.65540267 0.89136031 -0.64166200
v -0.30292759 1.11359522 -0.38189517
v -0.44007551 0.74673633 -0.58071136
v -0.45623361 1.27867690 -0.53248212
v -0.57386943 1.16901285 -0.74581542
v -0.16253864 0.72512270 -1.10232015
v -0.19320452 0.94055753 -1.21253619
v -0.04460028 1.14417455 -1.18630098
v 0.11912591 1.13734052 -1.02732369
v 0.18229415 0.92141537 -0.90111254
v 0.04603376 0.73427029 -0.87828220
v -0.06771464 0.67652057 -0.98607567
v 0.27536833 0.52014003 -1.60998772
v 0.49974755 0.68795517 -1.46551321
v 0.71816020 0.38164447 -1.40627967
v 0.55290528 0.29689432 -1.21082575
v 0.30195044 0.36882954 -1.16782278
v 0.16659200 0.36888210 -1.34803720
v 0.94526671 -0.59219896 -1.36841049
v 0.44564383 -0.05615886 -1.67097088
v 0.70785562 0.20050846 -1.64694539
v 0.37660983 0.00522316 -1.34645052
v 0.68941277 -0.30191107 -1.74956247
v 0.89690418 -0.37984808 -1.62613618
v 0.71209308 -0.61934302 -1.24801572
v 0.52327218 -0.64861850 -1.36251617
v 0.51527541 -0.83745255 -1.53480462
v 0.89018705 -1.01634500 -1.57572441
v 0.58131905 -1.31815441 -1.53943784
v 0.65862798 -1.73634625 -1.31992854
v 0.80294349 -1.61194987 -1.21461939
v 0.67242942 -1.73969542 -0.89742170
v 0.59241706 -1.32960971 -1.00178391
v 0.39759971 -1.34038150 -1.11207010
v 0.13778379 -1.75126406 -0.95336699
v 0.44039352 -2.19186797 -0.79195560
v 0.20014551 -1.84555362 -0.58239997
v 0.21247193 -2.22757718 -0.93253072
v 0.09429220 -2.22309952 -0.29186528
v -0.34749046 -2.37460961 -0.50296182
v -0.25250973 -2.01711226 -0.48790996
v -0.23689854 -2.50118504 -0.36513230
v -0.14452065 -2.42117670 -0.12052192
v -0.23536023 -1.98744809 -0.25996858
v -0.70309473 -2.07628474 -0.14779472
v -0.60888444 -1.97060081 0.15523334
v -0.77838280 -2.45783984 0.10684213
v -0.61315269 -2.32084214 0.34055771
v -1.36506098 -2.05769624 0.35417810
v -1.23078345 -2.19144177 0.60205209
v -1.08677269 -1.70686237 0.47634490
v -1.26159166 -1.77721905 0.30936545
v -1.58506075 -1.89235780 0.72841772
v -1.37789560 -1.54672215 0.94597472
v -1.65884836 -1.50501445 1.05931193
v -1.47233744 -1.25377920 0.76668425
v -1.65643409 -1.30800735 0.60224363
v -1.96010159 -1.18267921 0.74670897
v -2.01714378 -1.21759951 1.01201817
v -1.74752714 -0.76536773 1.13131266
v -1.91015376 -0.86141537 1.25411900
v -1.78841697 -0.61121269 0.88058834
v -2.24870403 -0.36984440 1.22538056
v -2.36908691 0.37169607 0.97028661
v -2.28178683 -0.44658732 1.02478473
v -2.07758821 -0.01797768 1.32513989
v -1.88034303 0.10226899 1.02194227
v -2.06062958 0.06158601 0.84182766
v -2.27338664 0.56638272 1.23515163
v -1.97235097 1.10480979 1.18723454
v -1.84148182 0.86941848 1.04592647
v -1.89869774 0.82818825 0.84054339
v -2.02420268 1.00464816 0.72270017
v -2.06598913 1.54831596 0.64127372
v -2.09114583 1.43407020 1.05938698
v -2.14243213 1.59225542 0.81635471
v -1.50525819 1.97136892 0.81002658
v -1.63739919 1.49561431 0.64678828
v -1.62507320 2.21011412 0.75154186
v -1.36742787 2.02518269 0.26272601
v -1.67943478 2.29928648 0.49134312
v -1.19736025 2.08058751 0.47330340
v -1.14930169 2.69179519 0.31331638
vn -0.48892984 0.81947879 -0.29900189
vn 0.04219336 0.98009221 0.19400770
vn 0.48222873 0.19446087 0.85418992
vn 0.51524925 -0.78538958 0.34304726
vn -0.09509263 -0.94924670 -0.29981342
vn -0.65416899 0.17391918 -0.73608087
vn 0.45963344 0.19561486 0.86629783
vn 0.23591428 -0.84894818 0.47289686
vn -0.22976790 -0.96975940 -0.08230080
vn -0.39353341 0.51985262 -0.75821152
vn -0.01771695 0.82457229 -0.56547913
vn 0.44369100 0.86477454 0.23516651
vn -0.37599593 0.02495555 -0.92628521
vn 0.67541993 0.63744158 0.37077776
vn -0.20474731 -0.75934834 0.61763148
vn 0.22641844 0.66351697 -0.71307778
vn -0.69589779 -0.71294880 -0.08619906
vn -0.11068271 -0.29418095 0.94931918
vn 0.35078466 0.55064853 -0.75745384
vn 0.83177770 0.55067735 -0.07000226
vn -0.79508163 -0.51004214 -0.32818017
vn -0.05875757 -0.03205616 -0.99775746
vn 0.56191493 0.35686537 -0.74625647
vn 0.79107803 0.33361306 0.51273568
vn -0.79830475 -0.47432390 0.37111502
vn -0.07049387 0.12353366 0.98983334
vn -0.75583992 -0.27320533 0.59503350
vn 0.76860666 0.16231541 -0.61878713
vn 0.87604587 0.25864930 0.40699407
vn -0.82393736 -0.22583582 -0.51973590
vn -0.90106144 -0.02670805 0.43286830
vn 0.09250766 -0.22985310 -0.96881881
vn 0.95918393 -0.09487653 -0.26639189
vn -0.59246584 -0.30830862 -0.74426476
vn -0.19937323 0.39829471 0.89532767
vn -0.96128773 0.16323018 0.22199507
vn 0.31432040 -0.41366890 -0.85444762
vn 0.93729518 -0.29477527 -0.18597121
vn 0.84577093 -0.02366266 0.53302121
vn -0.23719963 -0.65392300 -0.71841565
vn -0.01383121 0.60573616 0.79554535
vn -0.76750247 0.60503063 0.21184402
vn 0.58303483 -0.65860491 -0.47572046
vn -0.81455534 0.49902650 -0.29575691
vn 0.69791429 -0.71080140 0.08761859
vn 0.11872272 0.79428948 0.59582644
vn 0.70080652 -0.13728262 0.70001694
vn -0.61721181 -0.42568289 -0.66169756
vn -0.15994778 -0.88041972 -0.44640544
vn 0.41705694 -0.87787741 0.23536090
vn -0.46166683 0.78216035 -0.41843629
vn -0.02843563 0.96004762 0.27838820
vn -0.39100519 0.61124204 -0.68811199
vn -0.30757512 -0.95150231 0.00639530
vn 0.38598865 -0.58787675 0.71092453
vn 0.48102036 0.87609276 0.03287680
vn 0.36112650 -0.07841182 0.92921431
vn -0.68544449 -0.45395225 -0.56929185
vn -0.05737481 -0.66906566 0.74098534
vn 0.26885330 0.73380516 -0.62389734
vn -0.67424503 -0.73000285 0.11175632
vn -0.15366683 0.35217596 -0.92323269
vn 0.89208238 0.41360377 0.18199163
vn -0.85015965 -0.36123660 -0.38306225
vn -0.55443894 -0.49353420 0.67009063
vn 0.75682579 0.34141186 -0.55736224
vn -0.05352873 0.07511094 -0.99573743
vn 0.67654310 0.23841554 0.69674060
vn -0.81548070 -0.25815036 0.51802473
vn -0.08299427 0.01487137 0.99643906
vn -0.68337563 0.08092369 0.72556813
vn 0.88297032 0.01625577 -0.46914728
vn 0.88357018 -0.19218541 -0.42704626
vn -0.99002505 -0.06544353 -0.12477000
vn 0.24187863 0.38117423 0.89230092
vn -0.81333876 0.36811044 0.45052721
vn 0.99373197 -0.07864388 0.07944749
vn 0.58084800 -0.47663873 -0.65987205
vn -0.74363364 -0.21627078 -0.63264205
vn -0.30389515 0.78694383 0.53699828
vn 0.53840798 0.41600209 0.73284317
vn 0.89506149 -0.26230212 0.36064182
vn 0.68263730 -0.70352837 -0.19762122
vn 0.01434390 -0.75755893 -0.65260916
vn -0.88023989 0.46113504 -0.11194734
vn 0.34194084 0.83928701 0.42269821
vn -0.79111205 0.14308030 -0.59470140
vn -0.40034686 0.89314944 -0.20495481
vn 0.79866317 0.04641829 0.59998540
vn 0.46619097 -0.86280640 0.19552772
vn -0.50653388 -0.78523561 -0.35612985
vn -0.19613566 -0.95127964 0.23790301
vn -0.25599975 0.77423908 -0.57880737
vn 0.67631396 0.70806189 0.20309552
vn -0.36909276 -0.83875826 0.40031878
vn -0.84489180 -0.50044567 -0.18897613
vn 0.43793329 0.80901444 -0.39205875
vn 0.92394920 -0.02778173 0.38150497
vn -0.50677466 -0.74275187 0.43760610
vn 0.30483264 0.57100200 -0.76225572
vn 0.90754657 0.40923421 -0.09426863
vn -0.51056597 0.25009444 -0.82266345
vn 0.04640031 -0.50671846 0.86086202
vn -0.93712703 -0.30378271 0.17178181
vn -0.09050658 -0.10809071 0.99001260
vn -0.93469627 0.16172354 -0.31652549
vn 0.90930724 0.03466757 -0.41467879
vn -0.85026241 -0.13386687 0.50905156
vn -0.26523688 0.13391542 -0.95483824
vn 0.33579686 0.26873597 -0.90278538
vn 0.74594800 -0.36077404 0.55982468
vn 0.93728325 -0.33817158 -0.08449905
vn 0.44478800 -0.21283721 -0.86997928
vn -0.69929413 0.41826225 0.57969337
vn 0.14292697 0.15425340 0.97763888
vn -0.75438383 0.64811945 0.10414514
vn 0.65294427 -0.74316383 -0.14618924
vn 0.05771671 -0.50716596 -0.85991364
vn 0.00323806 0.68680627 0.72683331
vn -0.49674081 0.80578251 0.32243312
vn -0.43699220 0.02815258 -0.89902461
vn 0.49569847 -0.18549294 0.84845471
vn -0.32024451 0.89307133 -0.31601748
vn 0.36618098 -0.90161102 0.23023696
vn -0.14825347 -0.79912205 -0.58260181
vn -0.26542220 0.39287040 -0.88045664
vn -0.51561182 -0.41127484 -0.75166313
vn -0.37341778 -0.92739821 0.02217480
vn 0.07055630 -0.62891398 0.77426676
vn 0.43120046 0.15697688 0.88849559
vn 0.44493054 0.85279863 0.27344344
vn 0.12903745 0.87184532 -0.47247759
vn -0.72401315 -0.48115444 -0.49426244
vn -0.47271312 -0.63479898 0.61120583
vn -0.05439205 -0.15113721 0.98701522
vn 0.50375602 0.47987519 -0.71829637
vn 0.60991528 0.72356725 -0.32319311
vn 0.06372558 0.29792884 -0.95245864
vn 0.14410558 0.21482220 0.96596325
vn -0.50169300 -0.20215689 -0.84109258
vn -0.78435309 -0.38528656 0.48615274
vn 0.59409629 0.29004349 -0.75028286
vn -0.96369251 -0.23192275 -0.13231998
vn -0.68828703 -0.05368589 0.72344923
vn 0.96285708 0.11345644 0.24501814
vn 0.73660562 -0.03171901 -0.67557831
vn 0.06769301 -0.21457518 -0.97435884
vn -0.84879596 0.20254545 0.48838588
vn -0.85083537 -0.02313910 -0.52492262
vn -0.87950209 0.47478553 0.03247735
vn -0.39023486 0.50926170 0.76705233
vn 0.32641496 0.37950032 0.86569786
vn 0.94407760 -0.18826848 0.27068887
vn 0.81674238 -0.50868524 -0.27234394
vn 0.25603373 -0.72324989 -0.64137066
vn -0.28406887 0.82881312 0.48205155
vn 0.74336573 -0.53817304 0.39721174
vn -0.76038909 0.51023735 -0.40182866
vn 0.43258186 0.38739622 0.81412352
vn -0.59130568 0.15998987 -0.79041814
vn 0.51499062 -0.77110264 0.37441338
vn -0.36985310 0.88766609 -0.27433119
vn 0.19012448 0.88667749 0.42149224
vn -0.04019692 -0.97427995 -0.22172681
vn -0.36048084 -0.84442280 -0.39623693
vn 0.27308639 -0.61131091 0.74278045
vn -0.14336719 0.82579782 -0.54543910
vn 0.49268577 0.70690315 0.50749252
vn -0.38319418 0.12180217 -0.91560169
vn 0.39019280 0.86042308 -0.32775249
vn -0.17989550 -0.80149251 0.57030463
vn -0.61821065 -0.73680266 -0.27374703
vn 0.26340112 0.55773865 -0.78711337
vn 0.54381281 0.29821944 0.78443151
vn 0.76878439 0.63827228 -0.03973724
vn -0.32681039 -0.43034303 0.84142727
vn -0.77599869 -0.62278703 -0.09981162
vn -0.47782576 -0.22173617 -0.85000918
vn 0.42343856 0.35169432 -0.83487178
vn 0.31052778 0.12024861 0.94292777
vn 0.88530615 0.43676093 0.15960236
vn -0.70359211 -0.23590149 0.67030488
vn 0.77065994 0.23733768 -0.59140010
vn -0.32514120 -0.30773702 -0.89419300
vn 0.26173184 -0.09131949 -0.96081070
vn 0.92402657 0.26967992 0.27101226
vn -0.62681893 0.00403543 0.77915451
vn -0.96943976 -0.24531368 -0.00278424
vn 0.90622848 -0.05227601 -0.41954400
vn 0.92071885 0.07879602 0.38218843
vn 0.07662830 0.42314119 0.90281761
vn -0.80020610 0.21933721 0.55817685
vn -0.95388595 -0.03538549 -0.29807625
vn -0.09634653 -0.53823048 -0.83727254
vn 0.57906236 -0.36982985 -0.72657599
vn 0.88271911 -0.44627194 -0.14713371
vn 0.81804916 -0.07736089 0.56992180
vn -0.08499148 0.59475748 0.79939977
vn -0.68892661 0.56221030 0.45749284
vn -0.83746836 0.09630929 -0.53793241
vn 0.02165422 -0.75625303 -0.65392083
vn 0.69023625 -0.72213792 -0.04572477
vn 0.10086797 0.71324354 0.69362044
vn -0.63540259 0.76909043 -0.06901775
vn -0.44077000 -0.59898072 -0.66853863
vn 0.55236065 -0.77151967 0.31568199
vn 0.08951244 0.97512173 0.20279333
vn -0.68802239 -0.47241530 -0.55086203
vn -0.13453985 -0.96023291 -0.24464626
vn 0.65662181 -0.24464766 0.71343908
vn -0.36809187 0.87864504 -0.30412378
vn -0.50385116 0.81283742 -0.29228298
vn 0.50925068 0.84523304 0.16200262
vn -0.29464088 -0.94986174 0.10463948
vn 0.30870489 -0.64084062 0.70286883
vn -0.38439855 0.58666103 -0.71278790
vn 0.34147300 -0.36824067 0.86475141
vn -0.59211060 -0.78305134 0.19035662
vn 0.11899928 0.72901924 -0.67406982
vn -0.17742766 0.51531980 -0.83843004
vn 0.86521962 0.41302594 0.28426147
vn -0.85260437 -0.36693177 -0.37205761
vn -0.36385928 -0.54051571 0.75858368
vn 0.62628130 0.51639429 -0.58404509
vn -0.24357835 0.28308616 -0.92764854
vn -0.79363178 -0.42402704 0.43629081
vn 0.41433795 -0.06958024 0.90745945
vn -0.20832598 -0.13459643 0.96875388
vn 0.97661495 0.21496141 0.00385137
vn 0.57099407 0.23211303 -0.78745750
vn -0.94268301 -0.19076004 -0.27378706
vn -0.80462815 -0.09364637 0.58634793
vn -0.31664942 -0.09435290 -0.94383827
vn 0.51311054 0.07247545 0.85525720
vn 0.74524973 0.05968266 -0.66410905
vn -0.98453494 -0.01700633 -0.17436094
vn -0.54909221 0.17984183 0.81618299
vn -0.60735911 -0.02940779 -0.79388292
vn 0.97092429 -0.20178130 0.12880344
vn 0.49795888 -0.29364398 -0.81597192
vn -0.97359294 0.22810252 0.00927552
vn -0.49737705 0.43201903 0.75231352
vn 0.27380605 0.34092814 0.89933211
vn -0.74877538 0.37639925 -0.54558137
vn 0.87807694 -0.36247572 0.31239757
vn 0.52830924 -0.67235667 -0.51848419
vn -0.73891461 0.61472921 0.27588620
vn 0.04087422 -0.71679559 -0.69608432
vn -0.24970397 0.83695979 0.48697662
vn 0.69380306 -0.56558667 0.44581277
vn 0.44480350 0.45973911 0.76862851
vn -0.54730559 0.09790454 -0.83118668
vn -0.55995931 0.67778649 -0.47649874
vn -0.07057117 0.97540325 0.20882578
vn -0.10978016 -0.94300634 -0.31414545
vn 0.46820470 -0.83626518 0.28538554
vn -0.41782826 -0.83890553 -0.34879371
vn -0.10906947 0.83422879 -0.54052399
vn 0.44547337 0.82190950 0.35499049
vn 0.08442229 -0.71693685 0.69200754
vn 0.76297259 0.39481355 0.51185456
vn -0.44802106 0.13491415 -0.88378465
vn 0.57467806 0.81467172 -0.07781461
vn -0.50716421 -0.80088285 0.31838832
vn 0.13327209 0.57773443 -0.80527106
vn -0.75580282 -0.60816564 -0.24268632
vn 0.02011026 -0.15684762 0.98741805
vn -0.20975835 0.06290000 -0.97572795
vn 0.67614642 0.52779137 -0.51406448
vn -0.65516309 -0.31279668 0.68769148
vn -0.90794623 -0.34573864 -0.23685107
vn 0.52583773 0.10002029 0.84468374
vn 0.65090303 0.21182644 -0.72900946
vn 0.96344931 0.23295154 0.13228382
vn 0.88138829 -0.02518881 -0.47172048
vn -0.67280327 0.04290028 0.73857656
vn -0.67641323 0.25049415 0.69261665
vn 0.13175803 -0.17613409 -0.97550838
vn 0.85488744 -0.07246595 0.51372771
vn 0.71625775 -0.39543598 -0.57498280
vn -0.20521358 0.30058926 0.93141478
vn -0.87412611 0.39408934 0.28389633
vn -0.44308963 -0.11775786 -0.88870955
vn 0.74906238 -0.66164201 0.03369580
vn 0.63321881 -0.08622264 0.76915512
vn 0.04780391 0.52769178 0.84808972
vn -0.51275511 0.75134536 0.41540624
vn -0.77500109 0.54345566 -0.32253567
vn 0.22356781 -0.64596942 -0.72989105
vn 0.48082279 -0.60770255 0.63206571
vn -0.32045930 -0.45595587 -0.83030722
vn 0.09792681 -0.97827203 -0.18274071
vn 0.36261162 0.28044736 0.88874186
vn -0.11800775 0.96081004 0.25083509
vn -0.36134476 0.53958954 -0.76044269
vn 0.08890741 0.91942189 -0.38309120
vn -0.31702988 -0.93553054 -0.15580327
vn 0.15813774 -0.47318761 0.86665215
vn 0.30740937 0.82192057 -0.47952691
vn -0.06074349 0.24708400 -0.96708827
vn -0.31817123 -0.77530484 0.54559094
vn 0.09857195 0.30389292 0.94759309
vn 0.44740812 0.64725824 -0.61715699
vn -0.68066732 -0.67678869 0.28044442
vn -0.24505180 -0.22276090 0.94357151
vn -0.61244738 -0.56273573 -0.55519069
vn 0.74709682 0.59148509 0.30330140
vn 0.14720497 -0.14694357 -0.97812999
vn 0.82824241 0.22701535 -0.51232659
vn -0.62469419 0.04544286 0.77954609
vn -0.79246074 -0.44032951 -0.42203780
vn -0.88371923 -0.42296045 0.20036164
vn 0.25928279 0.63800365 0.72506812
vn -0.39827829 0.48988606 0.77549084
vn 0.93032771 0.06763792 -0.36043787
vn 0.15691236 -0.53145153 -0.83242884
vn -0.98132551 0.06181725 0.18215069
vn 0.89409712 0.12876854 0.42896272
vn 0.79226977 -0.46494093 -0.39514370
vn 0.43991099 -0.73860468 -0.51082428
vn -0.46463518 0.79616746 0.38759712
vn -0.92996075 0.26165421 -0.25828295
vn 0.82415085 -0.45509242 0.33714427
vn 0.60459722 -0.77658197 -0.17715148
vn -0.72479735 -0.35516311 -0.59036257
vn 0.62906154 0.50208071 0.59346149
vn -0.02793869 -0.99107494 -0.13034531
vn -0.06679938 0.98587838 0.15356323
vn -0.67451022 0.56753759 -0.47216209
vn -0.67744322 -0.65826004 -0.32827488
vn -0.65601497 0.08149543 -0.75033516
vn -0.07174943 0.80209636 -0.59286882
vn 0.58036378 0.81212937 0.06019767
vn 0.75469682 0.17681929 0.63179715
vn 0.31572670 -0.63869536 0.70170142
vn -0.29891960 -0.91966230 0.25469263
vn -0.37275292 0.17244618 -0.91176618
vn 0.56979418 0.66212450 -0.48675018
vn 0.91265905 0.39271479 0.11326318
vn -0.71091293 -0.53818392 0.45272605
vn -0.31663722 -0.64101788 0.69916876
vn -0.85224401 -0.51987418 -0.05840363
vn 0.91581239 0.08351440 0.39282695
vn -0.70068790 -0.13627896 -0.70033171
vn 0.58634040 0.32955165 -0.74000044
vn -0.80426337 -0.34919948 0.48085357
vn 0.08323746 -0.01590015 -0.99640289
vn 0.85286468 0.10000980 -0.51246452
vn -0.00138213 0.15717127 0.98757039
vn -0.83826835 0.00310387 0.54524906
vn -0.97988567 -0.04218097 -0.19505084
vn 0.72708852 -0.23680260 -0.64441199
vn -0.27326371 -0.29326264 -0.91614626
vn 0.36219884 -0.62039159 -0.69564810
vn 0.93120783 -0.35699328 -0.07353756
vn 0.80705059 -0.06046217 0.58737865
vn -0.03460794 0.44425821 0.89523010
vn -0.57843148 0.57576292 0.57785300
vn -0.82147640 0.56409396 -0.08351367
vn 0.70071349 -0.71153958 0.05207716
vn 0.06546772 0.76583655 0.63969396
vn -0.07107294 -0.74427011 -0.66408632
vn 0.73193553 -0.05961785 0.67876071
vn -0.55430436 -0.48244629 -0.67822729
vn 0.05645631 0.93194858 0.35816829
vn 0.02336734 -0.98519190 -0.16985548
vn 0.52978260 -0.68404424 0.50141189
vn -0.39957213 0.85049753 -0.34204688
vn -0.45204501 0.61572004 -0.64540231
vn 0.50059473 0.82908000 0.24906076
vn -0.30484311 -0.95195620 -0.02915609
vn 0.49328923 -0.42937940 0.75650450
vn -0.73532474 -0.43663325 -0.51831354
vn -0.23431300 -0.81654739 0.52758676
vn 0.41908872 0.86881857 -0.26366445
vn -0.24603507 0.49354221 -0.83419592
vn -0.69582073 -0.67945242 0.23276151
vn 0.65601215 0.03949697 0.75371616
vn -0.10951179 -0.45270590 0.88490934
vn 0.79013922 0.56075687 -0.24745047
vn -0.01678449 0.39964122 -0.91651796
vn -0.71324813 -0.12161601 -0.69028013
vn -0.81831886 -0.47494450 0.32370043
vn 0.83041475 0.20082257 0.51969379
vn 0.00561290 -0.18599270 0.98253509
vn 0.76920635 0.25437002 -0.58618895
vn -0.73439622 -0.17409334 0.65601349
vn -0.94089300 -0.01277813 -0.33846281
vn -0.96581870 -0.20528342 -0.15828125
vn 0.06321283 0.00789614 0.99796883
vn 0.90360882 0.07380436 -0.42195263
vn 0.15210269 0.02843058 -0.98795570
vn -0.65798589 0.15480093 0.73694724
vn 0.23018068 0.14919347 0.96164347
vn 0.92266027 -0.15534716 0.35293807
vn 0.77987959 -0.22741317 -0.58315613
vn -0.03758974 -0.25813237 -0.96537800
vn -0.70042371 0.07713820 -0.70954656
vn -0.52480338 0.40041012 0.75116786
vn -0.90684962 0.42003915 0.03450921
vn 0.55252105 0.02853776 0.83301026
vn 0.85458862 -0.49633324 -0.15274685
vn -0.22709500 0.62525771 0.74664628
vn 0.14580060 -0.65830567 -0.73849566
vn -0.77773805 0.62189222 -0.09150734
vn 0.71114284 -0.67010266 0.21269295
vn -0.18782107 0.84151923 0.50652604
f 2//2 3//3 7//7
f 3//3 4//4 7//7
f 4//4 8//8 7//7
f 4//4 5//5 8//8
f 5//5 6//6 9//9
f 6//6 1//1 10//10
f 1//1 2//2 10//10
f 2//2 12//12 11//11
f 2//2 7//7 12//12
f 5//5 9//9 8//8
f 9//9 6//6 13//13
f 6//6 10//10 13//13
f 10//10 2//2 11//11
f 7//7 14//14 12//12
f 8//8 15//15 7//7
f 8//8 9//9 15//15
f 11//11 12//12 16//16
f 12//12 14//14 16//16
f 9//9 17//17 15//15
f 9//9 13//13 17//17
f 10//10 11//11 13//13
f 11//11 16//16 13//13
f 7//7 18//18 14//14
f 7//7 15//15 18//18
f 15//15 17//17 18//18
f 16//16 14//14 19//19
f 14//14 20//20 19//19
f 17//17 13//13 21//21
f 13//13 22//22 21//21
f 13//13 16//16 22//22
f 16//16 19//19 22//22
f 19//19 20//20 23//23
f 14//14 24//24 20//20
f 18//18 17//17 25//25
f 17//17 21//21 25//25
f 19//19 23//23 22//22
f 14//14 18//18 24//24
f 18//18 26//26 24//24
f 18//18 25//25 26//26
f 23//23 20//20 28//28
f 20//20 29//29 28//28
f 20//20 24//24 29//29
f 25//25 27//27 26//26
f 25//25 21//21 27//27
f 21//21 30//30 27//27
f 21//21 22//22 30//30
f 23//23 28//28 22//22
f 24//24 26//26 29//29
f 26//26 27//27 31//31
f 27//27 30//30 31//31
f 22//22 32//32 30//30
f 22//22 28//28 32//32
f 28//28 29//29 33//33
f 30//30 32//32 34//34
f 28//28 33//33 32//32
f 26//26 35//35 29//29
f 26//26 31//31 35//35
f 31//31 36//36 35//35
f 31//31 30//30 36//36
f 32//32 37//37 34//34
f 32//32 33//33 37//37
f 33//33 29//29 38//38
f 29//29 39//39 38//38
f 30//30 34//34 36//36
f 33//33 38//38 37//37
f 29//29 35//35 39//39
f 35//35 41//41 39//39
f 35//35 36//36 41//41
f 36//36 42//42 41//41
f 36//36 34//34 42//42
f 37//37 43//43 34//34
f 37//37 38//38 43//43
f 38//38 39//39 43//43
f 34//34 44//44 42//42
f 34//34 40//40 44//44
f 34//34 43//43 40//40
f 43//43 39//39 45//45
f 41//41 46//46 39//39
f 41//41 42//42 46//46
f 42//42 44//44 46//46
f 43//43 45//45 40//40
f 39//39 47//47 45//45
f 40//40 48//48 44//44
f 45//45 47//47 50//50
f 39//39 46//46 47//47
f 46//46 44//44 51//51
f 44//44 52//52 51//51
f 40//40 49//49 48//48
f 40//40 45//45 49//49
f 45//45 50//50 49//49
f 44//44 53//53 52//52
f 44//44 48//48 53//53
f 50//50 55//55 54//54
f 50//50 47//47 55//55
f 46//46 56//56 47//47
f 46//46 51//51 56//56
f 52//52 53//53 51//51
f 49//49 54//54 48//48
f 49//49 50//50 54//54
f 47//47 57//57 55//55
f 51//51 53//53 56//56
f 48//48 58//58 53//53
f 48//48 54//54 58//58
f 55//55 59//59 54//54
f 47//47 56//56 57//57
f 53//53 60//60 56//56
f 54//54 59//59 61//61
f 55//55 57//57 59//59
f 60//60 53//53 62//62
f 53//53 58//58 62//62
f 54//54 61//61 58//58
f 56//56 63//63 57//57
f 56//56 60//60 63//63
f 59//59 57//57 65//65
f 60//60 66//66 63//63
f 60//60 62//62 66//66
f 62//62 67//67 66//66
f 62//62 58//58 67//67
f 58//58 64//64 67//67
f 58//58 61//61 64//64
f 61//61 65//65 64//64
f 61//61 59//59 65//65
f 57//57 63//63 68//68
f 65//65 70//70 69//69
f 65//65 57//57 70//70
f 57//57 68//68 70//70
f 65//65 69//69 64//64
f 69//69 70//70 71//71
f 63//63 72//72 68//68
f 63//63 66//66 72//72
f 66//66 67//67 72//72
f 67//67 73//73 72//72
f 67//67 64//64 73//73
f 64//64 69//69 74//74
f 69//69 71//71 74//74
f 70//70 75//75 71//71
f 70//70 68//68 75//75
f 71//71 75//75 76//76
f 68//68 72//72 77//77
f 72//72 78//78 77//77
f 72//72 73//73 78//78
f 74//74 71//71 76//76
f 68//68 77//77 75//75
f 64//64 79//79 73//73
f 64//64 74//74 79//79
f 76//76 75//75 80//80
f 77//77 82//82 75//75
f 77//77 78//78 82//82
f 78//78 83//83 82//82
f 78//78 84//84 83//83
f 78//78 73//73 84//84
f 73//73 79//79 84//84
f 74//74 85//85 79//79
f 74//74 76//76 85//85
f 76//76 80//80 85//85
f 75//75 81//81 80//80
f 75//75 82//82 81//81
f 81//81 86//86 80//80
f 80//80 86//86 88//88
f 81//81 89//89 86//86
f 82//82 90//90 89//89
f 82//82 83//83 90//90
f 83//83 84//84 90//90
f 84//84 91//91 90//90
f 84//84 79//79 91//91
f 79//79 87//87 91//91
f 79//79 85//85 87//87
f 85//85 88//88 87//87
f 85//85 80//80 88//88
f 81//81 82//82 89//89
f 90//90 91//91 92//92
f 88//88 94//94 93//93
f 88//88 86//86 94//94
f 86//86 89//89 94//94
f 88//88 93//93 87//87
f 89//89 90//90 95//95
f 90//90 92//92 95//95
f 87//87 96//96 91//91
f 93//93 94//94 97//97
f 89//89 98//98 94//94
f 89//89 95//95 98//98
f 92//92 99//99 95//95
f 92//92 91//91 99//99
f 91//91 96//96 99//99
f 97//97 101//101 100//100
f 97//97 94//94 101//101
f 94//94 98//98 101//101
f 87//87 102//102 96//96
f 87//87 93//93 102//102
f 93//93 97//97 100//100
f 95//95 99//99 103//103
f 96//96 102//102 104//104
f 93//93 100//100 102//102
f 95//95 103//103 98//98
f 99//99 104//104 103//103
f 99//99 96//96 104//104
f 104//104 102//102 106//106
f 100//100 101//101 107//107
f 101//101 98//98 107//107
f 103//103 105//105 98//98
f 103//103 104//104 105//105
f 104//104 108//108 105//105
f 104//104 106//106 108//108
f 100//100 110//110 102//102
f 100//100 107//107 110//110
f 102//102 109//109 106//106
f 102//102 110//110 109//109
f 98//98 105//105 111//111
f 107//107 98//98 112//112
f 110//110 113//113 109//109
f 110//110 107//107 113//113
f 107//107 112//112 113//113
f 98//98 111//111 112//112
f 105//105 108//108 114//114
f 108//108 106//106 114//114
f 105//105 114//114 115//115
f 106//106 109//109 116//116
f 111//111 105//105 115//115
f 106//106 116//116 114//114
f 112//112 111//111 117//117
f 109//109 113//113 118//118
f 113//113 117//117 118//118
f 113//113 112//112 117//117
f 115//115 114//114 119//119
f 114//114 120//120 119//119
f 114//114 116//116 120//120
f 116//116 109//109 121//121
f 109//109 118//118 121//121
f 111//111 122//122 117//117
f 115//115 122//122 111//111
f 115//115 119//119 122//122
f 116//116 123//123 120//120
f 116//116 121//121 123//123
f 117//117 122//122 124//124
f 118//118 125//125 121//121
f 118//118 124//124 125//125
f 118//118 117//117 124//124
f 120//120 123//123 119//119
f 121//121 127//127 126//126
f 124//124 129//129 128//128
f 124//124 122//122 129//129
f 122//122 130//130 129//129
f 122//122 119//119 130//130
f 119//119 131//131 130//130
f 119//119 123//123 131//131
f 123//123 132//132 131//131
f 123//123 126//126 132//132
f 123//123 121//121 126//126
f 121//121 125//125 127//127
f 125//125 124//124 128//128
f 125//125 128//128 127//127
f 126//126 127//127 133//133
f 127//127 128//128 133//133
f 128//128 129//129 134//134
f 129//129 135//135 134//134
f 129//129 130//130 135//135
f 130//130 131//131 136//136
f 131//131 137//137 136//136
f 131//131 132//132 137//137
f 132//132 126//126 137//137
f 126//126 138//138 137//137
f 126//126 133//133 138//138
f 128//128 134//134 133//133
f 130//130 139//139 135//135
f 130//130 136//136 139//139
f 133//133 140//140 138//138
f 134//134 135//135 141//141
f 137//137 142//142 136//136
f 137//137 138//138 142//142
f 138//138 140//140 142//142
f 133//133 134//134 141//141
f 133//133 143//143 140//140
f 133//133 141//141 143//143
f 141//141 135//135 144//144
f 135//135 139//139 144//144
f 136//136 145//145 139//139
f 136//136 142//142 145//145
f 142//142 146//146 145//145
f 142//142 147//147 146//146
f 142//142 140//140 147//147
f 141//141 144//144 143//143
f 144//144 139//139 148//148
f 140//140 143//143 149//149
f 143//143 148//148 149//149
f 143//143 144//144 148//148
f 140//140 149//149 147//147
f 148//148 151//151 150//150
f 148//148 139//139 151//151
f 139//139 152//152 151//151
f 139//139 145//145 152//152
f 145//145 153//153 152//152
f 145//145 146//146 153//153
f 146//146 154//154 153//153
f 146//146 147//147 154//154
f 148//148 150//150 149//149
f 147//147 155//155 154//154
f 147//147 149//149 155//155
f 151//151 152//152 156//156
f 153//153 157//157 152//152
f 153//153 154//154 157//157
f 149//149 150//150 158//158
f 151//151 156//156 150//150
f 154//154 155//155 157//157
f 149//149 160//160 155//155
f 150//150 156//156 158//158
f 152//152 159//159 156//156
f 152//152 157//157 159//159
f 155//155 161//161 157//157
f 149//149 158//158 160//160
f 156//156 163//163 162//162
f 156//156 159//159 163//163
f 157//157 161//161 164//164
f 155//155 165//165 161//161
f 155//155 160//160 165//165
f 158//158 162//162 160//160
f 158//158 156//156 162//162
f 157//157 166//166 159//159
f 157//157 164//164 166//166
f 162//162 163//163 167//167
f 163//163 168//168 167//167
f 159//159 168//168 163//163
f 164//164 161//161 166//166
f 161//161 165//165 166//166
f 160//160 169//169 165//165
f 162//162 167//167 160//160
f 159//159 166//166 168//168
f 160//160 167//167 169//169
f 167//167 168//168 170//170
f 166//166 165//165 171//171
f 165//165 172//172 171//171
f 165//165 169//169 172//172
f 167//167 170//170 169//169
f 168//168 174//174 170//170
f 166//166 174//174 168//168
f 166//166 171//171 174//174
f 170//170 173//173 169//169
f 170//170 175//175 173//173
f 170//170 174//174 175//175
f 171//171 176//176 174//174
f 171//171 172//172 176//176
f 172//172 177//177 176//176
f 172//172 169//169 177//177
f 169//169 178//178 177//177
f 173//173 175//175 179//179
f 174//174 176//176 180//180
f 169//169 173//173 178//178
f 173//173 179//179 178//178
f 175//175 181//181 179//179
f 175//175 174//174 181//181
f 176//176 182//182 180//180
f 176//176 177//177 182//182
f 177//177 178//178 182//182
f 179//179 181//181 183//183
f 174//174 180//180 181//181
f 178//178 185//185 184//184
f 178//178 179//179 185//185
f 179//179 183//183 185//185
f 183//183 181//181 186//186
f 181//181 180//180 186//186
f 180//180 182//182 187//187
f 182//182 188//188 187//187
f 182//182 178//178 188//188
f 178//178 184//184 188//188
f 183//183 186//186 189//189
f 180//180 190//190 186//186
f 180//180 187//187 190//190
f 183//183 189//189 185//185
f 189//189 186//186 190//190
f 190//190 187//187 191//191
f 187//187 192//192 191//191
f 187//187 188//188 192//192
f 188//188 193//193 192//192
f 188//188 184//184 193//193
f 184//184 194//194 193//193
f 185//185 195//195 184//184
f 185//185 189//189 195//195
f 189//189 190//190 195//195
f 184//184 195//195 194//194
f 195//195 190//190 196//196
f 191//191 198//198 190//190
f 191//191 192//192 198//198
f 192//192 199//199 198//198
f 192//192 193//193 199//199
f 195//195 196//196 194//194
f 190//190 197//197 196//196
f 190//190 198//198 197//197
f 193//193 200//200 199//199
f 193//193 194//194 200//200
f 196//196 197//197 202//202
f 198//198 203//203 197//197
f 198//198 199//199 203//203
f 199//199 204//204 203//203
f 199//199 200//200 204//204
f 194//194 205//205 200//200
f 194//194 196//196 201//201
f 196//196 202//202 201//201
f 194//194 201//201 205//205
f 202//202 197//197 206//206
f 203//203 207//207 197//197
f 203//203 204//204 207//207
f 205//205 208//208 200//200
f 201//201 209//209 205//205
f 201//201 202//202 209//209
f 202//202 206//206 209//209
f 197//197 210//210 206//206
f 207//207 204//204 211//211
f 204//204 212//212 211//211
f 204//204 200//200 212//212
f 200//200 208//208 212//212
f 207//207 213//213 197//197
f 207//207 211//211 213//213
f 205//205 209//209 208//208
f 209//209 206//206 214//214
f 206//206 215//215 214//214
f 206//206 210//210 215//215
f 197//197 213//213 210//210
f 211//211 212//212 213//213
f 212//212 216//216 213//213
f 212//212 208//208 216//216
f 209//209 214//214 208//208
f 210//210 217//217 215//215
f 214//214 215//215 218//218
f 215//215 217//217 218//218
f 210//210 213//213 217//217
f 213//213 216//216 219//219
f 216//216 220//220 219//219
f 216//216 208//208 220//220
f 214//214 218//218 208//208
f 213//213 221//221 217//217
f 213//213 219//219 221//221
f 208//208 222//222 220//220
f 208//208 218//218 222//222
f 218//218 217//217 223//223
f 219//219 224//224 221//221
f 219//219 220//220 224//224
f 220//220 225//225 224//224
f 220//220 222//222 225//225
f 218//218 223//223 222//222
f 217//217 227//227 223//223
f 222//222 223//223 226//226
f 226//226 223//223 228//228
f 223//223 227//227 228//228
f 217//217 221//221 227//227
f 221//221 229//229 227//227
f 221//221 224//224 229//229
f 224//224 230//230 229//229
f 224//224 225//225 230//230
f 225//225 222//222 230//230
f 222//222 226//226 231//231
f 226//226 228//228 232//232
f 222//222 233//233 230//230
f 222//222 231//231 233//233
f 226//226 232//232 231//231
f 227//227 229//229 234//234
f 229//229 235//235 234//234
f 229//229 230//230 235//235
f 230//230 233//233 235//235
f 231//231 236//236 233//233
f 231//231 232//232 236//236
f 232//232 228//228 237//237
f 228//228 234//234 237//237
f 228//228 227//227 234//234
f 233//233 236//236 238//238
f 232//232 237//237 236//236
f 234//234 235//235 239//239
f 235//235 240//240 239//239
f 235//235 233//233 240//240
f 236//236 241//241 238//238
f 236//236 237//237 241//241
f 237//237 234//234 242//242
f 234//234 243//243 242//242
f 233//233 238//238 240//240
f 237//237 242//242 241//241
f 234//234 239//239 243//243
f 239//239 245//245 243//243
f 239//239 240//240 245//245
f 240//240 246//246 245//245
f 240//240 238//238 246//246
f 241//241 247//247 238//238
f 241//241 242//242 247//247
f 242//242 243//243 247//247
f 238//238 248//248 246//246
f 238//238 244//244 248//248
f 238//238 247//247 244//244
f 247//247 243//243 249//249
f 245//245 250//250 243//243
f 245//245 246//246 250//250
f 246//246 248//248 250//250
f 247//247 249//249 244//244
f 243//243 251//251 249//249
f 244//244 252//252 248//248
f 249//249 251//251 254//254
f 243//243 250//250 251//251
f 250//250 248//248 255//255
f 248//248 256//256 255//255
f 244//244 253//253 252//252
f 244//244 249//249 253//253
f 249//249 254//254 253//253
f 248//248 257//257 256//256
f 248//248 252//252 257//257
f 254//254 259//259 258//258
f 254//254 251//251 259//259
f 250//250 260//260 251//251
f 250//250 255//255 260//260
f 256//256 257//257 255//255
f 253//253 258//258 252//252
f 253//253 254//254 258//258
f 251//251 261//261 259//259
f 255//255 257//257 260//260
f 252//252 262//262 257//257
f 252//252 258//258 262//262
f 259//259 263//263 258//258
f 251//251 260//260 261//261
f 257//257 264//264 260//260
f 258//258 263//263 265//265
f 259//259 261//261 263//263
f 264//264 257//257 266//266
f 257//257 262//262 266//266
f 258//258 265//265 262//262
f 260//260 267//267 261//261
f 260//260 264//264 267//267
f 263//263 261//261 269//269
f 264//264 270//270 267//267
f 264//264 266//266 270//270
f 266//266 271//271 270//270
f 266//266 262//262 271//271
f 262//262 268//268 271//271
f 262//262 265//265 268//268
f 265//265 269//269 268//268
f 265//265 263//263 269//269
f 261//261 267//267 272//272
f 269//269 274//274 273//273
f 269//269 261//261 274//274
f 261//261 272//272 274//274
f 269//269 273//273 268//268
f 273//273 274//274 275//275
f 267//267 276//276 272//272
f 267//267 270//270 276//276
f 270//270 271//271 276//276
f 271//271 277//277 276//276
f 271//271 268//268 277//277
f 268//268 273//273 278//278
f 273//273 275//275 278//278
f 274//274 279//279 275//275
f 274//274 272//272 279//279
f 275//275 279//279 280//280
f 272//272 276//276 281//281
f 276//276 282//282 281//281
f 276//276 277//277 282//282
f 278//278 275//275 280//280
f 272//272 281//281 279//279
f 268//268 283//283 277//277
f 268//268 278//278 283//283
f 280//280 279//279 284//284
f 281//281 286//286 279//279
f 281//281 282//282 286//286
f 282//282 287//287 286//286
f 282//282 288//288 287//287
f 282//282 277//277 288//288
f 277//277 283//283 288//288
f 278//278 289//289 283//283
f 278//278 280//280 289//289
f 280//280 284//284 289//289
f 279//279 285//285 284//284
f 279//279 286//286 285//285
f 285//285 290//290 284//284
f 284//284 290//290 292//292
f 285//285 293//293 290//290
f 286//286 294//294 293//293
f 286//286 287//287 294//294
f 287//287 288//288 294//294
f 288//288 295//295 294//294
f 288//288 283//283 295//295
f 283//283 291//291 295//295
f 283//283 289//289 291//291
f 289//289 292//292 291//291
f 289//289 284//284 292//292
f 285//285 286//286 293//293
f 294//294 295//295 296//296
f 292//292 298//298 297//297
f 292//292 290//290 298//298
f 290//290 293//293 298//298
f 292//292 297//297 291//291
f 293//293 294//294 299//299
f 294//294 296//296 299//299
f 291//291 300//300 295//295
f 297//297 298//298 301//301
f 293//293 302//302 298//298
f 293//293 299//299 302//302
f 296//296 303//303 299//299
f 296//296 295//295 303//303
f 295//295 300//300 303//303
f 301//301 305//305 304//304
f 301//301 298//298 305//305
f 298//298 302//302 305//305
f 291//291 306//306 300//300
f 291//291 297//297 306//306
f 297//297 301//301 304//304
f 299//299 303//303 307//307
f 300//300 306//306 308//308
f 297//297 304//304 306//306
f 299//299 307//307 302//302
f 303//303 300//300 308//308
f 307//307 303//303 309//309
f 303//303 308//308 309//309
f 304//304 305//305 310//310
f 305//305 302//302 310//310
f 304//304 312//312 306//306
f 304//304 310//310 312//312
f 306//306 311//311 308//308
f 306//306 312//312 311//311
f 302//302 307//307 313//313
f 310//310 302//302 314//314
f 307//307 309//309 315//315
f 309//309 308//308 315//315
f 308//308 316//316 315//315
f 308//308 311//311 316//316
f 312//312 317//317 311//311
f 312//312 310//310 317//317
f 310//310 314//314 317//317
f 302//302 313//313 314//314
f 307//307 315//315 313//313
f 315//315 319//319 318//318
f 315//315 316//316 319//319
f 316//316 311//311 320//320
f 313//313 315//315 318//318
f 316//316 320//320 319//319
f 314//314 313//313 321//321
f 311//311 317//317 322//322
f 317//317 321//321 322//322
f 317//317 314//314 321//321
f 318//318 319//319 323//323
f 319//319 324//324 323//323
f 319//319 320//320 324//324
f 320//320 311//311 325//325
f 311//311 322//322 325//325
f 313//313 326//326 321//321
f 318//318 326//326 313//313
f 318//318 323//323 326//326
f 320//320 327//327 324//324
f 320//320 325//325 327//327
f 321//321 326//326 328//328
f 322//322 329//329 325//325
f 322//322 328//328 329//329
f 322//322 321//321 328//328
f 324//324 327//327 323//323
f 325//325 331//331 330//330
f 328//328 333//333 332//332
f 328//328 326//326 333//333
f 326//326 334//334 333//333
f 326//326 323//323 334//334
f 323//323 335//335 334//334
f 323//323 327//327 335//335
f 327//327 336//336 335//335
f 327//327 330//330 336//336
f 327//327 325//325 330//330
f 325//325 329//329 331//331
f 329//329 328//328 332//332
f 329//329 332//332 331//331
f 330//330 331//331 337//337
f 331//331 332//332 337//337
f 332//332 333//333 338//338
f 333//333 339//339 338//338
f 333//333 334//334 339//339
f 334//334 335//335 340//340
f 335//335 341//341 340//340
f 335//335 336//336 341//341
f 336//336 330//330 341//341
f 330//330 342//342 341//341
f 330//330 337//337 342//342
f 332//332 338//338 337//337
f 334//334 343//343 339//339
f 334//334 340//340 343//343
f 337//337 344//344 342//342
f 338//338 339//339 345//345
f 341//341 346//346 340//340
f 341//341 342//342 346//346
f 342//342 344//344 346//346
f 337//337 338//338 345//345
f 337//337 347//347 344//344
f 337//337 345//345 347//347
f 345//345 339//339 348//348
f 339//339 343//343 348//348
f 340//340 349//349 343//343
f 340//340 346//346 349//349
f 346//346 350//350 349//349
f 346//346 351//351 350//350
f 346//346 344//344 351//351
f 345//345 348//348 347//347
f 348//348 343//343 352//352
f 344//344 347//347 353//353
f 347//347 352//352 353//353
f 347//347 348//348 352//352
f 344//344 353//353 351//351
f 352//352 355//355 354//354
f 352//352 343//343 355//355
f 343//343 356//356 355//355
f 343//343 349//349 356//356
f 349//349 357//357 356//356
f 349//349 350//350 357//357
f 350//350 358//358 357//357
f 350//350 351//351 358//358
f 352//352 354//354 353//353
f 351//351 359//359 358//358
f 351//351 353//353 359//359
f 355//355 356//356 360//360
f 357//357 361//361 356//356
f 357//357 358//358 361//361
f 353//353 354//354 362//362
f 355//355 360//360 354//354
f 358//358 359//359 361//361
f 353//353 364//364 359//359
f 354//354 360//360 362//362
f 356//356 363//363 360//360
f 356//356 361//361 363//363
f 359//359 365//365 361//361
f 353//353 362//362 364//364
f 360//360 367//367 366//366
f 360//360 363//363 367//367
f 361//361 365//365 368//368
f 359//359 369//369 365//365
f 359//359 364//364 369//369
f 362//362 366//366 364//364
f 362//362 360//360 366//366
f 361//361 370//370 363//363
f 361//361 368//368 370//370
f 366//366 367//367 371//371
f 367//367 372//372 371//371
f 363//363 372//372 367//367
f 368//368 365//365 370//370
f 365//365 369//369 370//370
f 364//364 373//373 369//369
f 366//366 371//371 364//364
f 363//363 370//370 372//372
f 364//364 371//371 373//373
f 371//371 372//372 374//374
f 370//370 369//369 375//375
f 369//369 376//376 375//375
f 369//369 373//373 376//376
f 371//371 374//374 373//373
f 372//372 378//378 374//374
f 370//370 378//378 372//372
f 370//370 375//375 378//378
f 374//374 377//377 373//373
f 374//374 379//379 377//377
f 374//374 378//378 379//379
f 375//375 380//380 378//378
f 375//375 376//376 380//380
f 376//376 381//381 380//380
f 376//376 373//373 381//381
f 373//373 382//382 381//381
f 377//377 379//379 383//383
f 378//378 380//380 384//384
f 373//373 377//377 382//382
f 377//377 383//383 382//382
f 379//379 385//385 383//383
f 379//379 378//378 385//385
f 380//380 386//386 384//384
f 380//380 381//381 386//386
f 381//381 382//382 386//386
f 383//383 385//385 387//387
f 378//378 384//384 385//385
f 382//382 389//389 388//388
f 382//382 383//383 389//389
f 383//383 387//387 389//389
f 387//387 385//385 390//390
f 385//385 384//384 390//390
f 384//384 386//386 391//391
f 386//386 392//392 391//391
f 386//386 382//382 392//392
f 382//382 388//388 392//392
f 387//387 390//390 393//393
f 384//384 394//394 390//390
f 384//384 391//391 394//394
f 389//389 387//387 388//388
f 387//387 393//393 388//388
f 393//393 390//390 394//394
f 394//394 391//391 395//395
f 391//391 396//396 395//395
f 391//391 392//392 396//396
f 392//392 397//397 396//396
f 392//392 388//388 397//397
f 388//388 398//398 397//397
f 393//393 394//394 399//399
f 388//388 400//400 398//398
f 388//388 393//393 400//400
f 393//393 399//399 400//400
f 395//395 401//401 394//394
f 395//395 402//402 401//401
f 395//395 396//396 402//402
f 396//396 397//397 402//402
f 399//399 394//394 403//403
f 394//394 401//401 403//403
f 397//397 404//404 402//402
f 397//397 398//398 404//404
f 399//399 403//403 400//400
f 402//402 406//406 401//401
f 402//402 404//404 406//406
f 398//398 6//6 404//404
f 398//398 400//400 6//6
f 400//400 405//405 6//6
f 400//400 403//403 405//405
f 405//405 403//403 407//407
f 401//401 3//3 403//403
f 405//405 1//1 6//6
f 405//405 407//407 1//1
f 403//403 3//3 407//407
f 401//401 406//406 3//3
f 406//406 4//4 3//3
f 406//406 404//404 4//4
f 404//404 5//5 4//4
f 404//404 6//6 5//5
f 407//407 2//2 1//1
f 407//407 3//3 2//2

