# https://github.com/mikedh/trimesh
v 0.08088342 0.12967246 0.91376503
v 0.72403569 0.39511882 -0.10358642
v -0.69062032 -0.56658160 -0.20102491
v -0.04054592 -0.25783657 -0.75251460
v 0.16610943 -0.97029532 0.01377595
v 0.65629020 -0.13898956 0.54633412
v -0.64536027 0.16501195 -0.66994284
v -0.12335686 0.82218928 0.12939312
v 0.24472654 0.49743286 -0.75054788
v 0.74338768 -0.02798191 -0.35816385
v -0.76036395 0.05591889 0.49758933
v -0.16661319 -0.56140619 0.56165951
v 0.48016518 0.38235168 0.55916146
v -0.49731214 -0.41565202 -0.57361718
v -0.28611915 -0.80762526 -0.12755870
v 0.02313115 -0.80805023 -0.49772860
v 0.46467344 -0.09982349 0.71219571
v 0.84911345 0.03301641 0.43437959
v 0.50994033 -0.69536297 0.22095861
v -0.93105272 -0.13281486 -0.21494805
v -0.48409099 0.11767278 -0.72046561
v -0.08611532 0.69228503 0.63437118
v 0.35761091 0.81865800 0.11250304
v -0.52699628 0.70794786 -0.25696223
v 0.55027788 0.60765614 -0.14004916
v 0.06127547 0.20216221 -0.90774637
v -0.24312193 0.63773199 -0.57307185
v 0.00669825 0.94030015 -0.26870358
v 0.91050923 0.23701709 -0.07276774
v 0.35811919 -0.46310414 -0.68142180
v 0.55085698 -0.65950857 -0.17005424
v 0.83828948 -0.44079005 0.05186379
v 0.58699132 0.20776883 -0.53406193
v -0.37026045 0.18000374 0.73456500
v -0.93138924 -0.02931753 0.10642336
v -0.91329021 0.30154692 -0.03561947
v -0.55991715 0.68997051 0.18353762
v -0.11724460 -0.18084606 0.90334458
v -0.59774833 -0.48431578 0.37533190
v -0.05361734 -0.92804385 0.28280608
v 0.23657032 -0.72377990 0.55202502
v -0.60102578 0.05191506 0.59641401
v 0.30225553 0.52510177 0.66824622
v 0.64556889 0.44926881 0.49916416
v -0.23162292 -0.42485347 -0.69811268
v -0.53831610 -0.65999846 -0.10231510
v -0.09707821 -0.81239807 -0.12230451
v -0.40849850 -0.75304088 -0.39134736
v -0.05108493 -0.47669153 -0.64914471
v 0.10331336 -0.74033174 -0.39831418
v -0.26062830 -0.67505327 -0.46347896
v -0.19486053 -0.84688212 -0.39477289
v 0.20423432 0.19942361 0.83950578
v 0.63217408 -0.43300267 0.60516579
v 0.90506998 0.22191887 0.23734030
v 0.89453416 -0.31159140 0.33197296
v 0.67425132 0.32003025 0.37769671
v 0.62328711 -0.00839333 0.70881884
v 0.28858381 -0.89707302 -0.05568381
v 0.66439329 -0.67157161 0.28948915
v -0.68922058 -0.22912754 -0.39750444
v -0.68279870 0.18893853 -0.46389961
v -0.65444462 -0.32525974 -0.55408509
v -0.21884002 0.01982854 -0.82578495
v 0.00634568 0.52781934 0.63566787
v -0.14464506 0.74463051 0.34838706
v 0.13560059 0.60325102 0.66007411
v 0.50278940 0.58768324 0.29921481
v 0.05495086 0.84361538 0.14692019
v 0.44020480 0.61486863 0.52779078
v 0.14736313 0.91882411 0.25238692
v -0.63843384 0.52018837 -0.49661105
v -0.28812965 0.85627519 -0.07932350
v 0.69317370 0.60456010 0.06624692
v 0.38524163 0.63593666 -0.52181319
v 0.49220822 0.76468146 0.01721189
v -0.03227031 0.06001303 -0.80079525
v 0.14157568 0.18602963 -0.78322391
v -0.48938310 0.47389511 -0.58374244
v -0.04245658 0.52622882 -0.62952765
v -0.37032062 0.44079198 -0.77983183
v -0.39078290 0.72624615 -0.54505962
v -0.14656574 0.47978979 -0.81497778
v -0.10048402 0.83912430 -0.09927483
v 0.10811614 0.74412649 -0.39127684
v 0.18041384 0.93505370 -0.10251123
v -0.26926956 0.79268080 -0.33518543
v 0.23030860 0.82614828 -0.33844081
v -0.17507756 0.79288532 -0.55463208
v 0.92983311 -0.19227010 -0.19143411
v 0.72052880 0.49507581 -0.27055012
v 0.14000253 -0.21655167 -0.77969884
v 0.58594560 -0.17565065 -0.54975739
v 0.23600611 -0.61197960 -0.67577326
v 0.25273214 -0.25646497 -0.85743729
v 0.39823627 -0.76260227 -0.38867388
v 0.73189013 -0.43006451 -0.41400009
v 0.24109985 -0.76892882 -0.45413639
v 0.53527448 -0.46115107 -0.57421556
v 0.73018309 -0.40857418 -0.21476168
v 0.43757403 0.27442577 -0.72077244
v 0.75038218 0.05309924 -0.53559907
v 0.32736277 0.39443627 -0.71048099
v 0.55875014 -0.12348862 -0.68591110
v -0.17094984 0.31472813 0.71071763
v -0.59354833 0.41627639 0.47768344
v -0.30094090 0.52313126 0.72430207
v -0.72959887 -0.35295612 -0.01421161
v -0.75868575 0.00347801 0.30159676
v -0.70342301 0.43642849 -0.24188496
v -0.74254349 0.37076299 0.16331556
v -0.89385558 0.20037174 -0.32573496
v -0.68698855 0.65464691 -0.22510993
v -0.33117677 0.75516268 0.32964713
v -0.73259752 0.55887100 0.26773102
v -0.28286009 0.73573601 0.54808578
v -0.50865761 0.40605163 0.68600363
v -0.01983852 -0.10810098 0.80968754
v -0.17544092 -0.32031345 0.71332394
v 0.15949759 -0.02529879 0.86232454
v -0.31246908 0.12582135 0.86300209
v -0.33554062 -0.72269750 0.34891558
v -0.44079414 -0.83559021 -0.03957073
v -0.74096507 -0.43555580 0.30094584
v 0.04598225 -0.84224464 0.18201238
v -0.14523204 -0.73367294 0.34695702
v -0.22850735 -0.93653347 -0.04236507
v 0.17558109 -0.91007592 0.21526550
v -0.26923079 -0.83241936 0.38271530
v 0.48035271 -0.52002172 0.51547654
v 0.00274279 -0.58335052 0.61771050
v 0.41796924 -0.40378528 0.73727588
v 0.40456375 -0.64041040 0.55768131
v 0.09437547 -0.59867008 0.75126028
v 0.12408287 -0.85248336 0.46294947
v -0.36826724 -0.26258861 0.70757336
v -0.52294940 -0.18622830 0.73702868
v -0.15018649 -0.38304877 -0.84113738
v -0.38121611 -0.51119142 -0.68440236
v 0.07413372 -0.85169300 -0.09378285
v 0.04637692 -0.53615510 -0.76788675
v -0.16721831 -0.61844430 -0.69307529
v 0.19546808 -0.89614987 -0.31408569
v 0.00348719 -0.90829108 -0.29131309
v -0.06103254 -0.63336278 -0.52278514
v -0.08090886 -0.74172155 -0.33195240
v 0.41077445 0.03817356 0.81971145
v 0.47433497 -0.84185578 0.17485650
v -0.14201579 -0.07355751 -0.92029953
v -0.36531156 -0.01306512 -0.87595481
v 0.08904074 0.45158956 0.80655717
v -0.06289320 0.88151871 0.38942417
v -0.03387677 0.97037681 0.06665478
v 0.02905168 0.73940891 0.40365604
v 0.23483379 0.86552789 0.09341231
v 0.14394145 0.78371365 0.45146272
v 0.31537981 0.76049251 0.37186258
v -0.23414631 0.96670681 0.04290055
v -0.41638801 0.88037173 -0.23795504
v 0.53054690 0.62317538 -0.38518450
v 0.13219475 0.52024289 -0.63284410
v 0.05538154 0.53912725 -0.77262760
v -0.22651323 0.40781840 -0.74152518
v -0.03279861 0.29029598 -0.76796978
v -0.14707145 0.19068568 -0.91473202
v -0.20903361 0.94987669 -0.22277508
v 0.22102278 0.74666286 -0.53581949
v 0.03067196 0.78853684 -0.53888962
v 0.07933366 0.84624867 -0.10458215
v 0.37870518 0.79198638 -0.23091447
v -0.07848429 0.80306294 -0.28697053
v -0.06247624 0.68287336 -0.47001827
v 0.06326453 -0.14810133 -0.91415621
v 0.12579389 -0.52673067 -0.62891999
v 0.31695487 -0.20861472 -0.78405546
v 0.50357938 -0.71419094 -0.33534754
v 0.56867342 -0.48511591 -0.40174261
v 0.68018494 -0.48420924 0.27891807
v 0.69600657 -0.67120979 -0.13503120
v 0.55743168 0.23343802 -0.64904960
v 0.25456828 0.15048960 -0.87063876
v 0.42438574 -0.11016218 -0.76441233
v -0.00812385 0.22147016 0.78355474
v -0.09748001 0.51382272 0.76402317
v -0.15628379 0.63212067 0.50445717
v -0.25929310 0.87827511 0.33554205
v -0.48272702 0.82697586 0.27176748
v -0.35646533 0.50534669 0.59557331
v -0.10893213 0.18675082 0.89580747
v 0.26271780 -0.12560146 0.85733530
v 0.08386486 -0.20549307 0.90711387
v -0.18795060 -0.07953710 0.77557783
v -0.29195237 -0.68587479 0.58662094
v -0.49033165 -0.67930700 0.43643655
v -0.02235201 -0.96592028 -0.01274164
v -0.07840189 -0.79843836 0.53185246
v -0.12000226 -0.81891702 0.11244986
v 0.32036036 -0.86701529 0.24954377
v -0.23885617 -0.90305903 0.16842794
v -0.10457124 -0.50945101 0.78960096
v -0.00706454 -0.36910876 0.74723348
v 0.16821327 -0.52744517 0.71996060
v 0.27396620 -0.43405357 0.76487346
v 0.02190760 -0.74796146 0.42136465
v -0.30459701 -0.42685136 0.76662514
v -0.32081797 -0.18366723 0.84986510
vn -0.17539185 0.11947844 0.97722188
vn 0.94293928 0.32723745 -0.06149119
vn -0.74200061 -0.62850589 -0.23327120
vn -0.01981073 -0.29860645 -0.95417070
vn -0.10906730 -0.99350660 0.03238757
vn 0.86493659 -0.07039956 0.49691911
vn -0.68661567 0.09490175 -0.72079996
vn -0.12150871 0.96953685 0.21268268
vn 0.09142124 0.52275194 -0.84756862
vn 0.95535165 0.03341459 -0.29357569
vn -0.83664183 -0.00633799 0.54771369
vn -0.23131952 -0.64975612 0.72409134
vn 0.57951507 0.40182314 0.70901371
vn -0.65942782 -0.43243554 -0.61494264
vn -0.47597078 -0.86531334 -0.15711344
vn 0.00012929 -0.82093009 -0.57102869
vn 0.58178560 -0.07193063 0.81015523
vn 0.67856470 0.17650151 0.71301975
vn 0.64596740 -0.72325669 0.24418411
vn -0.87410577 -0.38415886 -0.29725590
vn -0.60492842 0.03497292 -0.79551147
vn -0.11886008 0.69503690 0.70908109
vn 0.41362830 0.89795806 0.15027624
vn -0.63663029 0.72440467 -0.26446124
vn 0.73094644 0.66170611 -0.16692009
vn 0.05559761 0.18671221 -0.98084018
vn -0.31212054 0.64363568 -0.69879459
vn 0.03157622 0.95515757 -0.29440952
vn 0.84247904 0.45089324 -0.29482937
vn 0.51941800 -0.42137709 -0.74340184
vn 0.58083991 -0.76922601 -0.26630124
vn 0.59377042 -0.80012625 -0.08505691
vn 0.78021523 0.28160864 -0.55853448
vn -0.58116068 0.13752452 0.80208433
vn -0.88814884 -0.18528673 0.42054782
vn -0.84993759 0.51127104 0.12731069
vn -0.74562969 0.64560013 0.16503588
vn -0.16374974 -0.16533443 0.97254848
vn -0.76363365 -0.49063272 0.41969416
vn -0.10275435 -0.94902935 0.29796783
vn 0.35793310 -0.69715438 0.62117603
vn -0.75623715 0.00558092 0.65427382
vn 0.34343182 0.50422950 0.79234285
vn 0.59835946 0.54942744 0.58317703
vn -0.40897830 -0.41377898 -0.81334107
vn -0.74064071 -0.66601418 -0.08874937
vn -0.14751846 -0.96876288 -0.19934090
vn -0.36662891 -0.82464442 -0.43074914
vn -0.05591959 -0.53993754 -0.83984550
vn 0.21754586 -0.79833417 -0.56154818
vn -0.39592818 -0.72969820 -0.55747772
vn -0.10781109 -0.90051289 -0.42125207
vn 0.52733850 0.20269776 0.82512286
vn 0.52616876 -0.43089883 0.73312525
vn 0.83712596 0.47328478 0.27426565
vn 0.78093277 -0.41710065 0.46494199
vn 0.89445969 0.29852743 0.33290124
vn 0.55997764 0.10773783 0.82147283
vn 0.59416996 -0.80216520 -0.05910197
vn 0.61456115 -0.72412176 0.31298925
vn -0.91444125 -0.20580390 -0.34848523
vn -0.87986470 0.10885302 -0.46258958
vn -0.70932526 -0.32250614 -0.62677545
vn -0.34739545 -0.01535581 -0.93759298
vn 0.11377632 0.64057185 0.75942258
vn -0.15961129 0.86623203 0.47346205
vn -0.06896393 0.69786138 0.71290495
vn 0.68917383 0.65763027 0.30423980
vn 0.06890096 0.98123222 0.18009992
vn 0.64045617 0.56735019 0.51761923
vn 0.08057449 0.93734726 0.33895113
vn -0.62621187 0.53617373 -0.56601805
vn -0.46210257 0.88649117 -0.02438499
vn 0.66597655 0.74152321 0.08135454
vn 0.58297246 0.58229352 -0.56663689
vn 0.73298337 0.67777898 0.05788802
vn -0.03343890 0.01422161 -0.99933957
vn 0.20402010 0.20741760 -0.95674121
vn -0.59985161 0.44549709 -0.66461296
vn -0.05503183 0.62297274 -0.78030537
vn -0.26851003 0.40799117 -0.87260849
vn -0.28612798 0.74488701 -0.60272226
vn -0.00492018 0.49461123 -0.86910041
vn -0.07393794 0.99343332 -0.08731223
vn 0.23686275 0.87138367 -0.42963535
vn -0.04269829 0.98633515 -0.15912207
vn -0.32413986 0.84762674 -0.42007411
vn 0.05223725 0.90245916 -0.42759647
vn -0.04000893 0.79023492 -0.61149658
vn 0.86620777 -0.20505214 -0.45567282
vn 0.65692857 0.59856042 -0.45844333
vn 0.17277003 -0.24783135 -0.95327338
vn 0.75719017 -0.17584690 -0.62907942
vn -0.07721679 -0.64977890 -0.75619108
vn 0.09102487 -0.22188017 -0.97081598
vn 0.42395267 -0.79395014 -0.43578355
vn 0.71168336 -0.41458268 -0.56712255
vn -0.03566584 -0.80743975 -0.58887095
vn 0.73879584 -0.39941126 -0.54281797
vn 0.92802322 -0.32416809 -0.18354276
vn 0.52205588 0.31465510 -0.79274828
vn 0.72766193 0.08369919 -0.68081023
vn 0.55310621 0.42497291 -0.71656929
vn 0.77959764 -0.09533879 -0.61898145
vn -0.26434447 0.35547182 0.89652763
vn -0.76082875 0.37294560 0.53108492
vn -0.20497813 0.50424570 0.83888035
vn -0.95044359 -0.31058636 -0.01389584
vn -0.97108994 -0.03774886 0.23571029
vn -0.90762819 0.35260234 -0.22777766
vn -0.95797334 0.25041148 0.13993275
vn -0.78893787 0.26575385 -0.55403242
vn -0.75064161 0.63433719 -0.18480667
vn -0.46259343 0.78114347 0.41931157
vn -0.77218295 0.53137712 0.34838462
vn -0.20182807 0.73805292 0.64385039
vn -0.42056457 0.39931656 0.81466050
vn 0.00261348 -0.07441591 0.99722387
vn -0.28585338 -0.36897971 0.88438782
vn 0.33340746 0.05137001 0.94138228
vn -0.21858246 0.11803396 0.96865355
vn -0.55329352 -0.75892322 0.34336834
vn -0.38698542 -0.92174336 0.02512883
vn -0.81258960 -0.46671160 0.34911090
vn 0.14499696 -0.95170475 0.27061771
vn -0.21424768 -0.86492195 0.45388099
vn -0.18634952 -0.98207541 -0.02831502
vn -0.10195310 -0.96974048 0.22183094
vn -0.17642908 -0.88955810 0.42137771
vn 0.52674554 -0.58991837 0.61199302
vn -0.04248603 -0.66870138 0.74231624
vn 0.62194254 -0.30821600 0.71985441
vn 0.57584037 -0.58850470 0.56751219
vn -0.11802804 -0.54864000 0.82768565
vn -0.21976800 -0.88140597 0.41812144
vn -0.58883267 -0.32072936 0.74189539
vn -0.49771185 -0.20096707 0.84373879
vn -0.05609497 -0.37238629 -0.92638103
vn -0.29552902 -0.55823428 -0.77526582
vn 0.04750650 -0.98536730 -0.16369000
vn 0.02599012 -0.53189850 -0.84640918
vn -0.09204525 -0.64716436 -0.75677339
vn 0.00758760 -0.88995641 -0.45598247
vn -0.03045234 -0.94368825 -0.32943153
vn -0.09604515 -0.75015738 -0.65424707
vn -0.08362151 -0.90539958 -0.41624398
vn 0.53098083 0.14188637 0.83542062
vn 0.62173215 -0.77468350 0.11538895
vn -0.03203211 -0.14368398 -0.98910508
vn -0.26886629 -0.08094947 -0.95976982
vn -0.10026062 0.52195981 0.84705712
vn -0.08702356 0.89439760 0.43872523
vn -0.06990308 0.99449907 0.07800748
vn 0.15898643 0.79597638 0.58407612
vn 0.53240157 0.83611016 0.13216799
vn -0.04422964 0.82374298 0.56523556
vn 0.39704924 0.83687785 0.37681211
vn -0.14713695 0.98113209 0.12542144
vn -0.29408873 0.93082981 -0.21695088
vn 0.65634773 0.58771371 -0.47307531
vn 0.16646394 0.59688360 -0.78486924
vn 0.06279595 0.53490961 -0.84257248
vn -0.31926177 0.38034190 -0.86799307
vn -0.03563733 0.32557497 -0.94484439
vn -0.08065340 0.16560688 -0.98288829
vn -0.10134939 0.96779801 -0.23042420
vn 0.17739288 0.79072685 -0.58590341
vn 0.02842207 0.78046389 -0.62455448
vn 0.15166223 0.97432728 -0.16638788
vn 0.52324599 0.81295012 -0.25558901
vn -0.08376580 0.91600483 -0.39232442
vn -0.01464250 0.77553264 -0.63113764
vn 0.05085383 -0.14392508 -0.98828106
vn 0.16875147 -0.62155339 -0.76497995
vn 0.61198825 -0.12522992 -0.78088914
vn 0.73493235 -0.60093778 -0.31424231
vn 0.64744965 -0.54688207 -0.53078145
vn 0.88194660 -0.39390620 0.25885924
vn 0.62192912 -0.75586488 -0.20462759
vn 0.79351489 0.21555275 -0.56909677
vn 0.03316747 0.10716608 -0.99368775
vn 0.34095542 -0.04575253 -0.93896545
vn -0.03627946 0.27692059 0.96020768
vn -0.15819971 0.48823748 0.85825230
vn -0.20137183 0.70386391 0.68119379
vn -0.13791349 0.91384199 0.38193283
vn -0.39525579 0.85074927 0.34640805
vn -0.53303131 0.54279366 0.64903981
vn -0.15251795 0.19227221 0.96941718
vn 0.32455810 -0.08876919 0.94169107
vn -0.19147910 -0.21017952 0.95872849
vn -0.24778420 -0.05942450 0.96699106
vn -0.27188232 -0.67131613 0.68950320
vn -0.41827585 -0.71805888 0.55627040
vn -0.05969120 -0.99762811 -0.03427994
vn -0.14183053 -0.79481538 0.59004458
vn -0.18462246 -0.97305691 0.13811157
vn 0.32350277 -0.91234172 0.25095526
vn -0.17501353 -0.96134364 0.21257625
vn -0.17903679 -0.50072164 0.84689059
vn -0.02461354 -0.36663575 0.93003892
vn 0.41162236 -0.42824091 0.80447297
vn 0.11503200 -0.40120578 0.90873625
vn 0.03463952 -0.87400986 0.48467192
vn -0.25792155 -0.48407036 0.83615331
vn -0.31296558 -0.15881566 0.93639208
f 183//183 118//118 1//1
f 1//1 120//120 53//53
f 1//1 118//118 191//191
f 120//120 190//190 53//53
f 191//191 120//120 1//1
f 38//38 201//201 118//118
f 38//38 119//119 200//200
f 38//38 200//200 201//201
f 119//119 12//12 200//200
f 200//200 131//131 201//201
f 201//201 131//131 134//134
f 203//203 133//133 132//132
f 203//203 41//41 133//133
f 17//17 130//130 54//54
f 132//132 130//130 17//17
f 201//201 134//134 191//191
f 201//201 191//191 118//118
f 202//202 41//41 203//203
f 147//147 132//132 17//17
f 203//203 132//132 147//147
f 203//203 147//147 190//190
f 134//134 202//202 191//191
f 191//191 190//190 120//120
f 202//202 190//190 191//191
f 203//203 190//190 202//202
f 147//147 17//17 13//13
f 43//43 147//147 70//70
f 147//147 13//13 70//70
f 190//190 147//147 43//43
f 190//190 43//43 53//53
f 17//17 54//54 58//58
f 6//6 56//56 18//18
f 54//54 6//6 58//58
f 13//13 44//44 68//68
f 57//57 18//18 55//55
f 6//6 18//18 57//57
f 44//44 57//57 74//74
f 57//57 2//2 74//74
f 6//6 57//57 58//58
f 17//17 58//58 13//13
f 58//58 44//44 13//13
f 58//58 57//57 44//44
f 1//1 53//53 151//151
f 53//53 43//43 67//67
f 53//53 67//67 151//151
f 151//151 67//67 65//65
f 68//68 70//70 13//13
f 74//74 68//68 44//44
f 157//157 70//70 23//23
f 70//70 68//68 76//76
f 70//70 76//76 23//23
f 22//22 154//154 152//152
f 156//156 71//71 154//154
f 156//156 155//155 71//71
f 66//66 152//152 8//8
f 152//152 69//69 153//153
f 152//152 153//153 8//8
f 71//71 69//69 154//154
f 154//154 69//69 152//152
f 157//157 43//43 70//70
f 157//157 23//23 155//155
f 157//157 155//155 156//156
f 67//67 154//154 65//65
f 65//65 154//154 22//22
f 156//156 154//154 67//67
f 43//43 156//156 67//67
f 156//156 43//43 157//157
f 1//1 151//151 183//183
f 151//151 65//65 183//183
f 183//183 65//65 184//184
f 183//183 184//184 189//189
f 184//184 185//185 105//105
f 65//65 22//22 184//184
f 22//22 185//185 184//184
f 121//121 107//107 34//34
f 105//105 107//107 121//121
f 184//184 105//105 189//189
f 22//22 152//152 185//185
f 185//185 186//186 116//116
f 152//152 66//66 185//185
f 66//66 186//186 185//185
f 8//8 186//186 66//66
f 8//8 158//158 186//186
f 186//186 114//114 116//116
f 117//117 187//187 106//106
f 187//187 37//37 106//106
f 106//106 11//11 42//42
f 115//115 11//11 106//106
f 185//185 116//116 107//107
f 185//185 107//107 105//105
f 114//114 187//187 188//188
f 187//187 117//117 188//188
f 107//107 188//188 34//34
f 188//188 117//117 34//34
f 114//114 188//188 116//116
f 188//188 107//107 116//116
f 189//189 38//38 118//118
f 192//192 38//38 189//189
f 105//105 121//121 192//192
f 105//105 192//192 189//189
f 183//183 189//189 118//118
f 117//117 106//106 42//42
f 117//117 42//42 137//137
f 192//192 119//119 38//38
f 192//192 206//206 119//119
f 119//119 206//206 205//205
f 119//119 205//205 12//12
f 205//205 193//193 12//12
f 136//136 205//205 206//206
f 117//117 137//137 34//34
f 121//121 206//206 192//192
f 137//137 136//136 34//34
f 136//136 206//206 121//121
f 136//136 121//121 34//34
f 2//2 55//55 29//29
f 57//57 55//55 2//2
f 6//6 178//178 56//56
f 56//56 32//32 90//90
f 90//90 100//100 10//10
f 18//18 56//56 55//55
f 56//56 90//90 55//55
f 55//55 90//90 29//29
f 130//130 132//132 133//133
f 60//60 130//130 19//19
f 130//130 148//148 19//19
f 133//133 148//148 130//130
f 54//54 130//130 60//60
f 202//202 134//134 41//41
f 134//134 131//131 135//135
f 134//134 135//135 41//41
f 131//131 200//200 196//196
f 196//196 12//12 126//126
f 200//200 12//12 196//196
f 204//204 196//196 40//40
f 131//131 196//196 204//204
f 131//131 204//204 135//135
f 128//128 125//125 5//5
f 5//5 125//125 140//140
f 128//128 5//5 59//59
f 128//128 59//59 198//198
f 204//204 40//40 125//125
f 204//204 125//125 128//128
f 204//204 128//128 135//135
f 135//135 128//128 198//198
f 41//41 198//198 148//148
f 41//41 148//148 133//133
f 135//135 198//198 41//41
f 205//205 136//136 122//122
f 136//136 194//194 122//122
f 205//205 122//122 193//193
f 136//136 137//137 194//194
f 137//137 42//42 39//39
f 137//137 39//39 194//194
f 39//39 42//42 124//124
f 42//42 11//11 124//124
f 39//39 124//124 46//46
f 46//46 124//124 3//3
f 124//124 108//108 3//3
f 109//109 124//124 11//11
f 109//109 35//35 108//108
f 109//109 108//108 124//124
f 11//11 115//115 111//111
f 106//106 37//37 115//115
f 114//114 186//186 73//73
f 186//186 158//158 73//73
f 37//37 187//187 24//24
f 187//187 159//159 24//24
f 114//114 73//73 187//187
f 73//73 159//159 187//187
f 113//113 24//24 72//72
f 110//110 113//113 7//7
f 113//113 72//72 7//7
f 24//24 113//113 37//37
f 115//115 113//113 111//111
f 111//111 110//110 36//36
f 113//113 110//110 111//111
f 37//37 113//113 115//115
f 8//8 153//153 84//84
f 69//69 71//71 86//86
f 71//71 155//155 86//86
f 69//69 169//169 153//153
f 69//69 86//86 169//169
f 153//153 28//28 84//84
f 169//169 28//28 153//153
f 68//68 74//74 25//25
f 68//68 25//25 76//76
f 85//85 88//88 167//167
f 88//88 75//75 103//103
f 167//167 103//103 9//9
f 88//88 103//103 167//167
f 170//170 75//75 88//88
f 23//23 170//170 155//155
f 76//76 25//25 160//160
f 76//76 160//160 170//170
f 169//169 88//88 85//85
f 169//169 85//85 28//28
f 88//88 169//169 86//86
f 76//76 170//170 23//23
f 170//170 88//88 86//86
f 170//170 86//86 155//155
f 173//173 92//92 141//141
f 4//4 141//141 49//49
f 173//173 141//141 4//4
f 92//92 95//95 94//94
f 95//95 175//175 30//30
f 95//95 30//30 94//94
f 141//141 174//174 16//16
f 92//92 174//174 141//141
f 92//92 94//94 174//174
f 104//104 93//93 99//99
f 102//102 10//10 97//97
f 93//93 97//97 177//177
f 99//99 177//177 31//31
f 93//93 177//177 99//99
f 50//50 98//98 143//143
f 98//98 96//96 59//59
f 143//143 59//59 5//5
f 98//98 59//59 143//143
f 99//99 31//31 176//176
f 174//174 98//98 50//50
f 174//174 50//50 16//16
f 94//94 98//98 174//174
f 176//176 96//96 30//30
f 176//176 30//30 99//99
f 96//96 98//98 94//94
f 96//96 94//94 30//30
f 138//138 49//49 142//142
f 4//4 49//49 138//138
f 138//138 142//142 45//45
f 141//141 16//16 145//145
f 141//141 145//145 49//49
f 49//49 145//145 142//142
f 45//45 51//51 139//139
f 142//142 51//51 45//45
f 145//145 16//16 146//146
f 50//50 143//143 140//140
f 50//50 140//140 144//144
f 143//143 5//5 140//140
f 144//144 140//140 195//195
f 144//144 195//195 47//47
f 52//52 127//127 15//15
f 146//146 47//47 52//52
f 47//47 127//127 52//52
f 50//50 144//144 16//16
f 144//144 47//47 146//146
f 16//16 144//144 146//146
f 139//139 48//48 14//14
f 15//15 123//123 48//48
f 48//48 123//123 46//46
f 48//48 46//46 14//14
f 14//14 46//46 3//3
f 145//145 52//52 142//142
f 146//146 52//52 145//145
f 52//52 15//15 51//51
f 15//15 48//48 51//51
f 51//51 48//48 139//139
f 52//52 51//51 142//142
f 149//149 45//45 64//64
f 138//138 45//45 149//149
f 139//139 14//14 150//150
f 150//150 14//14 21//21
f 139//139 150//150 45//45
f 45//45 150//150 64//64
f 14//14 3//3 63//63
f 3//3 61//61 63//63
f 61//61 20//20 112//112
f 61//61 112//112 62//62
f 63//63 61//61 7//7
f 61//61 62//62 7//7
f 14//14 7//7 21//21
f 63//63 7//7 14//14
f 138//138 149//149 4//4
f 149//149 77//77 4//4
f 149//149 165//165 77//77
f 64//64 165//165 149//149
f 150//150 21//21 81//81
f 7//7 72//72 79//79
f 81//81 27//27 163//163
f 7//7 79//79 21//21
f 21//21 79//79 81//81
f 26//26 162//162 78//78
f 164//164 162//162 26//26
f 163//163 27//27 83//83
f 83//83 80//80 164//164
f 80//80 162//162 164//164
f 162//162 161//161 78//78
f 150//150 163//163 64//64
f 81//81 163//163 150//150
f 165//165 164//164 77//77
f 165//165 83//83 164//164
f 77//77 164//164 26//26
f 163//163 165//165 64//64
f 83//83 165//165 163//163
f 4//4 77//77 173//173
f 77//77 26//26 173//173
f 92//92 181//181 95//95
f 78//78 181//181 92//92
f 26//26 78//78 173//173
f 173//173 78//78 92//92
f 78//78 9//9 181//181
f 78//78 161//161 9//9
f 103//103 75//75 101//101
f 9//9 103//103 181//181
f 30//30 182//182 99//99
f 99//99 182//182 104//104
f 93//93 33//33 102//102
f 180//180 33//33 104//104
f 93//93 102//102 97//97
f 104//104 33//33 93//93
f 182//182 180//180 104//104
f 180//180 182//182 101//101
f 175//175 182//182 30//30
f 103//103 101//101 181//181
f 181//181 175//175 95//95
f 101//101 175//175 181//181
f 182//182 175//175 101//101
f 96//96 176//176 148//148
f 176//176 31//31 148//148
f 148//148 31//31 19//19
f 96//96 148//148 198//198
f 96//96 198//198 59//59
f 31//31 177//177 179//179
f 177//177 97//97 179//179
f 179//179 97//97 100//100
f 97//97 10//10 100//100
f 100//100 90//90 32//32
f 178//178 32//32 56//56
f 60//60 178//178 54//54
f 178//178 6//6 54//54
f 100//100 32//32 178//178
f 100//100 178//178 60//60
f 31//31 179//179 19//19
f 179//179 60//60 19//19
f 100//100 60//60 179//179
f 39//39 123//123 194//194
f 46//46 123//123 39//39
f 195//195 125//125 40//40
f 195//195 40//40 197//197
f 140//140 125//125 195//195
f 47//47 197//197 127//127
f 195//195 197//197 47//47
f 126//126 40//40 196//196
f 122//122 129//129 193//193
f 129//129 126//126 193//193
f 126//126 12//12 193//193
f 127//127 197//197 199//199
f 197//197 40//40 126//126
f 199//199 126//126 129//129
f 197//197 126//126 199//199
f 122//122 194//194 123//123
f 127//127 199//199 15//15
f 199//199 129//129 122//122
f 15//15 122//122 123//123
f 199//199 122//122 15//15
f 7//7 62//62 110//110
f 110//110 112//112 36//36
f 112//112 110//110 62//62
f 61//61 3//3 108//108
f 20//20 108//108 35//35
f 108//108 20//20 61//61
f 111//111 109//109 11//11
f 35//35 111//111 36//36
f 109//109 111//111 35//35
f 35//35 36//36 20//20
f 20//20 36//36 112//112
f 9//9 161//161 167//167
f 167//167 161//161 85//85
f 161//161 168//168 85//85
f 162//162 168//168 161//161
f 83//83 27//27 89//89
f 83//83 89//89 80//80
f 80//80 89//89 172//172
f 168//168 172//172 171//171
f 168//168 171//171 28//28
f 168//168 28//28 85//85
f 80//80 172//172 168//168
f 80//80 168//168 162//162
f 27//27 81//81 82//82
f 81//81 79//79 82//82
f 82//82 24//24 159//159
f 79//79 72//72 24//24
f 79//79 24//24 82//82
f 171//171 166//166 84//84
f 171//171 84//84 28//28
f 87//87 159//159 73//73
f 84//84 166//166 158//158
f 84//84 158//158 8//8
f 166//166 73//73 158//158
f 87//87 73//73 166//166
f 27//27 82//82 87//87
f 27//27 87//87 89//89
f 89//89 166//166 171//171
f 89//89 171//171 172//172
f 159//159 87//87 82//82
f 87//87 166//166 89//89
f 90//90 10//10 29//29
f 10//10 2//2 29//29
f 102//102 2//2 10//10
f 180//180 101//101 160//160
f 180//180 160//160 33//33
f 33//33 160//160 25//25
f 101//101 170//170 160//160
f 75//75 170//170 101//101
f 91//91 25//25 74//74
f 91//91 74//74 2//2
f 33//33 91//91 102//102
f 33//33 25//25 91//91
f 102//102 91//91 2//2

