# https://github.com/mikedh/trimesh
v 0.45230277 -0.60775596 -0.50654437
v -0.56579383 0.43990008 -0.63966967
v 0.57391380 -0.35831667 0.65955234
v -0.38146086 0.68253774 0.40001726
v -0.66436631 -0.43713261 0.71404386
v -0.77073338 -0.76512502 0.16486495
v 0.56814733 0.79722082 0.12317100
v 0.54525469 0.47949108 -0.71018972
v -0.48125065 1.11140142 -0.20495938
v -1.09201225 0.35751784 0.01923750
v 1.15377704 -0.04020764 -0.17462200
v 0.21254619 -1.01084329 0.42049789
v -0.03514614 -0.28238024 -0.68284781
v 0.01471590 0.30978347 0.70218406
v 0.00467442 -0.41412659 0.78595056
v -0.62740661 0.00468790 0.64907886
v -0.06487134 -0.88868384 -0.27668655
v -0.66460301 -0.38590883 -0.38778026
v -0.77906286 -0.81214906 0.43332037
v 0.68357690 0.38655443 0.40839398
v 0.08117490 0.88905367 0.34545027
v 0.69778017 -0.03248707 -0.71645279
v 0.06726975 0.37049995 -0.85490600
v 0.75124183 0.69966858 -0.34202877
v -0.52341552 0.81512178 -0.62247234
v -0.40676630 1.05101682 -0.04273364
v 0.09876543 1.11166867 -0.10586952
v 0.12000110 0.87863654 -0.63044172
v -1.13346827 0.10210891 -0.07965148
v -1.02035501 0.39431324 0.39196780
v -1.07072422 -0.08995354 0.43793475
v -0.98196445 0.75792723 -0.06858810
v 0.97657447 -0.43740610 -0.31708254
v 1.04912530 -0.29551497 0.28362868
v 0.99439474 0.48699237 -0.01403045
v 1.07878341 0.20508737 -0.50023062
v 0.49912331 -1.10749826 0.01090608
v 0.54032923 -0.67127324 0.53910023
v -0.18595644 -0.94150935 0.56937033
v -0.17058812 -1.17422741 0.13374003
v 0.85750441 -0.71144446 0.18702672
v 0.21788410 -0.33611047 -0.70891245
v -0.34528416 -0.15724748 -0.61622586
v 0.36758436 -0.14872717 0.75229603
v -0.13335413 0.25340399 0.68669037
v 0.21045791 -0.16270322 0.68500248
v -0.24492373 -0.49921323 0.72450125
v 0.07140774 -0.10839502 0.81804025
v -0.42029527 0.34260003 0.59319455
v -0.33723869 0.04452493 0.72625650
v -0.35852261 -0.17326196 0.72974164
v 0.12909255 -0.88273043 -0.35866927
v -0.42701811 -0.72174930 -0.27154475
v -0.63953184 -0.90031843 0.55123050
v 0.64360827 -0.00177502 0.60531245
v 0.65700679 0.69386910 0.24090276
v 0.30683224 0.26585345 0.63424642
v -0.18308544 0.79592549 0.37569565
v 0.55961284 0.94107954 0.02161940
v 0.18902868 0.72780839 0.30194965
v 0.53735860 -0.25173361 -0.60118639
v 0.64482359 0.18230010 -0.64482553
v 0.27061317 -0.04544596 -0.68273016
v -0.13248640 0.30746679 -0.78773149
v 0.42705996 0.31699697 -0.73620293
v 0.06552487 -0.18117481 -0.69195482
v 0.23361609 0.61153440 -0.80897442
v 0.84853746 0.82019891 -0.25659000
v 0.66635354 0.79941442 -0.51331571
v -0.40007050 0.99319397 -0.60272731
v -0.34583639 0.77658465 -0.65744962
v -0.33623222 0.86077567 0.20808842
v -0.25533498 0.97979697 0.12551849
v 0.52349975 0.86404969 -0.15730648
v -0.21693265 1.22311152 -0.25572944
v 0.27285542 1.08496577 0.02621789
v 0.57742131 1.04574384 -0.30677475
v -0.15641587 1.06650259 -0.06390604
v 0.37629239 0.78876988 -0.59627111
v -0.22293652 1.09556554 -0.49739525
v 0.26384826 1.05196475 -0.44367430
v -0.22738345 0.90378469 -0.53130922
v -0.82660061 0.20284025 -0.47666371
v -1.07337936 -0.14575874 -0.27903521
v -0.63617769 0.52902649 0.42645184
v -1.10211592 0.35024585 0.24443907
v -0.81002607 0.40507460 0.49797212
v -0.71142809 0.89815624 0.15890456
v -0.94528312 -0.29254198 0.62013188
v -1.10195443 -0.16031851 0.25857157
v -0.76900342 -0.09933831 0.55999923
v -1.00360168 0.17176951 0.39613918
v -0.93369139 -0.48873949 -0.03257774
v -0.76500651 1.03974376 -0.19387948
v -0.55602522 0.95744583 -0.18557447
v -0.93565672 0.59270863 -0.28420581
v -0.91546433 0.69788330 0.05480678
v 0.70207544 -0.62130683 -0.46203989
v 0.99822249 -0.39127521 -0.12862483
v 0.71438495 -0.23465743 -0.52333054
v 1.10211900 -0.43982587 0.24870877
v 1.01084098 0.04980761 0.42910088
v 1.15156630 0.02631000 0.01251451
v 1.04798760 0.36457771 0.22731280
v 0.83440326 0.72140196 -0.15418833
v 1.20005918 0.05576725 0.18676469
v 0.93464075 0.21097365 -0.55533061
v 1.18091833 0.08973671 -0.31160276
v 0.82546579 -0.00750280 -0.58971675
v 1.13447270 -0.23819178 -0.35991986
v 1.10689477 0.33545671 -0.21081612
v 0.39443340 -0.90935916 -0.22455778
v 0.44826480 -1.00218305 0.13642574
v 0.13152831 -0.95104771 -0.10330195
v 0.80463807 -0.69393235 -0.24833863
v 0.63184357 -0.61129508 0.65766543
v 0.41195989 -0.99240497 0.50881874
v 0.27095234 -0.57461041 0.80058897
v -0.48936915 -0.77613656 0.67585648
v -0.11645331 -0.62020068 0.76834186
v -0.38793253 -0.90808611 0.53695904
v 0.04782294 -0.82403557 0.68739726
v -0.42826086 -1.03209651 0.09649129
v 0.04374194 -1.07968073 0.37026908
v -0.20370297 -1.03093115 0.02222397
v -0.60030471 -0.89837423 0.41457519
v 0.20533156 -1.14163841 0.03256679
v -0.09444080 -1.15535327 0.39481302
v 1.05572925 -0.66850592 0.18118662
v 0.78734273 -0.91577889 0.13541776
v 1.07053063 -0.64270540 -0.09881278
v 0.86011061 -0.46803142 0.53100599
v 0.67090752 -0.95059181 0.02685274
v 0.29306403 -0.39138330 -0.55363448
v 0.12066337 0.23387242 0.60225310
v -0.50986610 -0.40510527 0.70034361
v -0.06643214 -0.17793668 0.78534941
v -0.60554379 0.07343618 0.73367883
v -0.48459112 -0.42827871 0.81554710
v 0.23520264 -0.75027198 -0.32451941
v -0.59177649 -0.06999362 -0.66767930
v -0.63670468 -0.71007881 -0.32010048
v -0.63011834 -0.54080502 0.58714851
v 0.37894930 0.82190741 0.28394286
v 0.45967255 -0.15336344 -0.71399649
v 0.17949835 0.30041057 -0.73152210
v 0.55559580 0.77203633 -0.61159767
v 0.81733621 0.79509001 -0.47270446
v -0.50373952 0.98840330 0.19806881
v -0.03055362 0.94641336 0.21930896
v 0.32511293 1.07120258 -0.27824505
v 0.33669439 0.86619537 0.05866645
v -0.21677248 1.07688734 -0.33600117
v 0.00293707 1.10521453 -0.25835380
v 0.13280430 1.03194589 0.03225447
v 0.33486364 0.88130716 -0.71751306
v 0.00753529 0.66099289 -0.69048704
v -0.17735727 0.79681124 -0.76541949
v 0.50950047 0.96851725 -0.41189968
v -0.04406765 0.97338269 -0.65439373
v 0.19507843 0.97307160 -0.47509148
v 0.03819656 1.15081278 -0.50633630
v -0.81665882 0.40890137 -0.62019394
v -1.23645653 0.37269336 -0.11875569
v -0.61480130 0.62645999 0.49538081
v -0.75585515 0.68932692 0.18729006
v -0.77099333 -0.05179045 0.66033274
v -0.81257904 0.25028713 0.45455086
v -0.55039290 0.84753185 0.17799798
v -0.98646032 -0.06897241 0.53332326
v -0.89784362 -0.76438498 0.01869663
v -1.27381778 -0.06206836 0.13379591
v -1.09614855 -0.57415309 0.17069411
v -0.74073177 0.90246156 -0.24774184
v -1.06745968 0.54163334 -0.35781182
v -0.95403961 0.75172570 0.15199023
v 0.50808326 -0.68078952 -0.36185843
v 1.18545838 -0.34504320 -0.10781345
v 0.86458310 -0.36236529 -0.43965622
v 1.23512393 -0.11412520 -0.04860692
v 0.96611624 0.64527680 -0.09075995
v 0.73679355 0.37452160 -0.65164348
v 1.00722731 0.06336658 -0.34905202
v 0.98052524 -0.11279941 -0.45087427
v 0.61338557 -0.82693449 -0.13449587
v 0.68584741 -0.57321846 -0.34614902
v 0.61688810 -0.92197755 -0.22532434
v 0.36971705 -0.48339394 0.64508027
v 0.54732562 -0.88625941 0.61969359
v -0.35794218 -0.72017725 0.66696378
v -0.04558481 -1.08083842 0.61886127
v 0.22174878 -1.01280087 0.55000472
v 0.00153730 -0.86956218 0.60216177
v 0.17363889 -0.69776704 0.73848104
v -0.29044450 -0.78055024 0.77336853
v 0.25975261 -1.20557195 0.32495744
v -0.05740606 -1.04076777 0.17271429
v -0.00416933 -1.10409366 -0.08385549
v -0.35995028 -1.13213878 0.34117500
v 0.24136261 -1.06886492 0.12290198
v -0.27744264 -0.97984738 0.39062749
v 1.08127419 -0.46350440 0.10520822
v 0.50796263 -1.05222930 0.26860643
v 0.93542795 -0.87757921 0.16750856
v 0.92128654 -0.68026210 -0.13373670
v 0.37325436 -0.88340921 0.61802233
vn 0.27611076 -0.52716972 -0.80365100
vn -0.30935465 0.14462624 -0.93988454
vn 0.45180089 0.10767543 0.88559695
vn -0.03938553 0.61920325 0.78424238
vn -0.64135266 -0.20024260 0.74065489
vn -0.57447448 -0.81814907 -0.02472187
vn 0.53797290 0.60336559 0.58867234
vn 0.30086976 0.15804031 -0.94047895
vn -0.44747249 0.87669671 -0.17655381
vn -0.86013004 0.42721743 0.27867828
vn 0.99679350 0.05976453 -0.05320631
vn 0.30986988 -0.79346170 0.52383126
vn 0.03969157 -0.42711857 -0.90332403
vn 0.24901163 0.40520407 0.87966065
vn -0.11501972 -0.07993614 0.99014175
vn -0.59412727 0.11525966 0.79607035
vn -0.31040928 -0.63084807 -0.71110955
vn -0.76059580 -0.27901272 -0.58621322
vn -0.55568870 -0.58334095 0.59238788
vn 0.17741330 0.51427766 0.83907271
vn 0.14288946 0.63784703 0.75679176
vn 0.65070312 -0.07440015 -0.75567854
vn 0.30159034 0.14811194 -0.94186311
vn 0.80673507 0.58309656 -0.09579631
vn -0.26502220 0.68723795 -0.67636324
vn -0.11598085 0.92798592 0.35410530
vn 0.12337730 0.96623048 0.22622268
vn 0.04363789 0.51895691 -0.85368581
vn -0.76805658 -0.24483030 -0.59173239
vn -0.78679132 0.34096369 0.51449314
vn -0.87214668 -0.06533102 0.48486290
vn -0.71282811 0.69775886 0.07077193
vn 0.46828077 -0.49139877 -0.73432987
vn 0.78926778 0.03344592 0.61313762
vn 0.79596031 0.46205914 0.39108636
vn 0.92800718 0.17375981 -0.32956061
vn 0.52337182 -0.84907691 -0.07176579
vn 0.53285368 -0.31705548 0.78456534
vn -0.46351256 -0.75106818 0.47016241
vn -0.01014047 -0.99951973 -0.02928287
vn 0.76055615 -0.38883550 0.51996279
vn 0.29169054 -0.36280235 -0.88503734
vn -0.15795250 -0.31850093 -0.93467008
vn 0.08542926 0.08919363 0.99234386
vn -0.17390945 0.36629010 0.91410452
vn 0.27667528 0.18506956 0.94297405
vn -0.02630175 -0.08067212 0.99639361
vn 0.23614178 0.19628343 0.95168791
vn 0.00167188 0.41269727 0.91086671
vn -0.41804087 0.16632630 0.89307188
vn 0.02709657 0.11540003 0.99294945
vn 0.30623054 -0.69449974 -0.65107064
vn -0.20390373 -0.70921024 -0.67486599
vn -0.57829829 -0.58629497 0.56730001
vn 0.36563806 0.18714879 0.91174785
vn 0.36253936 0.66793606 0.64994356
vn 0.05485827 0.39005960 0.91915400
vn -0.01161103 0.62912978 0.77721355
vn 0.23333511 0.95313319 0.19259243
vn 0.34681552 0.54124424 0.76601153
vn 0.26360785 -0.36294014 -0.89374792
vn 0.70925422 0.07193432 -0.70127306
vn 0.24086691 -0.12467405 -0.96251728
vn -0.29462312 -0.08896178 -0.95146362
vn 0.11143837 -0.03736141 -0.99306879
vn -0.15878784 -0.29744039 -0.94144338
vn 0.30123744 0.29092931 -0.90808377
vn 0.57639296 0.75624066 -0.30963078
vn 0.36681038 0.52476738 -0.76815971
vn -0.19518113 0.81118232 -0.55125998
vn -0.40692169 0.17884966 -0.89578320
vn -0.06425192 0.65306956 0.75456732
vn -0.01964049 0.84578752 0.53315824
vn 0.49271546 0.84668410 0.20089177
vn -0.31569767 0.94588039 -0.07513494
vn 0.23047501 0.88688783 0.40038887
vn 0.55920961 0.82892358 -0.01305027
vn 0.02269157 0.89295741 0.44956886
vn 0.53210166 0.65550388 -0.53589409
vn -0.15106721 0.84530806 -0.51247730
vn 0.01807787 0.81218878 -0.58311454
vn -0.12747440 0.71723872 -0.68506854
vn -0.72446296 -0.27823683 -0.63066448
vn -0.82447647 -0.25694254 -0.50420143
vn -0.64592700 0.43378161 0.62818136
vn -0.79780468 0.37289290 0.47377059
vn -0.70047603 0.35193907 0.62086409
vn -0.66849545 0.66747234 0.32801603
vn -0.77858945 -0.18844832 0.59856971
vn -0.82687059 -0.13170276 0.54675351
vn -0.67774285 0.02512906 0.73486948
vn -0.90972783 0.14900416 0.38754745
vn -0.73149989 -0.32491768 -0.59944676
vn -0.50096288 0.86506323 -0.02649149
vn -0.40320430 0.91339559 -0.05598919
vn -0.63050897 0.67250501 -0.38755059
vn -0.88959092 0.44636227 0.09689541
vn 0.63769194 -0.46997618 -0.61030433
vn 0.95804012 -0.27033975 -0.09526561
vn 0.72639392 -0.25153327 -0.63959588
vn 0.77390504 -0.51173114 0.37309814
vn 0.59091710 0.07812302 0.80294070
vn 0.96135927 0.17981985 0.20845425
vn 0.64943290 0.62408390 0.43446082
vn 0.68648296 0.64080865 0.34366470
vn 0.98710895 0.01754207 0.15908549
vn 0.42491669 0.01011417 -0.90517595
vn 0.84083386 -0.00307404 -0.54128455
vn 0.31207386 -0.22684838 -0.92257776
vn 0.95468340 -0.10642567 -0.27794455
vn 0.92224171 0.37600238 -0.08995798
vn -0.08297591 -0.70172723 -0.70759727
vn 0.57122077 -0.80869457 0.14042765
vn 0.24596320 -0.83328004 -0.49512269
vn 0.32642810 -0.65839539 -0.67820366
vn 0.20165120 -0.54819413 0.81167727
vn 0.43188636 -0.71339066 0.55185862
vn 0.31655710 -0.06440240 0.94638466
vn -0.49594396 -0.54016463 0.67989835
vn -0.38199877 -0.39079286 0.83747113
vn -0.22795560 -0.79072815 0.56814192
vn -0.19696367 -0.58404849 0.78745963
vn -0.25687295 -0.96256203 -0.08654843
vn -0.06934839 -0.98594473 0.15199934
vn -0.41684490 -0.76527957 -0.49049720
vn -0.65190387 -0.75825390 0.00850671
vn 0.19866479 -0.94410139 -0.26306819
vn -0.14511036 -0.95196722 0.26963196
vn 0.72007697 -0.69387625 0.00499145
vn 0.40204187 -0.90764535 -0.12059127
vn 0.92685967 -0.37023766 -0.06209053
vn 0.66387541 -0.11463446 0.73900499
vn 0.24889076 -0.86950137 -0.42663890
vn 0.26387932 -0.46550784 -0.84479000
vn 0.37797688 0.35007356 0.85707758
vn -0.58748416 -0.20820004 0.78199431
vn -0.20074413 0.03130180 0.97914350
vn -0.51862094 0.18727834 0.83424166
vn -0.47544664 -0.19293664 0.85832741
vn 0.28789318 -0.66295907 -0.69108812
vn -0.30497018 -0.23466257 -0.92299874
vn -0.31443634 -0.70990246 -0.63021289
vn -0.56637619 -0.33205259 0.75429377
vn 0.09973995 0.75569794 0.64728091
vn 0.30967690 -0.19272746 -0.93110490
vn 0.28645325 0.00952599 -0.95804686
vn 0.27791782 0.48011698 -0.83201525
vn 0.78282062 0.54300432 -0.30387200
vn -0.47212069 0.78429100 0.40247942
vn -0.08827799 0.82731715 0.55475520
vn 0.13621741 0.98147753 -0.13470960
vn 0.32483380 0.78988164 0.52016343
vn -0.25982497 0.88816116 -0.37902604
vn 0.26451423 0.95717917 0.11764466
vn -0.06131012 0.93283176 0.35505770
vn 0.41039229 0.55888055 -0.72057664
vn 0.07427769 0.33372809 -0.93973847
vn 0.09322030 0.50607813 -0.85743507
vn 0.25319658 0.74633100 -0.61553353
vn -0.01136298 0.66126357 -0.75006758
vn 0.37142537 0.83632658 -0.40323821
vn 0.09408848 0.85186880 -0.51523481
vn -0.46763602 0.26613976 -0.84290342
vn -0.93801561 0.34529895 -0.02992225
vn -0.57024943 0.50509964 0.64783481
vn -0.64058482 0.59230856 0.48869383
vn -0.68868428 0.03029148 0.72442832
vn -0.69574854 0.22830467 0.68103667
vn -0.55942589 0.66676687 0.49240695
vn -0.53192434 0.12087046 0.83812101
vn -0.53068785 -0.81609442 -0.22882372
vn -0.97731535 -0.00328130 0.21176388
vn -0.79737702 -0.51265986 0.31838618
vn -0.76816339 0.33337307 -0.54661449
vn -0.67223769 0.61088601 -0.41822813
vn -0.73996481 0.57871684 0.34283945
vn 0.20036232 -0.59633014 -0.77733217
vn 0.90102988 -0.31848399 -0.29447090
vn 0.36190711 -0.41544399 -0.83452354
vn 0.98436453 -0.13835771 -0.10901204
vn 0.76199850 0.64757267 0.00281371
vn 0.44648368 0.12803045 -0.88558485
vn 0.96060501 0.14861606 -0.23484309
vn 0.43434728 -0.27113646 -0.85896883
vn 0.71652520 -0.64290389 -0.27067733
vn 0.77936668 -0.42835508 -0.45727399
vn 0.65975379 -0.62791579 -0.41285191
vn 0.34431696 -0.02750668 0.93845043
vn 0.47171736 -0.58318853 0.66134247
vn -0.43655592 -0.47725837 0.76265548
vn -0.08205876 -0.78441992 0.61477780
vn -0.15382569 -0.88185371 0.44572602
vn 0.09699498 -0.46497482 0.87999454
vn -0.00146493 -0.38620754 0.92241075
vn -0.25402497 -0.45998224 0.85081587
vn 0.24902356 -0.94051586 0.23112159
vn 0.02707837 -0.99831738 -0.05127551
vn 0.21747113 -0.93658374 -0.27480394
vn -0.20465314 -0.93865307 0.27757434
vn 0.14417272 -0.97542235 -0.16662973
vn -0.19404357 -0.90278446 0.38383241
vn 0.93498762 -0.20074751 0.29240143
vn 0.20024220 -0.97893717 0.03981297
vn 0.79526512 -0.56966314 0.20745433
vn 0.44829123 -0.70089910 -0.55477511
vn 0.14196749 -0.64607690 0.74995325
f 1//1 140//140 134//134
f 1//1 112//112 140//140
f 112//112 127//127 114//114
f 52//52 198//198 17//17
f 114//114 198//198 52//52
f 112//112 114//114 140//140
f 140//140 114//114 52//52
f 37//37 200//200 112//112
f 37//37 113//113 196//196
f 37//37 196//196 200//200
f 113//113 12//12 196//196
f 196//196 124//124 200//200
f 127//127 128//128 197//197
f 124//124 128//128 127//127
f 200//200 124//124 127//127
f 17//17 123//123 53//53
f 123//123 6//6 53//53
f 125//125 123//123 17//17
f 112//112 200//200 127//127
f 40//40 125//125 198//198
f 197//197 40//40 198//198
f 198//198 125//125 17//17
f 127//127 197//197 114//114
f 197//197 198//198 114//114
f 140//140 52//52 42//42
f 140//140 42//42 134//134
f 17//17 53//53 13//13
f 17//17 13//13 66//66
f 52//52 17//17 42//42
f 17//17 66//66 42//42
f 53//53 6//6 142//142
f 6//6 171//171 142//142
f 142//142 18//18 141//141
f 43//43 141//141 2//2
f 142//142 141//141 43//43
f 53//53 43//43 13//13
f 142//142 43//43 53//53
f 134//134 63//63 145//145
f 42//42 63//63 134//134
f 1//1 145//145 61//61
f 134//134 145//145 1//1
f 43//43 64//64 13//13
f 43//43 2//2 64//64
f 13//13 64//64 66//66
f 61//61 65//65 22//22
f 22//22 8//8 62//62
f 65//65 8//8 22//22
f 66//66 64//64 23//23
f 63//63 67//67 65//65
f 63//63 65//65 145//145
f 145//145 65//65 61//61
f 66//66 23//23 42//42
f 23//23 146//146 63//63
f 146//146 67//67 63//63
f 23//23 63//63 42//42
f 1//1 61//61 177//177
f 61//61 98//98 177//177
f 100//100 179//179 186//186
f 179//179 115//115 186//186
f 61//61 22//22 98//98
f 98//98 100//100 186//186
f 22//22 100//100 98//98
f 22//22 62//62 100//100
f 100//100 62//62 109//109
f 62//62 8//8 182//182
f 184//184 107//107 36//36
f 62//62 182//182 109//109
f 182//182 107//107 109//109
f 33//33 184//184 110//110
f 110//110 36//36 183//183
f 99//99 108//108 178//178
f 178//178 108//108 11//11
f 183//183 108//108 99//99
f 183//183 99//99 110//110
f 36//36 110//110 184//184
f 179//179 184//184 33//33
f 107//107 184//184 109//109
f 109//109 179//179 100//100
f 184//184 179//179 109//109
f 1//1 177//177 112//112
f 179//179 33//33 115//115
f 186//186 115//115 185//185
f 177//177 187//187 112//112
f 187//187 185//185 37//37
f 187//187 37//37 112//112
f 186//186 185//185 98//98
f 98//98 187//187 177//177
f 185//185 187//187 98//98
f 33//33 110//110 131//131
f 110//110 99//99 131//131
f 33//33 131//131 205//205
f 178//178 11//11 202//202
f 99//99 178//178 129//129
f 178//178 202//202 129//129
f 131//131 41//41 204//204
f 129//129 41//41 99//99
f 99//99 41//41 131//131
f 37//37 185//185 113//113
f 185//185 133//133 113//113
f 113//113 203//203 12//12
f 130//130 203//203 133//133
f 133//133 203//203 113//113
f 33//33 205//205 115//115
f 131//131 204//204 205//205
f 204//204 130//130 205//205
f 115//115 133//133 185//185
f 205//205 133//133 115//115
f 130//130 133//133 205//205
f 141//141 83//83 163//163
f 83//83 18//18 84//84
f 18//18 83//83 141//141
f 18//18 93//93 84//84
f 18//18 142//142 93//93
f 142//142 171//171 93//93
f 29//29 172//172 164//164
f 93//93 29//29 84//84
f 84//84 29//29 83//83
f 40//40 199//199 125//125
f 125//125 199//199 126//126
f 125//125 126//126 123//123
f 123//123 126//126 19//19
f 123//123 19//19 6//6
f 197//197 128//128 201//201
f 196//196 12//12 191//191
f 128//128 124//124 39//39
f 191//191 39//39 124//124
f 196//196 191//191 124//124
f 39//39 190//190 119//119
f 39//39 119//119 121//121
f 143//143 119//119 5//5
f 121//121 143//143 54//54
f 119//119 143//143 121//121
f 40//40 197//197 199//199
f 197//197 201//201 199//199
f 128//128 39//39 121//121
f 128//128 121//121 201//201
f 121//121 54//54 201//201
f 199//199 54//54 126//126
f 201//201 54//54 199//199
f 203//203 130//130 117//117
f 130//130 204//204 189//189
f 204//204 41//41 189//189
f 189//189 41//41 38//38
f 130//130 189//189 206//206
f 130//130 206//206 117//117
f 129//129 202//202 132//132
f 202//202 11//11 180//180
f 202//202 180//180 101//101
f 202//202 101//101 132//132
f 34//34 55//55 132//132
f 101//101 34//34 132//132
f 41//41 116//116 38//38
f 132//132 116//116 129//129
f 132//132 3//3 116//116
f 129//129 116//116 41//41
f 11//11 108//108 111//111
f 103//103 180//180 35//35
f 11//11 111//111 180//180
f 183//183 36//36 24//24
f 182//182 147//147 107//107
f 107//107 147//147 69//69
f 36//36 148//148 24//24
f 107//107 69//69 148//148
f 107//107 148//148 36//36
f 181//181 105//105 7//7
f 183//183 24//24 108//108
f 111//111 105//105 181//181
f 180//180 181//181 35//35
f 111//111 181//181 180//180
f 24//24 68//68 108//108
f 68//68 105//105 111//111
f 68//68 111//111 108//108
f 8//8 65//65 156//156
f 8//8 156//156 79//79
f 146//146 23//23 157//157
f 146//146 157//157 67//67
f 65//65 28//28 156//156
f 67//67 28//28 65//65
f 64//64 71//71 23//23
f 64//64 2//2 25//25
f 64//64 25//25 71//71
f 160//160 80//80 28//28
f 82//82 158//158 70//70
f 158//158 71//71 70//70
f 82//82 70//70 95//95
f 80//80 95//95 9//9
f 82//82 95//95 80//80
f 160//160 82//82 80//80
f 23//23 71//71 158//158
f 158//158 157//157 23//23
f 67//67 157//157 160//160
f 67//67 160//160 28//28
f 157//157 82//82 160//160
f 158//158 82//82 157//157
f 4//4 165//165 49//49
f 85//85 88//88 87//87
f 88//88 166//166 87//87
f 166//166 168//168 87//87
f 49//49 165//165 138//138
f 165//165 16//16 138//138
f 16//16 87//87 167//167
f 85//85 87//87 16//16
f 85//85 16//16 165//165
f 86//86 10//10 90//90
f 86//86 90//90 31//31
f 86//86 31//31 92//92
f 91//91 170//170 89//89
f 91//91 89//89 143//143
f 167//167 143//143 5//5
f 167//167 5//5 16//16
f 91//91 143//143 167//167
f 166//166 30//30 168//168
f 92//92 31//31 170//170
f 168//168 167//167 87//87
f 168//168 91//91 167//167
f 92//92 170//170 30//30
f 170//170 91//91 168//168
f 170//170 168//168 30//30
f 50//50 45//45 49//49
f 138//138 16//16 139//139
f 138//138 139//139 51//51
f 16//16 5//5 136//136
f 51//51 120//120 15//15
f 47//47 120//120 51//51
f 136//136 139//139 16//16
f 139//139 47//47 51//51
f 14//14 48//48 135//135
f 135//135 46//46 57//57
f 57//57 46//46 44//44
f 48//48 46//46 135//135
f 48//48 15//15 118//118
f 48//48 118//118 46//46
f 137//137 15//15 48//48
f 138//138 51//51 49//49
f 51//51 50//50 49//49
f 51//51 15//15 137//137
f 45//45 48//48 14//14
f 51//51 137//137 50//50
f 137//137 48//48 45//45
f 137//137 45//45 50//50
f 4//4 49//49 58//58
f 49//49 45//45 58//58
f 45//45 14//14 21//21
f 14//14 135//135 60//60
f 14//14 60//60 21//21
f 45//45 21//21 150//150
f 45//45 150//150 58//58
f 3//3 57//57 44//44
f 3//3 55//55 57//57
f 144//144 57//57 7//7
f 56//56 55//55 20//20
f 57//57 56//56 7//7
f 144//144 7//7 59//59
f 135//135 57//57 60//60
f 55//55 56//56 57//57
f 57//57 144//144 60//60
f 58//58 150//150 73//73
f 58//58 73//73 4//4
f 4//4 73//73 72//72
f 21//21 152//152 76//76
f 60//60 152//152 21//21
f 60//60 144//144 152//152
f 144//144 59//59 152//152
f 59//59 74//74 152//152
f 152//152 74//74 77//77
f 76//76 77//77 151//151
f 152//152 77//77 76//76
f 155//155 151//151 27//27
f 76//76 151//151 155//155
f 73//73 78//78 26//26
f 26//26 78//78 75//75
f 26//26 153//153 9//9
f 78//78 154//154 75//75
f 75//75 153//153 26//26
f 76//76 155//155 21//21
f 21//21 155//155 150//150
f 27//27 154//154 78//78
f 150//150 78//78 73//73
f 72//72 73//73 149//149
f 73//73 26//26 149//149
f 27//27 78//78 150//150
f 27//27 150//150 155//155
f 4//4 72//72 165//165
f 72//72 149//149 165//165
f 149//149 26//26 169//169
f 149//149 169//169 165//165
f 169//169 88//88 85//85
f 169//169 85//85 165//165
f 88//88 9//9 95//95
f 9//9 88//88 26//26
f 30//30 97//97 92//92
f 176//176 97//97 30//30
f 97//97 32//32 86//86
f 97//97 86//86 92//92
f 32//32 10//10 86//86
f 26//26 88//88 169//169
f 88//88 95//95 166//166
f 174//174 32//32 97//97
f 174//174 97//97 94//94
f 94//94 97//97 176//176
f 166//166 176//176 30//30
f 94//94 176//176 166//166
f 94//94 166//166 95//95
f 143//143 89//89 54//54
f 31//31 90//90 19//19
f 170//170 31//31 19//19
f 89//89 170//170 54//54
f 170//170 19//19 126//126
f 170//170 126//126 54//54
f 10//10 164//164 172//172
f 10//10 172//172 90//90
f 172//172 29//29 93//93
f 173//173 93//93 171//171
f 173//173 171//171 6//6
f 90//90 172//172 173//173
f 172//172 93//93 173//173
f 90//90 6//6 19//19
f 173//173 6//6 90//90
f 44//44 116//116 3//3
f 44//44 46//46 188//188
f 44//44 188//188 116//116
f 116//116 188//188 38//38
f 188//188 118//118 189//189
f 188//188 189//189 38//38
f 118//118 188//188 46//46
f 139//139 136//136 190//190
f 136//136 5//5 190//190
f 5//5 119//119 190//190
f 191//191 190//190 39//39
f 195//195 191//191 193//193
f 190//190 191//191 195//195
f 139//139 190//190 195//195
f 139//139 195//195 47//47
f 47//47 193//193 120//120
f 195//195 193//193 47//47
f 189//189 194//194 206//206
f 193//193 191//191 12//12
f 117//117 192//192 203//203
f 192//192 12//12 203//203
f 122//122 192//192 206//206
f 192//192 117//117 206//206
f 193//193 12//12 192//192
f 15//15 120//120 194//194
f 15//15 194//194 118//118
f 120//120 193//193 122//122
f 122//122 193//193 192//192
f 118//118 194//194 189//189
f 120//120 122//122 194//194
f 122//122 206//206 194//194
f 7//7 56//56 181//181
f 181//181 56//56 35//35
f 20//20 35//35 56//56
f 20//20 104//104 35//35
f 55//55 3//3 132//132
f 102//102 55//55 34//34
f 20//20 55//55 102//102
f 35//35 106//106 103//103
f 103//103 101//101 180//180
f 106//106 34//34 103//103
f 34//34 101//101 103//103
f 20//20 102//102 104//104
f 102//102 34//34 106//106
f 104//104 106//106 35//35
f 102//102 106//106 104//104
f 9//9 153//153 80//80
f 27//27 151//151 154//154
f 154//154 151//151 81//81
f 80//80 153//153 28//28
f 153//153 162//162 28//28
f 162//162 161//161 156//156
f 162//162 156//156 28//28
f 75//75 162//162 153//153
f 154//154 162//162 75//75
f 154//154 81//81 161//161
f 154//154 161//161 162//162
f 151//151 77//77 159//159
f 59//59 7//7 105//105
f 59//59 105//105 68//68
f 59//59 68//68 74//74
f 77//77 74//74 24//24
f 74//74 68//68 24//24
f 81//81 159//159 69//69
f 79//79 147//147 8//8
f 147//147 182//182 8//8
f 81//81 69//69 147//147
f 77//77 24//24 148//148
f 77//77 148//148 69//69
f 77//77 69//69 159//159
f 81//81 147//147 79//79
f 161//161 79//79 156//156
f 81//81 79//79 161//161
f 159//159 81//81 151//151
f 29//29 164//164 83//83
f 32//32 96//96 10//10
f 96//96 164//164 10//10
f 96//96 175//175 164//164
f 32//32 174//174 25//25
f 32//32 25//25 96//96
f 94//94 95//95 70//70
f 174//174 71//71 25//25
f 94//94 70//70 174//174
f 70//70 71//71 174//174
f 163//163 2//2 141//141
f 25//25 2//2 96//96
f 175//175 2//2 163//163
f 164//164 163//163 83//83
f 175//175 163//163 164//164
f 2//2 175//175 96//96

