# https://github.com/mikedh/trimesh
v 0.50486146 -1.00356925 -0.43923909
v -0.20285720 -0.99331621 0.19803713
v 0.47858331 1.04355510 -0.10709770
v -0.60765667 0.93137101 0.29009881
v 0.69621060 0.46566898 0.63399965
v 0.34023869 -0.86209430 0.43288606
v -0.57334410 0.56515424 -0.75763333
v -0.60835396 -0.39612144 -0.81674494
v -1.15683963 -0.02428737 0.06391243
v -0.19183972 -0.13442944 0.95573921
v 0.29024162 0.03338205 -1.08646147
v 1.07032995 -0.14618788 -0.23989343
v -0.14401090 -1.09693053 -0.13174263
v -0.03705007 1.37535988 0.21801281
v 0.53898405 0.81920866 0.27795871
v -0.10005403 0.81100294 0.71886573
v 0.62653762 -0.84791966 0.25212158
v 0.05534500 -1.06725169 0.51464091
v 0.61661457 -0.18363888 0.83202526
v -0.19730671 0.99057643 -0.69096363
v -0.74665452 1.14408097 -0.14427293
v -0.11713636 -0.81235777 -0.71178143
v -0.61798745 -0.82659379 -0.29917516
v -0.75835067 0.09568215 -1.06848034
v -0.82040931 -0.70274476 0.06925347
v -0.89136490 0.48290325 0.30265517
v -0.81398969 0.41878832 -0.36426267
v -0.89897893 -0.32604467 -0.41176383
v -0.59762995 -0.66551948 0.82871742
v -0.60621607 0.38999009 0.77255722
v 0.06928461 0.18356431 1.03821459
v 0.01205272 -0.53733358 1.06213718
v -0.81354262 -0.00199928 0.68646174
v 0.67252194 -0.31273811 -0.68602117
v 0.65308548 0.82696494 -0.62369852
v -0.19552441 0.71392428 -0.95841433
v -0.05373078 -0.32498077 -1.28160245
v 0.87587455 -0.55120429 -0.22822463
v 1.14250384 0.71268743 -0.11834347
v 0.88359094 0.25286599 0.48191548
v 0.87148087 -0.34320194 0.44513635
v 1.14097254 0.06251564 -0.68482960
v 0.04963821 -1.04851703 -0.34928312
v -0.13428121 -1.32789565 0.03238011
v -0.08147590 1.00700790 0.30630689
v 0.58311673 1.22217852 0.22246431
v 0.69796343 0.83114207 0.69694638
v 0.26895474 1.33597341 0.24934341
v -0.42411799 1.05383776 0.64909771
v 0.17141861 0.68950227 0.86997909
v -0.15910745 1.10133349 0.44818138
v 0.44436802 0.89324055 0.54886279
v 0.67043886 -0.85788484 -0.04755950
v 0.68509684 -0.92219564 0.57202033
v 0.30042111 -1.06396346 -0.00328069
v -0.37830751 -1.05952504 0.53066784
v 0.21221500 -0.87543162 0.82833936
v 0.61983115 0.14205734 0.82130247
v 0.67614097 -0.51946781 0.92389657
v 0.21522394 1.11346296 -0.53676307
v 0.08905773 1.13026557 -0.15812695
v -0.60110246 0.84407497 0.05360827
v -0.48054895 0.86052666 -0.51507684
v -0.26000752 1.06246463 -0.29802507
v -0.48433354 -0.73269576 -0.93141366
v -0.02929961 -1.16406035 -0.56638845
v -0.52703868 -0.95703796 -0.08452589
v -0.40479228 -0.72923686 -0.66490337
v -0.31983747 -1.17397845 -0.28804099
v -0.61030930 -0.09987341 -0.77681149
v -0.81607873 -1.00244372 0.17820678
v -0.97942244 -0.38974258 0.00864515
v -0.88509386 -0.83330977 -0.10717067
v -0.74710797 0.94069085 0.49173747
v -0.80938028 0.83207730 0.07327910
v -0.95427815 0.79092543 -0.48288055
v -1.21254665 0.28195127 -0.18980361
v -0.94710462 0.42345829 -0.78728059
v -0.97768662 0.52692073 -0.16386933
v -0.88351340 -0.45470490 -0.77054401
v -0.69060832 -0.55576930 -0.56571852
v -0.70913088 -0.24062114 -0.84445337
v -1.06536152 -0.57989057 -0.27694201
v -1.01079105 0.19610269 -0.36895714
v -0.61197893 -0.74520949 0.33771305
v -0.38779905 0.76344698 0.65436943
v -0.42034065 0.20410382 0.95598360
v -0.67849993 0.65521130 0.50422322
v 0.07067917 0.43725584 0.96198669
v -0.32049435 0.06354181 1.22241615
v 0.11811215 0.64693405 1.06279636
v -0.30570449 0.39596089 1.09357554
v -0.33983042 -0.47147592 1.04563041
v 0.34128932 -0.41241128 0.83147226
v -0.18997681 -0.83161817 0.89795033
v -0.97965166 0.04137869 0.38900970
v -0.91336801 -0.18888386 0.86673294
v -0.93932698 -0.33756344 0.36898105
v -1.17086161 0.19351366 0.38612011
v -0.58735252 -0.27059265 0.75351834
v -0.87387278 0.19853079 0.80135729
v 0.66484566 -0.81836016 -0.75314505
v 0.74934431 -0.27867592 -1.06104101
v 0.22361462 -0.67170432 -0.87040921
v 0.45249840 0.50030278 -1.00723005
v 0.03115906 0.33211897 -1.08331759
v -0.36273667 0.32145621 -0.97850906
v -0.10242402 -0.38388790 -0.92126294
v -0.22348651 -0.52898113 -0.99821621
v 0.35075947 -0.37780987 -1.22765003
v 1.23641243 -0.22010796 -0.10252694
v 0.95885413 -0.81444058 -0.04906185
v 0.83808551 -0.47285012 -0.56377192
v 0.73116669 0.83066299 -0.28023252
v 0.92937281 0.41212700 0.00217484
v 0.88229606 1.01646984 0.12640898
v 1.22339497 0.18186140 0.23582301
v 0.86424901 0.58811384 0.37787637
v 0.82545007 0.25848352 0.87251026
v 1.08440612 0.37440961 0.07586003
v 0.71791166 -0.55345201 0.53684022
v 1.00460596 -0.01863480 0.26101460
v 0.86489819 -0.79037606 0.30331403
v 0.85766791 -0.26902219 0.76225643
v 0.99412287 -0.32483837 0.00020844
v 0.82193537 0.27507874 -0.70851627
v 0.91433074 -0.05493811 -0.41359721
v 0.98552464 -0.12681894 -0.88261254
v 1.07280673 -0.16515775 -0.39170291
v 0.30839412 -1.15721393 -0.48458808
v 0.09032339 -1.23493667 -0.24919963
v 0.03464195 1.11256685 0.03005436
v -0.42323537 1.23320237 0.14791611
v 0.51663209 0.97472015 0.01493422
v 0.37938518 0.69264145 0.73030045
v 0.26632179 0.94822889 0.33275107
v -0.06387386 1.06649269 0.74584185
v -0.10688369 1.01432832 0.54447103
v 0.29594890 1.00224344 0.76535996
v 0.35816281 1.01821142 0.48641657
v 0.73248925 -1.00825571 -0.26251491
v 0.64666461 -1.07544693 0.01043090
v 0.53466115 -1.13205640 0.34467423
v 0.67738511 0.01119796 0.97434362
v -0.48968259 0.95434311 -0.22010135
v 0.16017563 -0.84938086 -0.64926663
v -0.10484669 -0.84993566 -0.95081198
v -0.52983092 -1.19837825 0.06076398
v -0.64505717 -1.03052888 -0.22923620
v -0.80860038 -0.84887312 -0.46576820
v -0.33439162 -0.97521992 -0.36806624
v -0.48833788 -1.03992000 -0.55643848
v -0.50066810 0.18378515 -0.89902299
v -0.43632846 -0.22994663 -1.14094017
v -1.19397633 -0.30449799 -0.05416736
v -1.09769654 -0.51837508 0.12450858
v -0.98497113 0.76796082 0.28651193
v -1.02530308 0.25552573 0.04180652
v -0.84336105 0.73122075 0.13828795
v -0.66768241 0.59152455 -0.57543530
v -0.77204021 0.62185346 -0.17470007
v -0.78321741 0.18236665 -0.56564584
v -1.14654532 0.53463164 0.04587556
v -1.00800114 -0.09107100 -0.26380452
v -0.85891778 -0.61364057 -0.16382894
v -1.13384818 -0.10063576 -0.51674585
v -0.85402030 -0.16992663 -0.65588362
v -0.97693797 0.15480599 -0.54997650
v -0.97407976 -0.76845887 0.33737962
v -0.60235801 0.64736272 0.90043932
v -0.64316629 -0.00645491 1.08469785
v -0.63070918 0.33341075 0.97162249
v -0.90072857 0.50095922 0.70949434
v 0.40926965 0.55506133 1.03257230
v 0.15300083 0.33891682 1.14715707
v -0.29067967 0.69267698 1.00618208
v -0.31808343 0.46527537 0.90153727
v 0.53221843 -0.27956113 1.09081853
v -0.03586486 0.03681266 1.25022936
v -1.07245416 -0.03993214 0.55493110
v -0.85018476 0.23974652 0.58784565
v 0.65052531 -0.73956743 -0.47402873
v 0.48979180 -0.61224248 -0.81539425
v 0.59222845 -0.05389012 -0.87272107
v 0.31267761 -0.88085016 -0.89160244
v 0.55244894 0.26859989 -0.92595690
v -0.21458906 -0.60717907 -0.90805205
v 0.10262772 -0.13309491 -1.04764071
v 0.28762699 -0.42485676 -0.87112265
v 0.19744610 -0.59816275 -0.96415184
v 1.13218991 -0.44869009 -0.33373450
v 0.76133288 -0.47301112 -0.72254135
v 0.92378770 -0.67733676 -0.57432615
v 0.84048124 0.64225160 -0.20997181
v 1.17934229 0.29343845 -0.33422153
v 0.73577054 0.67635444 -0.50494445
v 1.05735891 0.27452237 0.14796134
v 0.78902160 0.77126323 0.37222314
v 1.03779056 0.50974893 0.49129113
v 0.79471980 -0.07594053 0.66359376
v 0.74669986 0.66025368 0.18550325
v 0.91701061 -0.52442499 0.55049899
v 1.08706982 -0.16081619 0.54892499
v 0.84880287 -0.59243962 0.22206836
v 1.09573899 -0.52715769 0.23352130
v 0.84858385 0.16867268 -0.62300437
vn 0.51762051 -0.36728849 -0.77276657
vn -0.18264100 -0.84474283 0.50304256
vn 0.41532266 0.90654079 -0.07543787
vn -0.27350379 0.92607034 -0.25997963
vn 0.62135329 0.31713055 0.71648329
vn 0.07465915 -0.75356283 0.65312255
vn -0.58184953 0.42142685 -0.69559365
vn -0.41365063 -0.09873167 -0.90506641
vn -0.89515969 0.30491323 -0.32514158
vn -0.15985301 -0.43665710 0.88531214
vn 0.25854463 -0.15996556 -0.95266242
vn 0.92236107 0.13998968 -0.36007353
vn -0.15163131 -0.98574796 -0.07286225
vn -0.01517958 0.97212325 0.23397857
vn 0.56290947 0.74591474 0.35601143
vn -0.18217027 0.22435056 0.95733005
vn 0.57989329 -0.75535880 0.30521608
vn 0.28010562 -0.95975576 0.02024135
vn 0.51221847 -0.20336339 0.83443128
vn -0.30418195 0.79551821 -0.52404591
vn -0.63463647 0.76672014 -0.09683379
vn -0.21551509 -0.94789457 0.23462552
vn -0.61626040 -0.75622577 -0.21987657
vn -0.63796003 0.03986826 -0.76903675
vn -0.77233248 -0.62599056 0.10788124
vn -0.88904567 0.29625796 0.34904013
vn -0.91216366 0.31183658 -0.26592368
vn -0.88977438 -0.36843510 -0.26936432
vn -0.80606898 -0.30021547 0.51002301
vn -0.57825928 0.28866242 0.76307943
vn 0.10141951 0.03885046 0.99408487
vn 0.25035200 -0.06712732 0.96582493
vn -0.73155857 -0.04704998 0.68015319
vn 0.64115835 -0.38514807 -0.66375969
vn 0.68434132 0.56157070 -0.46509709
vn -0.30779990 0.48405977 -0.81911255
vn -0.04126215 -0.31773114 -0.94728262
vn 0.79875608 -0.58854077 -0.12493393
vn 0.87023975 0.49200361 -0.02480383
vn 0.81692465 0.09715038 0.56850323
vn 0.80348418 -0.33240087 0.49388545
vn 0.87071598 -0.03499916 -0.49053924
vn 0.06113287 -0.97571840 -0.21032444
vn -0.07111659 -0.99682815 -0.03572209
vn -0.07955381 0.93302579 0.35090464
vn 0.48104998 0.84440271 0.23574349
vn 0.57698013 0.60493895 0.54876479
vn 0.20523755 0.94307997 0.26168248
vn -0.30742243 0.77919405 0.54621249
vn 0.23611248 0.91375221 0.33061729
vn -0.15998065 0.97164402 0.17410944
vn 0.44004454 0.87678079 0.19394910
vn 0.59325427 -0.80355943 0.04839018
vn 0.58538482 -0.66041648 0.47029213
vn 0.24446046 -0.96305647 0.11296602
vn -0.42850965 -0.89667272 0.11116431
vn 0.53401063 -0.60905357 0.58641828
vn 0.50061478 0.10629717 0.85911917
vn 0.57464357 -0.38788692 0.72064451
vn 0.19876788 0.92087349 -0.33538536
vn 0.05583728 0.99838385 0.01057765
vn -0.63128941 0.75429230 0.18032417
vn -0.64376840 0.66524566 -0.37816723
vn -0.35248374 0.93359748 -0.06442801
vn -0.40536144 -0.56559379 -0.71818227
vn -0.08257208 -0.91691957 -0.39043610
vn -0.51498553 -0.85458271 -0.06692009
vn -0.40319064 -0.76601893 -0.50065189
vn -0.26857418 -0.91977397 -0.28615338
vn -0.66066161 -0.12612249 -0.74001307
vn -0.65614460 -0.74618929 0.11258691
vn -0.93730567 -0.33604722 0.09235984
vn -0.75363022 -0.64598595 -0.12142339
vn -0.62103587 0.63405482 0.46074824
vn -0.58384212 0.79594963 -0.15997675
vn -0.79685446 0.50138791 -0.33709515
vn -0.98743246 0.08651437 -0.13225882
vn -0.81409569 0.23627634 -0.53049194
vn -0.49283423 0.67284543 -0.55171864
vn -0.72673727 -0.34838745 -0.59201278
vn -0.68943008 -0.57955965 -0.43450751
vn -0.53651285 -0.04147602 -0.84287229
vn -0.86118094 -0.48579026 -0.14958345
vn -0.73143131 0.38033667 -0.56599669
vn -0.39907678 -0.69676458 0.59603427
vn -0.34865767 0.57229075 0.74224061
vn -0.38393265 0.13988000 0.91270439
vn -0.66840465 0.47700668 0.57070119
vn 0.08047051 0.29661408 0.95160106
vn -0.22137195 0.08201290 0.97173471
vn 0.06320817 0.43257454 0.89937978
vn -0.21777553 0.36693598 0.90439582
vn -0.35987409 0.00505688 0.93298717
vn 0.05341929 -0.55186912 0.83221804
vn -0.13675557 -0.65752862 0.74091432
vn -0.92498442 -0.08022236 0.37144071
vn -0.76567252 -0.11491286 0.63288279
vn -0.83205502 -0.34573222 0.43376684
vn -0.94481124 0.08084144 0.31748445
vn -0.36777542 -0.49394725 0.78788156
vn -0.72756604 0.19577761 0.65750953
vn 0.52907337 -0.67723430 -0.51130723
vn 0.54742207 -0.30812417 -0.77806721
vn 0.17279062 -0.28694964 -0.94223315
vn 0.43350164 0.24161723 -0.86815750
vn -0.06446547 0.06255839 -0.99595715
vn -0.42999758 0.09410096 -0.89791263
vn -0.12306153 -0.42273269 -0.89786020
vn -0.18401963 -0.22913513 -0.95584197
vn 0.25110157 -0.39617218 -0.88317360
vn 0.98521671 -0.17117880 -0.00677074
vn 0.75594634 -0.65222899 0.05605774
vn 0.73538260 -0.10228377 -0.66988839
vn 0.76578483 0.64221664 -0.03363611
vn 0.93383805 0.35436036 0.04873626
vn 0.69641007 0.68507590 0.21373820
vn 0.97334353 0.12865593 0.18986846
vn 0.77115133 0.63532059 0.04115064
vn 0.63333107 0.11666513 0.76503660
vn 0.90077159 0.41653101 -0.12293277
vn 0.66858777 -0.49151736 0.55803322
vn 0.91643996 -0.15067329 0.37072275
vn 0.76241656 -0.60088542 0.24012017
vn 0.75213391 -0.20183351 0.62734187
vn 0.91680190 -0.37163277 0.14616213
vn 0.82247543 0.14706467 -0.54945987
vn 0.92220739 -0.11705984 -0.36855194
vn 0.78111854 -0.15584079 -0.60462176
vn 0.89989752 -0.04068417 -0.43419956
vn 0.25926512 -0.92534253 -0.27662754
vn 0.15091678 -0.95615267 -0.25099043
vn 0.10057964 0.88000919 -0.46418483
vn -0.50583406 0.56181541 0.65459556
vn 0.38610162 0.83893082 -0.38356306
vn 0.28631198 0.19278322 0.93854147
vn 0.27811386 0.88674339 0.36924090
vn -0.02382639 0.76828865 0.63965995
vn 0.00807253 0.98188284 0.18931701
vn 0.20780470 0.73695050 0.64321160
vn 0.30291821 0.92353658 0.23520364
vn 0.56272060 -0.81172024 -0.15638342
vn 0.54486211 -0.83451813 -0.08188273
vn 0.44275329 -0.86761426 0.22630736
vn 0.56605572 0.05913112 0.82224353
vn -0.10047216 0.80072046 -0.59055235
vn 0.10910936 -0.86095918 -0.49683442
vn -0.10097075 -0.67485852 -0.73100676
vn -0.42003958 -0.90746510 0.00859302
vn -0.56201250 -0.79231555 -0.23744055
vn -0.66658735 -0.67764915 -0.31056873
vn -0.34115810 -0.90093540 -0.26819125
vn -0.40968191 -0.83421990 -0.36910418
vn -0.10203701 0.46665990 -0.87853115
vn -0.53769573 -0.67242233 -0.50865657
vn -0.96682716 -0.25396406 0.02734031
vn -0.94052143 -0.33213804 0.07144055
vn -0.82950196 0.51519141 0.21564858
vn -0.94570180 0.00654316 0.32496968
vn -0.65007403 0.73642476 -0.18730275
vn -0.25530673 0.65713198 -0.70922214
vn -0.86687087 0.48150590 -0.12917803
vn -0.82227785 0.11450330 -0.55744787
vn -0.92005343 0.35445126 0.16693111
vn -0.93520445 -0.35197963 0.03876826
vn -0.80327585 -0.59074764 -0.07592849
vn -0.91264554 -0.07561154 -0.40169768
vn -0.61145678 0.13865179 -0.77903549
vn -0.76399433 0.23157055 -0.60223562
vn -0.82673005 -0.50176698 0.25445494
vn -0.49356563 0.41400438 0.76484857
vn -0.53310919 0.04793299 0.84468753
vn -0.53235627 0.31242115 0.78675907
vn -0.73426974 0.29664431 0.61061452
vn 0.36829143 0.36087564 0.85681398
vn 0.22464309 0.32390612 0.91903227
vn -0.18099261 0.48495017 0.85560798
vn -0.29212296 0.34178877 0.89322148
vn 0.41396987 -0.10786161 0.90387766
vn 0.04446847 0.04892391 0.99781211
vn -0.91475424 -0.02647078 0.40314263
vn -0.78327270 0.13694268 0.60640793
vn 0.55488239 -0.82687324 -0.09157610
vn 0.39610402 0.06679324 -0.91577304
vn 0.36104243 0.38496873 -0.84938063
vn 0.19743636 -0.70872212 -0.67729746
vn 0.59498608 0.02575069 -0.80332339
vn -0.12961947 -0.26995338 -0.95410899
vn 0.09779210 0.38547841 -0.91752008
vn 0.35505251 -0.51007987 -0.78342596
vn 0.19244660 -0.26840309 -0.94388775
vn 0.89316803 -0.36903545 -0.25702861
vn 0.58036343 -0.26293949 -0.77074063
vn 0.76219058 -0.53298351 -0.36741544
vn 0.48701448 0.64515560 -0.58871993
vn 0.94236547 -0.23027678 0.24273429
vn 0.90520764 0.28225827 -0.31769388
vn 0.91111618 0.39181423 -0.12786286
vn 0.67255951 0.71328331 0.19720706
vn 0.84335961 0.36502840 0.39433340
vn 0.71761740 -0.13512975 0.68320218
vn 0.78700388 0.57211958 0.23087675
vn 0.80751387 -0.37901914 0.45195779
vn 0.84464685 -0.17575502 0.50564995
vn 0.77444345 -0.55555531 0.30264772
vn 0.85727835 -0.43108963 0.28148812
vn 0.53719158 0.43902411 -0.72019653
f 1//1 182//182 38//38
f 38//38 141//141 1//1
f 38//38 112//112 141//141
f 141//141 112//112 53//53
f 191//191 111//111 125//125
f 191//191 125//125 38//38
f 12//12 117//117 111//111
f 125//125 111//111 122//122
f 125//125 203//203 205//205
f 204//204 41//41 202//202
f 204//204 202//202 123//123
f 123//123 202//202 121//121
f 123//123 121//121 17//17
f 121//121 54//54 17//17
f 125//125 112//112 38//38
f 205//205 41//41 204//204
f 53//53 204//204 123//123
f 142//142 123//123 17//17
f 123//123 142//142 53//53
f 125//125 205//205 112//112
f 205//205 204//204 112//112
f 204//204 53//53 112//112
f 1//1 141//141 130//130
f 141//141 53//53 130//130
f 130//130 53//53 43//43
f 142//142 17//17 55//55
f 142//142 55//55 131//131
f 131//131 55//55 13//13
f 53//53 142//142 43//43
f 142//142 131//131 43//43
f 17//17 54//54 143//143
f 143//143 54//54 6//6
f 6//6 57//57 18//18
f 2//2 18//18 56//56
f 143//143 55//55 17//17
f 6//6 18//18 2//2
f 44//44 13//13 55//55
f 6//6 2//2 143//143
f 2//2 44//44 143//143
f 143//143 44//44 55//55
f 43//43 66//66 130//130
f 130//130 146//146 1//1
f 66//66 146//146 130//130
f 44//44 2//2 148//148
f 151//151 149//149 23//23
f 67//67 149//149 69//69
f 69//69 149//149 151//151
f 44//44 148//148 13//13
f 13//13 67//67 69//69
f 148//148 67//67 13//13
f 147//147 22//22 65//65
f 152//152 150//150 81//81
f 152//152 81//81 68//68
f 68//68 65//65 22//22
f 13//13 69//69 131//131
f 69//69 151//151 43//43
f 69//69 43//43 131//131
f 23//23 152//152 151//151
f 66//66 68//68 146//146
f 68//68 22//22 146//146
f 151//151 152//152 66//66
f 152//152 68//68 66//66
f 151//151 66//66 43//43
f 1//1 146//146 182//182
f 102//102 185//185 183//183
f 185//185 104//104 183//183
f 146//146 102//102 182//182
f 185//185 102//102 146//146
f 187//187 8//8 109//109
f 65//65 8//8 187//187
f 108//108 154//154 37//37
f 65//65 187//187 147//147
f 34//34 110//110 103//103
f 189//189 110//110 34//34
f 110//110 37//37 188//188
f 188//188 11//11 184//184
f 110//110 188//188 103//103
f 188//188 184//184 103//103
f 22//22 147//147 146//146
f 146//146 147//147 185//185
f 147//147 187//187 104//104
f 187//187 109//109 190//190
f 187//187 190//190 104//104
f 147//147 104//104 185//185
f 109//109 108//108 190//190
f 190//190 108//108 189//189
f 37//37 110//110 189//189
f 37//37 189//189 108//108
f 190//190 183//183 104//104
f 183//183 189//189 34//34
f 190//190 189//189 183//183
f 183//183 34//34 192//192
f 183//183 113//113 102//102
f 192//192 113//113 183//183
f 102//102 113//113 193//193
f 193//193 182//182 102//102
f 34//34 103//103 128//128
f 184//184 11//11 126//126
f 184//184 126//126 206//206
f 128//128 206//206 42//42
f 184//184 206//206 128//128
f 184//184 128//128 103//103
f 127//127 42//42 195//195
f 191//191 12//12 111//111
f 34//34 127//127 129//129
f 128//128 42//42 34//34
f 42//42 127//127 34//34
f 113//113 12//12 191//191
f 129//129 12//12 113//113
f 193//193 191//191 182//182
f 182//182 191//191 38//38
f 113//113 191//191 193//193
f 129//129 113//113 192//192
f 129//129 192//192 34//34
f 2//2 56//56 85//85
f 6//6 94//94 57//57
f 95//95 32//32 93//93
f 29//29 93//93 100//100
f 93//93 10//10 100//100
f 18//18 57//57 56//56
f 57//57 95//95 56//56
f 57//57 32//32 95//95
f 95//95 29//29 56//56
f 95//95 93//93 29//29
f 6//6 54//54 59//59
f 54//54 121//121 59//59
f 121//121 202//202 124//124
f 202//202 41//41 124//124
f 121//121 124//124 19//19
f 121//121 19//19 59//59
f 41//41 205//205 203//203
f 125//125 122//122 203//203
f 111//111 117//117 122//122
f 122//122 117//117 40//40
f 200//200 119//119 58//58
f 200//200 58//58 144//144
f 119//119 5//5 174//174
f 40//40 5//5 119//119
f 41//41 200//200 124//124
f 203//203 200//200 41//41
f 203//203 40//40 119//119
f 122//122 40//40 203//203
f 124//124 144//144 19//19
f 200//200 144//144 124//124
f 119//119 200//200 203//203
f 12//12 129//129 120//120
f 120//120 127//127 115//115
f 129//129 127//127 120//120
f 195//195 42//42 39//39
f 127//127 195//195 115//115
f 126//126 11//11 186//186
f 126//126 186//186 196//196
f 186//186 105//105 35//35
f 186//186 35//35 196//196
f 196//196 35//35 114//114
f 42//42 206//206 39//39
f 206//206 194//194 39//39
f 196//196 114//114 126//126
f 126//126 114//114 194//194
f 126//126 194//194 206//206
f 186//186 106//106 105//105
f 11//11 106//106 186//186
f 37//37 154//154 24//24
f 108//108 109//109 70//70
f 109//109 8//8 82//82
f 109//109 82//82 70//70
f 108//108 70//70 154//154
f 107//107 36//36 106//106
f 107//107 153//153 7//7
f 107//107 7//7 63//63
f 37//37 153//153 188//188
f 37//37 24//24 153//153
f 153//153 107//107 188//188
f 188//188 107//107 11//11
f 107//107 106//106 11//11
f 8//8 65//65 80//80
f 65//65 68//68 81//81
f 81//81 80//80 65//65
f 152//152 23//23 150//150
f 81//81 28//28 80//80
f 23//23 149//149 73//73
f 149//149 67//67 73//73
f 67//67 148//148 71//71
f 148//148 2//2 71//71
f 67//67 25//25 73//73
f 71//71 25//25 67//67
f 164//164 28//28 9//9
f 165//165 72//72 83//83
f 165//165 156//156 72//72
f 83//83 72//72 155//155
f 83//83 155//155 28//28
f 155//155 9//9 28//28
f 73//73 165//165 23//23
f 23//23 165//165 150//150
f 73//73 25//25 156//156
f 156//156 165//165 73//73
f 83//83 28//28 81//81
f 165//165 83//83 150//150
f 150//150 83//83 81//81
f 74//74 86//86 49//49
f 86//86 170//170 176//176
f 170//170 86//86 88//88
f 49//49 16//16 137//137
f 86//86 16//16 49//49
f 30//30 172//172 177//177
f 172//172 87//87 92//92
f 172//172 92//92 177//177
f 87//87 171//171 90//90
f 171//171 10//10 90//90
f 87//87 90//90 31//31
f 87//87 31//31 92//92
f 16//16 50//50 135//135
f 91//91 89//89 174//174
f 50//50 174//174 5//5
f 91//91 174//174 50//50
f 30//30 177//177 170//170
f 177//177 176//176 170//170
f 177//177 92//92 89//89
f 92//92 31//31 175//175
f 175//175 89//89 92//92
f 176//176 91//91 50//50
f 176//176 50//50 86//86
f 86//86 50//50 16//16
f 89//89 91//91 176//176
f 89//89 176//176 177//177
f 4//4 138//138 51//51
f 49//49 138//138 4//4
f 133//133 45//45 14//14
f 49//49 137//137 138//138
f 16//16 135//135 137//137
f 135//135 139//139 137//137
f 50//50 5//5 135//135
f 140//140 198//198 15//15
f 52//52 198//198 140//140
f 139//139 47//47 52//52
f 47//47 139//139 135//135
f 14//14 48//48 132//132
f 132//132 134//134 3//3
f 48//48 134//134 132//132
f 48//48 136//136 46//46
f 136//136 15//15 46//46
f 46//46 134//134 48//48
f 139//139 52//52 138//138
f 139//139 138//138 137//137
f 140//140 15//15 136//136
f 136//136 48//48 14//14
f 136//136 14//14 45//45
f 52//52 140//140 138//138
f 138//138 140//140 51//51
f 140//140 136//136 45//45
f 140//140 45//45 51//51
f 51//51 45//45 62//62
f 51//51 62//62 4//4
f 133//133 14//14 21//21
f 45//45 133//133 62//62
f 132//132 3//3 61//61
f 61//61 114//114 60//60
f 3//3 114//114 61//61
f 61//61 60//60 64//64
f 145//145 64//64 63//63
f 64//64 20//20 63//63
f 14//14 145//145 21//21
f 132//132 145//145 14//14
f 60//60 20//20 64//64
f 61//61 64//64 132//132
f 132//132 64//64 145//145
f 133//133 21//21 62//62
f 62//62 75//75 4//4
f 4//4 157//157 74//74
f 159//159 157//157 4//4
f 75//75 159//159 4//4
f 145//145 63//63 160//160
f 21//21 160//160 76//76
f 145//145 160//160 21//21
f 63//63 7//7 160//160
f 161//161 76//76 27//27
f 26//26 157//157 158//158
f 163//163 158//158 157//157
f 79//79 27//27 168//168
f 79//79 168//168 84//84
f 79//79 84//84 77//77
f 79//79 77//77 163//163
f 77//77 158//158 163//163
f 21//21 76//76 161//161
f 62//62 161//161 75//75
f 161//161 62//62 21//21
f 27//27 79//79 161//161
f 79//79 163//163 159//159
f 159//159 163//163 157//157
f 79//79 159//159 75//75
f 79//79 75//75 161//161
f 4//4 74//74 49//49
f 74//74 88//88 86//86
f 74//74 157//157 88//88
f 157//157 26//26 88//88
f 88//88 173//173 170//170
f 158//158 9//9 26//26
f 99//99 96//96 181//181
f 96//96 180//180 181//181
f 9//9 99//99 26//26
f 30//30 101//101 172//172
f 172//172 101//101 87//87
f 171//171 97//97 10//10
f 101//101 33//33 87//87
f 33//33 97//97 171//171
f 33//33 171//171 87//87
f 26//26 99//99 173//173
f 26//26 173//173 88//88
f 180//180 33//33 101//101
f 180//180 101//101 181//181
f 181//181 101//101 30//30
f 173//173 30//30 170//170
f 181//181 30//30 173//173
f 181//181 173//173 99//99
f 174//174 89//89 119//119
f 119//119 89//89 58//58
f 175//175 31//31 19//19
f 175//175 19//19 144//144
f 89//89 175//175 58//58
f 175//175 144//144 58//58
f 31//31 90//90 179//179
f 179//179 90//90 10//10
f 10//10 93//93 32//32
f 178//178 94//94 59//59
f 19//19 178//178 59//59
f 94//94 32//32 57//57
f 59//59 94//94 6//6
f 10//10 32//32 94//94
f 31//31 178//178 19//19
f 10//10 94//94 179//179
f 94//94 178//178 179//179
f 179//179 178//178 31//31
f 3//3 134//134 114//114
f 46//46 15//15 116//116
f 116//116 15//15 201//201
f 114//114 134//134 194//194
f 134//134 116//116 39//39
f 134//134 39//39 194//194
f 46//46 116//116 134//134
f 52//52 47//47 118//118
f 52//52 118//118 198//198
f 118//118 47//47 199//199
f 47//47 5//5 199//199
f 199//199 5//5 40//40
f 135//135 5//5 47//47
f 39//39 115//115 195//195
f 120//120 118//118 197//197
f 118//118 199//199 197//197
f 199//199 40//40 117//117
f 199//199 117//117 197//197
f 120//120 197//197 12//12
f 197//197 117//117 12//12
f 198//198 201//201 15//15
f 116//116 201//201 39//39
f 115//115 39//39 201//201
f 118//118 120//120 198//198
f 198//198 115//115 201//201
f 120//120 115//115 198//198
f 63//63 20//20 36//36
f 63//63 36//36 107//107
f 20//20 60//60 36//36
f 60//60 114//114 35//35
f 60//60 35//35 105//105
f 36//36 105//105 106//106
f 60//60 105//105 36//36
f 158//158 77//77 164//164
f 158//158 164//164 9//9
f 77//77 84//84 166//166
f 164//164 166//166 28//28
f 166//166 164//164 77//77
f 27//27 76//76 78//78
f 27//27 78//78 162//162
f 78//78 160//160 24//24
f 160//160 7//7 153//153
f 160//160 153//153 24//24
f 76//76 160//160 78//78
f 166//166 80//80 28//28
f 166//166 167//167 80//80
f 70//70 24//24 154//154
f 167//167 8//8 80//80
f 82//82 8//8 167//167
f 27//27 162//162 168//168
f 78//78 24//24 162//162
f 162//162 70//70 168//168
f 168//168 70//70 82//82
f 24//24 70//70 162//162
f 84//84 167//167 166//166
f 168//168 82//82 167//167
f 168//168 167//167 84//84
f 10//10 97//97 100//100
f 33//33 180//180 98//98
f 99//99 155//155 96//96
f 99//99 9//9 155//155
f 96//96 155//155 72//72
f 180//180 156//156 98//98
f 98//98 156//156 25//25
f 96//96 156//156 180//180
f 96//96 72//72 156//156
f 29//29 85//85 56//56
f 85//85 169//169 71//71
f 169//169 25//25 71//71
f 85//85 71//71 2//2
f 98//98 97//97 33//33
f 25//25 169//169 98//98
f 100//100 85//85 29//29
f 98//98 169//169 97//97
f 97//97 85//85 100//100
f 169//169 85//85 97//97

