# https://github.com/mikedh/trimesh
v 0.07975735 -1.04300518 0.83142435
v -1.06997908 -0.73828210 -0.30914687
v 1.06997908 0.73828210 0.30914687
v -0.07975735 1.04300518 -0.83142435
v -0.66100474 1.09352937 0.32104752
v -1.16466078 0.18751406 0.58669329
v 1.16466078 -0.18751406 -0.58669329
v 0.66100474 -1.09352937 -0.32104752
v 0.29703296 -0.51528655 -1.19427872
v -1.14286572 0.49506981 -0.47834537
v 1.14286572 -0.49506981 0.47834537
v -0.29703296 0.51528655 1.19427872
v -0.61340095 -1.17576716 0.10368522
v 0.61340095 1.17576716 -0.10368522
v 0.00161257 1.27994963 0.33218241
v -0.27901783 1.27324211 -0.22276084
v -0.94159125 -0.41675814 0.82966099
v -1.22222166 -0.42346567 0.27471777
v -0.97134263 0.59192219 0.67333516
v 1.22222166 0.42346567 -0.27471777
v 0.94159125 0.41675814 -0.82966099
v 0.27901783 -1.27324211 0.22276084
v -0.00161257 -1.27994963 -0.33218241
v 0.97134263 -0.59192219 -0.67333516
v -0.36456972 -0.70228116 -1.06189978
v 0.10852272 0.14875396 -1.31142523
v 0.75236672 -0.03198604 -1.10559761
v 0.49501872 -0.97378707 -0.75254872
v -1.11900301 -0.17290605 -0.68678732
v -0.62359504 0.58951402 -1.01709629
v -0.77044328 1.03654796 -0.34843985
v -1.30703351 0.16469697 0.09518186
v -0.73452177 0.08589691 -1.09966902
v 0.62359504 -0.58951402 1.01709629
v 1.11900301 0.17290605 0.68678732
v 1.30703351 -0.16469697 -0.09518186
v 0.77044328 -1.03654796 0.34843985
v -0.10852272 -0.14875396 1.31142523
v 0.36456972 0.70228116 1.06189978
v -0.49501872 0.97378707 0.75254872
v -0.75236672 0.03198604 1.10559761
v 0.73452177 -0.08589691 1.09966902
v -0.60650014 -0.98849263 0.64117954
v 0.60650014 0.98849263 -0.64117954
v 0.44706555 1.13100856 0.52574212
v 0.12557918 1.30388146 -0.19553188
v -0.52956036 -0.62582148 1.04084871
v -1.01493856 -0.74776979 0.40601697
v 1.01493856 0.74776979 -0.40601697
v 0.52956036 0.62582148 -1.04084871
v -0.12557918 -1.30388146 0.19553188
v -0.44706555 -1.13100856 -0.52574212
v -0.77065091 -0.76255594 -0.76333283
v 0.00016456 0.62404639 -1.16988781
v -0.01665900 -1.03959118 -0.81903935
v -1.12581291 0.67225266 0.15828873
v -1.30437396 -0.13601996 -0.17877344
v -0.27862088 -0.01689272 -1.29641852
v -0.74519396 -0.31788225 -1.05013891
v 1.30437396 0.13601996 0.17877344
v 1.12581291 -0.67225266 -0.15828873
v -0.00016456 -0.62404639 1.16988781
v 0.77065091 0.76255594 0.76333283
v 0.01665900 1.03959118 0.81903935
v 0.27862088 0.01689272 1.29641852
v 0.74519396 0.31788225 1.05013891
vn 0.06766826 -0.78977949 0.60964691
vn -0.79669740 -0.56322129 -0.21921460
vn 0.79669740 0.56322129 0.21921460
vn -0.06766826 0.78977949 -0.60964691
vn -0.50307474 0.83438624 0.22520082
vn -0.88494407 0.11601793 0.45101424
vn 0.88494407 -0.11601793 -0.45101424
vn 0.50307474 -0.83438624 -0.22520082
vn 0.22575193 -0.38711160 -0.89396906
vn -0.85095394 0.36689958 -0.37584849
vn 0.85095394 -0.36689958 0.37584849
vn -0.22575193 0.38711160 0.89396906
vn -0.47349349 -0.87887168 0.05821062
vn 0.47349349 0.87887168 -0.05821062
vn -0.01979006 0.97001055 0.24225582
vn -0.23473888 0.95809532 -0.16416763
vn -0.72744495 -0.30419061 0.61505440
vn -0.93092852 -0.29712299 0.21234413
vn -0.71333002 0.45750088 0.53089852
vn 0.93092852 0.29712299 -0.21234413
vn 0.72744495 0.30419061 -0.61505440
vn 0.23473888 -0.95809532 0.16416763
vn 0.01979006 -0.97001055 -0.24225582
vn 0.71333002 -0.45750088 -0.53089852
vn -0.24821512 -0.51981046 -0.81742666
vn 0.10933534 0.10550999 -0.98838931
vn 0.55966327 -0.04150900 -0.82767990
vn 0.38191849 -0.72352869 -0.57501695
vn -0.84787989 -0.11415417 -0.51775334
vn -0.47618906 0.45936000 -0.74982156
vn -0.57610802 0.77010709 -0.27392447
vn -0.98721132 0.13727738 0.08104765
vn -0.57406951 0.10043243 -0.81262385
vn 0.47618906 -0.45936000 0.74982156
vn 0.84787989 0.11415417 0.51775334
vn 0.98721132 -0.13727738 -0.08104765
vn 0.57610802 -0.77010709 0.27392447
vn -0.10933534 -0.10550999 0.98838931
vn 0.24821512 0.51981046 0.81742666
vn -0.38191849 0.72352869 0.57501695
vn -0.55966327 0.04150900 0.82767990
vn 0.57406951 -0.10043243 0.81262385
vn -0.43564101 -0.75395858 0.49169439
vn 0.43564101 0.75395858 -0.49169439
vn 0.35844483 0.85263138 0.38018026
vn 0.11418578 0.97997708 -0.16311507
vn -0.39036065 -0.47142635 0.79080703
vn -0.75804669 -0.58215777 0.29403666
vn 0.75804669 0.58215777 -0.29403666
vn 0.39036065 0.47142635 -0.79080703
vn -0.11418578 -0.97997708 0.16311507
vn -0.35844483 -0.85263138 -0.38018026
vn -0.58756281 -0.57873260 -0.56554267
vn -0.01175097 0.46534068 -0.88505365
vn -0.00600562 -0.77705560 -0.62940331
vn -0.84402995 0.52412946 0.11358588
vn -0.98250332 -0.10736598 -0.15218338
vn -0.20643916 -0.02589040 -0.97811684
vn -0.55572698 -0.25312343 -0.79189397
vn 0.98250332 0.10736598 0.15218338
vn 0.84402995 -0.52412946 -0.11358588
vn 0.01175097 -0.46534068 0.88505365
vn 0.58756281 0.57873260 0.56554267
vn 0.00600562 0.77705560 0.62940331
vn 0.20643916 0.02589040 0.97811684
vn 0.55572698 0.25312343 0.79189397
f 1//1 62//62 47//47
f 62//62 38//38 47//47
f 38//38 12//12 41//41
f 17//17 41//41 6//6
f 38//38 41//41 47//47
f 47//47 41//41 17//17
f 1//1 47//47 43//43
f 47//47 17//17 43//43
f 17//17 6//6 18//18
f 17//17 18//18 48//48
f 48//48 18//18 2//2
f 48//48 2//2 13//13
f 17//17 48//48 43//43
f 43//43 48//48 13//13
f 43//43 13//13 51//51
f 1//1 51//51 22//22
f 43//43 51//51 1//1
f 13//13 2//2 52//52
f 13//13 52//52 23//23
f 22//22 23//23 8//8
f 51//51 23//23 22//22
f 13//13 23//23 51//51
f 22//22 8//8 37//37
f 37//37 11//11 34//34
f 22//22 37//37 1//1
f 1//1 37//37 34//34
f 1//1 34//34 62//62
f 34//34 11//11 42//42
f 38//38 65//65 12//12
f 34//34 42//42 65//65
f 62//62 65//65 38//38
f 34//34 65//65 62//62
f 18//18 6//6 32//32
f 18//18 32//32 57//57
f 57//57 32//32 10//10
f 57//57 10//10 29//29
f 18//18 57//57 2//2
f 2//2 57//57 29//29
f 41//41 19//19 6//6
f 19//19 40//40 5//5
f 41//41 12//12 19//19
f 12//12 40//40 19//19
f 12//12 65//65 39//39
f 65//65 42//42 66//66
f 65//65 66//66 39//39
f 42//42 11//11 35//35
f 42//42 35//35 66//66
f 63//63 35//35 3//3
f 66//66 35//35 63//63
f 66//66 63//63 39//39
f 61//61 8//8 24//24
f 37//37 8//8 61//61
f 61//61 24//24 7//7
f 61//61 7//7 36//36
f 37//37 61//61 11//11
f 11//11 61//61 36//36
f 8//8 23//23 28//28
f 23//23 55//55 28//28
f 52//52 2//2 53//53
f 52//52 53//53 25//25
f 28//28 55//55 9//9
f 55//55 25//25 9//9
f 23//23 52//52 55//55
f 52//52 25//25 55//55
f 30//30 10//10 31//31
f 16//16 31//31 5//5
f 30//30 31//31 4//4
f 4//4 31//31 16//16
f 4//4 16//16 46//46
f 44//44 46//46 14//14
f 4//4 46//46 44//44
f 16//16 5//5 15//15
f 16//16 15//15 46//46
f 14//14 15//15 45//45
f 14//14 45//45 3//3
f 46//46 15//15 14//14
f 4//4 44//44 50//50
f 50//50 44//44 21//21
f 49//49 3//3 20//20
f 14//14 3//3 49//49
f 21//21 20//20 7//7
f 49//49 20//20 21//21
f 14//14 49//49 44//44
f 44//44 49//49 21//21
f 4//4 50//50 54//54
f 54//54 50//50 26//26
f 21//21 7//7 27//27
f 27//27 9//9 26//26
f 21//21 27//27 50//50
f 50//50 27//27 26//26
f 4//4 54//54 30//30
f 26//26 9//9 58//58
f 30//30 33//33 10//10
f 26//26 58//58 54//54
f 58//58 33//33 30//30
f 58//58 30//30 54//54
f 5//5 56//56 19//19
f 31//31 56//56 5//5
f 19//19 56//56 6//6
f 56//56 32//32 6//6
f 31//31 10//10 56//56
f 10//10 32//32 56//56
f 3//3 45//45 63//63
f 63//63 45//45 39//39
f 15//15 5//5 40//40
f 15//15 40//40 64//64
f 64//64 40//40 12//12
f 64//64 12//12 39//39
f 15//15 64//64 45//45
f 45//45 64//64 39//39
f 7//7 20//20 36//36
f 20//20 60//60 36//36
f 36//36 60//60 11//11
f 60//60 35//35 11//11
f 20//20 3//3 60//60
f 3//3 35//35 60//60
f 27//27 7//7 24//24
f 28//28 24//24 8//8
f 27//27 24//24 9//9
f 24//24 28//28 9//9
f 10//10 33//33 29//29
f 33//33 59//59 29//29
f 33//33 58//58 59//59
f 58//58 9//9 25//25
f 58//58 25//25 59//59
f 29//29 53//53 2//2
f 59//59 25//25 53//53
f 59//59 53//53 29//29

