# https://github.com/mikedh/trimesh

o sphere_simple_0001.obj
v 0.95811292 -0.81770017 -0.33202955
v 0.28175908 -0.24283068 -1.24840003
v -0.28175908 0.24283068 1.24840003
v -0.95811292 0.81770017 0.33202955
v -1.03390492 -0.43542479 0.48994718
v -0.26762188 -1.09086890 -0.48681202
v 0.26762188 1.09086890 0.48681202
v 1.03390492 0.43542479 -0.48994718
v -0.14498785 0.93672988 -0.74232811
v -0.94937565 -0.00657150 -0.74039048
v 0.94937565 0.00657150 0.74039048
v 0.14498785 -0.93672988 0.74232811
v 0.72877848 -0.62336439 -0.92895320
v -0.72877848 0.62336439 0.92895320
v -0.77332790 -0.11320398 1.02177485
v -1.17087871 0.22469583 0.48314580
v 0.40586045 -1.12182875 -0.48130299
v 0.00830964 -0.78392894 -1.01993205
v -0.76501826 -0.89713292 0.00184280
v -0.00830964 0.78392894 1.01993205
v -0.40586045 1.12182875 0.48130299
v 1.17087871 -0.22469583 -0.48314580
v 0.77332790 0.11320398 -1.02177485
v 0.76501826 0.89713292 -0.00184280
v 0.08039211 0.40786372 -1.17012065
v -0.64838637 1.03122811 -0.24116745
v 0.07208247 1.19179266 -0.15018859
v 0.52249234 0.80653228 -0.72431325
v -0.39241518 -0.14659492 -1.16898173
v -1.12119365 0.47676947 -0.24002853
v -1.16574307 -0.25979890 -0.14720688
v -0.71533320 -0.64505929 -0.72133153
v -0.64325073 0.54673337 -0.87152012
v 1.12119365 -0.47676947 0.24002853
v 0.39241518 0.14659492 1.16898173
v 0.71533320 0.64505929 0.72133153
v 1.16574307 0.25979890 0.14720688
v 0.64838637 -1.03122811 0.24116745
v -0.08039211 -0.40786372 1.17012065
v -0.52249234 -0.80653228 0.72431325
v -0.07208247 -1.19179266 0.15018859
v 0.64325073 -0.54673337 0.87152012
v 0.87681886 -0.74904205 -0.65543844
v 0.52526108 -0.45023419 -1.13175299
v -0.52526108 0.45023419 1.13175299
v -0.87681886 0.74904205 0.65543844
v -0.54841714 0.06737786 1.18000019
v -0.93937039 -0.28516836 0.78576866
v -0.78970405 0.26820720 1.02555843
v -1.10661541 0.54182058 0.42371496
v -1.14601087 -0.10953351 0.50579799
v -0.99870888 0.44585164 0.74238438
v -1.02212990 0.05861473 0.79118361
v 0.70897130 -1.00813576 -0.42275710
v 0.07185417 -1.15012445 -0.50321052
v 0.59651498 -0.91750233 -0.74141556
v 0.15077303 -0.53369305 -1.17904233
v -0.13478631 -0.97448960 -0.78318120
v 0.38751015 -0.73985789 -1.02458961
v 0.21774210 -1.00191611 -0.78924597
v -0.93505117 -0.69264195 0.25562448
v -0.53674964 -1.03333120 -0.25207915
v -0.15077303 0.53369305 1.17904233
v 0.13478631 0.97448960 0.78318120
v -0.38751015 0.73985789 1.02458961
v -0.70897130 1.00813576 0.42275710
v -0.07185417 1.15012445 0.50321052
v -0.59651498 0.91750233 0.74141556
v -0.21774210 1.00191611 0.78924597
v 1.10661541 -0.54182058 -0.42371496
v 1.14601087 0.10953351 -0.50579799
v 0.99870888 -0.44585164 -0.74238438
v 0.54841714 -0.06737786 -1.18000019
v 0.93937039 0.28516836 -0.78576866
v 0.78970405 -0.26820720 -1.02555843
v 1.02212990 -0.05861473 -0.79118361
v 0.53674964 1.03333120 0.25207915
v 0.93505117 0.69264195 -0.25562448
v 0.18824033 0.08578150 -1.25710793
v -0.03357582 0.69889800 -0.99405993
v 0.44882717 0.27394150 -1.15234766
v -0.83503235 0.96104301 0.04722865
v -0.41238309 1.02291273 -0.51120509
v -0.55425035 1.13192898 0.12624673
v 0.17657283 1.18649056 0.17497141
v -0.03789504 1.10637159 -0.46391575
v -0.17547747 1.21634276 0.17407714
v 0.44008990 1.09821317 -0.07992764
v -0.30298089 1.16871118 -0.20574805
v 0.80899012 0.64554920 -0.63115293
v 0.19622073 0.90611947 -0.76233646
v 0.68125301 0.48353397 -0.91797284
v 0.67688438 0.89566980 -0.38176283
v 0.31695511 0.63844576 -0.99596284
v 0.31258648 1.05058159 -0.45975282
v -0.05751725 -0.20241713 -1.25651594
v -0.69744117 -0.07961343 -0.99246079
v -0.20193623 -0.48920535 -1.15078008
v -0.16404023 0.13735713 -1.22973889
v -1.08078993 0.67284438 0.04782064
v -1.07624843 0.24440130 -0.50960594
v -1.20501375 0.36878213 0.12781431
v -0.93032327 0.79280124 -0.25297970
v -1.14334145 -0.36136603 0.17815087
v -1.09940450 -0.13845503 -0.46135875
v -1.22843477 -0.01845478 0.17661354
v -1.01506130 -0.60823506 -0.07642241
v -1.20231379 0.11406818 -0.20358170
v -0.51092415 -0.90230740 -0.62797347
v -0.86528874 -0.33870714 -0.75977945
v -0.37170428 -0.75126357 -0.91543644
v -0.77826682 -0.81077843 -0.37825761
v -0.58237779 -0.41619725 -0.99379649
v -0.98894032 -0.47571210 -0.45661766
v -0.40971367 0.77108020 -0.83885221
v -0.82782143 0.28076740 -0.83784506
v -0.29591229 0.50186139 -1.07335407
v -0.67905381 0.82958344 -0.58497447
v -0.54448179 0.21036523 -1.07275531
v -0.92762331 0.53808729 -0.58437571
v 1.08078993 -0.67284438 -0.04782064
v 1.07624843 -0.24440130 0.50960594
v 1.20501375 -0.36878213 -0.12781431
v 0.05751725 0.20241713 1.25651594
v 0.69744117 0.07961343 0.99246079
v 0.20193623 0.48920535 1.15078008
v 0.51092415 0.90230740 0.62797347
v 0.86528874 0.33870714 0.75977945
v 0.37170428 0.75126357 0.91543644
v 0.77826682 0.81077843 0.37825761
v 0.58237779 0.41619725 0.99379649
v 1.14334145 0.36136603 -0.17815087
v 1.09940450 0.13845503 0.46135875
v 1.22843477 0.01845478 -0.17661354
v 1.01506130 0.60823506 0.07642241
v 1.20231379 -0.11406818 0.20358170
v 0.98894032 0.47571210 0.45661766
v 0.83503235 -0.96104301 -0.04722865
v 0.41238309 -1.02291273 0.51120509
v 0.55425035 -1.13192898 -0.12624673
v 0.93032327 -0.79280124 0.25297970
v -0.18824033 -0.08578150 1.25710793
v 0.03357582 -0.69889800 0.99405993
v -0.44882717 -0.27394150 1.15234766
v 0.16404023 -0.13735713 1.22973889
v -0.80899012 -0.64554920 0.63115293
v -0.19622073 -0.90611947 0.76233646
v -0.68125301 -0.48353397 0.91797284
v -0.67688438 -0.89566980 0.38176283
v -0.31695511 -0.63844576 0.99596284
v -0.17657283 -1.18649056 -0.17497141
v 0.03789504 -1.10637159 0.46391575
v 0.17547747 -1.21634276 -0.17407714
v -0.44008990 -1.09821317 0.07992764
v 0.30298089 -1.16871118 0.20574805
v -0.31258648 -1.05058159 0.45975282
v 0.82782143 -0.28076740 0.83784506
v 0.40971367 -0.77108020 0.83885221
v 0.92762331 -0.53808729 0.58437571
v 0.54448179 -0.21036523 1.07275531
v 0.67905381 -0.82958344 0.58497447
v 0.29591229 -0.50186139 1.07335407
v 0.92632257 -0.79093332 -0.49850021
v 0.81054842 -0.69282743 -0.79984321
v 0.40740533 -0.34987765 -1.20156481
v 0.63307266 -0.54198124 -1.04029952
v -0.40740533 0.34987765 1.20156481
v -0.63307266 0.54198124 1.04029952
v -0.92632257 0.79093332 0.49850021
v -0.81054842 0.69282743 0.79984321
v -0.41909513 0.15660156 1.22592129
v -0.66725220 -0.02313425 1.11151485
v -0.54390113 0.26221057 1.17108193
v -0.99616208 -0.36377467 0.64401543
v -0.86461583 -0.20110900 0.91249624
v -0.76870530 0.45134257 0.98943743
v -0.79125767 0.07846768 1.03642677
v -0.66428436 0.36293691 1.08981462
v -0.67598217 0.16952838 1.11418778
v -1.04233001 0.68632238 0.38152001
v -1.14973986 0.38695795 0.45780753
v -1.00476299 0.65392184 0.54667473
v -1.10047971 -0.27510950 0.50267876
v -1.16962774 0.05813702 0.49924524
v -1.05640703 -0.19994705 0.65427849
v -0.87451035 0.54127197 0.84608550
v -1.09831589 0.33945296 0.62040328
v -0.94746523 0.60362756 0.70614179
v -0.90624580 0.36183636 0.89587293
v -1.06355215 0.49894495 0.58908143
v -0.90891920 -0.02763485 0.91777861
v -1.11017237 0.14342103 0.64510704
v -0.99089620 -0.11444869 0.79663308
v -0.91811398 0.16561108 0.92060106
v -1.09528531 -0.02572277 0.65519957
v -1.02402338 0.25562918 0.77710775
v 0.84158864 -0.92173074 -0.38103646
v 0.56279684 -1.07526297 -0.45639368
v 0.80332547 -0.89014658 -0.54618950
v -0.09882877 -1.13131330 -0.49978982
v 0.24116310 -1.14694266 -0.49700872
v 0.67090671 -0.78003691 -0.84559506
v 0.50743509 -1.03237580 -0.61897995
v 0.74428789 -0.84189256 -0.70565236
v 0.65949590 -0.97277961 -0.58810813
v 0.21835376 -0.39200992 -1.22543773
v 0.08030918 -0.66517077 -1.11010100
v 0.34246360 -0.49843531 -1.17059670
v -0.20314640 -1.04264813 -0.64112649
v -0.06384880 -0.88769664 -0.91025972
v -0.03188000 -1.07628148 -0.65165698
v 0.56510165 -0.69010751 -0.98894698
v 0.20037687 -0.77139052 -1.03500344
v 0.46110702 -0.60120191 -1.08932520
v 0.49863688 -0.83983722 -0.89489107
v 0.27192591 -0.64336304 -1.11321448
v 0.31568792 -1.07510881 -0.64319326
v 0.11443475 -0.90405292 -0.91586483
v 0.14629610 -1.08715193 -0.65291361
v 0.41261000 -0.97263047 -0.77563495
v 0.04190699 -0.99842602 -0.79434712
v 0.30670060 -0.88261237 -0.91912827
v -0.99398162 -0.56947822 0.37638449
v -0.85824045 -0.80256081 0.12997636
v -0.40606823 -1.07235294 -0.37301200
v -0.65716720 -0.97454985 -0.12632599
v -0.21835376 0.39200992 1.22543773
v -0.08030918 0.66517077 1.11010100
v -0.34246360 0.49843531 1.17059670
v 0.20314640 1.04264813 0.64112649
v 0.06384880 0.88769664 0.91025972
v -0.56510165 0.69010751 0.98894698
v -0.20037687 0.77139052 1.03500344
v -0.46110702 0.60120191 1.08932520
v -0.27192591 0.64336304 1.11321448
v -0.84158864 0.92173074 0.38103646
v -0.56279684 1.07526297 0.45639368
v -0.80332547 0.89014658 0.54618950
v 0.09882877 1.13131330 0.49978982
v -0.24116310 1.14694266 0.49700872
v 0.03188000 1.07628148 0.65165698
v -0.67090671 0.78003691 0.84559506
v -0.50743509 1.03237580 0.61897995
v -0.74428789 0.84189256 0.70565236
v -0.49863688 0.83983722 0.89489107
v -0.65949590 0.97277961 0.58810813
v -0.11443475 0.90405292 0.91586483
v -0.31568792 1.07510881 0.64319326
v -0.04190699 0.99842602 0.79434712
v -0.30670060 0.88261237 0.91912827
v -0.14629610 1.08715193 0.65291361
v -0.41261000 0.97263047 0.77563495
v 1.04233001 -0.68632238 -0.38152001
v 1.14973986 -0.38695795 -0.45780753
v 1.00476299 -0.65392184 -0.54667473
v 1.10047971 0.27510950 -0.50267876
v 1.16962774 -0.05813702 -0.49924524
v 0.87451035 -0.54127197 -0.84608550
v 1.09831589 -0.33945296 -0.62040328
v 0.94746523 -0.60362756 -0.70614179
v 1.06355215 -0.49894495 -0.58908143
v 0.41909513 -0.15660156 -1.22592129
v 0.66725220 0.02313425 -1.11151485
v 0.54390113 -0.26221057 -1.17108193
v 0.99616208 0.36377467 -0.64401543
v 0.86461583 0.20110900 -0.91249624
v 1.05640703 0.19994705 -0.65427849
v 0.76870530 -0.45134257 -0.98943743
v 0.79125767 -0.07846768 -1.03642677
v 0.66428436 -0.36293691 -1.08981462
v 0.90624580 -0.36183636 -0.89587293
v 0.67598217 -0.16952838 -1.11418778
v 1.11017237 -0.14342103 -0.64510704
v 0.90891920 0.02763485 -0.91777861
v 1.09528531 0.02572277 -0.65519957
v 1.02402338 -0.25562918 -0.77710775
v 0.99089620 0.11444869 -0.79663308
v 0.91811398 -0.16561108 -0.92060106
v 0.40606823 1.07235294 0.37301200
v 0.65716720 0.97454985 0.12632599
v 0.99398162 0.56947822 -0.37638449
v 0.85824045 0.80256081 -0.12997636
v 0.23726826 -0.07928262 -1.26484734
v 0.13561283 0.24920529 -1.22532981
v 0.37317403 0.00932287 -1.23458391
v -0.09014371 0.82570864 -0.87657506
v 0.02363411 0.55872287 -1.09253616
v 0.61869469 0.19598565 -1.10061161
v 0.26790803 0.34515200 -1.17570908
v 0.50378050 0.10435029 -1.17823823
v 0.32182905 0.18172220 -1.21719095
v -0.90522762 0.89795706 0.19145967
v -0.74886938 1.00575167 -0.09790548
v -0.78215736 0.99754148 0.23808416
v -0.28137574 0.98927993 -0.63281704
v -0.53550475 1.03698516 -0.37981775
v -0.48603935 1.14092555 0.30756145
v -0.60881387 1.09506055 -0.05817661
v -0.63814497 1.08110207 0.27734169
v -0.70182755 1.05731211 0.08763501
v 0.22424135 1.14967188 0.33408595
v 0.12552784 1.20062089 0.01251103
v 0.05304811 1.18367637 0.34355164
v 0.36135305 1.12451155 0.21633417
v -0.09232417 1.03141219 -0.60894412
v 0.01725873 1.16017469 -0.31001627
v -0.22810072 1.07864733 -0.49397418
v -0.29429218 1.18365856 0.33177477
v -0.05234191 1.21907656 0.01209316
v -0.12494517 1.19547440 0.34214717
v -0.36977633 1.18994409 0.15218367
v 0.00055335 1.21384556 0.17632976
v 0.61006499 1.01010917 -0.04139486
v 0.25927833 1.15927552 -0.11649233
v 0.49347257 1.07679781 0.08696623
v 0.31152111 1.15416973 0.04801351
v -0.48161308 1.11368090 -0.22624318
v -0.11688830 1.19496391 -0.18018672
v -0.36138228 1.10714835 -0.36218508
v -0.43438637 1.16580765 -0.04028585
v -0.17220118 1.14930948 -0.33829580
v -0.24245009 1.20858280 -0.01604866
v 0.93034264 0.54570454 -0.56596128
v 0.67216791 0.73304951 -0.68427553
v 0.88567993 0.47148049 -0.71778047
v 0.88349192 0.67789740 -0.44922140
v 0.02586372 0.93031957 -0.75959486
v 0.36282555 0.86459234 -0.75050047
v 0.08239223 0.81306559 -0.88975073
v 0.08020422 1.01948250 -0.62119166
v 0.73635622 0.30208818 -0.98196345
v 0.60937510 0.65307354 -0.83137869
v 0.81869454 0.38832735 -0.86068353
v 0.57264763 0.38383695 -1.04909734
v 0.75283000 0.57038188 -0.78257589
v 0.72993807 0.90757512 -0.19419366
v 0.60716355 0.86171012 -0.55993172
v 0.81430568 0.80237158 -0.32199060
v 0.56600645 1.01036402 -0.23395326
v 0.75062309 0.77858161 -0.51169729
v 0.20115010 0.52967593 -1.09654199
v 0.42495564 0.73149493 -0.87085977
v 0.14315545 0.67558943 -1.00530498
v 0.38804628 0.46233569 -1.08861736
v 0.25924238 0.78027203 -0.88824463
v 0.50582386 0.56854286 -0.96985217
v 0.19473195 1.13516286 -0.30877221
v 0.42274409 0.94013151 -0.59941280
v 0.13876659 1.08963365 -0.46661206
v 0.38140510 1.08886275 -0.27347328
v 0.25703546 0.98847177 -0.61736602
v 0.50139640 0.98622758 -0.42642279
v 0.11320327 -0.22477299 -1.26454848
v -0.22713790 -0.17619061 -1.22445600
v 0.04724127 -0.37289678 -1.23379879
v 0.06622136 -0.05908497 -1.27334506
v -0.83135711 -0.04350846 -0.87478960
v -0.55018859 -0.11419602 -1.09115391
v -0.09802009 -0.64450204 -1.09888516
v -0.30088004 -0.32186280 -1.17433896
v -0.02584625 -0.51674024 -1.17696244
v -0.13106879 -0.34938873 -1.21609999
v -0.04234540 0.27600855 -1.21488704
v -0.28169585 -0.00467647 -1.21431049
v 0.01222523 0.11272352 -1.25628688
v -0.11192477 -0.03286653 -1.25598782
v -1.02929261 0.75246670 0.19175852
v -1.11162012 0.58035577 -0.09703168
v -1.10809013 0.61532183 0.23886928
v -0.97051228 0.82769044 0.04814982
v -1.02258914 0.12006283 -0.63103158
v -1.10932745 0.36406626 -0.37843550
v -1.20275413 0.30043787 0.30928790
v -1.17760194 0.42804575 -0.05680649
v -1.16777172 0.46001154 0.27861748
v -1.15472539 0.52620117 0.08872596
v -0.79919423 0.92338305 -0.25015338
v -1.03854467 0.64269803 -0.24957682
v -0.89180929 0.88599406 -0.10393979
v -1.01595929 0.74040401 -0.10364073
v -1.09913212 -0.40224129 0.33727374
v -1.16568754 -0.31358065 0.01562135
v -1.15973416 -0.23854707 0.34647304
v -1.05286674 -0.53393663 0.21974079
v -1.03427894 -0.07321327 -0.60667510
v -1.14350699 -0.20104922 -0.30722018
v -1.10213662 0.05366999 -0.49186877
v -1.21461061 0.10440594 0.33399166
v -1.21201078 -0.14086108 0.01488661
v -1.19950488 -0.06465618 0.34473561
v -1.23310588 0.17752203 0.15426329
v -1.19815636 -0.19187507 0.17921726
v -0.90113424 -0.76206629 -0.03775463
v -1.10399419 -0.43942706 -0.11320843
v -0.98514339 -0.65716742 0.09052797
v -1.09036593 -0.48981590 0.05139043
v -1.17623513 0.29910125 -0.22456995
v -1.19878749 -0.07377364 -0.17758060
v -1.15106721 0.18108896 -0.36028286
v -1.21986955 0.24467563 -0.03839375
v -1.16276502 -0.01231957 -0.33590970
v -1.23173772 0.04845035 -0.01366562
v -0.39303083 -1.00620863 -0.56277349
v -0.61904746 -0.78115203 -0.68116520
v -0.32710233 -0.95074295 -0.71485907
v -0.53072787 -0.98055078 -0.44581478
v -0.91609105 -0.17430588 -0.75732585
v -0.79794017 -0.49663157 -0.74770438
v -0.79164366 -0.21191175 -0.88764532
v -0.99526921 -0.24171958 -0.61860102
v -0.18396220 -0.77716444 -0.97974655
v -0.55029377 -0.70686410 -0.82858524
v -0.25586517 -0.87180322 -0.85809509
v -0.29068192 -0.62858512 -1.04701772
v -0.44587970 -0.83533875 -0.77968840
v -0.78126116 -0.86460034 -0.19055343
v -0.75610897 -0.73699246 -0.55664782
v -0.66431029 -0.93159365 -0.31842886
v -0.90873648 -0.71905933 -0.23040085
v -0.65126396 -0.86540402 -0.50832037
v -0.49347194 -0.28490372 -1.09486876
v -0.65694356 -0.53724261 -0.86825365
v -0.64652947 -0.25046997 -1.00340276
v -0.39743690 -0.45879634 -1.08672526
v -0.73132146 -0.38135702 -0.88585852
v -0.48346378 -0.59158959 -0.96746914
v -1.09077090 -0.37233962 -0.30567564
v -0.86275875 -0.56737097 -0.59631623
v -1.05497459 -0.31026041 -0.46373653
v -1.01549146 -0.54927055 -0.27010839
v -0.93670572 -0.41142229 -0.61449049
v -0.89550015 -0.65190573 -0.42305789
v -0.28002814 0.86214814 -0.79822206
v -0.53156455 0.66526749 -0.86344163
v -0.22456044 0.74465775 -0.92851188
v -0.41645564 0.90879629 -0.68390852
v -0.89717655 0.13842141 -0.79673545
v -0.74263652 0.41774449 -0.86293319
v -0.77266357 0.10190006 -0.92719159
v -0.96455878 0.26603860 -0.68258823
v -0.10910333 0.46053247 -1.13571995
v -0.47543490 0.53083281 -0.98455865
v -0.16644837 0.60659075 -1.04440091
v -0.23307259 0.32391239 -1.16705057
v -0.35646290 0.64305522 -0.96599422
v -0.67199344 0.94200340 -0.41821994
v -0.66939361 0.69673639 -0.73732499
v -0.55136401 0.93583031 -0.55375988
v -0.81552263 0.82211400 -0.42461807
v -0.55001550 0.80861142 -0.71927823
v -0.47428775 0.03228261 -1.13484029
v -0.60126888 0.38326797 -0.98425553
v -0.62738545 0.06605223 -1.04329059
v -0.35903068 0.17620200 -1.16674715
v -0.69324999 0.24810675 -0.96518296
v -0.42585445 0.36090792 -1.08750198
v -1.03717786 0.51375354 -0.41734027
v -0.79522759 0.54917154 -0.73702188
v -1.01230110 0.39529179 -0.55264956
v -0.94148071 0.67440361 -0.42431466
v -0.88680259 0.41366295 -0.71846696
v -0.81415447 0.69304233 -0.59254699
v 1.02929261 -0.75246670 -0.19175852
v 1.11162012 -0.58035577 0.09703168
v 1.10809013 -0.61532183 -0.23886928
v 1.02258914 -0.12006283 0.63103158
v 1.10932745 -0.36406626 0.37843550
v 1.20275413 -0.30043787 -0.30928790
v 1.17760194 -0.42804575 0.05680649
v 1.16777172 -0.46001154 -0.27861748
v 1.15472539 -0.52620117 -0.08872596
v -0.11320327 0.22477299 1.26454848
v 0.22713790 0.17619061 1.22445600
v -0.04724127 0.37289678 1.23379879
v 0.83135711 0.04350846 0.87478960
v 0.55018859 0.11419602 1.09115391
v 0.09802009 0.64450204 1.09888516
v 0.30088004 0.32186280 1.17433896
v 0.02584625 0.51674024 1.17696244
v 0.13106879 0.34938873 1.21609999
v 0.39303083 1.00620863 0.56277349
v 0.61904746 0.78115203 0.68116520
v 0.32710233 0.95074295 0.71485907
v 0.53072787 0.98055078 0.44581478
v 0.91609105 0.17430588 0.75732585
v 0.79794017 0.49663157 0.74770438
v 0.79164366 0.21191175 0.88764532
v 0.18396220 0.77716444 0.97974655
v 0.55029377 0.70686410 0.82858524
v 0.25586517 0.87180322 0.85809509
v 0.29068192 0.62858512 1.04701772
v 0.44587970 0.83533875 0.77968840
v 0.78126116 0.86460034 0.19055343
v 0.75610897 0.73699246 0.55664782
v 0.66431029 0.93159365 0.31842886
v 0.65126396 0.86540402 0.50832037
v 0.49347194 0.28490372 1.09486876
v 0.65694356 0.53724261 0.86825365
v 0.64652947 0.25046997 1.00340276
v 0.39743690 0.45879634 1.08672526
v 0.73132146 0.38135702 0.88585852
v 0.48346378 0.59158959 0.96746914
v 1.09913212 0.40224129 -0.33727374
v 1.16568754 0.31358065 -0.01562135
v 1.15973416 0.23854707 -0.34647304
v 1.05286674 0.53393663 -0.21974079
v 1.03427894 0.07321327 0.60667510
v 1.14350699 0.20104922 0.30722018
v 1.10213662 -0.05366999 0.49186877
v 0.99526921 0.24171958 0.61860102
v 1.21461061 -0.10440594 -0.33399166
v 1.21201078 0.14086108 -0.01488661
v 1.19950488 0.06465618 -0.34473561
v 1.23310588 -0.17752203 -0.15426329
v 1.19815636 0.19187507 -0.17921726
v 0.90113424 0.76206629 0.03775463
v 1.10399419 0.43942706 0.11320843
v 0.98514339 0.65716742 -0.09052797
v 0.90873648 0.71905933 0.23040085
v 1.09036593 0.48981590 -0.05139043
v 1.17623513 -0.29910125 0.22456995
v 1.19878749 0.07377364 0.17758060
v 1.15106721 -0.18108896 0.36028286
v 1.21986955 -0.24467563 0.03839375
v 1.16276502 0.01231957 0.33590970
v 1.23173772 -0.04845035 0.01366562
v 0.86275875 0.56737097 0.59631623
v 1.09077090 0.37233962 0.30567564
v 0.93670572 0.41142229 0.61449049
v 0.89550015 0.65190573 0.42305789
v 1.05497459 0.31026041 0.46373653
v 1.01549146 0.54927055 0.27010839
v 0.90522762 -0.89795706 -0.19145967
v 0.74886938 -1.00575167 0.09790548
v 0.78215736 -0.99754148 -0.23808416
v 0.97051228 -0.82769044 -0.04814982
v 0.28137574 -0.98927993 0.63281704
v 0.53550475 -1.03698516 0.37981775
v 0.48603935 -1.14092555 -0.30756145
v 0.60881387 -1.09506055 0.05817661
v 0.63814497 -1.08110207 -0.27734169
v 0.70182755 -1.05731211 -0.08763501
v 1.03854467 -0.64269803 0.24957682
v 0.79919423 -0.92338305 0.25015338
v 1.01595929 -0.74040401 0.10364073
v 0.89180929 -0.88599406 0.10393979
v -0.23726826 0.07928262 1.26484734
v -0.13561283 -0.24920529 1.22532981
v -0.37317403 -0.00932287 1.23458391
v -0.06622136 0.05908497 1.27334506
v 0.09014371 -0.82570864 0.87657506
v -0.02363411 -0.55872287 1.09253616
v -0.61869469 -0.19598565 1.10061161
v -0.26790803 -0.34515200 1.17570908
v -0.50378050 -0.10435029 1.17823823
v -0.32182905 -0.18172220 1.21719095
v 0.28169585 0.00467647 1.21431049
v 0.04234540 -0.27600855 1.21488704
v 0.11192477 0.03286653 1.25598782
v -0.01222523 -0.11272352 1.25628688
v -0.93034264 -0.54570454 0.56596128
v -0.67216791 -0.73304951 0.68427553
v -0.88567993 -0.47148049 0.71778047
v -0.88349192 -0.67789740 0.44922140
v -0.02586372 -0.93031957 0.75959486
v -0.36282555 -0.86459234 0.75050047
v -0.08239223 -0.81306559 0.88975073
v -0.73635622 -0.30208818 0.98196345
v -0.60937510 -0.65307354 0.83137869
v -0.81869454 -0.38832735 0.86068353
v -0.57264763 -0.38383695 1.04909734
v -0.75283000 -0.57038188 0.78257589
v -0.72993807 -0.90757512 0.19419366
v -0.60716355 -0.86171012 0.55993172
v -0.81430568 -0.80237158 0.32199060
v -0.75062309 -0.77858161 0.51169729
v -0.20115010 -0.52967593 1.09654199
v -0.42495564 -0.73149493 0.87085977
v -0.14315545 -0.67558943 1.00530498
v -0.38804628 -0.46233569 1.08861736
v -0.25924238 -0.78027203 0.88824463
v -0.50582386 -0.56854286 0.96985217
v -0.22424135 -1.14967188 -0.33408595
v -0.12552784 -1.20062089 -0.01251103
v -0.05304811 -1.18367637 -0.34355164
v -0.36135305 -1.12451155 -0.21633417
v 0.09232417 -1.03141219 0.60894412
v -0.01725873 -1.16017469 0.31001627
v 0.22810072 -1.07864733 0.49397418
v -0.08020422 -1.01948250 0.62119166
v 0.29429218 -1.18365856 -0.33177477
v 0.05234191 -1.21907656 -0.01209316
v 0.12494517 -1.19547440 -0.34214717
v 0.36977633 -1.18994409 -0.15218367
v -0.00055335 -1.21384556 -0.17632976
v -0.61006499 -1.01010917 0.04139486
v -0.25927833 -1.15927552 0.11649233
v -0.49347257 -1.07679781 -0.08696623
v -0.56600645 -1.01036402 0.23395326
v -0.31152111 -1.15416973 -0.04801351
v 0.48161308 -1.11368090 0.22624318
v 0.11688830 -1.19496391 0.18018672
v 0.36138228 -1.10714835 0.36218508
v 0.43438637 -1.16580765 0.04028585
v 0.17220118 -1.14930948 0.33829580
v 0.24245009 -1.20858280 0.01604866
v -0.42274409 -0.94013151 0.59941280
v -0.19473195 -1.13516286 0.30877221
v -0.25703546 -0.98847177 0.61736602
v -0.50139640 -0.98622758 0.42642279
v -0.13876659 -1.08963365 0.46661206
v -0.38140510 -1.08886275 0.27347328
v 0.89717655 -0.13842141 0.79673545
v 0.74263652 -0.41774449 0.86293319
v 0.96455878 -0.26603860 0.68258823
v 0.77266357 -0.10190006 0.92719159
v 0.28002814 -0.86214814 0.79822206
v 0.53156455 -0.66526749 0.86344163
v 0.41645564 -0.90879629 0.68390852
v 0.22456044 -0.74465775 0.92851188
v 1.03717786 -0.51375354 0.41734027
v 0.79522759 -0.54917154 0.73702188
v 1.01230110 -0.39529179 0.55264956
v 0.94148071 -0.67440361 0.42431466
v 0.88680259 -0.41366295 0.71846696
v 0.47428775 -0.03228261 1.13484029
v 0.60126888 -0.38326797 0.98425553
v 0.62738545 -0.06605223 1.04329059
v 0.35903068 -0.17620200 1.16674715
v 0.69324999 -0.24810675 0.96518296
v 0.67199344 -0.94200340 0.41821994
v 0.66939361 -0.69673639 0.73732499
v 0.55136401 -0.93583031 0.55375988
v 0.81552263 -0.82211400 0.42461807
v 0.55001550 -0.80861142 0.71927823
v 0.81415447 -0.69304233 0.59254699
v 0.10910333 -0.46053247 1.13571995
v 0.47543490 -0.53083281 0.98455865
v 0.16644837 -0.60659075 1.04440091
v 0.23307259 -0.32391239 1.16705057
v 0.35646290 -0.64305522 0.96599422
v 0.42585445 -0.36090792 1.08750198
vn 0.74940056 -0.63939469 -0.17196869
vn 0.15365310 -0.13303692 -0.97912813
vn -0.15365310 0.13303692 0.97912813
vn -0.74940056 0.63939469 0.17196869
vn -0.83115133 -0.44374415 0.33507999
vn -0.30755210 -0.89160742 -0.33233705
vn 0.30755210 0.89160742 0.33233705
vn 0.83115133 0.44374415 -0.33507999
vn -0.09918910 0.78852720 -0.60694842
vn -0.79552465 -0.02806186 -0.60527106
vn 0.79552465 0.02806186 0.60527106
vn 0.09918910 -0.78852720 0.60694842
vn 0.54583560 -0.46688325 -0.69576111
vn -0.54583560 0.46688325 0.69576111
vn -0.60208767 -0.19673475 0.77381256
vn -0.94695922 0.09639015 0.30655696
vn 0.24415121 -0.92056946 -0.30486400
vn -0.10072040 -0.62744458 -0.77211961
vn -0.64885580 -0.76090979 0.00156299
vn 0.10072040 0.62744458 0.77211961
vn -0.24415121 0.92056946 0.30486400
vn 0.94695922 -0.09639015 -0.30655696
vn 0.60208767 0.19673475 -0.77381256
vn 0.64885580 0.76090979 -0.00156299
vn 0.02618659 0.40166678 -0.91541142
vn -0.47998830 0.83462607 -0.27020465
vn 0.12011346 0.97927861 -0.16305263
vn 0.42381737 0.71950392 -0.55017538
vn -0.39434241 -0.09148541 -0.91439843
vn -0.90051730 0.34147390 -0.26919169
vn -0.94833642 -0.27368697 -0.16047891
vn -0.64463249 -0.53346169 -0.54760166
vn -0.53014118 0.45059549 -0.71827156
vn 0.90051730 -0.34147390 0.26919169
vn 0.39434241 0.09148541 0.91439843
vn 0.64463249 0.53346169 0.54760166
vn 0.94833642 0.27368697 0.16047891
vn 0.47998830 -0.83462607 0.27020465
vn -0.02618659 -0.40166678 0.91541142
vn -0.42381737 -0.71950392 0.55017538
vn -0.12011346 -0.97927861 0.16305263
vn 0.53014118 -0.45059549 0.71827156
vn 0.67941885 -0.58028789 -0.44906123
vn 0.36227238 -0.31072805 -0.87875298
vn -0.36227238 0.31072805 0.87875298
vn -0.67941885 0.58028789 0.44906123
vn -0.39668115 -0.03406379 0.91732422
vn -0.74903741 -0.33676870 0.57055220
vn -0.61428813 0.13566421 0.77733218
vn -0.88858842 0.38403462 0.25085461
vn -0.92341387 -0.18855678 0.33429501
vn -0.79617584 0.29026035 0.53089826
vn -0.81782781 -0.04809555 0.57344964
vn 0.51907528 -0.81736076 -0.24996448
vn -0.04099300 -0.94239813 -0.33197191
vn 0.41131204 -0.74158813 -0.52997118
vn 0.02716802 -0.39926232 -0.91643412
vn -0.21536946 -0.79418619 -0.56822909
vn 0.22942433 -0.58699197 -0.77640511
vn 0.08053951 -0.81651861 -0.57167363
vn -0.76269455 -0.62353307 0.17176594
vn -0.49556616 -0.85202270 -0.16873501
vn -0.02716802 0.39926232 0.91643412
vn 0.21536946 0.79418619 0.56822909
vn -0.22942433 0.58699197 0.77640511
vn -0.51907528 0.81736076 0.24996448
vn 0.04099300 0.94239813 0.33197191
vn -0.41131204 0.74158813 0.52997118
vn -0.08053951 0.81651861 0.57167363
vn 0.88858842 -0.38403462 -0.25085461
vn 0.92341387 0.18855678 -0.33429501
vn 0.79617584 -0.29026035 -0.53089826
vn 0.39668115 0.03406379 -0.91732422
vn 0.74903741 0.33676870 -0.57055220
vn 0.61428813 -0.13566421 -0.77733218
vn 0.81782781 0.04809555 -0.57344964
vn 0.49556616 0.85202270 0.16873501
vn 0.76269455 0.62353307 -0.17176594
vn 0.09210574 0.14524543 -0.98509913
vn -0.03877797 0.61904325 -0.78439896
vn 0.32746021 0.32138652 -0.88852716
vn -0.63697298 0.76886663 -0.05576323
vn -0.29593965 0.83900779 -0.45660229
vn -0.37873325 0.92543271 0.01163756
vn 0.22176409 0.97122100 0.08689333
vn 0.01044789 0.91659184 -0.39968768
vn -0.06321372 0.99598115 0.06344749
vn 0.40571675 0.90953601 -0.09021179
vn -0.18553769 0.95714580 -0.22236834
vn 0.65063486 0.60438420 -0.45977605
vn 0.16781384 0.78198807 -0.60027758
vn 0.53027936 0.48833382 -0.69306124
vn 0.55901647 0.77841031 -0.28561859
vn 0.24396199 0.58977107 -0.76983935
vn 0.28709116 0.88431811 -0.36818493
vn -0.13086928 -0.11623622 -0.98456202
vn -0.61898581 -0.06136347 -0.78300133
vn -0.26742291 -0.37622983 -0.88709419
vn -0.19828112 0.16709777 -0.96579653
vn -0.85994800 0.50738498 -0.05522612
vn -0.87614748 0.15860109 -0.45520466
vn -0.97361639 0.22781636 0.01307054
vn -0.72852724 0.62064648 -0.28990690
vn -0.92381504 -0.37219369 0.08965283
vn -0.90424099 -0.15605903 -0.39748436
vn -0.99333040 -0.09476184 0.06568800
vn -0.83420451 -0.54451321 -0.08722501
vn -0.97488630 0.03148078 -0.22046691
vn -0.49494427 -0.73903048 -0.45701653
vn -0.74687504 -0.29066280 -0.59807425
vn -0.39983731 -0.60240918 -0.69082075
vn -0.68090480 -0.67563890 -0.28263180
vn -0.54538664 -0.33589394 -0.76793794
vn -0.82860669 -0.42405495 -0.36549741
vn -0.32624973 0.64641394 -0.68971743
vn -0.69123331 0.21839959 -0.68883824
vn -0.26837090 0.44183897 -0.85601132
vn -0.53343496 0.66856288 -0.51814169
vn -0.48042154 0.19316829 -0.85550053
vn -0.74548562 0.41989218 -0.51763090
vn 0.85994800 -0.50738498 0.05522612
vn 0.87614748 -0.15860109 0.45520466
vn 0.97361639 -0.22781636 -0.01307054
vn 0.13086928 0.11623622 0.98456202
vn 0.61898581 0.06136347 0.78300133
vn 0.26742291 0.37622983 0.88709419
vn 0.49494427 0.73903048 0.45701653
vn 0.74687504 0.29066280 0.59807425
vn 0.39983731 0.60240918 0.69082075
vn 0.68090480 0.67563890 0.28263180
vn 0.54538664 0.33589394 0.76793794
vn 0.92381504 0.37219369 -0.08965283
vn 0.90424099 0.15605903 0.39748436
vn 0.99333040 0.09476184 -0.06568800
vn 0.83420451 0.54451321 0.08722501
vn 0.97488630 -0.03148078 0.22046691
vn 0.82860669 0.42405495 0.36549741
vn 0.63697298 -0.76886663 0.05576323
vn 0.29593965 -0.83900779 0.45660229
vn 0.37873325 -0.92543271 -0.01163756
vn 0.72852724 -0.62064648 0.28990690
vn -0.09210574 -0.14524543 0.98509913
vn 0.03877797 -0.61904325 0.78439896
vn -0.32746021 -0.32138652 0.88852716
vn 0.19828112 -0.16709777 0.96579653
vn -0.65063486 -0.60438420 0.45977605
vn -0.16781384 -0.78198807 0.60027758
vn -0.53027936 -0.48833382 0.69306124
vn -0.55901647 -0.77841031 0.28561859
vn -0.24396199 -0.58977107 0.76983935
vn -0.22176409 -0.97122100 -0.08689333
vn -0.01044789 -0.91659184 0.39968768
vn 0.06321372 -0.99598115 -0.06344749
vn -0.40571675 -0.90953601 0.09021179
vn 0.18553769 -0.95714580 0.22236834
vn -0.28709116 -0.88431811 0.36818493
vn 0.69123331 -0.21839959 0.68883824
vn 0.32624973 -0.64641394 0.68971743
vn 0.74548562 -0.41989218 0.51763090
vn 0.48042154 -0.19316829 0.85550053
vn 0.53343496 -0.66856288 0.51814169
vn 0.26837090 -0.44183897 0.85601132
vn 0.72264517 -0.61686671 -0.31186442
vn 0.62011093 -0.52997957 -0.57843244
vn 0.25924029 -0.22299402 -0.93971705
vn 0.45886195 -0.39292540 -0.79690359
vn -0.25924029 0.22299402 0.93971705
vn -0.45886195 0.39292540 0.79690359
vn -0.72264517 0.61686671 0.31186442
vn -0.62011093 0.52997957 0.57843244
vn -0.27796662 0.05038580 0.95926838
vn -0.50564739 -0.11726728 0.85473335
vn -0.38758558 0.13876727 0.91132928
vn -0.79819012 -0.39473508 0.45505686
vn -0.68357242 -0.27050332 0.67790612
vn -0.59138512 0.30517416 0.74641300
vn -0.61875928 -0.03400658 0.78484425
vn -0.49242334 0.22523350 0.84070752
vn -0.50793192 0.05163425 0.85984828
vn -0.82820019 0.51805888 0.21377429
vn -0.92838860 0.24204323 0.28197461
vn -0.79746840 0.48714870 0.35599198
vn -0.88467396 -0.32122781 0.33788264
vn -0.94484547 -0.04843331 0.32391550
vn -0.84773723 -0.26460051 0.45970443
vn -0.68161465 0.38186508 0.62416386
vn -0.88491639 0.19221466 0.42423638
vn -0.74828348 0.44270279 0.49405068
vn -0.71527276 0.21725357 0.66421816
vn -0.85259026 0.34457790 0.39288156
vn -0.71854383 -0.12218970 0.68466375
vn -0.89444779 0.02732054 0.44633702
vn -0.79250211 -0.19918319 0.57642559
vn -0.72759457 0.04248414 0.68469062
vn -0.88118746 -0.12380474 0.45626861
vn -0.81975727 0.12081818 0.55982228
vn 0.64195194 -0.73647124 -0.21332563
vn 0.38509128 -0.87916515 -0.28066589
vn 0.60628671 -0.71134647 -0.35553147
vn -0.17812498 -0.92511097 -0.33532252
vn 0.10077739 -0.94140093 -0.32188228
vn 0.48347969 -0.61421694 -0.62368657
vn 0.32873255 -0.84444856 -0.42289661
vn 0.55434909 -0.67012864 -0.49358351
vn 0.47413929 -0.78838537 -0.39196995
vn 0.09171837 -0.26879813 -0.95881975
vn -0.03764995 -0.51985466 -0.85342464
vn 0.19640390 -0.36296502 -0.91086876
vn -0.26460884 -0.85160369 -0.45249675
vn -0.16049567 -0.71933090 -0.67587291
vn -0.12829091 -0.87998260 -0.45735332
vn 0.39325014 -0.53752600 -0.74593574
vn 0.06257542 -0.61822731 -0.78350450
vn 0.29848895 -0.45265935 -0.84024036
vn 0.32617124 -0.67355088 -0.66328088
vn 0.12948096 -0.49544172 -0.85893666
vn 0.16737014 -0.87996073 -0.44458560
vn -0.00853384 -0.73045049 -0.68291233
vn 0.01602785 -0.89076342 -0.45418458
vn 0.24766435 -0.79170857 -0.55844419
vn -0.07265748 -0.81538498 -0.57434156
vn 0.15550165 -0.71337453 -0.68331253
vn -0.80310514 -0.53856261 0.25489694
vn -0.71105830 -0.69771532 0.08711733
vn -0.40544765 -0.87870096 -0.25198575
vn -0.57680219 -0.81255196 -0.08401509
vn -0.09171837 0.26879813 0.95881975
vn 0.03764995 0.51985466 0.85342464
vn -0.19640390 0.36296502 0.91086876
vn 0.26460884 0.85160369 0.45249675
vn 0.16049567 0.71933090 0.67587291
vn -0.39325014 0.53752600 0.74593574
vn -0.06257542 0.61822731 0.78350450
vn -0.29848895 0.45265935 0.84024036
vn -0.12948096 0.49544172 0.85893666
vn -0.64195194 0.73647124 0.21332563
vn -0.38509128 0.87916515 0.28066589
vn -0.60628671 0.71134647 0.35553147
vn 0.17812498 0.92511097 0.33532252
vn -0.10077739 0.94140093 0.32188228
vn 0.12829091 0.87998260 0.45735332
vn -0.48347969 0.61421694 0.62368657
vn -0.32873255 0.84444856 0.42289661
vn -0.55434909 0.67012864 0.49358351
vn -0.32617124 0.67355088 0.66328088
vn -0.47413929 0.78838537 0.39196995
vn 0.00853384 0.73045049 0.68291233
vn -0.16737014 0.87996073 0.44458560
vn 0.07265748 0.81538498 0.57434156
vn -0.15550165 0.71337453 0.68331253
vn -0.01602785 0.89076342 0.45418458
vn -0.24766435 0.79170857 0.55844419
vn 0.82820019 -0.51805888 -0.21377429
vn 0.92838860 -0.24204323 -0.28197461
vn 0.79746840 -0.48714870 -0.35599198
vn 0.88467396 0.32122781 -0.33788264
vn 0.94484547 0.04843331 -0.32391550
vn 0.68161465 -0.38186508 -0.62416386
vn 0.88491639 -0.19221466 -0.42423638
vn 0.74828348 -0.44270279 -0.49405068
vn 0.85259026 -0.34457790 -0.39288156
vn 0.27796662 -0.05038580 -0.95926838
vn 0.50564739 0.11726728 -0.85473335
vn 0.38758558 -0.13876727 -0.91132928
vn 0.79819012 0.39473508 -0.45505686
vn 0.68357242 0.27050332 -0.67790612
vn 0.84773723 0.26460051 -0.45970443
vn 0.59138512 -0.30517416 -0.74641300
vn 0.61875928 0.03400658 -0.78484425
vn 0.49242334 -0.22523350 -0.84070752
vn 0.71527276 -0.21725357 -0.66421816
vn 0.50793192 -0.05163425 -0.85984828
vn 0.89444779 -0.02732054 -0.44633702
vn 0.71854383 0.12218970 -0.68466375
vn 0.88118746 0.12380474 -0.45626861
vn 0.81975727 -0.12081818 -0.55982228
vn 0.79250211 0.19918319 -0.57642559
vn 0.72759457 -0.04248414 -0.68469062
vn 0.40544765 0.87870096 0.25198575
vn 0.57680219 0.81255196 0.08401509
vn 0.80310514 0.53856261 -0.25489694
vn 0.71105830 0.69771532 -0.08711733
vn 0.12384638 0.00718161 -0.99227541
vn 0.05930139 0.27741531 -0.95891819
vn 0.24689162 0.09357314 -0.96451469
vn -0.06974561 0.71024575 -0.70049020
vn -0.00667666 0.51597987 -0.85657469
vn 0.47088244 0.26515950 -0.84140369
vn 0.17818796 0.36857359 -0.91236098
vn 0.36387071 0.17940737 -0.91400826
vn 0.21254703 0.23357646 -0.94882337
vn -0.69996520 0.71183305 0.05781379
vn -0.56297981 0.80968673 -0.16571402
vn -0.58512156 0.80523985 0.09602884
vn -0.19823788 0.82015226 -0.53670478
vn -0.39031679 0.84412844 -0.36755950
vn -0.31363815 0.93620318 0.15860240
vn -0.43311054 0.89145089 -0.13315616
vn -0.45573711 0.88046312 0.13072255
vn -0.51572558 0.85650818 -0.02051498
vn 0.26715356 0.94016409 0.21147212
vn 0.17251604 0.98424808 -0.03865132
vn 0.13280470 0.96891459 0.20872814
vn 0.36448518 0.92240039 0.12778134
vn -0.04501202 0.86017258 -0.50801284
vn 0.06579101 0.95652774 -0.28412361
vn -0.14411785 0.89031092 -0.43194502
vn -0.15633075 0.97060842 0.18297536
vn 0.02832816 0.99815647 -0.05367658
vn -0.00869593 0.97971071 0.20022814
vn -0.22262252 0.97411439 0.03924754
vn 0.08357030 0.99340778 0.07846650
vn 0.53405863 0.84405735 -0.04846201
vn 0.26694601 0.95485861 -0.13032596
vn 0.45401366 0.89001194 0.04183703
vn 0.31748688 0.94826256 0.00045233
vn -0.33690760 0.90854586 -0.24705806
vn -0.03184483 0.98079620 -0.19241810
vn -0.24227527 0.90648864 -0.34580490
vn -0.28486760 0.95233006 -0.10916919
vn -0.08763681 0.94420679 -0.31747965
vn -0.12545449 0.98873497 -0.08163529
vn 0.74777166 0.52906495 -0.40115810
vn 0.54201561 0.66819474 -0.50964190
vn 0.70604711 0.47858875 -0.52196770
vn 0.71448545 0.62302587 -0.31835406
vn 0.03436751 0.79227490 -0.60919567
vn 0.29830992 0.75764149 -0.58050889
vn 0.06745387 0.70934196 -0.70162950
vn 0.09178221 0.85868973 -0.50421024
vn 0.57050269 0.34890774 -0.74349853
vn 0.47942194 0.61231111 -0.62867298
vn 0.64790938 0.41807998 -0.63672801
vn 0.43633197 0.41047432 -0.80070297
vn 0.59969471 0.55193813 -0.57942261
vn 0.60922026 0.77976747 -0.14426839
vn 0.49556722 0.75930630 -0.42174290
vn 0.66888015 0.70622480 -0.23204715
vn 0.48800038 0.85214063 -0.18897609
vn 0.61196190 0.69638184 -0.37490661
vn 0.13926585 0.50124845 -0.85402284
vn 0.34087610 0.66198745 -0.66751487
vn 0.10145838 0.61247429 -0.78395245
vn 0.28734514 0.46288497 -0.83855249
vn 0.20469053 0.69416313 -0.69010096
vn 0.39123642 0.54678078 -0.74024647
vn 0.20776764 0.94102273 -0.26703714
vn 0.36076178 0.81015840 -0.46205445
vn 0.14901618 0.90873608 -0.38986268
vn 0.34985006 0.90779859 -0.23131505
vn 0.22727159 0.84179992 -0.48961263
vn 0.42837980 0.84062778 -0.33141467
vn 0.01046025 -0.12578574 -0.99200228
vn -0.26650838 -0.10466013 -0.95813336
vn -0.05535228 -0.26086671 -0.96378664
vn -0.02125140 0.01606847 -0.99964503
vn -0.71376478 -0.04499217 -0.69893887
vn -0.51229204 -0.07695267 -0.85535674
vn -0.18914970 -0.50885677 -0.83981378
vn -0.33764662 -0.23634293 -0.91111842
vn -0.12152666 -0.38981559 -0.91283902
vn -0.19899104 -0.24903209 -0.94783205
vn -0.08862153 0.29027154 -0.95283191
vn -0.30255853 0.03938873 -0.95231658
vn -0.05339358 0.15558858 -0.98637788
vn -0.16407000 0.02579891 -0.98611128
vn -0.81335132 0.57886574 0.05808692
vn -0.88878959 0.42761129 -0.16492922
vn -0.88736546 0.45080001 0.09675691
vn -0.75967117 0.64767962 -0.05840232
vn -0.84225705 0.06491434 -0.53515343
vn -0.89593218 0.25119591 -0.36634156
vn -0.97367029 0.16218693 0.16019230
vn -0.94894513 0.28653438 -0.13191358
vn -0.94113449 0.31124014 0.13189179
vn -0.92726367 0.37389960 -0.01952365
vn -0.61158409 0.73759023 -0.28622642
vn -0.82552109 0.48670741 -0.28571109
vn -0.69147270 0.70137284 -0.17303655
vn -0.80214914 0.57158316 -0.17276996
vn -0.88572519 -0.41181083 0.21424922
vn -0.94471300 -0.32592058 -0.03596009
vn -0.93534360 -0.28369735 0.21130114
vn -0.85297863 -0.50531308 0.13071399
vn -0.85751114 -0.09264087 -0.50605565
vn -0.93469828 -0.21674081 -0.28171360
vn -0.90277265 0.00064038 -0.43011758
vn -0.98274380 0.00147814 0.18496605
vn -0.98125488 -0.18577631 -0.05124467
vn -0.96837456 -0.14569940 0.20253984
vn -0.99696952 0.06604170 0.04111283
vn -0.96757107 -0.23926023 0.08099853
vn -0.74918903 -0.66080049 -0.04537089
vn -0.90096123 -0.41474014 -0.12751264
vn -0.80702823 -0.58880531 0.04487469
vn -0.88619869 -0.46329326 0.00335184
vn -0.95085903 0.18856824 -0.24557917
vn -0.97389971 -0.12394666 -0.19014883
vn -0.93407864 0.09521445 -0.34413849
vn -0.98559281 0.13059326 -0.10748124
vn -0.94683706 -0.06337289 -0.31540998
vn -0.99630182 -0.03250317 -0.07953756
vn -0.40510708 -0.82290997 -0.39838102
vn -0.57521342 -0.64197393 -0.50695068
vn -0.36210117 -0.77402319 -0.51939469
vn -0.50297836 -0.80468759 -0.31542138
vn -0.77813159 -0.16053856 -0.60723850
vn -0.70217935 -0.41562707 -0.57809887
vn -0.69120093 -0.18032858 -0.69980203
vn -0.83442949 -0.22747388 -0.50197915
vn -0.25591036 -0.62022255 -0.74150784
vn -0.53016112 -0.57162167 -0.62624105
vn -0.31176923 -0.70733012 -0.63441630
vn -0.33801504 -0.49759840 -0.79883770
vn -0.45144666 -0.68072988 -0.57689058
vn -0.67402742 -0.72509035 -0.14117726
vn -0.67234003 -0.61029244 -0.41892961
vn -0.59216174 -0.77259246 -0.22900951
vn -0.76473173 -0.61693179 -0.18595847
vn -0.59172366 -0.71517397 -0.37200712
vn -0.47468557 -0.21872917 -0.85254393
vn -0.60117878 -0.44275540 -0.66524562
vn -0.59034498 -0.19879992 -0.78228601
vn -0.41338006 -0.35885182 -0.83686456
vn -0.65450975 -0.31341654 -0.68803129
vn -0.47961093 -0.47445736 -0.73814874
vn -0.89692495 -0.35444449 -0.26437612
vn -0.74393080 -0.48530883 -0.45939341
vn -0.87457401 -0.29162279 -0.38739702
vn -0.84160049 -0.48940931 -0.22844504
vn -0.79631860 -0.35855896 -0.48714696
vn -0.76307078 -0.55658009 -0.32854465
vn -0.21420485 0.72502341 -0.65456652
vn -0.43238212 0.55431817 -0.71118005
vn -0.18559249 0.63865346 -0.74677786
vn -0.31670156 0.75079825 -0.57965689
vn -0.75108427 0.09542770 -0.65327328
vn -0.61710365 0.33769619 -0.71073509
vn -0.66146609 0.08059898 -0.74563156
vn -0.79257513 0.19274379 -0.57851059
vn -0.12400666 0.42462733 -0.89683554
vn -0.40526922 0.44894058 -0.79637253
vn -0.15470434 0.53904276 -0.82794895
vn -0.23524562 0.30958581 -0.92131217
vn -0.29835871 0.55198747 -0.77864749
vn -0.51487368 0.75895743 -0.39860847
vn -0.53984152 0.56404769 -0.62483705
vn -0.41664157 0.76309210 -0.49406503
vn -0.63705410 0.65327474 -0.40913834
vn -0.43065194 0.66514515 -0.61001708
vn -0.44070331 0.05323882 -0.89607266
vn -0.50893916 0.32736740 -0.79612280
vn -0.55839153 0.06564091 -0.82697653
vn -0.34472886 0.18119540 -0.92104845
vn -0.59376707 0.20556362 -0.77793590
vn -0.37994158 0.32220910 -0.86707883
vn -0.83157034 0.38756891 -0.39784558
vn -0.64351145 0.44247449 -0.62458734
vn -0.82032875 0.28969024 -0.49309260
vn -0.74653734 0.52488432 -0.40887460
vn -0.72606029 0.31872130 -0.60930550
vn -0.64790324 0.55141149 -0.52551571
vn 0.81335132 -0.57886574 -0.05808692
vn 0.88878959 -0.42761129 0.16492922
vn 0.88736546 -0.45080001 -0.09675691
vn 0.84225705 -0.06491434 0.53515343
vn 0.89593218 -0.25119591 0.36634156
vn 0.97367029 -0.16218693 -0.16019230
vn 0.94894513 -0.28653438 0.13191358
vn 0.94113449 -0.31124014 -0.13189179
vn 0.92726367 -0.37389960 0.01952365
vn -0.01046025 0.12578574 0.99200228
vn 0.26650838 0.10466013 0.95813336
vn 0.05535228 0.26086671 0.96378664
vn 0.71376478 0.04499217 0.69893887
vn 0.51229204 0.07695267 0.85535674
vn 0.18914970 0.50885677 0.83981378
vn 0.33764662 0.23634293 0.91111842
vn 0.12152666 0.38981559 0.91283902
vn 0.19899104 0.24903209 0.94783205
vn 0.40510708 0.82290997 0.39838102
vn 0.57521342 0.64197393 0.50695068
vn 0.36210117 0.77402319 0.51939469
vn 0.50297836 0.80468759 0.31542138
vn 0.77813159 0.16053856 0.60723850
vn 0.70217935 0.41562707 0.57809887
vn 0.69120093 0.18032858 0.69980203
vn 0.25591036 0.62022255 0.74150784
vn 0.53016112 0.57162167 0.62624105
vn 0.31176923 0.70733012 0.63441630
vn 0.33801504 0.49759840 0.79883770
vn 0.45144666 0.68072988 0.57689058
vn 0.67402742 0.72509035 0.14117726
vn 0.67234003 0.61029244 0.41892961
vn 0.59216174 0.77259246 0.22900951
vn 0.59172366 0.71517397 0.37200712
vn 0.47468557 0.21872917 0.85254393
vn 0.60117878 0.44275540 0.66524562
vn 0.59034498 0.19879992 0.78228601
vn 0.41338006 0.35885182 0.83686456
vn 0.65450975 0.31341654 0.68803129
vn 0.47961093 0.47445736 0.73814874
vn 0.88572519 0.41181083 -0.21424922
vn 0.94471300 0.32592058 0.03596009
vn 0.93534360 0.28369735 -0.21130114
vn 0.85297863 0.50531308 -0.13071399
vn 0.85751114 0.09264087 0.50605565
vn 0.93469828 0.21674081 0.28171360
vn 0.90277265 -0.00064038 0.43011758
vn 0.83442949 0.22747388 0.50197915
vn 0.98274380 -0.00147814 -0.18496605
vn 0.98125488 0.18577631 0.05124467
vn 0.96837456 0.14569940 -0.20253984
vn 0.99696952 -0.06604170 -0.04111283
vn 0.96757107 0.23926023 -0.08099853
vn 0.74918903 0.66080049 0.04537089
vn 0.90096123 0.41474014 0.12751264
vn 0.80702823 0.58880531 -0.04487469
vn 0.76473173 0.61693179 0.18595847
vn 0.88619869 0.46329326 -0.00335184
vn 0.95085903 -0.18856824 0.24557917
vn 0.97389971 0.12394666 0.19014883
vn 0.93407864 -0.09521445 0.34413849
vn 0.98559281 -0.13059326 0.10748124
vn 0.94683706 0.06337289 0.31540998
vn 0.99630182 0.03250317 0.07953756
vn 0.74393080 0.48530883 0.45939341
vn 0.89692495 0.35444449 0.26437612
vn 0.79631860 0.35855896 0.48714696
vn 0.76307078 0.55658009 0.32854465
vn 0.87457401 0.29162279 0.38739702
vn 0.84160049 0.48940931 0.22844504
vn 0.69996520 -0.71183305 -0.05781379
vn 0.56297981 -0.80968673 0.16571402
vn 0.58512156 -0.80523985 -0.09602884
vn 0.75967117 -0.64767962 0.05840232
vn 0.19823788 -0.82015226 0.53670478
vn 0.39031679 -0.84412844 0.36755950
vn 0.31363815 -0.93620318 -0.15860240
vn 0.43311054 -0.89145089 0.13315616
vn 0.45573711 -0.88046312 -0.13072255
vn 0.51572558 -0.85650818 0.02051498
vn 0.82552109 -0.48670741 0.28571109
vn 0.61158409 -0.73759023 0.28622642
vn 0.80214914 -0.57158316 0.17276996
vn 0.69147270 -0.70137284 0.17303655
vn -0.12384638 -0.00718161 0.99227541
vn -0.05930139 -0.27741531 0.95891819
vn -0.24689162 -0.09357314 0.96451469
vn 0.02125140 -0.01606847 0.99964503
vn 0.06974561 -0.71024575 0.70049020
vn 0.00667666 -0.51597987 0.85657469
vn -0.47088244 -0.26515950 0.84140369
vn -0.17818796 -0.36857359 0.91236098
vn -0.36387071 -0.17940737 0.91400826
vn -0.21254703 -0.23357646 0.94882337
vn 0.30255853 -0.03938873 0.95231658
vn 0.08862153 -0.29027154 0.95283191
vn 0.16407000 -0.02579891 0.98611128
vn 0.05339358 -0.15558858 0.98637788
vn -0.74777166 -0.52906495 0.40115810
vn -0.54201561 -0.66819474 0.50964190
vn -0.70604711 -0.47858875 0.52196770
vn -0.71448545 -0.62302587 0.31835406
vn -0.03436751 -0.79227490 0.60919567
vn -0.29830992 -0.75764149 0.58050889
vn -0.06745387 -0.70934196 0.70162950
vn -0.57050269 -0.34890774 0.74349853
vn -0.47942194 -0.61231111 0.62867298
vn -0.64790938 -0.41807998 0.63672801
vn -0.43633197 -0.41047432 0.80070297
vn -0.59969471 -0.55193813 0.57942261
vn -0.60922026 -0.77976747 0.14426839
vn -0.49556722 -0.75930630 0.42174290
vn -0.66888015 -0.70622480 0.23204715
vn -0.61196190 -0.69638184 0.37490661
vn -0.13926585 -0.50124845 0.85402284
vn -0.34087610 -0.66198745 0.66751487
vn -0.10145838 -0.61247429 0.78395245
vn -0.28734514 -0.46288497 0.83855249
vn -0.20469053 -0.69416313 0.69010096
vn -0.39123642 -0.54678078 0.74024647
vn -0.26715356 -0.94016409 -0.21147212
vn -0.17251604 -0.98424808 0.03865132
vn -0.13280470 -0.96891459 -0.20872814
vn -0.36448518 -0.92240039 -0.12778134
vn 0.04501202 -0.86017258 0.50801284
vn -0.06579101 -0.95652774 0.28412361
vn 0.14411785 -0.89031092 0.43194502
vn -0.09178221 -0.85868973 0.50421024
vn 0.15633075 -0.97060842 -0.18297536
vn -0.02832816 -0.99815647 0.05367658
vn 0.00869593 -0.97971071 -0.20022814
vn 0.22262252 -0.97411439 -0.03924754
vn -0.08357030 -0.99340778 -0.07846650
vn -0.53405863 -0.84405735 0.04846201
vn -0.26694601 -0.95485861 0.13032596
vn -0.45401366 -0.89001194 -0.04183703
vn -0.48800038 -0.85214063 0.18897609
vn -0.31748688 -0.94826256 -0.00045233
vn 0.33690760 -0.90854586 0.24705806
vn 0.03184483 -0.98079620 0.19241810
vn 0.24227527 -0.90648864 0.34580490
vn 0.28486760 -0.95233006 0.10916919
vn 0.08763681 -0.94420679 0.31747965
vn 0.12545449 -0.98873497 0.08163529
vn -0.36076178 -0.81015840 0.46205445
vn -0.20776764 -0.94102273 0.26703714
vn -0.22727159 -0.84179992 0.48961263
vn -0.42837980 -0.84062778 0.33141467
vn -0.14901618 -0.90873608 0.38986268
vn -0.34985006 -0.90779859 0.23131505
vn 0.75108427 -0.09542770 0.65327328
vn 0.61710365 -0.33769619 0.71073509
vn 0.79257513 -0.19274379 0.57851059
vn 0.66146609 -0.08059898 0.74563156
vn 0.21420485 -0.72502341 0.65456652
vn 0.43238212 -0.55431817 0.71118005
vn 0.31670156 -0.75079825 0.57965689
vn 0.18559249 -0.63865346 0.74677786
vn 0.83157034 -0.38756891 0.39784558
vn 0.64351145 -0.44247449 0.62458734
vn 0.82032875 -0.28969024 0.49309260
vn 0.74653734 -0.52488432 0.40887460
vn 0.72606029 -0.31872130 0.60930550
vn 0.44070331 -0.05323882 0.89607266
vn 0.50893916 -0.32736740 0.79612280
vn 0.55839153 -0.06564091 0.82697653
vn 0.34472886 -0.18119540 0.92104845
vn 0.59376707 -0.20556362 0.77793590
vn 0.51487368 -0.75895743 0.39860847
vn 0.53984152 -0.56404769 0.62483705
vn 0.41664157 -0.76309210 0.49406503
vn 0.63705410 -0.65327474 0.40913834
vn 0.43065194 -0.66514515 0.61001708
vn 0.64790324 -0.55141149 0.52551571
vn 0.12400666 -0.42462733 0.89683554
vn 0.40526922 -0.44894058 0.79637253
vn 0.15470434 -0.53904276 0.82794895
vn 0.23524562 -0.30958581 0.92131217
vn 0.29835871 -0.55198747 0.77864749
vn 0.37994158 -0.32220910 0.86707883
f 1//1 533//533 197//197
f 533//533 138//138 535//535
f 197//197 535//535 54//54
f 533//533 535//535 197//197
f 138//138 534//534 542//542
f 534//534 38//38 540//540
f 542//542 540//540 140//140
f 534//534 540//540 542//542
f 54//54 541//541 198//198
f 541//541 140//140 539//539
f 198//198 539//539 17//17
f 541//541 539//539 198//198
f 138//138 542//542 535//535
f 542//542 140//140 541//541
f 535//535 541//541 54//54
f 542//542 541//541 535//535
f 38//38 538//538 601//601
f 538//538 139//139 603//603
f 601//601 603//603 155//155
f 538//538 603//603 601//601
f 139//139 537//537 589//589
f 537//537 12//12 587//587
f 589//589 587//587 152//152
f 537//537 587//587 589//589
f 155//155 605//605 602//602
f 605//605 152//152 588//588
f 602//602 588//588 41//41
f 605//605 588//588 602//602
f 139//139 589//589 603//603
f 589//589 152//152 605//605
f 603//603 605//605 155//155
f 589//589 605//605 603//603
f 17//17 591//591 201//201
f 591//591 153//153 593//593
f 201//201 593//593 55//55
f 591//591 593//593 201//201
f 153//153 592//592 595//595
f 592//592 41//41 584//584
f 595//595 584//584 151//151
f 592//592 584//584 595//595
f 55//55 585//585 200//200
f 585//585 151//151 583//583
f 200//200 583//583 6//6
f 585//585 583//583 200//200
f 153//153 595//595 593//593
f 595//595 151//151 585//585
f 593//593 585//585 55//55
f 595//595 585//585 593//593
f 38//38 601//601 540//540
f 601//601 155//155 604//604
f 540//540 604//604 140//140
f 601//601 604//604 540//540
f 155//155 602//602 606//606
f 602//602 41//41 592//592
f 606//606 592//592 153//153
f 602//602 592//592 606//606
f 140//140 594//594 539//539
f 594//594 153//153 591//591
f 539//539 591//591 17//17
f 594//594 591//591 539//539
f 155//155 606//606 604//604
f 606//606 153//153 594//594
f 604//604 594//594 140//140
f 606//606 594//594 604//604
f 1//1 197//197 163//163
f 197//197 54//54 199//199
f 163//163 199//199 43//43
f 197//197 199//199 163//163
f 54//54 198//198 205//205
f 198//198 17//17 203//203
f 205//205 203//203 56//56
f 198//198 203//203 205//205
f 43//43 204//204 164//164
f 204//204 56//56 202//202
f 164//164 202//202 13//13
f 204//204 202//202 164//164
f 54//54 205//205 199//199
f 205//205 56//56 204//204
f 199//199 204//204 43//43
f 205//205 204//204 199//199
f 17//17 201//201 217//217
f 201//201 55//55 219//219
f 217//217 219//219 60//60
f 201//201 219//219 217//217
f 55//55 200//200 211//211
f 200//200 6//6 209//209
f 211//211 209//209 58//58
f 200//200 209//209 211//211
f 60//60 221//221 218//218
f 221//221 58//58 210//210
f 218//218 210//210 18//18
f 221//221 210//210 218//218
f 55//55 211//211 219//219
f 211//211 58//58 221//221
f 219//219 221//221 60//60
f 211//211 221//221 219//219
f 13//13 212//212 166//166
f 212//212 59//59 214//214
f 166//166 214//214 44//44
f 212//212 214//214 166//166
f 59//59 213//213 216//216
f 213//213 18//18 207//207
f 216//216 207//207 57//57
f 213//213 207//207 216//216
f 44//44 208//208 165//165
f 208//208 57//57 206//206
f 165//165 206//206 2//2
f 208//208 206//206 165//165
f 59//59 216//216 214//214
f 216//216 57//57 208//208
f 214//214 208//208 44//44
f 216//216 208//208 214//214
f 17//17 217//217 203//203
f 217//217 60//60 220//220
f 203//203 220//220 56//56
f 217//217 220//220 203//203
f 60//60 218//218 222//222
f 218//218 18//18 213//213
f 222//222 213//213 59//59
f 218//218 213//213 222//222
f 56//56 215//215 202//202
f 215//215 59//59 212//212
f 202//202 212//212 13//13
f 215//215 212//212 202//202
f 60//60 222//222 220//220
f 222//222 59//59 215//215
f 220//220 215//215 56//56
f 222//222 215//215 220//220
f 1//1 163//163 253//253
f 163//163 43//43 255//255
f 253//253 255//255 70//70
f 163//163 255//255 253//253
f 43//43 164//164 260//260
f 164//164 13//13 258//258
f 260//260 258//258 72//72
f 164//164 258//258 260//260
f 70//70 261//261 254//254
f 261//261 72//72 259//259
f 254//254 259//259 22//22
f 261//261 259//259 254//254
f 43//43 260//260 255//255
f 260//260 72//72 261//261
f 255//255 261//261 70//70
f 260//260 261//261 255//255
f 13//13 166//166 268//268
f 166//166 44//44 270//270
f 268//268 270//270 75//75
f 166//166 270//270 268//268
f 44//44 165//165 264//264
f 165//165 2//2 262//262
f 264//264 262//262 73//73
f 165//165 262//262 264//264
f 75//75 272//272 269//269
f 272//272 73//73 263//263
f 269//269 263//263 23//23
f 272//272 263//263 269//269
f 44//44 264//264 270//270
f 264//264 73//73 272//272
f 270//270 272//272 75//75
f 264//264 272//272 270//270
f 22//22 273//273 257//257
f 273//273 76//76 275//275
f 257//257 275//275 71//71
f 273//273 275//275 257//257
f 76//76 274//274 277//277
f 274//274 23//23 266//266
f 277//277 266//266 74//74
f 274//274 266//266 277//277
f 71//71 267//267 256//256
f 267//267 74//74 265//265
f 256//256 265//265 8//8
f 267//267 265//265 256//256
f 76//76 277//277 275//275
f 277//277 74//74 267//267
f 275//275 267//267 71//71
f 277//277 267//267 275//275
f 13//13 268//268 258//258
f 268//268 75//75 271//271
f 258//258 271//271 72//72
f 268//268 271//271 258//258
f 75//75 269//269 278//278
f 269//269 23//23 274//274
f 278//278 274//274 76//76
f 269//269 274//274 278//278
f 72//72 276//276 259//259
f 276//276 76//76 273//273
f 259//259 273//273 22//22
f 276//276 273//273 259//259
f 75//75 278//278 271//271
f 278//278 76//76 276//276
f 271//271 276//276 72//72
f 278//278 276//276 271//271
f 1//1 253//253 463//463
f 253//253 70//70 465//465
f 463//463 465//465 121//121
f 253//253 465//465 463//463
f 70//70 254//254 470//470
f 254//254 22//22 468//468
f 470//470 468//468 123//123
f 254//254 468//468 470//470
f 121//121 471//471 464//464
f 471//471 123//123 469//469
f 464//464 469//469 34//34
f 471//471 469//469 464//464
f 70//70 470//470 465//465
f 470//470 123//123 471//471
f 465//465 471//471 121//121
f 470//470 471//471 465//465
f 22//22 257//257 511//511
f 257//257 71//71 513//513
f 511//511 513//513 134//134
f 257//257 513//513 511//511
f 71//71 256//256 505//505
f 256//256 8//8 503//503
f 505//505 503//503 132//132
f 256//256 503//503 505//505
f 134//134 515//515 512//512
f 515//515 132//132 504//504
f 512//512 504//504 37//37
f 515//515 504//504 512//512
f 71//71 505//505 513//513
f 505//505 132//132 515//515
f 513//513 515//515 134//134
f 505//505 515//515 513//513
f 34//34 521//521 467//467
f 521//521 136//136 523//523
f 467//467 523//523 122//122
f 521//521 523//523 467//467
f 136//136 522//522 525//525
f 522//522 37//37 508//508
f 525//525 508//508 133//133
f 522//522 508//508 525//525
f 122//122 509//509 466//466
f 509//509 133//133 507//507
f 466//466 507//507 11//11
f 509//509 507//507 466//466
f 136//136 525//525 523//523
f 525//525 133//133 509//509
f 523//523 509//509 122//122
f 525//525 509//509 523//523
f 22//22 511//511 468//468
f 511//511 134//134 514//514
f 468//468 514//514 123//123
f 511//511 514//514 468//468
f 134//134 512//512 526//526
f 512//512 37//37 522//522
f 526//526 522//522 136//136
f 512//512 522//522 526//526
f 123//123 524//524 469//469
f 524//524 136//136 521//521
f 469//469 521//521 34//34
f 524//524 521//521 469//469
f 134//134 526//526 514//514
f 526//526 136//136 524//524
f 514//514 524//524 123//123
f 526//526 524//524 514//514
f 1//1 463//463 533//533
f 463//463 121//121 536//536
f 533//533 536//536 138//138
f 463//463 536//536 533//533
f 121//121 464//464 545//545
f 464//464 34//34 543//543
f 545//545 543//543 141//141
f 464//464 543//543 545//545
f 138//138 546//546 534//534
f 546//546 141//141 544//544
f 534//534 544//544 38//38
f 546//546 544//544 534//534
f 121//121 545//545 536//536
f 545//545 141//141 546//546
f 536//536 546//546 138//138
f 545//545 546//546 536//536
f 34//34 467//467 621//621
f 467//467 122//122 623//623
f 621//621 623//623 159//159
f 467//467 623//623 621//621
f 122//122 466//466 615//615
f 466//466 11//11 613//613
f 615//615 613//613 157//157
f 466//466 613//613 615//615
f 159//159 625//625 622//622
f 625//625 157//157 614//614
f 622//622 614//614 42//42
f 625//625 614//614 622//622
f 122//122 615//615 623//623
f 615//615 157//157 625//625
f 623//623 625//625 159//159
f 615//615 625//625 623//623
f 38//38 631//631 538//538
f 631//631 161//161 633//633
f 538//538 633//633 139//139
f 631//631 633//633 538//538
f 161//161 632//632 635//635
f 632//632 42//42 618//618
f 635//635 618//618 158//158
f 632//632 618//618 635//635
f 139//139 619//619 537//537
f 619//619 158//158 617//617
f 537//537 617//617 12//12
f 619//619 617//617 537//537
f 161//161 635//635 633//633
f 635//635 158//158 619//619
f 633//633 619//619 139//139
f 635//635 619//619 633//633
f 34//34 621//621 543//543
f 621//621 159//159 624//624
f 543//543 624//624 141//141
f 621//621 624//624 543//543
f 159//159 622//622 636//636
f 622//622 42//42 632//632
f 636//636 632//632 161//161
f 622//622 632//632 636//636
f 141//141 634//634 544//544
f 634//634 161//161 631//631
f 544//544 631//631 38//38
f 634//634 631//631 544//544
f 159//159 636//636 624//624
f 636//636 161//161 634//634
f 624//624 634//634 141//141
f 636//636 634//634 624//624
f 2//2 206//206 353//353
f 206//206 57//57 355//355
f 353//353 355//355 96//96
f 206//206 355//355 353//353
f 57//57 207//207 361//361
f 207//207 18//18 359//359
f 361//361 359//359 98//98
f 207//207 359//359 361//361
f 96//96 362//362 354//354
f 362//362 98//98 360//360
f 354//354 360//360 29//29
f 362//362 360//360 354//354
f 57//57 361//361 355//355
f 361//361 98//98 362//362
f 355//355 362//362 96//96
f 361//361 362//362 355//355
f 18//18 210//210 411//411
f 210//210 58//58 413//413
f 411//411 413//413 111//111
f 210//210 413//413 411//411
f 58//58 209//209 405//405
f 209//209 6//6 403//403
f 405//405 403//403 109//109
f 209//209 403//403 405//405
f 111//111 415//415 412//412
f 415//415 109//109 404//404
f 412//412 404//404 32//32
f 415//415 404//404 412//412
f 58//58 405//405 413//413
f 405//405 109//109 415//415
f 413//413 415//415 111//111
f 405//405 415//415 413//413
f 29//29 421//421 358//358
f 421//421 113//113 423//423
f 358//358 423//423 97//97
f 421//421 423//423 358//358
f 113//113 422//422 425//425
f 422//422 32//32 408//408
f 425//425 408//408 110//110
f 422//422 408//408 425//425
f 97//97 409//409 357//357
f 409//409 110//110 407//407
f 357//357 407//407 10//10
f 409//409 407//407 357//357
f 113//113 425//425 423//423
f 425//425 110//110 409//409
f 423//423 409//409 97//97
f 425//425 409//409 423//423
f 18//18 411//411 359//359
f 411//411 111//111 414//414
f 359//359 414//414 98//98
f 411//411 414//414 359//359
f 111//111 412//412 426//426
f 412//412 32//32 422//422
f 426//426 422//422 113//113
f 412//412 422//422 426//426
f 98//98 424//424 360//360
f 424//424 113//113 421//421
f 360//360 421//421 29//29
f 424//424 421//421 360//360
f 111//111 426//426 414//414
f 426//426 113//113 424//424
f 414//414 424//424 98//98
f 426//426 424//424 414//414
f 6//6 583//583 225//225
f 583//583 151//151 586//586
f 225//225 586//586 62//62
f 583//583 586//586 225//225
f 151//151 584//584 600//600
f 584//584 41//41 597//597
f 600//600 597//597 154//154
f 584//584 597//597 600//600
f 62//62 598//598 226//226
f 598//598 154//154 596//596
f 226//226 596//596 19//19
f 598//598 596//596 226//226
f 151//151 600//600 586//586
f 600//600 154//154 598//598
f 586//586 598//598 62//62
f 600//600 598//598 586//586
f 41//41 588//588 608//608
f 588//588 152//152 611//611
f 608//608 611//611 156//156
f 588//588 611//611 608//608
f 152//152 587//587 590//590
f 587//587 12//12 565//565
f 590//590 565//565 147//147
f 587//587 565//565 590//590
f 156//156 609//609 607//607
f 609//609 147//147 566//566
f 607//607 566//566 40//40
f 609//609 566//566 607//607
f 152//152 590//590 611//611
f 590//590 147//147 609//609
f 611//611 609//609 156//156
f 590//590 609//609 611//611
f 19//19 573//573 224//224
f 573//573 149//149 575//575
f 224//224 575//575 61//61
f 573//573 575//575 224//224
f 149//149 574//574 576//576
f 574//574 40//40 562//562
f 576//576 562//562 146//146
f 574//574 562//562 576//576
f 61//61 564//564 223//223
f 564//564 146//146 561//561
f 223//223 561//561 5//5
f 564//564 561//561 223//223
f 149//149 576//576 575//575
f 576//576 146//146 564//564
f 575//575 564//564 61//61
f 576//576 564//564 575//575
f 41//41 608//608 597//597
f 608//608 156//156 612//612
f 597//597 612//612 154//154
f 608//608 612//612 597//597
f 156//156 607//607 610//610
f 607//607 40//40 574//574
f 610//610 574//574 149//149
f 607//607 574//574 610//610
f 154//154 599//599 596//596
f 599//599 149//149 573//573
f 596//596 573//573 19//19
f 599//599 573//573 596//596
f 156//156 610//610 612//612
f 610//610 149//149 599//599
f 612//612 599//599 154//154
f 610//610 599//599 612//612
f 12//12 617//617 551//551
f 617//617 158//158 620//620
f 551//551 620//620 143//143
f 617//617 620//620 551//551
f 158//158 618//618 641//641
f 618//618 42//42 638//638
f 641//641 638//638 162//162
f 618//618 638//638 641//641
f 143//143 639//639 552//552
f 639//639 162//162 637//637
f 552//552 637//637 39//39
f 639//639 637//637 552//552
f 158//158 641//641 620//620
f 641//641 162//162 639//639
f 620//620 639//639 143//143
f 641//641 639//639 620//620
f 42//42 614//614 627//627
f 614//614 157//157 630//630
f 627//627 630//630 160//160
f 614//614 630//630 627//627
f 157//157 613//613 616//616
f 613//613 11//11 475//475
f 616//616 475//475 125//125
f 613//613 475//475 616//616
f 160//160 628//628 626//626
f 628//628 125//125 476//476
f 626//626 476//476 35//35
f 628//628 476//476 626//626
f 157//157 616//616 630//630
f 616//616 125//125 628//628
f 630//630 628//628 160//160
f 616//616 628//628 630//630
f 39//39 558//558 548//548
f 558//558 145//145 560//560
f 548//548 560//560 142//142
f 558//558 560//560 548//548
f 145//145 557//557 559//559
f 557//557 35//35 473//473
f 559//559 473//473 124//124
f 557//557 473//473 559//559
f 142//142 550//550 547//547
f 550//550 124//124 472//472
f 547//547 472//472 3//3
f 550//550 472//472 547//547
f 145//145 559//559 560//560
f 559//559 124//124 550//550
f 560//560 550//550 142//142
f 559//559 550//550 560//560
f 42//42 627//627 638//638
f 627//627 160//160 642//642
f 638//638 642//642 162//162
f 627//627 642//642 638//638
f 160//160 626//626 629//629
f 626//626 35//35 557//557
f 629//629 557//557 145//145
f 626//626 557//557 629//629
f 162//162 640//640 637//637
f 640//640 145//145 558//558
f 637//637 558//558 39//39
f 640//640 558//558 637//637
f 160//160 629//629 642//642
f 629//629 145//145 640//640
f 642//642 640//640 162//162
f 629//629 640//640 642//642
f 11//11 507//507 485//485
f 507//507 133//133 510//510
f 485//485 510//510 128//128
f 507//507 510//510 485//485
f 133//133 508//508 531//531
f 508//508 37//37 528//528
f 531//531 528//528 137//137
f 508//508 528//528 531//531
f 128//128 529//529 486//486
f 529//529 137//137 527//527
f 486//486 527//527 36//36
f 529//529 527//527 486//486
f 133//133 531//531 510//510
f 531//531 137//137 529//529
f 510//510 529//529 128//128
f 531//531 529//529 510//510
f 37//37 504//504 517//517
f 504//504 132//132 520//520
f 517//517 520//520 135//135
f 504//504 520//520 517//517
f 132//132 503//503 506//506
f 503//503 8//8 281//281
f 506//506 281//281 78//78
f 503//503 281//281 506//506
f 135//135 518//518 516//516
f 518//518 78//78 282//282
f 516//516 282//282 24//24
f 518//518 282//282 516//516
f 132//132 506//506 520//520
f 506//506 78//78 518//518
f 520//520 518//518 135//135
f 506//506 518//518 520//520
f 36//36 494//494 482//482
f 494//494 130//130 496//496
f 482//482 496//496 127//127
f 494//494 496//496 482//482
f 130//130 493//493 495//495
f 493//493 24//24 280//280
f 495//495 280//280 77//77
f 493//493 280//280 495//495
f 127//127 484//484 481//481
f 484//484 77//77 279//279
f 481//481 279//279 7//7
f 484//484 279//279 481//481
f 130//130 495//495 496//496
f 495//495 77//77 484//484
f 496//496 484//484 127//127
f 495//495 484//484 496//496
f 37//37 517//517 528//528
f 517//517 135//135 532//532
f 528//528 532//532 137//137
f 517//517 532//532 528//528
f 135//135 516//516 519//519
f 516//516 24//24 493//493
f 519//519 493//493 130//130
f 516//516 493//493 519//519
f 137//137 530//530 527//527
f 530//530 130//130 494//494
f 527//527 494//494 36//36
f 530//530 494//494 527//527
f 135//135 519//519 532//532
f 519//519 130//130 530//530
f 532//532 530//530 137//137
f 519//519 530//530 532//532
f 8//8 265//265 323//323
f 265//265 74//74 325//325
f 323//323 325//325 90//90
f 265//265 325//325 323//323
f 74//74 266//266 333//333
f 266//266 23//23 331//331
f 333//333 331//331 92//92
f 266//266 331//331 333//333
f 90//90 335//335 324//324
f 335//335 92//92 332//332
f 324//324 332//332 28//28
f 335//335 332//332 324//324
f 74//74 333//333 325//325
f 333//333 92//92 335//335
f 325//325 335//335 90//90
f 333//333 335//335 325//325
f 23//23 263//263 288//288
f 263//263 73//73 290//290
f 288//288 290//290 81//81
f 263//263 290//290 288//288
f 73//73 262//262 285//285
f 262//262 2//2 283//283
f 285//285 283//283 79//79
f 262//262 283//283 285//285
f 81//81 291//291 289//289
f 291//291 79//79 284//284
f 289//289 284//284 25//25
f 291//291 284//284 289//289
f 73//73 285//285 290//290
f 285//285 79//79 291//291
f 290//290 291//291 81//81
f 285//285 291//291 290//290
f 28//28 342//342 328//328
f 342//342 94//94 345//345
f 328//328 345//345 91//91
f 342//342 345//345 328//328
f 94//94 341//341 343//343
f 341//341 25//25 287//287
f 343//343 287//287 80//80
f 341//341 287//287 343//343
f 91//91 329//329 327//327
f 329//329 80//80 286//286
f 327//327 286//286 9//9
f 329//329 286//286 327//327
f 94//94 343//343 345//345
f 343//343 80//80 329//329
f 345//345 329//329 91//91
f 343//343 329//329 345//345
f 23//23 288//288 331//331
f 288//288 81//81 334//334
f 331//331 334//334 92//92
f 288//288 334//334 331//331
f 81//81 289//289 344//344
f 289//289 25//25 341//341
f 344//344 341//341 94//94
f 289//289 341//341 344//344
f 92//92 346//346 332//332
f 346//346 94//94 342//342
f 332//332 342//342 28//28
f 346//346 342//342 332//332
f 81//81 344//344 334//334
f 344//344 94//94 346//346
f 334//334 346//346 92//92
f 344//344 346//346 334//334
f 4//4 367//367 180//180
f 367//367 100//100 369//369
f 180//180 369//369 50//50
f 367//367 369//369 180//180
f 100//100 368//368 376//376
f 368//368 30//30 374//374
f 376//376 374//374 102//102
f 368//368 374//374 376//376
f 50//50 375//375 181//181
f 375//375 102//102 373//373
f 181//181 373//373 16//16
f 375//375 373//373 181//181
f 100//100 376//376 369//369
f 376//376 102//102 375//375
f 369//369 375//375 50//50
f 376//376 375//375 369//369
f 30//30 372//372 397//397
f 372//372 101//101 399//399
f 397//397 399//399 108//108
f 372//372 399//399 397//397
f 101//101 371//371 387//387
f 371//371 10//10 385//385
f 387//387 385//385 105//105
f 371//371 385//385 387//387
f 108//108 401//401 398//398
f 401//401 105//105 386//386
f 398//398 386//386 31//31
f 401//401 386//386 398//398
f 101//101 387//387 399//399
f 387//387 105//105 401//401
f 399//399 401//401 108//108
f 387//387 401//401 399//399
f 16//16 388//388 184//184
f 388//388 106//106 390//390
f 184//184 390//390 51//51
f 388//388 390//390 184//184
f 106//106 389//389 392//392
f 389//389 31//31 382//382
f 392//392 382//382 104//104
f 389//389 382//382 392//392
f 51//51 383//383 183//183
f 383//383 104//104 381//381
f 183//183 381//381 5//5
f 383//383 381//381 183//183
f 106//106 392//392 390//390
f 392//392 104//104 383//383
f 390//390 383//383 51//51
f 392//392 383//383 390//390
f 30//30 397//397 374//374
f 397//397 108//108 400//400
f 374//374 400//400 102//102
f 397//397 400//400 374//374
f 108//108 398//398 402//402
f 398//398 31//31 389//389
f 402//402 389//389 106//106
f 398//398 389//389 402//402
f 102//102 391//391 373//373
f 391//391 106//106 388//388
f 373//373 388//388 16//16
f 391//391 388//388 373//373
f 108//108 402//402 400//400
f 402//402 106//106 391//391
f 400//400 391//391 102//102
f 402//402 391//391 400//400
f 4//4 180//180 169//169
f 180//180 50//50 182//182
f 169//169 182//182 46//46
f 180//180 182//182 169//169
f 50//50 181//181 190//190
f 181//181 16//16 187//187
f 190//190 187//187 52//52
f 181//181 187//187 190//190
f 46//46 188//188 170//170
f 188//188 52//52 186//186
f 170//170 186//186 14//14
f 188//188 186//186 170//170
f 50//50 190//190 182//182
f 190//190 52//52 188//188
f 182//182 188//188 46//46
f 190//190 188//188 182//182
f 16//16 184//184 192//192
f 184//184 51//51 195//195
f 192//192 195//195 53//53
f 184//184 195//195 192//192
f 51//51 183//183 185//185
f 183//183 5//5 174//174
f 185//185 174//174 48//48
f 183//183 174//174 185//185
f 53//53 193//193 191//191
f 193//193 48//48 175//175
f 191//191 175//175 15//15
f 193//193 175//175 191//191
f 51//51 185//185 195//195
f 185//185 48//48 193//193
f 195//195 193//193 53//53
f 185//185 193//193 195//195
f 14//14 176//176 168//168
f 176//176 49//49 178//178
f 168//168 178//178 45//45
f 176//176 178//178 168//168
f 49//49 177//177 179//179
f 177//177 15//15 172//172
f 179//179 172//172 47//47
f 177//177 172//172 179//179
f 45//45 173//173 167//167
f 173//173 47//47 171//171
f 167//167 171//171 3//3
f 173//173 171//171 167//167
f 49//49 179//179 178//178
f 179//179 47//47 173//173
f 178//178 173//173 45//45
f 179//179 173//173 178//178
f 16//16 192//192 187//187
f 192//192 53//53 196//196
f 187//187 196//196 52//52
f 192//192 196//196 187//187
f 53//53 191//191 194//194
f 191//191 15//15 177//177
f 194//194 177//177 49//49
f 191//191 177//177 194//194
f 52//52 189//189 186//186
f 189//189 49//49 176//176
f 186//186 176//176 14//14
f 189//189 176//176 186//186
f 53//53 194//194 196//196
f 194//194 49//49 189//189
f 196//196 189//189 52//52
f 194//194 189//189 196//196
f 4//4 169//169 236//236
f 169//169 46//46 238//238
f 236//236 238//238 66//66
f 169//169 238//238 236//236
f 46//46 170//170 244//244
f 170//170 14//14 242//242
f 244//244 242//242 68//68
f 170//170 242//242 244//244
f 66//66 246//246 237//237
f 246//246 68//68 243//243
f 237//237 243//243 21//21
f 246//246 243//243 237//237
f 46//46 244//244 238//238
f 244//244 68//68 246//246
f 238//238 246//246 66//66
f 244//244 246//246 238//238
f 14//14 168//168 232//232
f 168//168 45//45 234//234
f 232//232 234//234 65//65
f 168//168 234//234 232//232
f 45//45 167//167 229//229
f 167//167 3//3 227//227
f 229//229 227//227 63//63
f 167//167 227//227 229//229
f 65//65 235//235 233//233
f 235//235 63//63 228//228
f 233//233 228//228 20//20
f 235//235 228//228 233//233
f 45//45 229//229 234//234
f 229//229 63//63 235//235
f 234//234 235//235 65//65
f 229//229 235//235 234//234
f 21//21 248//248 240//240
f 248//248 69//69 251//251
f 240//240 251//251 67//67
f 248//248 251//251 240//240
f 69//69 247//247 249//249
f 247//247 20//20 231//231
f 249//249 231//231 64//64
f 247//247 231//231 249//249
f 67//67 241//241 239//239
f 241//241 64//64 230//230
f 239//239 230//230 7//7
f 241//241 230//230 239//239
f 69//69 249//249 251//251
f 249//249 64//64 241//241
f 251//251 241//241 67//67
f 249//249 241//241 251//251
f 14//14 232//232 242//242
f 232//232 65//65 245//245
f 242//242 245//245 68//68
f 232//232 245//245 242//242
f 65//65 233//233 250//250
f 233//233 20//20 247//247
f 250//250 247//247 69//69
f 233//233 247//247 250//250
f 68//68 252//252 243//243
f 252//252 69//69 248//248
f 243//243 248//248 21//21
f 252//252 248//248 243//243
f 65//65 250//250 245//245
f 250//250 69//69 252//252
f 245//245 252//252 68//68
f 250//250 252//252 245//245
f 4//4 236//236 292//292
f 236//236 66//66 294//294
f 292//292 294//294 82//82
f 236//236 294//294 292//292
f 66//66 237//237 299//299
f 237//237 21//21 297//297
f 299//299 297//297 84//84
f 237//237 297//297 299//299
f 82//82 300//300 293//293
f 300//300 84//84 298//298
f 293//293 298//298 26//26
f 300//300 298//298 293//293
f 66//66 299//299 294//294
f 299//299 84//84 300//300
f 294//294 300//300 82//82
f 299//299 300//300 294//294
f 21//21 240//240 308//308
f 240//240 67//67 310//310
f 308//308 310//310 87//87
f 240//240 310//310 308//308
f 67//67 239//239 303//303
f 239//239 7//7 301//301
f 303//303 301//301 85//85
f 239//239 301//301 303//303
f 87//87 312//312 309//309
f 312//312 85//85 302//302
f 309//309 302//302 27//27
f 312//312 302//302 309//309
f 67//67 303//303 310//310
f 303//303 85//85 312//312
f 310//310 312//312 87//87
f 303//303 312//312 310//310
f 26//26 317//317 296//296
f 317//317 89//89 319//319
f 296//296 319//319 83//83
f 317//317 319//319 296//296
f 89//89 318//318 321//321
f 318//318 27//27 306//306
f 321//321 306//306 86//86
f 318//318 306//306 321//321
f 83//83 307//307 295//295
f 307//307 86//86 305//305
f 295//295 305//305 9//9
f 307//307 305//305 295//295
f 89//89 321//321 319//319
f 321//321 86//86 307//307
f 319//319 307//307 83//83
f 321//321 307//307 319//319
f 21//21 308//308 297//297
f 308//308 87//87 311//311
f 297//297 311//311 84//84
f 308//308 311//311 297//297
f 87//87 309//309 322//322
f 309//309 27//27 318//318
f 322//322 318//318 89//89
f 309//309 318//318 322//322
f 84//84 320//320 298//298
f 320//320 89//89 317//317
f 298//298 317//317 26//26
f 320//320 317//317 298//298
f 87//87 322//322 311//311
f 322//322 89//89 320//320
f 311//311 320//320 84//84
f 322//322 320//320 311//311
f 4//4 292//292 367//367
f 292//292 82//82 370//370
f 367//367 370//370 100//100
f 292//292 370//370 367//367
f 82//82 293//293 379//379
f 293//293 26//26 377//377
f 379//379 377//377 103//103
f 293//293 377//377 379//379
f 100//100 380//380 368//368
f 380//380 103//103 378//378
f 368//368 378//378 30//30
f 380//380 378//378 368//368
f 82//82 379//379 370//370
f 379//379 103//103 380//380
f 370//370 380//380 100//100
f 379//379 380//380 370//370
f 26//26 296//296 446//446
f 296//296 83//83 448//448
f 446//446 448//448 118//118
f 296//296 448//448 446//446
f 83//83 295//295 436//436
f 295//295 9//9 433//433
f 436//436 433//433 115//115
f 295//295 433//433 436//436
f 118//118 450//450 447//447
f 450//450 115//115 434//434
f 447//447 434//434 33//33
f 450//450 434//434 447//447
f 83//83 436//436 448//448
f 436//436 115//115 450//450
f 448//448 450//450 118//118
f 436//436 450//450 448//448
f 30//30 457//457 372//372
f 457//457 120//120 459//459
f 372//372 459//459 101//101
f 457//457 459//459 372//372
f 120//120 458//458 461//461
f 458//458 33//33 438//438
f 461//461 438//438 116//116
f 458//458 438//438 461//461
f 101//101 440//440 371//371
f 440//440 116//116 437//437
f 371//371 437//437 10//10
f 440//440 437//437 371//371
f 120//120 461//461 459//459
f 461//461 116//116 440//440
f 459//459 440//440 101//101
f 461//461 440//440 459//459
f 26//26 446//446 377//377
f 446//446 118//118 449//449
f 377//377 449//449 103//103
f 446//446 449//449 377//377
f 118//118 447//447 462//462
f 447//447 33//33 458//458
f 462//462 458//458 120//120
f 447//447 458//458 462//462
f 103//103 460//460 378//378
f 460//460 120//120 457//457
f 378//378 457//457 30//30
f 460//460 457//457 378//378
f 118//118 462//462 449//449
f 462//462 120//120 460//460
f 449//449 460//460 103//103
f 462//462 460//460 449//449
f 5//5 381//381 223//223
f 381//381 104//104 384//384
f 223//223 384//384 61//61
f 381//381 384//384 223//223
f 104//104 382//382 396//396
f 382//382 31//31 394//394
f 396//396 394//394 107//107
f 382//382 394//394 396//396
f 61//61 395//395 224//224
f 395//395 107//107 393//393
f 224//224 393//393 19//19
f 395//395 393//393 224//224
f 104//104 396//396 384//384
f 396//396 107//107 395//395
f 384//384 395//395 61//61
f 396//396 395//395 384//384
f 31//31 386//386 427//427
f 386//386 105//105 429//429
f 427//427 429//429 114//114
f 386//386 429//429 427//427
f 105//105 385//385 410//410
f 385//385 10//10 407//407
f 410//410 407//407 110//110
f 385//385 407//407 410//410
f 114//114 431//431 428//428
f 431//431 110//110 408//408
f 428//428 408//408 32//32
f 431//431 408//408 428//428
f 105//105 410//410 429//429
f 410//410 110//110 431//431
f 429//429 431//431 114//114
f 410//410 431//431 429//429
f 19//19 416//416 226//226
f 416//416 112//112 418//418
f 226//226 418//418 62//62
f 416//416 418//418 226//226
f 112//112 417//417 420//420
f 417//417 32//32 404//404
f 420//420 404//404 109//109
f 417//417 404//404 420//420
f 62//62 406//406 225//225
f 406//406 109//109 403//403
f 225//225 403//403 6//6
f 406//406 403//403 225//225
f 112//112 420//420 418//418
f 420//420 109//109 406//406
f 418//418 406//406 62//62
f 420//420 406//406 418//418
f 31//31 427//427 394//394
f 427//427 114//114 430//430
f 394//394 430//430 107//107
f 427//427 430//430 394//394
f 114//114 428//428 432//432
f 428//428 32//32 417//417
f 432//432 417//417 112//112
f 428//428 417//417 432//432
f 107//107 419//419 393//393
f 419//419 112//112 416//416
f 393//393 416//416 19//19
f 419//419 416//416 393//393
f 114//114 432//432 430//430
f 432//432 112//112 419//419
f 430//430 419//419 107//107
f 432//432 419//419 430//430
f 3//3 171//171 547//547
f 171//171 47//47 549//549
f 547//547 549//549 142//142
f 171//171 549//549 547//547
f 47//47 172//172 555//555
f 172//172 15//15 553//553
f 555//555 553//553 144//144
f 172//172 553//553 555//555
f 142//142 556//556 548//548
f 556//556 144//144 554//554
f 548//548 554//554 39//39
f 556//556 554//554 548//548
f 47//47 555//555 549//549
f 555//555 144//144 556//556
f 549//549 556//556 142//142
f 555//555 556//556 549//549
f 15//15 175//175 568//568
f 175//175 48//48 570//570
f 568//568 570//570 148//148
f 175//175 570//570 568//568
f 48//48 174//174 563//563
f 174//174 5//5 561//561
f 563//563 561//561 146//146
f 174//174 561//561 563//563
f 148//148 572//572 569//569
f 572//572 146//146 562//562
f 569//569 562//562 40//40
f 572//572 562//562 569//569
f 48//48 563//563 570//570
f 563//563 146//146 572//572
f 570//570 572//572 148//148
f 563//563 572//572 570//570
f 39//39 577//577 552//552
f 577//577 150//150 579//579
f 552//552 579//579 143//143
f 577//577 579//579 552//552
f 150//150 578//578 581//581
f 578//578 40//40 566//566
f 581//581 566//566 147//147
f 578//578 566//566 581//581
f 143//143 567//567 551//551
f 567//567 147//147 565//565
f 551//551 565//565 12//12
f 567//567 565//565 551//551
f 150//150 581//581 579//579
f 581//581 147//147 567//567
f 579//579 567//567 143//143
f 581//581 567//567 579//579
f 15//15 568//568 553//553
f 568//568 148//148 571//571
f 553//553 571//571 144//144
f 568//568 571//571 553//553
f 148//148 569//569 582//582
f 569//569 40//40 578//578
f 582//582 578//578 150//150
f 569//569 578//578 582//582
f 144//144 580//580 554//554
f 580//580 150//150 577//577
f 554//554 577//577 39//39
f 580//580 577//577 554//554
f 148//148 582//582 571//571
f 582//582 150//150 580//580
f 571//571 580//580 144//144
f 582//582 580//580 571//571
f 7//7 230//230 481//481
f 230//230 64//64 483//483
f 481//481 483//483 127//127
f 230//230 483//483 481//481
f 64//64 231//231 490//490
f 231//231 20//20 488//488
f 490//490 488//488 129//129
f 231//231 488//488 490//490
f 127//127 492//492 482//482
f 492//492 129//129 489//489
f 482//482 489//489 36//36
f 492//492 489//489 482//482
f 64//64 490//490 483//483
f 490//490 129//129 492//492
f 483//483 492//492 127//127
f 490//490 492//492 483//483
f 20//20 228//228 477//477
f 228//228 63//63 479//479
f 477//477 479//479 126//126
f 228//228 479//479 477//477
f 63//63 227//227 474//474
f 227//227 3//3 472//472
f 474//474 472//472 124//124
f 227//227 472//472 474//474
f 126//126 480//480 478//478
f 480//480 124//124 473//473
f 478//478 473//473 35//35
f 480//480 473//473 478//478
f 63//63 474//474 479//479
f 474//474 124//124 480//480
f 479//479 480//480 126//126
f 474//474 480//480 479//479
f 36//36 498//498 486//486
f 498//498 131//131 501//501
f 486//486 501//501 128//128
f 498//498 501//501 486//486
f 131//131 497//497 499//499
f 497//497 35//35 476//476
f 499//499 476//476 125//125
f 497//497 476//476 499//499
f 128//128 487//487 485//485
f 487//487 125//125 475//475
f 485//485 475//475 11//11
f 487//487 475//475 485//485
f 131//131 499//499 501//501
f 499//499 125//125 487//487
f 501//501 487//487 128//128
f 499//499 487//487 501//501
f 20//20 477//477 488//488
f 477//477 126//126 491//491
f 488//488 491//491 129//129
f 477//477 491//491 488//488
f 126//126 478//478 500//500
f 478//478 35//35 497//497
f 500//500 497//497 131//131
f 478//478 497//497 500//500
f 129//129 502//502 489//489
f 502//502 131//131 498//498
f 489//489 498//498 36//36
f 502//502 498//498 489//489
f 126//126 500//500 491//491
f 500//500 131//131 502//502
f 491//491 502//502 129//129
f 500//500 502//502 491//491
f 9//9 305//305 327//327
f 305//305 86//86 330//330
f 327//327 330//330 91//91
f 305//305 330//330 327//327
f 86//86 306//306 349//349
f 306//306 27//27 347//347
f 349//349 347//347 95//95
f 306//306 347//347 349//349
f 91//91 351//351 328//328
f 351//351 95//95 348//348
f 328//328 348//348 28//28
f 351//351 348//348 328//328
f 86//86 349//349 330//330
f 349//349 95//95 351//351
f 330//330 351//351 91//91
f 349//349 351//351 330//330
f 27//27 302//302 314//314
f 302//302 85//85 316//316
f 314//314 316//316 88//88
f 302//302 316//316 314//314
f 85//85 301//301 304//304
f 301//301 7//7 279//279
f 304//304 279//279 77//77
f 301//301 279//279 304//304
f 88//88 315//315 313//313
f 315//315 77//77 280//280
f 313//313 280//280 24//24
f 315//315 280//280 313//313
f 85//85 304//304 316//316
f 304//304 77//77 315//315
f 316//316 315//315 88//88
f 304//304 315//315 316//316
f 28//28 337//337 324//324
f 337//337 93//93 340//340
f 324//324 340//340 90//90
f 337//337 340//340 324//324
f 93//93 336//336 338//338
f 336//336 24//24 282//282
f 338//338 282//282 78//78
f 336//336 282//282 338//338
f 90//90 326//326 323//323
f 326//326 78//78 281//281
f 323//323 281//281 8//8
f 326//326 281//281 323//323
f 93//93 338//338 340//340
f 338//338 78//78 326//326
f 340//340 326//326 90//90
f 338//338 326//326 340//340
f 27//27 314//314 347//347
f 314//314 88//88 350//350
f 347//347 350//350 95//95
f 314//314 350//350 347//347
f 88//88 313//313 339//339
f 313//313 24//24 336//336
f 339//339 336//336 93//93
f 313//313 336//336 339//339
f 95//95 352//352 348//348
f 352//352 93//93 337//337
f 348//348 337//337 28//28
f 352//352 337//337 348//348
f 88//88 339//339 350//350
f 339//339 93//93 352//352
f 350//350 352//352 95//95
f 339//339 352//352 350//350
f 10//10 437//437 357//357
f 437//437 116//116 439//439
f 357//357 439//439 97//97
f 437//437 439//439 357//357
f 116//116 438//438 455//455
f 438//438 33//33 452//452
f 455//455 452//452 119//119
f 438//438 452//452 455//455
f 97//97 453//453 358//358
f 453//453 119//119 451//451
f 358//358 451//451 29//29
f 453//453 451//451 358//358
f 116//116 455//455 439//439
f 455//455 119//119 453//453
f 439//439 453//453 97//97
f 455//455 453//453 439//439
f 33//33 434//434 442//442
f 434//434 115//115 445//445
f 442//442 445//445 117//117
f 434//434 445//445 442//442
f 115//115 433//433 435//435
f 433//433 9//9 286//286
f 435//435 286//286 80//80
f 433//433 286//286 435//435
f 117//117 443//443 441//441
f 443//443 80//80 287//287
f 441//441 287//287 25//25
f 443//443 287//287 441//441
f 115//115 435//435 445//445
f 435//435 80//80 443//443
f 445//445 443//443 117//117
f 435//435 443//443 445//445
f 29//29 364//364 354//354
f 364//364 99//99 366//366
f 354//354 366//366 96//96
f 364//364 366//366 354//354
f 99//99 363//363 365//365
f 363//363 25//25 284//284
f 365//365 284//284 79//79
f 363//363 284//284 365//365
f 96//96 356//356 353//353
f 356//356 79//79 283//283
f 353//353 283//283 2//2
f 356//356 283//283 353//353
f 99//99 365//365 366//366
f 365//365 79//79 356//356
f 366//366 356//356 96//96
f 365//365 356//356 366//366
f 33//33 442//442 452//452
f 442//442 117//117 456//456
f 452//452 456//456 119//119
f 442//442 456//456 452//452
f 117//117 441//441 444//444
f 441//441 25//25 363//363
f 444//444 363//363 99//99
f 441//441 363//363 444//444
f 119//119 454//454 451//451
f 454//454 99//99 364//364
f 451//451 364//364 29//29
f 454//454 364//364 451//451
f 117//117 444//444 456//456
f 444//444 99//99 454//454
f 456//456 454//454 119//119
f 444//444 454//454 456//456

