# https://github.com/mikedh/trimesh
v -0.63004448 0.22185129 0.03704230
v -0.51672118 -0.16635022 0.39098978
v 0.51672118 0.16635022 -0.39098978
v 0.63004448 -0.22185129 -0.03704230
v 0.20335475 -0.27646330 -0.56914229
v -0.54847783 -0.24007619 -0.28851957
v 0.54847783 0.24007619 0.28851957
v -0.20335475 0.27646330 0.56914229
v 0.21285715 -0.27775154 0.60629283
v -0.11361723 -0.65495630 -0.21947315
v 0.11361723 0.65495630 0.21947315
v -0.21285715 0.27775154 -0.60629283
v -0.58391909 0.12424047 0.27442603
v 0.58391909 -0.12424047 -0.27442603
v 0.34607186 -0.07411983 -0.56353430
v 0.38668681 -0.45053843 -0.33097205
v -0.61901045 0.01641147 -0.24187567
v -0.62640422 -0.23236414 0.03721213
v -0.12743067 -0.32527221 -0.57768433
v 0.62640422 0.23236414 -0.03721213
v 0.61901045 -0.01641147 0.24187567
v -0.38668681 0.45053843 0.33097205
v -0.34607186 0.07411983 0.56353430
v 0.12743067 0.32527221 0.57768433
v -0.26671160 -0.41827922 0.48134769
v 0.47980115 -0.45440888 0.20271065
v 0.44949772 -0.03971135 0.50346693
v -0.01211092 -0.01737048 0.67576308
v -0.37378450 -0.54199003 0.21052347
v 0.37272821 -0.57811971 -0.06811359
v 0.06540243 -0.48349066 -0.46804214
v -0.39620620 -0.46114974 -0.29574602
v 0.03695778 -0.68835073 0.18827120
v -0.37272821 0.57811971 0.06811359
v 0.37378450 0.54199003 -0.21052347
v 0.39620620 0.46114974 0.29574602
v -0.06540243 0.48349066 0.46804214
v -0.47980115 0.45440888 -0.20271065
v 0.26671160 0.41827922 -0.48134769
v 0.01211092 0.01737048 -0.67576308
v -0.44949772 0.03971135 -0.50346693
v -0.03695778 0.68835073 -0.18827120
v -0.34372637 -0.33587932 -0.47050661
v 0.34372637 0.33587932 0.47050661
v -0.04152829 -0.37096951 0.58940687
v -0.23005635 -0.17292128 0.61341227
v 0.38516855 -0.39162077 0.43014160
v 0.55939894 -0.21112929 0.31874683
v 0.23802906 0.07462896 0.62804065
v -0.27529182 -0.64105725 -0.00186156
v -0.48695471 -0.46973874 -0.03637213
v -0.19671897 -0.61128769 0.29480434
v 0.15140503 -0.66170847 -0.16112683
v 0.28427591 -0.62825075 0.17458986
v 0.03573419 -0.57549786 0.41936791
v -0.15140503 0.66170847 0.16112683
v 0.27529182 0.64105725 0.00186156
v 0.48695471 0.46973874 0.03637213
v -0.38516855 0.39162077 -0.43014160
v -0.55939894 0.21112929 -0.31874683
v -0.28427591 0.62825075 -0.17458986
v 0.04152829 0.37096951 -0.58940687
v 0.23005635 0.17292128 -0.61341227
v 0.19671897 0.61128769 -0.29480434
v -0.23802906 -0.07462896 -0.62804065
v -0.03573419 0.57549786 -0.41936791
vn -0.95064646 0.29917687 0.08224670
vn -0.79946032 -0.22749689 0.55597515
vn 0.79946032 0.22749689 -0.55597515
vn 0.95064646 -0.29917687 -0.08224670
vn 0.31893815 -0.39536136 -0.86137556
vn -0.83981624 -0.33444710 -0.42761410
vn 0.83981624 0.33444710 0.42761410
vn -0.31893815 0.39536136 0.86137556
vn 0.31543472 -0.34601465 0.88361462
vn -0.18348526 -0.90916448 -0.37383566
vn 0.18348526 0.90916448 0.37383566
vn -0.31543472 0.34601465 -0.88361462
vn -0.88528598 0.17513168 0.43081043
vn 0.88528598 -0.17513168 -0.43081043
vn 0.55531580 -0.13858713 -0.82001096
vn 0.60963778 -0.60039567 -0.51755852
vn -0.95025139 -0.01418617 -0.31116082
vn -0.95125425 -0.29753690 0.08116120
vn -0.16778749 -0.48895537 -0.85601986
vn 0.95125425 0.29753690 -0.08116120
vn 0.95025139 0.01418617 0.31116082
vn -0.60963778 0.60039567 0.51755852
vn -0.55531580 0.13858713 0.82001096
vn 0.16778749 0.48895537 0.85601986
vn -0.46851351 -0.54893199 0.69222016
vn 0.76302095 -0.60307684 0.23258839
vn 0.68313471 -0.00717414 0.73025714
vn -0.04450250 0.02743542 0.99863248
vn -0.64690511 -0.69549321 0.31273467
vn 0.61634677 -0.77337643 -0.14834269
vn 0.09570788 -0.70176334 -0.70595199
vn -0.58640484 -0.67165938 -0.45277261
vn 0.03648440 -0.97791160 0.20581008
vn -0.61634677 0.77337643 0.14834269
vn 0.64690511 0.69549321 -0.31273467
vn 0.58640484 0.67165938 0.45277261
vn -0.09570788 0.70176334 0.70595199
vn -0.76302095 0.60307684 -0.23258839
vn 0.46851351 0.54893199 -0.69222016
vn 0.04450250 -0.02743542 -0.99863248
vn -0.68313471 0.00717414 -0.73025714
vn -0.03648440 0.97791160 -0.20581008
vn -0.51588402 -0.48930049 -0.70317047
vn 0.51588402 0.48930049 0.70317047
vn -0.07718406 -0.47932833 0.87423508
vn -0.38558159 -0.19697507 0.90140316
vn 0.56946238 -0.53234730 0.62635369
vn 0.85878930 -0.26992849 0.43545326
vn 0.35771522 0.13411143 0.92415039
vn -0.41987726 -0.90665290 -0.04103169
vn -0.76696951 -0.63856476 -0.06318881
vn -0.32208545 -0.84848134 0.41992902
vn 0.22527441 -0.93261458 -0.28192462
vn 0.43237685 -0.86912886 0.24013597
vn 0.07395572 -0.77655097 0.62569893
vn -0.22527441 0.93261458 0.28192462
vn 0.41987726 0.90665290 0.04103169
vn 0.76696951 0.63856476 0.06318881
vn -0.56946238 0.53234730 -0.62635369
vn -0.85878930 0.26992849 -0.43545326
vn -0.43237685 0.86912886 -0.24013597
vn 0.07718406 0.47932833 -0.87423508
vn 0.38558159 0.19697507 -0.90140316
vn 0.32208545 0.84848134 -0.41992902
vn -0.35771522 -0.13411143 -0.92415039
vn -0.07395572 0.77655097 -0.62569893
f 1//1 60//60 17//17
f 38//38 60//60 1//1
f 59//59 12//12 41//41
f 17//17 41//41 6//6
f 60//60 41//41 17//17
f 38//38 59//59 60//60
f 59//59 41//41 60//60
f 17//17 6//6 18//18
f 13//13 18//18 2//2
f 17//17 18//18 1//1
f 1//1 18//18 13//13
f 1//1 13//13 22//22
f 22//22 23//23 8//8
f 13//13 23//23 22//22
f 2//2 23//23 13//13
f 1//1 22//22 34//34
f 8//8 37//37 22//22
f 56//56 37//37 11//11
f 22//22 37//37 56//56
f 22//22 56//56 34//34
f 1//1 34//34 38//38
f 34//34 61//61 38//38
f 34//34 56//56 61//61
f 56//56 11//11 42//42
f 56//56 42//42 61//61
f 38//38 61//61 59//59
f 61//61 42//42 66//66
f 59//59 66//66 12//12
f 61//61 66//66 59//59
f 2//2 18//18 29//29
f 18//18 51//51 29//29
f 18//18 6//6 51//51
f 6//6 32//32 51//51
f 50//50 32//32 10//10
f 51//51 32//32 50//50
f 51//51 50//50 29//29
f 6//6 41//41 43//43
f 43//43 65//65 19//19
f 41//41 65//65 43//43
f 19//19 40//40 5//5
f 65//65 40//40 19//19
f 41//41 12//12 65//65
f 12//12 40//40 65//65
f 12//12 66//66 62//62
f 62//62 66//66 39//39
f 42//42 11//11 57//57
f 64//64 57//57 35//35
f 42//42 57//57 64//64
f 39//39 35//35 3//3
f 64//64 35//35 39//39
f 42//42 64//64 66//66
f 66//66 64//64 39//39
f 37//37 8//8 24//24
f 36//36 44//44 7//7
f 37//37 24//24 11//11
f 11//11 44//44 36//36
f 24//24 44//44 11//11
f 8//8 23//23 28//28
f 23//23 46//46 28//28
f 23//23 2//2 46//46
f 2//2 25//25 46//46
f 28//28 45//45 9//9
f 46//46 25//25 45//45
f 46//46 45//45 28//28
f 4//4 30//30 16//16
f 53//53 10//10 31//31
f 16//16 31//31 5//5
f 30//30 53//53 16//16
f 53//53 31//31 16//16
f 16//16 14//14 4//4
f 16//16 5//5 15//15
f 16//16 15//15 14//14
f 15//15 3//3 14//14
f 14//14 3//3 20//20
f 20//20 7//7 21//21
f 14//14 20//20 4//4
f 4//4 20//20 21//21
f 4//4 21//21 48//48
f 4//4 48//48 26//26
f 21//21 7//7 27//27
f 21//21 27//27 48//48
f 47//47 27//27 9//9
f 48//48 27//27 47//47
f 48//48 47//47 26//26
f 4//4 26//26 30//30
f 26//26 54//54 30//30
f 26//26 47//47 54//54
f 47//47 9//9 55//55
f 54//54 55//55 33//33
f 47//47 55//55 54//54
f 30//30 54//54 53//53
f 53//53 33//33 10//10
f 54//54 33//33 53//53
f 5//5 31//31 19//19
f 43//43 32//32 6//6
f 31//31 10//10 19//19
f 10//10 32//32 43//43
f 10//10 43//43 19//19
f 3//3 15//15 63//63
f 3//3 63//63 39//39
f 15//15 5//5 40//40
f 15//15 40//40 63//63
f 62//62 40//40 12//12
f 63//63 40//40 62//62
f 63//63 62//62 39//39
f 7//7 20//20 58//58
f 7//7 58//58 36//36
f 20//20 3//3 35//35
f 20//20 35//35 58//58
f 36//36 57//57 11//11
f 58//58 35//35 57//57
f 58//58 57//57 36//36
f 27//27 7//7 44//44
f 49//49 44//44 24//24
f 27//27 44//44 49//49
f 28//28 24//24 8//8
f 49//49 24//24 28//28
f 27//27 49//49 9//9
f 9//9 49//49 28//28
f 10//10 33//33 50//50
f 50//50 52//52 29//29
f 33//33 52//52 50//50
f 55//55 9//9 45//45
f 55//55 45//45 25//25
f 29//29 25//25 2//2
f 52//52 25//25 29//29
f 33//33 55//55 52//52
f 55//55 25//25 52//52

