# https://github.com/mikedh/trimesh
v 0.87914776 -0.91811899 -0.28848343
v 0.16604078 -0.31201103 -1.25464956
v -0.16604078 0.31201103 1.25464956
v -0.87914776 0.91811899 0.28848343
v -1.05512526 -0.48984022 0.35839411
v -0.40385235 -1.04690983 -0.47176494
v 0.40385235 1.04690983 0.47176494
v 1.05512526 0.48984022 -0.35839411
v -0.03056168 0.88379863 -0.82596058
v -0.87920264 -0.11139816 -0.82391631
v 0.87920264 0.11139816 0.82391631
v 0.03056168 -0.88379863 0.82596058
v 0.68318916 -0.58461571 -0.99079143
v -0.68318916 0.58461571 0.99079143
v -0.82377702 -0.15861991 0.97104646
v -1.17603501 0.14078307 0.49378324
v 0.32379444 -1.14020109 -0.49173033
v -0.02846347 -0.84079808 -0.96899355
v -0.88923334 -0.78633631 0.04823729
v 0.02846347 0.84079808 0.96899355
v -0.32379444 1.14020109 0.49173033
v 1.17603501 -0.14078307 -0.49378324
v 0.82377702 0.15861991 -0.97104646
v 0.88923334 0.78633631 -0.04823729
v 0.10947594 0.32749214 -1.20459227
v -0.70377949 1.02311432 -0.16795872
v 0.04422404 1.18144343 -0.23313925
v 0.44295470 0.84038717 -0.74138978
v -0.30852842 -0.16269940 -1.20358536
v -1.12178386 0.53292279 -0.16695176
v -1.12577653 -0.28852623 -0.31168468
v -0.83875127 -0.53403470 -0.67754762
v -0.69758228 0.48306635 -0.87142096
v 1.12178386 -0.53292279 0.16695176
v 0.30852842 0.16269940 1.20358536
v 0.83875127 0.53403470 0.67754762
v 1.12577653 0.28852623 0.31168468
v 0.70377949 -1.02311432 0.16795872
v -0.10947594 -0.32749214 1.20459227
v -0.44295470 -0.84038717 0.74138978
v -0.04422404 -1.18144343 0.23313925
v 0.69758228 -0.48306635 0.87142096
v 0.84932486 -0.72574529 -0.72770814
v 0.42436272 -0.43623455 -1.17740787
v -0.42436272 0.43623455 1.17740787
v -0.84932486 0.72574529 0.72770814
v -0.59029153 -0.06457172 1.15457563
v -0.92098606 -0.38204862 0.75651675
v -0.86234232 0.21753472 0.97669817
v -1.16862968 0.42698895 0.37100347
v -1.16196834 -0.17722481 0.43001747
v -0.98324123 0.35368713 0.81553077
v -1.07297232 0.10222563 0.72233315
v 0.60548527 -1.08738548 -0.36964695
v 0.00768749 -1.17639428 -0.42723701
v 0.50422157 -0.95136267 -0.76522194
v 0.02714712 -0.59582481 -1.15321911
v -0.23329473 -0.97157048 -0.75373634
v 0.40234415 -0.83148042 -0.95063550
v 0.26897670 -1.04506718 -0.72039641
v -0.84150991 -0.81114372 0.23272138
v -0.57988885 -1.03463981 -0.10618734
v -0.02714712 0.59582481 1.15321911
v 0.23329473 0.97157048 0.75373634
v -0.40234415 0.83148042 0.95063550
v -0.60548527 1.08738548 0.36964695
v -0.00768749 1.17639428 0.42723701
v -0.50422157 0.95136267 0.76522194
v -0.26897670 1.04506718 0.72039641
v 1.16862968 -0.42698895 -0.37100347
v 1.16196834 0.17722481 -0.43001747
v 0.98324123 -0.35368713 -0.81553077
v 0.59029153 0.06457172 -1.15457563
v 0.92098606 0.38204862 -0.75651675
v 0.86234232 -0.21753472 -0.97669817
v 1.07297232 -0.10222563 -0.72233315
v 0.57988885 1.03463981 0.10618734
v 0.84150991 0.81114372 -0.23272138
v 0.21566277 -0.00306305 -1.26733364
v -0.07301698 0.58572259 -1.07857046
v 0.42138650 0.37381813 -1.12608171
v -0.91179653 0.89727295 0.05418882
v -0.55019522 0.99387948 -0.47032486
v -0.49448437 1.15721293 0.04135285
v 0.22086222 1.18722209 0.02976208
v -0.06726004 1.07149567 -0.54393083
v -0.28703731 1.20621486 0.21845838
v 0.50810902 1.05945095 -0.16236002
v -0.27430692 1.19715966 -0.10620742
v 0.71696887 0.76287473 -0.60261097
v 0.13192079 0.97007651 -0.69611579
v 0.66471610 0.39212773 -0.99471460
v 0.58863131 0.94975113 -0.40634646
v 0.41864806 0.60443705 -0.98949746
v 0.35206848 1.07681289 -0.36531119
v 0.01186517 -0.13237293 -1.27347741
v -0.59208908 -0.02299057 -1.07732011
v -0.30484013 -0.47782406 -1.12433237
v -0.20248431 0.23526526 -1.20469082
v -1.05813962 0.71912935 0.12588832
v -1.06926733 0.38516632 -0.46907456
v -1.22071099 0.30557073 0.04310214
v -0.87693239 0.81215787 -0.34499101
v -1.13736184 -0.40556013 0.03303378
v -1.06976772 -0.10413991 -0.54151595
v -1.23596742 0.09340947 0.22074416
v -0.96620798 -0.66947281 -0.15880857
v -1.22567341 0.08149718 -0.10391570
v -0.64125519 -0.82990752 -0.59933921
v -0.93846590 -0.28516024 -0.69353739
v -0.28421402 -0.72067765 -0.99242878
v -0.84566029 -0.73223532 -0.40289153
v -0.53271836 -0.51122547 -0.98720578
v -1.00841358 -0.51861732 -0.36203400
v -0.54709307 0.74316269 -0.79693080
v -0.83793903 0.17062271 -0.86152318
v -0.36522679 0.42992831 -1.08847895
v -0.75521675 0.76350816 -0.59136987
v -0.44950170 0.19502983 -1.12924558
v -0.93996222 0.61454775 -0.50406950
v 1.05813962 -0.71912935 -0.12588832
v 1.06926733 -0.38516632 0.46907456
v 1.22071099 -0.30557073 -0.04310214
v -0.01186517 0.13237293 1.27347741
v 0.59208908 0.02299057 1.07732011
v 0.30484013 0.47782406 1.12433237
v 0.64125519 0.82990752 0.59933921
v 0.93846590 0.28516024 0.69353739
v 0.28421402 0.72067765 0.99242878
v 0.84566029 0.73223532 0.40289153
v 0.53271836 0.51122547 0.98720578
v 1.13736184 0.40556013 -0.03303378
v 1.06976772 0.10413991 0.54151595
v 1.23596742 -0.09340947 -0.22074416
v 0.96620798 0.66947281 0.15880857
v 1.22567341 -0.08149718 0.10391570
v 1.00841358 0.51861732 0.36203400
v 0.91179653 -0.89727295 -0.05418882
v 0.55019522 -0.99387948 0.47032486
v 0.49448437 -1.15721293 -0.04135285
v 0.87693239 -0.81215787 0.34499101
v -0.21566277 0.00306305 1.26733364
v 0.07301698 -0.58572259 1.07857046
v -0.42138650 -0.37381813 1.12608171
v 0.20248431 -0.23526526 1.20469082
v -0.71696887 -0.76287473 0.60261097
v -0.13192079 -0.97007651 0.69611579
v -0.66471610 -0.39212773 0.99471460
v -0.58863131 -0.94975113 0.40634646
v -0.41864806 -0.60443705 0.98949746
v -0.22086222 -1.18722209 -0.02976208
v 0.06726004 -1.07149567 0.54393083
v 0.28703731 -1.20621486 -0.21845838
v -0.50810902 -1.05945095 0.16236002
v 0.27430692 -1.19715966 0.10620742
v -0.35206848 -1.07681289 0.36531119
v 0.83793903 -0.17062271 0.86152318
v 0.54709307 -0.74316269 0.79693080
v 0.93996222 -0.61454775 0.50406950
v 0.44950170 -0.19502983 1.12924558
v 0.75521675 -0.76350816 0.59136987
v 0.36522679 -0.42992831 1.08847895
v 0.87073601 -0.84560378 -0.52003416
v -0.87073601 0.84560378 0.52003416
v -0.39457953 0.07802449 1.23745317
v -0.54390113 0.26221057 1.17108193
v -0.72487041 0.40832763 1.04205614
v -0.74135796 0.12613209 1.07808924
v -1.07791786 0.65883036 0.31161964
v -1.00476299 0.65392184 0.54667473
v -1.08128930 -0.11245661 0.65861826
v -0.91593865 0.57072682 0.78318378
v -1.08542161 0.41857026 0.61192827
v -0.95414078 -0.06570364 0.86384663
v 0.70666370 -0.81614236 -0.78267978
v 0.58353906 -1.00712533 -0.61071933
v 0.05843359 -1.08704093 -0.65615440
v 0.51559550 -0.65374323 -1.04155203
v 0.23947540 -0.71468717 -1.07688028
v 0.08409717 -0.95459194 -0.86175083
v -0.51559550 0.65374323 1.04155203
v -0.23947540 0.71468717 1.07688028
v -0.05843359 1.08704093 0.65615440
v -0.70666370 0.81614236 0.78267978
v -0.58353906 1.00712533 0.61071933
v -0.08409717 0.95459194 0.86175083
v 1.07791786 -0.65883036 -0.31161964
v 1.00476299 -0.65392184 -0.54667473
v 0.91593865 -0.57072682 -0.78318378
v 1.08542161 -0.41857026 -0.61192827
v 0.39457953 -0.07802449 -1.23745317
v 0.54390113 -0.26221057 -1.17108193
v 1.08128930 0.11245661 -0.65861826
v 0.72487041 -0.40832763 -1.04205614
v 0.74135796 -0.12613209 -1.07808924
v 0.95414078 0.06570364 -0.86384663
v 0.29912792 0.26824489 -1.20090445
v -0.32461059 1.00786810 -0.60043395
v -0.65453225 1.08396301 0.01469907
v 0.29449596 1.14168109 0.28220340
v -0.03084320 1.22301013 0.09282058
v -0.42445708 1.11787307 -0.28962095
v -0.14766521 1.17942760 -0.25525489
v 0.91525468 0.61071194 -0.50906006
v 0.68138401 0.61380292 -0.81503530
v 0.17824696 0.60234711 -1.05787064
v 0.34758178 0.75581552 -0.88653219
v 0.17255221 1.11791076 -0.38758178
v 0.34512835 0.97029689 -0.60755967
v -0.22005800 -0.34060174 -1.19965381
v -0.01988668 0.19737026 -1.24112692
v -0.20055055 -0.01449325 -1.24069172
v -1.04770806 0.15989540 -0.59869219
v -1.17371819 0.47511635 0.01594963
v -0.85012893 0.90752222 -0.18284079
v -1.03079277 0.69565870 -0.18240554
v -1.21233501 -0.16251914 0.09566656
v -1.17147413 0.24185007 -0.28782153
v -1.18846044 -0.04110756 -0.25274787
v -0.50010775 -0.77172637 -0.81218926
v -0.73067139 -0.89918543 -0.25585326
v -0.56877010 -0.27367591 -1.05607120
v -0.69321347 -0.46471960 -0.88402505
v -0.24973332 0.81018667 -0.86608744
v -0.41830459 0.58512700 -0.98326151
v -0.64585358 0.31828147 -0.98271338
v -0.84519663 0.48879063 -0.72861643
v 1.04770806 -0.15989540 0.59869219
v 1.17371819 -0.47511635 -0.01594963
v 0.22005800 0.34060174 1.19965381
v 0.50010775 0.77172637 0.81218926
v 0.73067139 0.89918543 0.25585326
v 0.56877010 0.27367591 1.05607120
v 0.69321347 0.46471960 0.88402505
v 1.21233501 0.16251914 -0.09566656
v 1.17147413 -0.24185007 0.28782153
v 1.18846044 0.04110756 0.25274787
v 0.32461059 -1.00786810 0.60043395
v 0.65453225 -1.08396301 -0.01469907
v 1.03079277 -0.69565870 0.18240554
v 0.85012893 -0.90752222 0.18284079
v -0.29912792 -0.26824489 1.20090445
v 0.20055055 0.01449325 1.24069172
v 0.01988668 -0.19737026 1.24112692
v -0.91525468 -0.61071194 0.50906006
v -0.68138401 -0.61380292 0.81503530
v -0.17824696 -0.60234711 1.05787064
v -0.34758178 -0.75581552 0.88653219
v -0.29449596 -1.14168109 -0.28220340
v 0.03084320 -1.22301013 -0.09282058
v 0.42445708 -1.11787307 0.28962095
v 0.14766521 -1.17942760 0.25525489
v -0.34512835 -0.97029689 0.60755967
v -0.17255221 -1.11791076 0.38758178
v 0.24973332 -0.81018667 0.86608744
v 0.84519663 -0.48879063 0.72861643
v 0.64585358 -0.31828147 0.98271338
v 0.41830459 -0.58512700 0.98326151
vn 0.66404133 -0.73444748 -0.14012856
vn 0.05231163 -0.21490226 -0.97523357
vn -0.05231163 0.21490226 0.97523357
vn -0.66404133 0.73444748 0.14012856
vn -0.85278657 -0.46887446 0.23002566
vn -0.40572626 -0.84990232 -0.33623243
vn 0.40572626 0.84990232 0.33623243
vn 0.85278657 0.46887446 -0.23002566
vn -0.00884968 0.74426870 -0.66782167
vn -0.73675476 -0.10515091 -0.66793391
vn 0.73675476 0.10515091 0.66793391
vn 0.00884968 -0.74426870 0.66782167
vn 0.51089929 -0.43696839 -0.74029760
vn -0.51089929 0.43696839 0.74029760
vn -0.63771622 -0.23396812 0.73387801
vn -0.94876930 0.02619025 0.31488235
vn 0.17510193 -0.93346591 -0.31301870
vn -0.13177684 -0.66841235 -0.73202445
vn -0.73825281 -0.67426774 0.01859559
vn 0.13177684 0.66841235 0.73202445
vn -0.17510193 0.93346591 0.31301870
vn 0.94876930 -0.02619025 -0.31488235
vn 0.63771622 0.23396812 -0.73387801
vn 0.73825281 0.67426774 -0.01859559
vn 0.03776543 0.34986145 -0.93603992
vn -0.51617001 0.82516890 -0.22948812
vn 0.10261767 0.97084325 -0.21664026
vn 0.37308100 0.73997520 -0.55968498
vn -0.34297164 -0.09493823 -0.93453581
vn -0.89654732 0.38006345 -0.22749655
vn -0.91621122 -0.29066876 -0.27580549
vn -0.72778884 -0.45273709 -0.51512380
vn -0.57257504 0.40308706 -0.71391781
vn 0.89654732 -0.38006345 0.22749655
vn 0.34297164 0.09493823 0.93453581
vn 0.72778884 0.45273709 0.51512380
vn 0.91621122 0.29066876 0.27580549
vn 0.51617001 -0.82516890 0.22948812
vn -0.03776543 -0.34986145 0.93603992
vn -0.37308100 -0.73997520 0.55968498
vn -0.10261767 -0.97084325 0.21664026
vn 0.57257504 -0.40308706 0.71391781
vn 0.65144285 -0.55693304 -0.51521627
vn 0.25975186 -0.30628744 -0.91581492
vn -0.25975186 0.30628744 0.91581492
vn -0.65144285 0.55693304 0.51521627
vn -0.43399625 -0.15625043 0.88726155
vn -0.73675608 -0.41263979 0.53564810
vn -0.68452698 0.08192458 0.72436950
vn -0.94040959 0.27417748 0.20113806
vn -0.92886553 -0.25049389 0.27287661
vn -0.77606169 0.20537029 0.59628122
vn -0.85866273 -0.00070030 0.51254055
vn 0.42865356 -0.88098475 -0.20030475
vn -0.10144895 -0.95713492 -0.27129478
vn 0.32328823 -0.76914844 -0.55126708
vn -0.07743835 -0.44714686 -0.89110212
vn -0.29285519 -0.79341522 -0.53359921
vn 0.23675321 -0.66937621 -0.70418989
vn 0.13170503 -0.84959916 -0.51072013
vn -0.68348905 -0.70907431 0.17336767
vn -0.51652859 -0.85419612 -0.05955842
vn 0.07743835 0.44714686 0.89110212
vn 0.29285519 0.79341522 0.53359921
vn -0.23675321 0.66937621 0.70418989
vn -0.42865356 0.88098475 0.20030475
vn 0.10144895 0.95713492 0.27129478
vn -0.32328823 0.76914844 0.55126708
vn -0.13170503 0.84959916 0.51072013
vn 0.94040959 -0.27417748 -0.20113806
vn 0.92886553 0.25049389 -0.27287661
vn 0.77606169 -0.20537029 -0.59628122
vn 0.43399625 0.15625043 -0.88726155
vn 0.73675608 0.41263979 -0.53564810
vn 0.68452698 -0.08192458 -0.72436950
vn 0.85866273 0.00070030 -0.51254055
vn 0.51652859 0.85419612 0.05955842
vn 0.68348905 0.70907431 -0.17336767
vn 0.10708652 0.08166613 -0.99089007
vn -0.08767319 0.52458279 -0.84683311
vn 0.31131776 0.39439990 -0.86459815
vn -0.69826328 0.71366573 -0.05576389
vn -0.42696015 0.79432014 -0.43215802
vn -0.32986808 0.94284148 -0.04729679
vn 0.25063152 0.96777636 -0.02434653
vn -0.02237952 0.89268589 -0.45012338
vn -0.15090381 0.98340005 0.10075901
vn 0.45412994 0.88117138 -0.13154086
vn -0.15030969 0.97874847 -0.13949347
vn 0.57756128 0.68588271 -0.44270518
vn 0.13063160 0.82140522 -0.55518362
vn 0.51676874 0.41230294 -0.75030417
vn 0.49978381 0.80674769 -0.31523690
vn 0.33215605 0.56606892 -0.75447885
vn 0.31936795 0.90341220 -0.28609528
vn -0.07765804 -0.05416851 -0.99550741
vn -0.53801883 -0.00401008 -0.84292328
vn -0.34202088 -0.37176692 -0.86302438
vn -0.21372165 0.25610478 -0.94272658
vn -0.84054276 0.54173772 -0.00284666
vn -0.85546838 0.28751713 -0.43070610
vn -0.98320673 0.17667465 -0.04572303
vn -0.67187922 0.64799217 -0.35872617
vn -0.91442941 -0.40450197 -0.01403593
vn -0.88416375 -0.12267824 -0.45078211
vn -0.99468424 -0.00609686 0.10279152
vn -0.80789445 -0.57521260 -0.12820694
vn -0.99048452 -0.00652018 -0.13746962
vn -0.58003906 -0.68466117 -0.44135447
vn -0.79812050 -0.26873981 -0.53924259
vn -0.32701168 -0.57719398 -0.74827166
vn -0.72293042 -0.61526474 -0.31435791
vn -0.50801876 -0.41919973 -0.75245499
vn -0.84190349 -0.44262605 -0.30867570
vn -0.43771242 0.61560681 -0.65531373
vn -0.70416143 0.13312744 -0.69744804
vn -0.32160051 0.38353882 -0.86571998
vn -0.58475270 0.61529236 -0.52865830
vn -0.41254892 0.17507784 -0.89395254
vn -0.75648278 0.46926342 -0.45554983
vn 0.84054276 -0.54173772 0.00284666
vn 0.85546838 -0.28751713 0.43070610
vn 0.98320673 -0.17667465 0.04572303
vn 0.07765804 0.05416851 0.99550741
vn 0.53801883 0.00401008 0.84292328
vn 0.34202088 0.37176692 0.86302438
vn 0.58003906 0.68466117 0.44135447
vn 0.79812050 0.26873981 0.53924259
vn 0.32701168 0.57719398 0.74827166
vn 0.72293042 0.61526474 0.31435791
vn 0.50801876 0.41919973 0.75245499
vn 0.91442941 0.40450197 0.01403593
vn 0.88416375 0.12267824 0.45078211
vn 0.99468424 0.00609686 -0.10279152
vn 0.80789445 0.57521260 0.12820694
vn 0.99048452 0.00652018 0.13746962
vn 0.84190349 0.44262605 0.30867570
vn 0.69826328 -0.71366573 0.05576389
vn 0.42696015 -0.79432014 0.43215802
vn 0.32986808 -0.94284148 0.04729679
vn 0.67187922 -0.64799217 0.35872617
vn -0.10708652 -0.08166613 0.99089007
vn 0.08767319 -0.52458279 0.84683311
vn -0.31131776 -0.39439990 0.86459815
vn 0.21372165 -0.25610478 0.94272658
vn -0.57756128 -0.68588271 0.44270518
vn -0.13063160 -0.82140522 0.55518362
vn -0.51676874 -0.41230294 0.75030417
vn -0.49978381 -0.80674769 0.31523690
vn -0.33215605 -0.56606892 0.75447885
vn -0.25063152 -0.96777636 0.02434653
vn 0.02237952 -0.89268589 0.45012338
vn 0.15090381 -0.98340005 -0.10075901
vn -0.45412994 -0.88117138 0.13154086
vn 0.15030969 -0.97874847 0.13949347
vn -0.31936795 -0.90341220 0.28609528
vn 0.70416143 -0.13312744 0.69744804
vn 0.43771242 -0.61560681 0.65531373
vn 0.75648278 -0.46926342 0.45554983
vn 0.41254892 -0.17507784 0.89395254
vn 0.58475270 -0.61529236 0.52865830
vn 0.32160051 -0.38353882 0.86571998
vn 0.66048520 -0.67539726 -0.32802110
vn -0.66048520 0.67539726 0.32802110
vn -0.26278603 -0.01067091 0.96479513
vn -0.38674288 0.13314667 0.91252502
vn -0.54632286 0.26647704 0.79405372
vn -0.56336415 0.00306444 0.82620303
vn -0.85563717 0.49165831 0.16173170
vn -0.80161431 0.48519691 0.34928277
vn -0.86618360 -0.21425767 0.45146386
vn -0.71174464 0.40599725 0.57322405
vn -0.87285876 0.26627396 0.40892024
vn -0.75513058 -0.14992146 0.63820167
vn 0.51072935 -0.64425500 -0.56928993
vn 0.41239096 -0.81887384 -0.39922342
vn -0.07564958 -0.89022517 -0.44919515
vn 0.34660841 -0.49780087 -0.79502006
vn 0.09537710 -0.55289441 -0.82777472
vn -0.02807533 -0.76998619 -0.63744258
vn -0.34660841 0.49780087 0.79502006
vn -0.09537710 0.55289441 0.82777472
vn 0.07564958 0.89022517 0.44919515
vn -0.51072935 0.64425500 0.56928993
vn -0.41239096 0.81887384 0.39922342
vn 0.02807533 0.76998619 0.63744258
vn 0.85563717 -0.49165831 -0.16173170
vn 0.80161431 -0.48519691 -0.34928277
vn 0.71174464 -0.40599725 -0.57322405
vn 0.87285876 -0.26627396 -0.40892024
vn 0.26278603 0.01067091 -0.96479513
vn 0.38674288 -0.13314667 -0.91252502
vn 0.86618360 0.21425767 -0.45146386
vn 0.54632286 -0.26647704 -0.79405372
vn 0.56336415 -0.00306444 -0.82620303
vn 0.75513058 0.14992146 -0.63820167
vn 0.19711495 0.29175129 -0.93596308
vn -0.22696706 0.82625445 -0.51554781
vn -0.48581369 0.87160878 -0.06544612
vn 0.30743655 0.93518742 0.17580459
vn 0.05350405 0.99844457 0.01567666
vn -0.28902469 0.91149130 -0.29265736
vn -0.06273583 0.96194678 -0.26593723
vn 0.73468287 0.56889568 -0.36959273
vn 0.54241971 0.58024804 -0.60753031
vn 0.11934231 0.56136770 -0.81891618
vn 0.26067774 0.68425603 -0.68105858
vn 0.17390603 0.92918340 -0.32615166
vn 0.30488252 0.82717163 -0.47205269
vn -0.25352216 -0.24320749 -0.93625671
vn -0.06663713 0.22304025 -0.97252894
vn -0.24006246 0.03844695 -0.96999580
vn -0.85189162 0.09453779 -0.51511482
vn -0.93850544 0.33839630 -0.06852355
vn -0.65058345 0.72257918 -0.23371031
vn -0.81547629 0.53070844 -0.23096961
vn -0.97695523 -0.21310430 0.01204341
vn -0.94629579 0.14071291 -0.29107415
vn -0.96159537 -0.09724071 -0.25666825
vn -0.49428214 -0.62596120 -0.60320622
vn -0.63021791 -0.75283351 -0.18991338
vn -0.53712597 -0.20846923 -0.81733486
vn -0.63532716 -0.37583124 -0.67461861
vn -0.20434409 0.68044367 -0.70373283
vn -0.35201543 0.50284732 -0.78944899
vn -0.54909527 0.26486285 -0.79268030
vn -0.69146838 0.37708194 -0.61618235
vn 0.85189162 -0.09453779 0.51511482
vn 0.93850544 -0.33839630 0.06852355
vn 0.25352216 0.24320749 0.93625671
vn 0.49428214 0.62596120 0.60320622
vn 0.63021791 0.75283351 0.18991338
vn 0.53712597 0.20846923 0.81733486
vn 0.63532716 0.37583124 0.67461861
vn 0.97695523 0.21310430 -0.01204341
vn 0.94629579 -0.14071291 0.29107415
vn 0.96159537 0.09724071 0.25666825
vn 0.22696706 -0.82625445 0.51554781
vn 0.48581369 -0.87160878 0.06544612
vn 0.81547629 -0.53070844 0.23096961
vn 0.65058345 -0.72257918 0.23371031
vn -0.19711495 -0.29175129 0.93596308
vn 0.24006246 -0.03844695 0.96999580
vn 0.06663713 -0.22304025 0.97252894
vn -0.73468287 -0.56889568 0.36959273
vn -0.54241971 -0.58024804 0.60753031
vn -0.11934231 -0.56136770 0.81891618
vn -0.26067774 -0.68425603 0.68105858
vn -0.30743655 -0.93518742 -0.17580459
vn -0.05350405 -0.99844457 -0.01567666
vn 0.28902469 -0.91149130 0.29265736
vn 0.06273583 -0.96194678 0.26593723
vn -0.30488252 -0.82717163 0.47205269
vn -0.17390603 -0.92918340 0.32615166
vn 0.20434409 -0.68044367 0.70373283
vn 0.69146838 -0.37708194 0.61618235
vn 0.54909527 -0.26486285 0.79268030
vn 0.35201543 -0.50284732 0.78944899
f 138//138 38//38 239//239
f 138//138 239//239 1//1
f 239//239 140//140 54//54
f 239//239 54//54 1//1
f 38//38 139//139 251//251
f 238//238 12//12 152//152
f 252//252 152//152 41//41
f 139//139 238//238 251//251
f 238//238 152//152 252//252
f 251//251 252//252 155//155
f 238//238 252//252 251//251
f 153//153 55//55 17//17
f 250//250 41//41 151//151
f 55//55 151//151 249//249
f 55//55 249//249 6//6
f 153//153 250//250 55//55
f 250//250 151//151 55//55
f 38//38 251//251 239//239
f 251//251 155//155 140//140
f 251//251 140//140 239//239
f 252//252 41//41 250//250
f 155//155 250//250 153//153
f 252//252 250//250 155//155
f 140//140 153//153 54//54
f 54//54 153//153 17//17
f 155//155 153//153 140//140
f 1//1 54//54 163//163
f 54//54 17//17 176//176
f 43//43 175//175 13//13
f 54//54 176//176 163//163
f 176//176 56//56 175//175
f 163//163 175//175 43//43
f 176//176 175//175 163//163
f 17//17 55//55 177//177
f 17//17 177//177 60//60
f 55//55 6//6 58//58
f 55//55 58//58 177//177
f 180//180 58//58 18//18
f 177//177 58//58 180//180
f 177//177 180//180 60//60
f 13//13 178//178 44//44
f 179//179 18//18 57//57
f 44//44 57//57 2//2
f 59//59 179//179 178//178
f 179//179 57//57 44//44
f 179//179 44//44 178//178
f 17//17 60//60 176//176
f 60//60 56//56 176//176
f 60//60 180//180 59//59
f 180//180 18//18 179//179
f 180//180 179//179 59//59
f 56//56 59//59 175//175
f 175//175 178//178 13//13
f 59//59 178//178 175//175
f 60//60 59//59 56//56
f 1//1 163//163 187//187
f 163//163 43//43 188//188
f 187//187 188//188 70//70
f 163//163 188//188 187//187
f 43//43 13//13 189//189
f 70//70 190//190 22//22
f 43//43 189//189 188//188
f 189//189 72//72 190//190
f 188//188 190//190 70//70
f 189//189 190//190 188//188
f 13//13 44//44 194//194
f 44//44 2//2 191//191
f 192//192 191//191 73//73
f 44//44 191//191 192//192
f 195//195 73//73 23//23
f 44//44 192//192 194//194
f 192//192 73//73 195//195
f 194//194 195//195 75//75
f 192//192 195//195 194//194
f 22//22 193//193 71//71
f 76//76 193//193 22//22
f 196//196 23//23 74//74
f 71//71 74//74 8//8
f 193//193 74//74 71//71
f 76//76 196//196 193//193
f 196//196 74//74 193//193
f 13//13 194//194 189//189
f 194//194 75//75 72//72
f 194//194 72//72 189//189
f 195//195 23//23 196//196
f 75//75 196//196 76//76
f 195//195 196//196 75//75
f 190//190 76//76 22//22
f 72//72 76//76 190//190
f 75//75 76//76 72//72
f 1//1 187//187 121//121
f 121//121 229//229 34//34
f 70//70 123//123 229//229
f 187//187 229//229 121//121
f 70//70 229//229 187//187
f 22//22 71//71 134//134
f 71//71 8//8 132//132
f 235//235 132//132 37//37
f 71//71 132//132 235//235
f 71//71 235//235 134//134
f 34//34 236//236 122//122
f 237//237 37//37 133//133
f 228//228 133//133 11//11
f 136//136 237//237 236//236
f 237//237 133//133 228//228
f 236//236 228//228 122//122
f 237//237 228//228 236//236
f 22//22 134//134 70//70
f 70//70 134//134 123//123
f 134//134 235//235 136//136
f 235//235 37//37 237//237
f 235//235 237//237 136//136
f 123//123 136//136 236//236
f 229//229 236//236 34//34
f 123//123 236//236 229//229
f 136//136 123//123 134//134
f 121//121 138//138 1//1
f 121//121 34//34 240//240
f 138//138 241//241 38//38
f 121//121 240//240 138//138
f 240//240 141//141 241//241
f 240//240 241//241 138//138
f 228//228 11//11 157//157
f 256//256 157//157 42//42
f 228//228 157//157 256//256
f 122//122 256//256 159//159
f 228//228 256//256 122//122
f 238//238 158//158 255//255
f 238//238 255//255 12//12
f 161//161 158//158 139//139
f 158//158 238//238 139//139
f 34//34 122//122 240//240
f 240//240 159//159 141//141
f 122//122 159//159 240//240
f 159//159 256//256 161//161
f 256//256 42//42 158//158
f 256//256 158//158 161//161
f 141//141 161//161 139//139
f 241//241 139//139 38//38
f 141//141 139//139 241//241
f 161//161 141//141 159//159
f 96//96 210//210 29//29
f 57//57 98//98 210//210
f 2//2 210//210 96//96
f 57//57 210//210 2//2
f 18//18 58//58 111//111
f 58//58 6//6 109//109
f 220//220 109//109 32//32
f 58//58 109//109 220//220
f 58//58 220//220 111//111
f 29//29 222//222 97//97
f 223//223 32//32 110//110
f 113//113 223//223 222//222
f 223//223 110//110 10//10
f 222//222 10//10 97//97
f 223//223 10//10 222//222
f 18//18 111//111 57//57
f 57//57 111//111 98//98
f 111//111 220//220 113//113
f 220//220 32//32 223//223
f 220//220 223//223 113//113
f 98//98 113//113 222//222
f 210//210 222//222 29//29
f 98//98 222//222 210//210
f 113//113 98//98 111//111
f 6//6 249//249 62//62
f 151//151 154//154 62//62
f 151//151 62//62 249//249
f 41//41 152//152 254//254
f 152//152 12//12 147//147
f 253//253 147//147 40//40
f 152//152 147//147 254//254
f 254//254 253//253 156//156
f 147//147 253//253 254//254
f 61//61 245//245 5//5
f 149//149 146//146 61//61
f 146//146 245//245 61//61
f 41//41 254//254 151//151
f 151//151 156//156 154//154
f 254//254 156//156 151//151
f 156//156 253//253 149//149
f 253//253 40//40 146//146
f 253//253 146//146 149//149
f 154//154 149//149 61//61
f 62//62 61//61 19//19
f 154//154 61//61 62//62
f 149//149 154//154 156//156
f 12//12 255//255 143//143
f 158//158 42//42 258//258
f 158//158 258//258 255//255
f 258//258 162//162 143//143
f 258//258 143//143 255//255
f 42//42 157//157 257//257
f 157//157 11//11 125//125
f 257//257 125//125 160//160
f 157//157 125//125 257//257
f 39//39 244//244 142//142
f 243//243 35//35 124//124
f 124//124 3//3 142//142
f 145//145 243//243 244//244
f 244//244 124//124 142//142
f 243//243 124//124 244//244
f 42//42 257//257 258//258
f 257//257 160//160 162//162
f 257//257 162//162 258//258
f 125//125 35//35 243//243
f 160//160 243//243 145//145
f 125//125 243//243 160//160
f 162//162 145//145 143//143
f 143//143 244//244 39//39
f 145//145 244//244 143//143
f 160//160 145//145 162//162
f 133//133 128//128 11//11
f 133//133 37//37 128//128
f 37//37 137//137 36//36
f 37//37 36//36 128//128
f 8//8 78//78 24//24
f 132//132 24//24 135//135
f 8//8 24//24 132//132
f 232//232 24//24 77//77
f 130//130 232//232 127//127
f 232//232 77//77 7//7
f 232//232 7//7 127//127
f 132//132 135//135 137//137
f 132//132 137//137 37//37
f 135//135 232//232 130//130
f 24//24 232//232 135//135
f 137//137 130//130 36//36
f 130//130 127//127 36//36
f 135//135 130//130 137//137
f 8//8 74//74 204//204
f 204//204 74//74 90//90
f 23//23 92//92 74//74
f 90//90 205//205 28//28
f 74//74 92//92 205//205
f 74//74 205//205 90//90
f 191//191 2//2 79//79
f 197//197 79//79 25//25
f 191//191 79//79 197//197
f 73//73 197//197 81//81
f 191//191 197//197 73//73
f 28//28 207//207 91//91
f 206//206 25//25 80//80
f 94//94 206//206 207//207
f 206//206 80//80 9//9
f 207//207 9//9 91//91
f 206//206 9//9 207//207
f 23//23 73//73 92//92
f 73//73 81//81 92//92
f 197//197 25//25 206//206
f 81//81 206//206 94//94
f 197//197 206//206 81//81
f 92//92 94//94 205//205
f 205//205 207//207 28//28
f 94//94 207//207 205//205
f 81//81 94//94 92//92
f 4//4 100//100 169//169
f 100//100 30//30 214//214
f 100//100 214//214 169//169
f 214//214 102//102 50//50
f 214//214 50//50 169//169
f 30//30 101//101 218//218
f 213//213 10//10 105//105
f 219//219 105//105 31//31
f 101//101 213//213 218//218
f 213//213 105//105 219//219
f 218//218 219//219 108//108
f 213//213 219//219 218//218
f 106//106 51//51 16//16
f 217//217 31//31 104//104
f 51//51 104//104 5//5
f 106//106 217//217 51//51
f 217//217 104//104 51//51
f 30//30 218//218 214//214
f 218//218 108//108 102//102
f 218//218 102//102 214//214
f 219//219 31//31 217//217
f 108//108 217//217 106//106
f 219//219 217//217 108//108
f 102//102 106//106 50//50
f 50//50 106//106 16//16
f 108//108 106//106 102//102
f 4//4 169//169 164//164
f 169//169 50//50 170//170
f 164//164 170//170 46//46
f 169//169 170//170 164//164
f 50//50 16//16 173//173
f 46//46 172//172 14//14
f 50//50 173//173 170//170
f 173//173 52//52 172//172
f 170//170 172//172 46//46
f 173//173 172//172 170//170
f 16//16 51//51 171//171
f 16//16 171//171 53//53
f 51//51 5//5 48//48
f 51//51 48//48 171//171
f 174//174 48//48 15//15
f 171//171 48//48 174//174
f 171//171 174//174 53//53
f 14//14 167//167 45//45
f 168//168 15//15 47//47
f 166//166 47//47 165//165
f 45//45 165//165 3//3
f 166//166 165//165 45//45
f 49//49 168//168 167//167
f 168//168 47//47 166//166
f 167//167 166//166 45//45
f 168//168 166//166 167//167
f 16//16 53//53 173//173
f 53//53 52//52 173//173
f 53//53 174//174 49//49
f 174//174 15//15 168//168
f 174//174 168//168 49//49
f 52//52 49//49 167//167
f 172//172 167//167 14//14
f 52//52 167//167 172//172
f 53//53 49//49 52//52
f 4//4 164//164 66//66
f 46//46 14//14 184//184
f 66//66 185//185 21//21
f 46//46 184//184 164//164
f 184//184 68//68 185//185
f 164//164 185//185 66//66
f 184//184 185//185 164//164
f 14//14 45//45 181//181
f 45//45 3//3 63//63
f 182//182 63//63 20//20
f 45//45 63//63 182//182
f 181//181 182//182 65//65
f 45//45 182//182 181//181
f 21//21 183//183 67//67
f 69//69 183//183 21//21
f 186//186 20//20 64//64
f 67//67 64//64 7//7
f 183//183 64//64 67//67
f 69//69 186//186 183//183
f 186//186 64//64 183//183
f 14//14 181//181 184//184
f 184//184 65//65 68//68
f 181//181 65//65 184//184
f 182//182 20//20 186//186
f 65//65 186//186 69//69
f 182//182 186//186 65//65
f 185//185 69//69 21//21
f 68//68 69//69 185//185
f 65//65 69//69 68//68
f 82//82 199//199 26//26
f 66//66 84//84 199//199
f 4//4 199//199 82//82
f 66//66 199//199 4//4
f 21//21 67//67 87//87
f 67//67 7//7 200//200
f 67//67 200//200 85//85
f 201//201 85//85 27//27
f 67//67 85//85 201//201
f 67//67 201//201 87//87
f 26//26 202//202 83//83
f 203//203 27//27 86//86
f 198//198 86//86 9//9
f 89//89 203//203 202//202
f 203//203 86//86 198//198
f 202//202 198//198 83//83
f 203//203 198//198 202//202
f 21//21 87//87 66//66
f 66//66 87//87 84//84
f 87//87 201//201 89//89
f 201//201 27//27 203//203
f 201//201 203//203 89//89
f 84//84 89//89 202//202
f 199//199 202//202 26//26
f 84//84 202//202 199//199
f 89//89 84//84 87//87
f 4//4 82//82 100//100
f 82//82 26//26 215//215
f 100//100 216//216 30//30
f 215//215 103//103 216//216
f 82//82 216//216 100//100
f 215//215 216//216 82//82
f 198//198 9//9 224//224
f 198//198 224//224 115//115
f 83//83 115//115 118//118
f 198//198 115//115 83//83
f 227//227 33//33 116//116
f 213//213 116//116 10//10
f 120//120 227//227 101//101
f 227//227 116//116 213//213
f 227//227 213//213 101//101
f 26//26 83//83 215//215
f 83//83 118//118 103//103
f 83//83 103//103 215//215
f 115//115 33//33 227//227
f 118//118 227//227 120//120
f 115//115 227//227 118//118
f 103//103 120//120 216//216
f 216//216 101//101 30//30
f 120//120 101//101 216//216
f 118//118 120//120 103//103
f 104//104 107//107 19//19
f 5//5 19//19 61//61
f 104//104 19//19 5//5
f 105//105 10//10 110//110
f 105//105 110//110 31//31
f 31//31 32//32 114//114
f 110//110 32//32 31//31
f 19//19 221//221 62//62
f 112//112 109//109 221//221
f 221//221 6//6 62//62
f 109//109 6//6 221//221
f 104//104 114//114 107//107
f 31//31 114//114 104//104
f 114//114 32//32 112//112
f 32//32 109//109 112//112
f 107//107 112//112 221//221
f 107//107 221//221 19//19
f 112//112 107//107 114//114
f 3//3 165//165 142//142
f 142//142 242//242 39//39
f 47//47 144//144 242//242
f 165//165 242//242 142//142
f 47//47 242//242 165//165
f 15//15 48//48 148//148
f 48//48 5//5 245//245
f 48//48 245//245 146//146
f 246//246 146//146 40//40
f 48//48 146//146 246//246
f 48//48 246//246 148//148
f 39//39 247//247 143//143
f 248//248 40//40 147//147
f 150//150 248//248 247//247
f 248//248 147//147 12//12
f 247//247 12//12 143//143
f 248//248 12//12 247//247
f 15//15 148//148 47//47
f 47//47 148//148 144//144
f 148//148 246//246 150//150
f 246//246 40//40 248//248
f 246//246 248//248 150//150
f 144//144 150//150 247//247
f 242//242 247//247 39//39
f 144//144 247//247 242//242
f 150//150 144//144 148//148
f 7//7 64//64 127//127
f 20//20 129//129 64//64
f 127//127 231//231 36//36
f 64//64 129//129 231//231
f 64//64 231//231 127//127
f 230//230 124//124 35//35
f 3//3 124//124 230//230
f 63//63 230//230 126//126
f 3//3 230//230 63//63
f 36//36 234//234 128//128
f 233//233 35//35 125//125
f 131//131 233//233 234//234
f 233//233 125//125 11//11
f 234//234 11//11 128//128
f 233//233 11//11 234//234
f 20//20 63//63 129//129
f 63//63 126//126 129//129
f 230//230 35//35 233//233
f 126//126 233//233 131//131
f 230//230 233//233 126//126
f 129//129 131//131 231//231
f 231//231 234//234 36//36
f 131//131 234//234 231//231
f 126//126 131//131 129//129
f 86//86 91//91 9//9
f 86//86 27//27 208//208
f 91//91 209//209 28//28
f 86//86 208//208 91//91
f 208//208 95//95 209//209
f 208//208 209//209 91//91
f 200//200 7//7 77//77
f 85//85 77//77 88//88
f 200//200 77//77 85//85
f 204//204 78//78 8//8
f 93//93 78//78 90//90
f 78//78 204//204 90//90
f 27//27 85//85 208//208
f 85//85 88//88 95//95
f 85//85 95//95 208//208
f 77//77 24//24 78//78
f 88//88 78//78 93//93
f 77//77 78//78 88//88
f 95//95 93//93 209//209
f 209//209 90//90 28//28
f 93//93 90//90 209//209
f 88//88 93//93 95//95
f 10//10 116//116 97//97
f 116//116 33//33 226//226
f 226//226 119//119 97//97
f 226//226 97//97 116//116
f 33//33 115//115 225//225
f 224//224 9//9 80//80
f 115//115 224//224 225//225
f 225//225 80//80 117//117
f 224//224 80//80 225//225
f 29//29 212//212 96//96
f 211//211 25//25 79//79
f 96//96 79//79 2//2
f 99//99 211//211 212//212
f 211//211 79//79 96//96
f 211//211 96//96 212//212
f 33//33 225//225 226//226
f 226//226 117//117 119//119
f 225//225 117//117 226//226
f 117//117 80//80 99//99
f 80//80 25//25 211//211
f 80//80 211//211 99//99
f 119//119 99//99 212//212
f 97//97 212//212 29//29
f 119//119 212//212 97//97
f 99//99 119//119 117//117

