# https://github.com/mikedh/trimesh

o sphere_simple_0000.obj
v -0.21351584 -0.93647376 0.89216550
v -0.83593008 -0.95135048 -0.33865112
v 0.83593008 0.95135048 0.33865112
v 0.21351584 0.93647376 -0.89216550
v -0.51786031 1.17429927 0.24768427
v -1.16645356 0.00755972 0.58977497
v 1.16645356 -0.00755972 -0.58977497
v 0.51786031 -1.17429927 -0.24768427
v 0.01693791 -0.37725003 -1.25454070
v -1.02402530 0.35317900 -0.73696243
v 1.02402530 -0.35317900 0.73696243
v -0.01693791 0.37725003 1.25454070
v -0.61684884 -1.10963525 0.32534759
v 0.61684884 1.10963525 -0.32534759
v 0.18695672 1.24942557 0.34463929
v -0.17888919 1.24068126 -0.37881657
v -0.81112566 -0.54600197 0.87106275
v -1.17697157 -0.55474629 0.14760690
v -0.99001485 0.69467928 0.49224619
v 1.17697157 0.55474629 -0.14760690
v 0.81112566 0.54600197 -0.87106275
v 0.17888919 -1.24068126 0.37881657
v -0.18695672 -1.24942557 -0.34463929
v 0.99001485 -0.69467928 -0.49224619
v -0.48139152 -0.78093178 -0.93645466
v 0.13545732 0.32870346 -1.26180225
v 0.69558005 -0.22618550 -1.08406155
v 0.31434651 -0.91197779 -0.88298568
v -1.09325434 -0.35159637 -0.63222978
v -0.47640551 0.75803887 -0.95757737
v -0.90629762 0.89782920 -0.28759049
v -1.28753117 0.21203690 -0.08651462
v -0.59195112 -0.01414860 -1.17057617
v 0.47640551 -0.75803887 0.95757737
v 1.09325434 0.35159637 0.63222978
v 1.28753117 -0.21203690 0.08651462
v 0.90629762 -0.89782920 0.28759049
v -0.13545732 -0.32870346 1.26180225
v 0.48139152 0.78093178 0.93645466
v -0.31434651 0.91197779 0.88298568
v -0.69558005 0.22618550 1.08406155
v 0.59195112 0.01414860 1.17057617
v -0.43161013 -1.06353437 0.63284362
v -0.75513098 -1.07126705 -0.00691496
v 0.75513098 1.07126705 0.00691496
v 0.43161013 1.06353437 -0.63284362
v 0.53168001 1.14392780 0.35516330
v -0.17199833 1.25981297 0.30788021
v 0.42258559 1.24023167 0.01014225
v 0.01799837 1.13164997 -0.66063592
v -0.36215912 1.25526782 -0.06816045
v 0.23024901 1.23563451 -0.37020101
v 0.00424135 1.30912663 -0.01796806
v -0.53259208 -0.77056691 0.91649753
v -1.02791369 -0.27987357 0.75931982
v -0.75073062 -0.87042000 0.62899014
v -1.04627372 -0.78284474 -0.09930170
v -1.21807448 -0.28441873 0.38327917
v -0.94306720 -0.87501716 0.24864689
v -1.04520457 -0.57869761 0.53554633
v -0.78376912 0.97146482 0.38460388
v -1.12089740 0.36501248 0.56241710
v 1.04627372 0.78284474 0.09930170
v 1.21807448 0.28441873 -0.38327917
v 0.94306720 0.87501716 -0.24864689
v 0.53259208 0.77056691 -0.91649753
v 1.02791369 0.27987357 -0.75931982
v 0.75073062 0.87042000 -0.62899014
v 1.04520457 0.57869761 -0.53554633
v -0.01799837 -1.13164997 0.66063592
v 0.36215912 -1.25526782 0.06816045
v -0.23024901 -1.23563451 0.37020101
v -0.53168001 -1.14392780 -0.35516330
v 0.17199833 -1.25981297 -0.30788021
v -0.42258559 -1.24023167 -0.01014225
v -0.00424135 -1.30912663 0.01796806
v 1.12089740 -0.36501248 -0.56241710
v 0.78376912 -0.97146482 -0.38460388
v -0.68472246 -0.90041230 -0.66277936
v -0.24141547 -0.60200417 -1.13884395
v -0.35137146 -1.06742203 -0.67351095
v 0.18139061 0.65761866 -1.11959760
v 0.07921258 -0.02523372 -1.30795437
v 0.49764812 0.45985986 -1.12131349
v 0.96785495 -0.12149698 -0.87003315
v 0.37035532 -0.31365603 -1.21556763
v 0.79212207 0.16813747 -1.02786968
v 0.88616968 -0.48412727 -0.82871402
v 0.43690220 0.05389689 -1.23329358
v 0.43256764 -1.08441307 -0.58770395
v 0.17219628 -0.67011977 -1.11105164
v 0.06697277 -1.13631700 -0.64540064
v 0.68574335 -0.84466961 -0.72300218
v -0.08782076 -0.89001523 -0.95653639
v 0.53094981 -0.59836785 -1.03413793
v -1.00275886 -0.67725070 -0.50464819
v -1.10052772 0.00082262 -0.71168397
v -1.19352839 -0.47649254 -0.25478133
v -0.82784032 -0.59540529 -0.82470621
v -0.13664580 0.88078026 -0.96146643
v -0.77989967 0.57759308 -0.88079438
v -0.34450881 1.05078936 -0.70258387
v -0.17924707 0.57133426 -1.16679692
v -0.74025426 1.07705886 -0.02074261
v -1.00335064 0.65025383 -0.53254604
v -0.57051647 1.12428148 -0.35035092
v -0.99695047 0.83723125 0.10759387
v -0.72693005 0.87054136 -0.65462348
v -1.27554157 0.11414277 0.26158659
v -1.20150967 0.29379008 -0.42803005
v -1.29566577 -0.18017299 0.03211811
v -1.19737680 0.47668891 0.21330571
v -1.25165302 -0.07337076 -0.37786629
v -1.15336405 0.58349114 -0.19667869
v -0.29888256 -0.20344267 -1.26053653
v -0.83995841 0.17622252 -0.99150771
v -0.56428962 -0.41799849 -1.10773166
v -0.23999299 0.16537128 -1.27877701
v -0.88596494 -0.19228351 -0.94779118
v -0.56166832 0.39108626 -1.11883653
v 0.13664580 -0.88078026 0.96146643
v 0.77989967 -0.57759308 0.88079438
v 0.34450881 -1.05078936 0.70258387
v 1.00275886 0.67725070 0.50464819
v 1.10052772 -0.00082262 0.71168397
v 1.19352839 0.47649254 0.25478133
v 1.27554157 -0.11414277 -0.26158659
v 1.20150967 -0.29379008 0.42803005
v 1.29566577 0.18017299 -0.03211811
v 1.19737680 -0.47668891 -0.21330571
v 1.25165302 0.07337076 0.37786629
v 0.74025426 -1.07705886 0.02074261
v 1.00335064 -0.65025383 0.53254604
v 0.57051647 -1.12428148 0.35035092
v 0.99695047 -0.83723125 -0.10759387
v 0.72693005 -0.87054136 0.65462348
v 1.15336405 -0.58349114 0.19667869
v -0.18139061 -0.65761866 1.11959760
v -0.07921258 0.02523372 1.30795437
v -0.49764812 -0.45985986 1.12131349
v 0.17924707 -0.57133426 1.16679692
v 0.68472246 0.90041230 0.66277936
v 0.24141547 0.60200417 1.13884395
v 0.35137146 1.06742203 0.67351095
v 0.82784032 0.59540529 0.82470621
v -0.43256764 1.08441307 0.58770395
v -0.17219628 0.67011977 1.11105164
v -0.06697277 1.13631700 0.64540064
v -0.68574335 0.84466961 0.72300218
v 0.08782076 0.89001523 0.95653639
v -0.96785495 0.12149698 0.87003315
v -0.37035532 0.31365603 1.21556763
v -0.79212207 -0.16813747 1.02786968
v -0.88616968 0.48412727 0.82871402
v -0.43690220 -0.05389689 1.23329358
v -0.53094981 0.59836785 1.03413793
v 0.83995841 -0.17622252 0.99150771
v 0.29888256 0.20344267 1.26053653
v 0.56166832 -0.39108626 1.11883653
v 0.88596494 0.19228351 0.94779118
v 0.23999299 -0.16537128 1.27877701
v 0.56428962 0.41799849 1.10773166
vn -0.16338766 -0.71472934 0.68004885
vn -0.63755198 -0.72606264 -0.25760535
vn 0.63755198 0.72606264 0.25760535
vn 0.16338766 0.71472934 -0.68004885
vn -0.39876104 0.89698479 0.19080858
vn -0.89239380 0.00900012 0.45116771
vn 0.89239380 -0.00900012 -0.45116771
vn 0.39876104 -0.89698479 -0.19080858
vn 0.01648373 -0.28974664 -0.95696143
vn -0.78325626 0.27141951 -0.55932198
vn 0.78325626 -0.27141951 0.55932198
vn -0.01648373 0.28974664 0.95696143
vn -0.47066530 -0.84666903 0.24824530
vn 0.47066530 0.84666903 -0.24824530
vn 0.13955577 0.95448226 0.26360540
vn -0.13885669 0.94782775 -0.28695189
vn -0.62139313 -0.41437130 0.66495640
vn -0.89980559 -0.42102581 0.11439910
vn -0.75818922 0.53201055 0.37697996
vn 0.89980559 0.42102581 -0.11439910
vn 0.62139313 0.41437130 -0.66495640
vn 0.13885669 -0.94782775 0.28695189
vn -0.13955577 -0.95448226 -0.26360540
vn 0.75818922 -0.53201055 -0.37697996
vn -0.36505889 -0.59716452 -0.71423143
vn 0.10571624 0.24970207 -0.96253465
vn 0.53445114 -0.17528572 -0.82682338
vn 0.24415077 -0.69750039 -0.67370884
vn -0.83538647 -0.26714239 -0.48037942
vn -0.36461135 0.57972422 -0.72868264
vn -0.69406526 0.68674671 -0.21599162
vn -0.98436563 0.16453203 -0.06287708
vn -0.45124637 -0.01078552 -0.89233423
vn 0.36461135 -0.57972422 0.72868264
vn 0.83538647 0.26714239 0.48037942
vn 0.98436563 -0.16453203 0.06287708
vn 0.69406526 -0.68674671 0.21599162
vn -0.10571624 -0.24970207 0.96253465
vn 0.36505889 0.59716452 0.71423143
vn -0.24415077 0.69750039 0.67370884
vn -0.53445114 0.17528572 0.82682338
vn 0.45124637 0.01078552 0.89233423
vn -0.32841221 -0.81105321 0.48408482
vn -0.57661847 -0.81698575 -0.00674007
vn 0.57661847 0.81698575 0.00674007
vn 0.32841221 0.81105321 -0.48408482
vn 0.40572564 0.87291305 0.27094191
vn -0.13697253 0.96207780 0.23589156
vn 0.31263335 0.94987091 0.00237672
vn 0.01380212 0.86354543 -0.50408213
vn -0.28052507 0.95864666 -0.04798185
vn 0.17415455 0.94656104 -0.27146343
vn 0.00966123 0.99980932 -0.01697017
vn -0.40642557 -0.58804716 0.69929879
vn -0.78793492 -0.20892353 0.57923183
vn -0.58236678 -0.66012434 0.47443102
vn -0.79834909 -0.59741477 -0.07572525
vn -0.93148746 -0.21235467 0.29535842
vn -0.72084558 -0.66343421 0.20059085
vn -0.79542829 -0.44844779 0.40766214
vn -0.59998153 0.74386965 0.29441486
vn -0.85822033 0.27932977 0.43061902
vn 0.79834909 0.59741477 0.07572525
vn 0.93148746 0.21235467 -0.29535842
vn 0.72084558 0.66343421 -0.20059085
vn 0.40642557 0.58804716 -0.69929879
vn 0.78793492 0.20892353 -0.57923183
vn 0.58236678 0.66012434 -0.47443102
vn 0.79542829 0.44844779 -0.40766214
vn -0.01380212 -0.86354543 0.50408213
vn 0.28052507 -0.95864666 0.04798185
vn -0.17415455 -0.94656104 0.27146343
vn -0.40572564 -0.87291305 -0.27094191
vn 0.13697253 -0.96207780 -0.23589156
vn -0.31263335 -0.94987091 -0.00237672
vn -0.00966123 -0.99980932 0.01697017
vn 0.85822033 -0.27932977 -0.43061902
vn 0.59998153 -0.74386965 -0.29441486
vn -0.52221679 -0.68832778 -0.50348236
vn -0.17969612 -0.45982945 -0.86963566
vn -0.25591220 -0.81583474 -0.51857750
vn 0.14009214 0.50308458 -0.85280719
vn 0.06318329 -0.02291924 -0.99773873
vn 0.38650506 0.33979496 -0.85741077
vn 0.74285154 -0.09512431 -0.66266353
vn 0.28465060 -0.24207663 -0.92756290
vn 0.59943565 0.12831125 -0.79007160
vn 0.67280560 -0.37937360 -0.63514431
vn 0.34345936 0.04640823 -0.93802023
vn 0.33469179 -0.82935356 -0.44738583
vn 0.13471592 -0.51179068 -0.84848213
vn 0.04696658 -0.86551272 -0.49868014
vn 0.52865592 -0.63868117 -0.55911473
vn -0.06489542 -0.68817184 -0.72263968
vn 0.41732756 -0.46152305 -0.78283726
vn -0.76493023 -0.51801922 -0.38280259
vn -0.84117931 0.00432386 -0.54073900
vn -0.91628915 -0.35245767 -0.19023088
vn -0.62963049 -0.44711378 -0.63533827
vn -0.10262131 0.67339313 -0.73212742
vn -0.59829990 0.44123408 -0.66884207
vn -0.27387190 0.80317203 -0.52906415
vn -0.14279042 0.42865167 -0.89211470
vn -0.56675358 0.82380690 -0.01151356
vn -0.76813903 0.49665083 -0.40410441
vn -0.43786404 0.85616963 -0.27431487
vn -0.76984861 0.63291626 0.08215912
vn -0.55019149 0.67347027 -0.49368728
vn -0.97491334 0.08957766 0.20376413
vn -0.91807371 0.22693678 -0.32502364
vn -0.99033311 -0.13765434 0.01707659
vn -0.91399829 0.37360870 0.15818869
vn -0.95854627 -0.06110981 -0.27830672
vn -0.88230329 0.45040937 -0.13664661
vn -0.22416175 -0.15737838 -0.96176065
vn -0.64318931 0.13664728 -0.75341558
vn -0.43848629 -0.31964825 -0.83997308
vn -0.18574167 0.13500826 -0.97327941
vn -0.67239324 -0.15551909 -0.72367199
vn -0.41964862 0.29913743 -0.85697832
vn 0.10262131 -0.67339313 0.73212742
vn 0.59829990 -0.44123408 0.66884207
vn 0.27387190 -0.80317203 0.52906415
vn 0.76493023 0.51801922 0.38280259
vn 0.84117931 -0.00432386 0.54073900
vn 0.91628915 0.35245767 0.19023088
vn 0.97491334 -0.08957766 -0.20376413
vn 0.91807371 -0.22693678 0.32502364
vn 0.99033311 0.13765434 -0.01707659
vn 0.91399829 -0.37360870 -0.15818869
vn 0.95854627 0.06110981 0.27830672
vn 0.56675358 -0.82380690 0.01151356
vn 0.76813903 -0.49665083 0.40410441
vn 0.43786404 -0.85616963 0.27431487
vn 0.76984861 -0.63291626 -0.08215912
vn 0.55019149 -0.67347027 0.49368728
vn 0.88230329 -0.45040937 0.13664661
vn -0.14009214 -0.50308458 0.85280719
vn -0.06318329 0.02291924 0.99773873
vn -0.38650506 -0.33979496 0.85741077
vn 0.14279042 -0.42865167 0.89211470
vn 0.52221679 0.68832778 0.50348236
vn 0.17969612 0.45982945 0.86963566
vn 0.25591220 0.81583474 0.51857750
vn 0.62963049 0.44711378 0.63533827
vn -0.33469179 0.82935356 0.44738583
vn -0.13471592 0.51179068 0.84848213
vn -0.04696658 0.86551272 0.49868014
vn -0.52865592 0.63868117 0.55911473
vn 0.06489542 0.68817184 0.72263968
vn -0.74285154 0.09512431 0.66266353
vn -0.28465060 0.24207663 0.92756290
vn -0.59943565 -0.12831125 0.79007160
vn -0.67280560 0.37937360 0.63514431
vn -0.34345936 -0.04640823 0.93802023
vn -0.41732756 0.46152305 0.78283726
vn 0.64318931 -0.13664728 0.75341558
vn 0.22416175 0.15737838 0.96176065
vn 0.41964862 -0.29913743 0.85697832
vn 0.67239324 0.15551909 0.72367199
vn 0.18574167 -0.13500826 0.97327941
vn 0.43848629 0.31964825 0.83997308
f 1//1 138//138 54//54
f 138//138 38//38 140//140
f 54//54 140//140 17//17
f 138//138 140//140 54//54
f 38//38 139//139 155//155
f 139//139 12//12 152//152
f 155//155 152//152 41//41
f 139//139 152//152 155//155
f 17//17 153//153 55//55
f 153//153 41//41 151//151
f 55//55 151//151 6//6
f 153//153 151//151 55//55
f 38//38 155//155 140//140
f 155//155 41//41 153//153
f 140//140 153//153 17//17
f 155//155 153//153 140//140
f 1//1 54//54 43//43
f 54//54 17//17 56//56
f 43//43 56//56 13//13
f 54//54 56//56 43//43
f 17//17 55//55 60//60
f 55//55 6//6 58//58
f 60//60 58//58 18//18
f 55//55 58//58 60//60
f 13//13 59//59 44//44
f 59//59 18//18 57//57
f 44//44 57//57 2//2
f 59//59 57//57 44//44
f 17//17 60//60 56//56
f 60//60 18//18 59//59
f 56//56 59//59 13//13
f 60//60 59//59 56//56
f 1//1 43//43 70//70
f 43//43 13//13 72//72
f 70//70 72//72 22//22
f 43//43 72//72 70//70
f 13//13 44//44 75//75
f 44//44 2//2 73//73
f 75//75 73//73 23//23
f 44//44 73//73 75//75
f 22//22 76//76 71//71
f 76//76 23//23 74//74
f 71//71 74//74 8//8
f 76//76 74//74 71//71
f 13//13 75//75 72//72
f 75//75 23//23 76//76
f 72//72 76//76 22//22
f 75//75 76//76 72//72
f 1//1 70//70 121//121
f 70//70 22//22 123//123
f 121//121 123//123 34//34
f 70//70 123//123 121//121
f 22//22 71//71 134//134
f 71//71 8//8 132//132
f 134//134 132//132 37//37
f 71//71 132//132 134//134
f 34//34 136//136 122//122
f 136//136 37//37 133//133
f 122//122 133//133 11//11
f 136//136 133//133 122//122
f 22//22 134//134 123//123
f 134//134 37//37 136//136
f 123//123 136//136 34//34
f 134//134 136//136 123//123
f 1//1 121//121 138//138
f 121//121 34//34 141//141
f 138//138 141//141 38//38
f 121//121 141//141 138//138
f 34//34 122//122 159//159
f 122//122 11//11 157//157
f 159//159 157//157 42//42
f 122//122 157//157 159//159
f 38//38 161//161 139//139
f 161//161 42//42 158//158
f 139//139 158//158 12//12
f 161//161 158//158 139//139
f 34//34 159//159 141//141
f 159//159 42//42 161//161
f 141//141 161//161 38//38
f 159//159 161//161 141//141
f 2//2 57//57 96//96
f 57//57 18//18 98//98
f 96//96 98//98 29//29
f 57//57 98//98 96//96
f 18//18 58//58 111//111
f 58//58 6//6 109//109
f 111//111 109//109 32//32
f 58//58 109//109 111//111
f 29//29 113//113 97//97
f 113//113 32//32 110//110
f 97//97 110//110 10//10
f 113//113 110//110 97//97
f 18//18 111//111 98//98
f 111//111 32//32 113//113
f 98//98 113//113 29//29
f 111//111 113//113 98//98
f 6//6 151//151 62//62
f 151//151 41//41 154//154
f 62//62 154//154 19//19
f 151//151 154//154 62//62
f 41//41 152//152 156//156
f 152//152 12//12 147//147
f 156//156 147//147 40//40
f 152//152 147//147 156//156
f 19//19 149//149 61//61
f 149//149 40//40 146//146
f 61//61 146//146 5//5
f 149//149 146//146 61//61
f 41//41 156//156 154//154
f 156//156 40//40 149//149
f 154//154 149//149 19//19
f 156//156 149//149 154//154
f 12//12 158//158 143//143
f 158//158 42//42 162//162
f 143//143 162//162 39//39
f 158//158 162//162 143//143
f 42//42 157//157 160//160
f 157//157 11//11 125//125
f 160//160 125//125 35//35
f 157//157 125//125 160//160
f 39//39 145//145 142//142
f 145//145 35//35 124//124
f 142//142 124//124 3//3
f 145//145 124//124 142//142
f 42//42 160//160 162//162
f 160//160 35//35 145//145
f 162//162 145//145 39//39
f 160//160 145//145 162//162
f 11//11 133//133 128//128
f 133//133 37//37 137//137
f 128//128 137//137 36//36
f 133//133 137//137 128//128
f 37//37 132//132 135//135
f 132//132 8//8 78//78
f 135//135 78//78 24//24
f 132//132 78//78 135//135
f 36//36 130//130 127//127
f 130//130 24//24 77//77
f 127//127 77//77 7//7
f 130//130 77//77 127//127
f 37//37 135//135 137//137
f 135//135 24//24 130//130
f 137//137 130//130 36//36
f 135//135 130//130 137//137
f 8//8 74//74 90//90
f 74//74 23//23 92//92
f 90//90 92//92 28//28
f 74//74 92//92 90//90
f 23//23 73//73 81//81
f 73//73 2//2 79//79
f 81//81 79//79 25//25
f 73//73 79//79 81//81
f 28//28 94//94 91//91
f 94//94 25//25 80//80
f 91//91 80//80 9//9
f 94//94 80//80 91//91
f 23//23 81//81 92//92
f 81//81 25//25 94//94
f 92//92 94//94 28//28
f 81//81 94//94 92//92
f 4//4 100//100 50//50
f 100//100 30//30 102//102
f 50//50 102//102 16//16
f 100//100 102//102 50//50
f 30//30 101//101 108//108
f 101//101 10//10 105//105
f 108//108 105//105 31//31
f 101//101 105//105 108//108
f 16//16 106//106 51//51
f 106//106 31//31 104//104
f 51//51 104//104 5//5
f 106//106 104//104 51//51
f 30//30 108//108 102//102
f 108//108 31//31 106//106
f 102//102 106//106 16//16
f 108//108 106//106 102//102
f 4//4 50//50 46//46
f 50//50 16//16 52//52
f 46//46 52//52 14//14
f 50//50 52//52 46//46
f 16//16 51//51 53//53
f 51//51 5//5 48//48
f 53//53 48//48 15//15
f 51//51 48//48 53//53
f 14//14 49//49 45//45
f 49//49 15//15 47//47
f 45//45 47//47 3//3
f 49//49 47//47 45//45
f 16//16 53//53 52//52
f 53//53 15//15 49//49
f 52//52 49//49 14//14
f 53//53 49//49 52//52
f 4//4 46//46 66//66
f 46//46 14//14 68//68
f 66//66 68//68 21//21
f 46//46 68//68 66//66
f 14//14 45//45 65//65
f 45//45 3//3 63//63
f 65//65 63//63 20//20
f 45//45 63//63 65//65
f 21//21 69//69 67//67
f 69//69 20//20 64//64
f 67//67 64//64 7//7
f 69//69 64//64 67//67
f 14//14 65//65 68//68
f 65//65 20//20 69//69
f 68//68 69//69 21//21
f 65//65 69//69 68//68
f 4//4 66//66 82//82
f 66//66 21//21 84//84
f 82//82 84//84 26//26
f 66//66 84//84 82//82
f 21//21 67//67 87//87
f 67//67 7//7 85//85
f 87//87 85//85 27//27
f 67//67 85//85 87//87
f 26//26 89//89 83//83
f 89//89 27//27 86//86
f 83//83 86//86 9//9
f 89//89 86//86 83//83
f 21//21 87//87 84//84
f 87//87 27//27 89//89
f 84//84 89//89 26//26
f 87//87 89//89 84//84
f 4//4 82//82 100//100
f 82//82 26//26 103//103
f 100//100 103//103 30//30
f 82//82 103//103 100//100
f 26//26 83//83 118//118
f 83//83 9//9 115//115
f 118//118 115//115 33//33
f 83//83 115//115 118//118
f 30//30 120//120 101//101
f 120//120 33//33 116//116
f 101//101 116//116 10//10
f 120//120 116//116 101//101
f 26//26 118//118 103//103
f 118//118 33//33 120//120
f 103//103 120//120 30//30
f 118//118 120//120 103//103
f 5//5 104//104 61//61
f 104//104 31//31 107//107
f 61//61 107//107 19//19
f 104//104 107//107 61//61
f 31//31 105//105 114//114
f 105//105 10//10 110//110
f 114//114 110//110 32//32
f 105//105 110//110 114//114
f 19//19 112//112 62//62
f 112//112 32//32 109//109
f 62//62 109//109 6//6
f 112//112 109//109 62//62
f 31//31 114//114 107//107
f 114//114 32//32 112//112
f 107//107 112//112 19//19
f 114//114 112//112 107//107
f 3//3 47//47 142//142
f 47//47 15//15 144//144
f 142//142 144//144 39//39
f 47//47 144//144 142//142
f 15//15 48//48 148//148
f 48//48 5//5 146//146
f 148//148 146//146 40//40
f 48//48 146//146 148//148
f 39//39 150//150 143//143
f 150//150 40//40 147//147
f 143//143 147//147 12//12
f 150//150 147//147 143//143
f 15//15 148//148 144//144
f 148//148 40//40 150//150
f 144//144 150//150 39//39
f 148//148 150//150 144//144
f 7//7 64//64 127//127
f 64//64 20//20 129//129
f 127//127 129//129 36//36
f 64//64 129//129 127//127
f 20//20 63//63 126//126
f 63//63 3//3 124//124
f 126//126 124//124 35//35
f 63//63 124//124 126//126
f 36//36 131//131 128//128
f 131//131 35//35 125//125
f 128//128 125//125 11//11
f 131//131 125//125 128//128
f 20//20 126//126 129//129
f 126//126 35//35 131//131
f 129//129 131//131 36//36
f 126//126 131//131 129//129
f 9//9 86//86 91//91
f 86//86 27//27 95//95
f 91//91 95//95 28//28
f 86//86 95//95 91//91
f 27//27 85//85 88//88
f 85//85 7//7 77//77
f 88//88 77//77 24//24
f 85//85 77//77 88//88
f 28//28 93//93 90//90
f 93//93 24//24 78//78
f 90//90 78//78 8//8
f 93//93 78//78 90//90
f 27//27 88//88 95//95
f 88//88 24//24 93//93
f 95//95 93//93 28//28
f 88//88 93//93 95//95
f 10//10 116//116 97//97
f 116//116 33//33 119//119
f 97//97 119//119 29//29
f 116//116 119//119 97//97
f 33//33 115//115 117//117
f 115//115 9//9 80//80
f 117//117 80//80 25//25
f 115//115 80//80 117//117
f 29//29 99//99 96//96
f 99//99 25//25 79//79
f 96//96 79//79 2//2
f 99//99 79//79 96//96
f 33//33 117//117 119//119
f 117//117 25//25 99//99
f 119//119 99//99 29//29
f 117//117 99//99 119//119

