# https://github.com/mikedh/trimesh

o sphere_simple_0002.obj
v -0.55252310 0.36724204 0.05069135
v -0.47968956 -0.31728509 0.33458363
v 0.47968956 0.31728509 -0.33458363
v 0.55252310 -0.36724204 -0.05069135
v 0.12751833 -0.23664006 -0.60330684
v -0.51042418 -0.20576497 -0.36519380
v 0.51042418 0.20576497 0.36519380
v -0.12751833 0.23664006 0.60330684
v 0.17724799 -0.41708341 0.52895683
v -0.05940084 -0.69050476 -0.06960948
v 0.05940084 0.69050476 0.06960948
v -0.17724799 0.41708341 -0.52895683
v -0.60671938 0.02936395 0.22645895
v 0.60671938 -0.02936395 -0.22645895
v 0.35690784 0.04740196 -0.55127819
v 0.39971832 -0.35495299 -0.38441049
v -0.62478474 0.09491384 -0.18485990
v -0.58197425 -0.30744111 -0.01799221
v -0.22506641 -0.26003915 -0.56927039
v 0.58197425 0.30744111 0.01799221
v 0.62478474 -0.09491384 0.18485990
v -0.39971832 0.35495299 0.38441049
v -0.35690784 -0.04740196 0.55127819
v 0.22506641 0.26003915 0.56927039
v -0.17777069 -0.43165098 0.50757635
v 0.42894869 -0.46101493 0.28111740
v 0.40420356 -0.12420986 0.52556856
v 0.02923037 -0.10606194 0.66552789
v -0.31686938 -0.59236401 0.15574790
v 0.28985000 -0.62172797 -0.07071105
v 0.04003845 -0.54496205 -0.39553029
v -0.33493474 -0.52681413 -0.25557095
v 0.06926882 -0.65102399 0.26999760
v -0.28985000 0.62172797 0.07071105
v 0.31686938 0.59236401 -0.15574790
v 0.33493474 0.52681413 0.25557095
v -0.04003845 0.54496205 0.39553029
v -0.42894869 0.46101493 -0.28111740
v 0.17777069 0.43165098 -0.50757635
v -0.02923037 0.10606194 -0.66552789
v -0.40420356 0.12420986 -0.52556856
v -0.06926882 0.65102399 -0.26999760
v -0.60255549 0.20614938 0.14405825
v -0.56469779 -0.14965675 0.29162086
v 0.56469779 0.14965675 -0.29162086
v 0.60255549 -0.20614938 -0.14405825
v 0.43484979 0.18955843 -0.46045664
v 0.25179689 -0.09836290 -0.60013462
v 0.50660881 0.00948314 -0.40888061
v 0.49495969 -0.37538529 -0.22615890
v 0.27404908 -0.30750050 -0.51339949
v 0.52911561 -0.20204737 -0.32115307
v 0.39778191 -0.16168914 -0.49192065
v -0.61194557 0.24022115 -0.06973864
v -0.59006324 -0.05761862 -0.28590902
v -0.64744003 0.06533670 0.02186992
v -0.55183568 -0.32472258 0.16455910
v -0.56781104 -0.26675622 -0.19917389
v -0.62493323 -0.14619381 0.10959746
v -0.63443075 -0.11173220 -0.10664566
v -0.05070392 -0.25816582 -0.60948668
v -0.38229612 -0.24211745 -0.48571937
v 0.55183568 0.32472258 -0.16455910
v 0.56781104 0.26675622 0.19917389
v 0.62493323 0.14619381 -0.10959746
v 0.61194557 -0.24022115 0.06973864
v 0.59006324 0.05761862 0.28590902
v 0.64744003 -0.06533670 -0.02186992
v 0.63443075 0.11173220 0.10664566
v -0.49495969 0.37538529 0.22615890
v -0.27404908 0.30750050 0.51339949
v -0.52911561 0.20204737 0.32115307
v -0.43484979 -0.18955843 0.46045664
v -0.25179689 0.09836290 0.60013462
v -0.50660881 -0.00948314 0.40888061
v -0.39778191 0.16168914 0.49192065
v 0.38229612 0.24211745 0.48571937
v 0.05070392 0.25816582 0.60948668
v -0.34173720 -0.38928486 0.43774114
v -0.00027169 -0.44115841 0.53877318
v -0.28109714 -0.25185304 0.55667277
v 0.51015316 -0.43051458 0.11977173
v 0.31509123 -0.45642132 0.42106348
v 0.55398045 -0.29226905 0.24497876
v 0.47540871 0.04239102 0.46300387
v 0.30222912 -0.28135549 0.54812524
v 0.54097116 -0.11520015 0.37349434
v 0.33082681 0.07140968 0.57559090
v 0.43801406 -0.30767088 0.42409990
v -0.05108849 0.06787239 0.65951977
v 0.10732411 -0.27192249 0.62087384
v -0.17227024 -0.08068075 0.63971281
v 0.13369173 0.08095061 0.64917187
v -0.07809227 -0.28269241 0.61673740
v 0.22786970 -0.12106105 0.62619646
v -0.41403845 -0.47282089 0.25486640
v -0.19557918 -0.66681444 0.04477336
v -0.47255006 -0.47305555 0.07242245
v -0.26004768 -0.53835654 0.34873020
v 0.43785191 -0.51405061 -0.06310301
v 0.11978374 -0.68207734 -0.07293634
v 0.36252752 -0.51347157 -0.23927156
v 0.37789483 -0.56923163 0.11061716
v 0.08709330 -0.40626413 -0.51917938
v -0.01006425 -0.64217566 -0.24177213
v 0.23119382 -0.47311333 -0.41003913
v -0.09727496 -0.42321418 -0.50722573
v 0.17343262 -0.61336524 -0.24511758
v -0.43940390 -0.38078276 -0.32266348
v -0.20496926 -0.63274267 -0.16902353
v -0.48204759 -0.43859393 -0.14382066
v -0.29441003 -0.41367325 -0.43364476
v -0.34267371 -0.58838677 -0.05248009
v -0.15503615 -0.56346608 -0.34230418
v 0.12813545 -0.55518495 0.41528359
v 0.00512922 -0.69730494 0.10415851
v -0.05704281 -0.56919592 0.40879482
v 0.26192845 -0.58463346 0.28973830
v -0.13017132 -0.65368776 0.22382766
v 0.18879993 -0.66912530 0.10477114
v -0.43785191 0.51405061 0.06310301
v -0.11978374 0.68207734 0.07293634
v -0.36252752 0.51347157 0.23927156
v 0.41403845 0.47282089 -0.25486640
v 0.19557918 0.66681444 -0.04477336
v 0.47255006 0.47305555 -0.07242245
v 0.43940390 0.38078276 0.32266348
v 0.20496926 0.63274267 0.16902353
v 0.48204759 0.43859393 0.14382066
v 0.29441003 0.41367325 0.43364476
v 0.34267371 0.58838677 0.05248009
v -0.08709330 0.40626413 0.51917938
v 0.01006425 0.64217566 0.24177213
v -0.23119382 0.47311333 0.41003913
v 0.09727496 0.42321418 0.50722573
v -0.17343262 0.61336524 0.24511758
v 0.15503615 0.56346608 0.34230418
v -0.51015316 0.43051458 -0.11977173
v -0.31509123 0.45642132 -0.42106348
v -0.55398045 0.29226905 -0.24497876
v -0.37789483 0.56923163 -0.11061716
v 0.34173720 0.38928486 -0.43774114
v 0.00027169 0.44115841 -0.53877318
v 0.28109714 0.25185304 -0.55667277
v 0.26004768 0.53835654 -0.34873020
v 0.05108849 -0.06787239 -0.65951977
v -0.10732411 0.27192249 -0.62087384
v 0.17227024 0.08068075 -0.63971281
v -0.13369173 -0.08095061 -0.64917187
v 0.07809227 0.28269241 -0.61673740
v -0.47540871 -0.04239102 -0.46300387
v -0.30222912 0.28135549 -0.54812524
v -0.54097116 0.11520015 -0.37349434
v -0.33082681 -0.07140968 -0.57559090
v -0.43801406 0.30767088 -0.42409990
v -0.22786970 0.12106105 -0.62619646
v -0.00512922 0.69730494 -0.10415851
v -0.12813545 0.55518495 -0.41528359
v -0.18879993 0.66912530 -0.10477114
v 0.13017132 0.65368776 -0.22382766
v -0.26192845 0.58463346 -0.28973830
v 0.05704281 0.56919592 -0.40879482
vn -0.86204191 0.49353056 0.11537473
vn -0.76539937 -0.41476577 0.49207028
vn 0.76539937 0.41476577 -0.49207028
vn 0.86204191 -0.49353056 -0.11537473
vn 0.21486290 -0.35454757 -0.91001646
vn -0.78663979 -0.30607692 -0.53620403
vn 0.78663979 0.30607692 0.53620403
vn -0.21486290 0.35454757 0.91001646
vn 0.26739409 -0.55421661 0.78825399
vn -0.10382222 -0.98311572 -0.15067988
vn 0.10382222 0.98311572 0.15067988
vn -0.26739409 0.55421661 -0.78825399
vn -0.93590503 0.04529586 0.34932802
vn 0.93590503 -0.04529586 -0.34932802
vn 0.57173329 0.03432568 -0.81972117
vn 0.62810262 -0.49546233 -0.60000348
vn -0.96293536 0.10860045 -0.24690371
vn -0.90656602 -0.42118758 -0.02718602
vn -0.33840019 -0.39098370 -0.85593052
vn 0.90656602 0.42118758 0.02718602
vn 0.96293536 -0.10860045 0.24690371
vn -0.62810262 0.49546233 0.60000348
vn -0.57173329 -0.03432568 0.81972117
vn 0.33840019 0.39098370 0.85593052
vn -0.30996928 -0.57478035 0.75732859
vn 0.67951207 -0.62266919 0.38800313
vn 0.62354993 -0.13253405 0.77046753
vn 0.02374550 -0.10350475 0.99434547
vn -0.52559603 -0.82391299 0.21193441
vn 0.46388533 -0.87180185 -0.15739104
vn 0.06948225 -0.77269747 -0.63096025
vn -0.53032219 -0.74366818 -0.40708231
vn 0.09781147 -0.91928235 0.38125173
vn -0.46388533 0.87180185 0.15739104
vn 0.52559603 0.82391299 -0.21193441
vn 0.53032219 0.74366818 0.40708231
vn -0.06948225 0.77269747 0.63096025
vn -0.67951207 0.62266919 -0.38800313
vn 0.30996928 0.57478035 -0.75732859
vn -0.02374550 0.10350475 -0.99434547
vn -0.62354993 0.13253405 -0.77046753
vn -0.09781147 0.91928235 -0.38125173
vn -0.92994848 0.27796207 0.24069258
vn -0.88011926 -0.19035855 0.43491806
vn 0.88011926 0.19035855 -0.43491806
vn 0.92994848 -0.27796207 -0.24069258
vn 0.69454965 0.23351904 -0.68049221
vn 0.40713933 -0.16702070 -0.89796528
vn 0.79028329 -0.01572883 -0.61253974
vn 0.77400656 -0.51325787 -0.37078323
vn 0.43628494 -0.44094618 -0.78436083
vn 0.81801749 -0.27638923 -0.50443669
vn 0.63430290 -0.23761036 -0.73566375
vn -0.94734608 0.31298339 -0.06765207
vn -0.90742074 -0.10339872 -0.40730370
vn -0.99602220 0.07072465 0.05420156
vn -0.86788917 -0.43379356 0.24205689
vn -0.87827513 -0.37732421 -0.29369924
vn -0.96828798 -0.18993576 0.16230462
vn -0.97807053 -0.15957483 -0.13384285
vn -0.06163788 -0.38794900 -0.91961750
vn -0.58786628 -0.36248064 -0.72320192
vn 0.86788917 0.43379356 -0.24205689
vn 0.87827513 0.37732421 0.29369924
vn 0.96828798 0.18993576 -0.16230462
vn 0.94734608 -0.31298339 0.06765207
vn 0.90742074 0.10339872 0.40730370
vn 0.99602220 -0.07072465 -0.05420156
vn 0.97807053 0.15957483 0.13384285
vn -0.77400656 0.51325787 0.37078323
vn -0.43628494 0.44094618 0.78436083
vn -0.81801749 0.27638923 0.50443669
vn -0.69454965 -0.23351904 0.68049221
vn -0.40713933 0.16702070 0.89796528
vn -0.79028329 0.01572883 0.61253974
vn -0.63430290 0.23761036 0.73566375
vn 0.58786628 0.36248064 0.72320192
vn 0.06163788 0.38794900 0.91961750
vn -0.56499562 -0.51268347 0.64647940
vn -0.02181251 -0.58971194 0.80731905
vn -0.45710439 -0.31024630 0.83354833
vn 0.80403347 -0.57894164 0.13548715
vn 0.49428688 -0.61469007 0.61468414
vn 0.86240042 -0.37410758 0.34104111
vn 0.73210877 0.09376351 0.67470375
vn 0.46475682 -0.35549745 0.81093937
vn 0.83627901 -0.13690326 0.53093777
vn 0.49549287 0.13297231 0.85837357
vn 0.69297825 -0.39041743 0.60609848
vn -0.10130391 0.13409896 0.98577634
vn 0.15069151 -0.34029734 0.92816474
vn -0.29318512 -0.08223953 0.95251202
vn 0.20001409 0.14727287 0.96866148
vn -0.15779488 -0.34924180 0.92365088
vn 0.34250941 -0.11460890 0.93249778
vn -0.67443149 -0.63912443 0.36967842
vn -0.32844365 -0.94399000 0.03174349
vn -0.75318695 -0.65233671 0.08465363
vn -0.43159215 -0.74379206 0.51039357
vn 0.69459761 -0.70538257 -0.14131381
vn 0.18765577 -0.96896814 -0.16089143
vn 0.56631785 -0.71619798 -0.40785359
vn 0.59515806 -0.79348463 0.12715747
vn 0.14877093 -0.58021832 -0.80075834
vn -0.01738756 -0.91256152 -0.40856963
vn 0.37340447 -0.67170316 -0.63983120
vn -0.15042717 -0.61331629 -0.77538042
vn 0.28646802 -0.86009468 -0.42210569
vn -0.68464176 -0.53988288 -0.48968575
vn -0.33145288 -0.89736141 -0.29134428
vn -0.75605967 -0.61703945 -0.21825693
vn -0.44590595 -0.59901573 -0.66509251
vn -0.56430511 -0.81891901 -0.10455330
vn -0.24579821 -0.79433277 -0.55553460
vn 0.19200453 -0.76582750 0.61371207
vn -0.00483822 -0.99325739 0.11582896
vn -0.12376102 -0.79099748 0.59917126
vn 0.41776667 -0.81720629 0.39704520
vn -0.23320039 -0.91744246 0.32236147
vn 0.30832730 -0.94365127 0.12023541
vn -0.69459761 0.70538257 0.14131381
vn -0.18765577 0.96896814 0.16089143
vn -0.56631785 0.71619798 0.40785359
vn 0.67443149 0.63912443 -0.36967842
vn 0.32844365 0.94399000 -0.03174349
vn 0.75318695 0.65233671 -0.08465363
vn 0.68464176 0.53988288 0.48968575
vn 0.33145288 0.89736141 0.29134428
vn 0.75605967 0.61703945 0.21825693
vn 0.44590595 0.59901573 0.66509251
vn 0.56430511 0.81891901 0.10455330
vn -0.14877093 0.58021832 0.80075834
vn 0.01738756 0.91256152 0.40856963
vn -0.37340447 0.67170316 0.63983120
vn 0.15042717 0.61331629 0.77538042
vn -0.28646802 0.86009468 0.42210569
vn 0.24579821 0.79433277 0.55553460
vn -0.80403347 0.57894164 -0.13548715
vn -0.49428688 0.61469007 -0.61468414
vn -0.86240042 0.37410758 -0.34104111
vn -0.59515806 0.79348463 -0.12715747
vn 0.56499562 0.51268347 -0.64647940
vn 0.02181251 0.58971194 -0.80731905
vn 0.45710439 0.31024630 -0.83354833
vn 0.43159215 0.74379206 -0.51039357
vn 0.10130391 -0.13409896 -0.98577634
vn -0.15069151 0.34029734 -0.92816474
vn 0.29318512 0.08223953 -0.95251202
vn -0.20001409 -0.14727287 -0.96866148
vn 0.15779488 0.34924180 -0.92365088
vn -0.73210877 -0.09376351 -0.67470375
vn -0.46475682 0.35549745 -0.81093937
vn -0.83627901 0.13690326 -0.53093777
vn -0.49549287 -0.13297231 -0.85837357
vn -0.69297825 0.39041743 -0.60609848
vn -0.34250941 0.11460890 -0.93249778
vn 0.00483822 0.99325739 -0.11582896
vn -0.19200453 0.76582750 -0.61371207
vn -0.30832730 0.94365127 -0.12023541
vn 0.23320039 0.91744246 -0.32236147
vn -0.41776667 0.81720629 -0.39704520
vn 0.12376102 0.79099748 -0.59917126
f 1//1 138//138 54//54
f 138//138 38//38 140//140
f 54//54 140//140 17//17
f 138//138 140//140 54//54
f 38//38 139//139 155//155
f 139//139 12//12 152//152
f 155//155 152//152 41//41
f 139//139 152//152 155//155
f 17//17 153//153 55//55
f 153//153 41//41 151//151
f 55//55 151//151 6//6
f 153//153 151//151 55//55
f 38//38 155//155 140//140
f 155//155 41//41 153//153
f 140//140 153//153 17//17
f 155//155 153//153 140//140
f 1//1 54//54 43//43
f 54//54 17//17 56//56
f 43//43 56//56 13//13
f 54//54 56//56 43//43
f 17//17 55//55 60//60
f 55//55 6//6 58//58
f 60//60 58//58 18//18
f 55//55 58//58 60//60
f 13//13 59//59 44//44
f 59//59 18//18 57//57
f 44//44 57//57 2//2
f 59//59 57//57 44//44
f 17//17 60//60 56//56
f 60//60 18//18 59//59
f 56//56 59//59 13//13
f 60//60 59//59 56//56
f 1//1 43//43 70//70
f 43//43 13//13 72//72
f 70//70 72//72 22//22
f 43//43 72//72 70//70
f 13//13 44//44 75//75
f 44//44 2//2 73//73
f 75//75 73//73 23//23
f 44//44 73//73 75//75
f 22//22 76//76 71//71
f 76//76 23//23 74//74
f 71//71 74//74 8//8
f 76//76 74//74 71//71
f 13//13 75//75 72//72
f 75//75 23//23 76//76
f 72//72 76//76 22//22
f 75//75 76//76 72//72
f 1//1 70//70 121//121
f 70//70 22//22 123//123
f 121//121 123//123 34//34
f 70//70 123//123 121//121
f 22//22 71//71 134//134
f 71//71 8//8 132//132
f 134//134 132//132 37//37
f 71//71 132//132 134//134
f 34//34 136//136 122//122
f 136//136 37//37 133//133
f 122//122 133//133 11//11
f 136//136 133//133 122//122
f 22//22 134//134 123//123
f 134//134 37//37 136//136
f 123//123 136//136 34//34
f 134//134 136//136 123//123
f 1//1 121//121 138//138
f 121//121 34//34 141//141
f 138//138 141//141 38//38
f 121//121 141//141 138//138
f 34//34 122//122 159//159
f 122//122 11//11 157//157
f 159//159 157//157 42//42
f 122//122 157//157 159//159
f 38//38 161//161 139//139
f 161//161 42//42 158//158
f 139//139 158//158 12//12
f 161//161 158//158 139//139
f 34//34 159//159 141//141
f 159//159 42//42 161//161
f 141//141 161//161 38//38
f 159//159 161//161 141//141
f 2//2 57//57 96//96
f 57//57 18//18 98//98
f 96//96 98//98 29//29
f 57//57 98//98 96//96
f 18//18 58//58 111//111
f 58//58 6//6 109//109
f 111//111 109//109 32//32
f 58//58 109//109 111//111
f 29//29 113//113 97//97
f 113//113 32//32 110//110
f 97//97 110//110 10//10
f 113//113 110//110 97//97
f 18//18 111//111 98//98
f 111//111 32//32 113//113
f 98//98 113//113 29//29
f 111//111 113//113 98//98
f 6//6 151//151 62//62
f 151//151 41//41 154//154
f 62//62 154//154 19//19
f 151//151 154//154 62//62
f 41//41 152//152 156//156
f 152//152 12//12 147//147
f 156//156 147//147 40//40
f 152//152 147//147 156//156
f 19//19 149//149 61//61
f 149//149 40//40 146//146
f 61//61 146//146 5//5
f 149//149 146//146 61//61
f 41//41 156//156 154//154
f 156//156 40//40 149//149
f 154//154 149//149 19//19
f 156//156 149//149 154//154
f 12//12 158//158 143//143
f 158//158 42//42 162//162
f 143//143 162//162 39//39
f 158//158 162//162 143//143
f 42//42 157//157 160//160
f 157//157 11//11 125//125
f 160//160 125//125 35//35
f 157//157 125//125 160//160
f 39//39 145//145 142//142
f 145//145 35//35 124//124
f 142//142 124//124 3//3
f 145//145 124//124 142//142
f 42//42 160//160 162//162
f 160//160 35//35 145//145
f 162//162 145//145 39//39
f 160//160 145//145 162//162
f 11//11 133//133 128//128
f 133//133 37//37 137//137
f 128//128 137//137 36//36
f 133//133 137//137 128//128
f 37//37 132//132 135//135
f 132//132 8//8 78//78
f 135//135 78//78 24//24
f 132//132 78//78 135//135
f 36//36 130//130 127//127
f 130//130 24//24 77//77
f 127//127 77//77 7//7
f 130//130 77//77 127//127
f 37//37 135//135 137//137
f 135//135 24//24 130//130
f 137//137 130//130 36//36
f 135//135 130//130 137//137
f 8//8 74//74 90//90
f 74//74 23//23 92//92
f 90//90 92//92 28//28
f 74//74 92//92 90//90
f 23//23 73//73 81//81
f 73//73 2//2 79//79
f 81//81 79//79 25//25
f 73//73 79//79 81//81
f 28//28 94//94 91//91
f 94//94 25//25 80//80
f 91//91 80//80 9//9
f 94//94 80//80 91//91
f 23//23 81//81 92//92
f 81//81 25//25 94//94
f 92//92 94//94 28//28
f 81//81 94//94 92//92
f 4//4 100//100 50//50
f 100//100 30//30 102//102
f 50//50 102//102 16//16
f 100//100 102//102 50//50
f 30//30 101//101 108//108
f 101//101 10//10 105//105
f 108//108 105//105 31//31
f 101//101 105//105 108//108
f 16//16 106//106 51//51
f 106//106 31//31 104//104
f 51//51 104//104 5//5
f 106//106 104//104 51//51
f 30//30 108//108 102//102
f 108//108 31//31 106//106
f 102//102 106//106 16//16
f 108//108 106//106 102//102
f 4//4 50//50 46//46
f 50//50 16//16 52//52
f 46//46 52//52 14//14
f 50//50 52//52 46//46
f 16//16 51//51 53//53
f 51//51 5//5 48//48
f 53//53 48//48 15//15
f 51//51 48//48 53//53
f 14//14 49//49 45//45
f 49//49 15//15 47//47
f 45//45 47//47 3//3
f 49//49 47//47 45//45
f 16//16 53//53 52//52
f 53//53 15//15 49//49
f 52//52 49//49 14//14
f 53//53 49//49 52//52
f 4//4 46//46 66//66
f 46//46 14//14 68//68
f 66//66 68//68 21//21
f 46//46 68//68 66//66
f 14//14 45//45 65//65
f 45//45 3//3 63//63
f 65//65 63//63 20//20
f 45//45 63//63 65//65
f 21//21 69//69 67//67
f 69//69 20//20 64//64
f 67//67 64//64 7//7
f 69//69 64//64 67//67
f 14//14 65//65 68//68
f 65//65 20//20 69//69
f 68//68 69//69 21//21
f 65//65 69//69 68//68
f 4//4 66//66 82//82
f 66//66 21//21 84//84
f 82//82 84//84 26//26
f 66//66 84//84 82//82
f 21//21 67//67 87//87
f 67//67 7//7 85//85
f 87//87 85//85 27//27
f 67//67 85//85 87//87
f 26//26 89//89 83//83
f 89//89 27//27 86//86
f 83//83 86//86 9//9
f 89//89 86//86 83//83
f 21//21 87//87 84//84
f 87//87 27//27 89//89
f 84//84 89//89 26//26
f 87//87 89//89 84//84
f 4//4 82//82 100//100
f 82//82 26//26 103//103
f 100//100 103//103 30//30
f 82//82 103//103 100//100
f 26//26 83//83 118//118
f 83//83 9//9 115//115
f 118//118 115//115 33//33
f 83//83 115//115 118//118
f 30//30 120//120 101//101
f 120//120 33//33 116//116
f 101//101 116//116 10//10
f 120//120 116//116 101//101
f 26//26 118//118 103//103
f 118//118 33//33 120//120
f 103//103 120//120 30//30
f 118//118 120//120 103//103
f 5//5 104//104 61//61
f 104//104 31//31 107//107
f 61//61 107//107 19//19
f 104//104 107//107 61//61
f 31//31 105//105 114//114
f 105//105 10//10 110//110
f 114//114 110//110 32//32
f 105//105 110//110 114//114
f 19//19 112//112 62//62
f 112//112 32//32 109//109
f 62//62 109//109 6//6
f 112//112 109//109 62//62
f 31//31 114//114 107//107
f 114//114 32//32 112//112
f 107//107 112//112 19//19
f 114//114 112//112 107//107
f 3//3 47//47 142//142
f 47//47 15//15 144//144
f 142//142 144//144 39//39
f 47//47 144//144 142//142
f 15//15 48//48 148//148
f 48//48 5//5 146//146
f 148//148 146//146 40//40
f 48//48 146//146 148//148
f 39//39 150//150 143//143
f 150//150 40//40 147//147
f 143//143 147//147 12//12
f 150//150 147//147 143//143
f 15//15 148//148 144//144
f 148//148 40//40 150//150
f 144//144 150//150 39//39
f 148//148 150//150 144//144
f 7//7 64//64 127//127
f 64//64 20//20 129//129
f 127//127 129//129 36//36
f 64//64 129//129 127//127
f 20//20 63//63 126//126
f 63//63 3//3 124//124
f 126//126 124//124 35//35
f 63//63 124//124 126//126
f 36//36 131//131 128//128
f 131//131 35//35 125//125
f 128//128 125//125 11//11
f 131//131 125//125 128//128
f 20//20 126//126 129//129
f 126//126 35//35 131//131
f 129//129 131//131 36//36
f 126//126 131//131 129//129
f 9//9 86//86 91//91
f 86//86 27//27 95//95
f 91//91 95//95 28//28
f 86//86 95//95 91//91
f 27//27 85//85 88//88
f 85//85 7//7 77//77
f 88//88 77//77 24//24
f 85//85 77//77 88//88
f 28//28 93//93 90//90
f 93//93 24//24 78//78
f 90//90 78//78 8//8
f 93//93 78//78 90//90
f 27//27 88//88 95//95
f 88//88 24//24 93//93
f 95//95 93//93 28//28
f 88//88 93//93 95//95
f 10//10 116//116 97//97
f 116//116 33//33 119//119
f 97//97 119//119 29//29
f 116//116 119//119 97//97
f 33//33 115//115 117//117
f 115//115 9//9 80//80
f 117//117 80//80 25//25
f 115//115 80//80 117//117
f 29//29 99//99 96//96
f 99//99 25//25 79//79
f 96//96 79//79 2//2
f 99//99 79//79 96//96
f 33//33 117//117 119//119
f 117//117 25//25 99//99
f 119//119 99//99 29//29
f 117//117 99//99 119//119

