# https://github.com/mikedh/trimesh
v -0.21351584 -0.93647376 0.89216550
v -0.83593008 -0.95135048 -0.33865112
v 0.83593008 0.95135048 0.33865112
v 0.21351584 0.93647376 -0.89216550
v -0.51786031 1.17429927 0.24768427
v -1.16645356 0.00755972 0.58977497
v 1.16645356 -0.00755972 -0.58977497
v 0.51786031 -1.17429927 -0.24768427
v 0.01693791 -0.37725003 -1.25454070
v -1.02402530 0.35317900 -0.73696243
v 1.02402530 -0.35317900 0.73696243
v -0.01693791 0.37725003 1.25454070
v -0.61684884 -1.10963525 0.32534759
v 0.61684884 1.10963525 -0.32534759
v 0.18695672 1.24942557 0.34463929
v -0.17888919 1.24068126 -0.37881657
v -0.81112566 -0.54600197 0.87106275
v -1.17697157 -0.55474629 0.14760690
v -0.99001485 0.69467928 0.49224619
v 1.17697157 0.55474629 -0.14760690
v 0.81112566 0.54600197 -0.87106275
v 0.17888919 -1.24068126 0.37881657
v -0.18695672 -1.24942557 -0.34463929
v 0.99001485 -0.69467928 -0.49224619
v -0.48139152 -0.78093178 -0.93645466
v 0.13545732 0.32870346 -1.26180225
v 0.69558005 -0.22618550 -1.08406155
v 0.31434651 -0.91197779 -0.88298568
v -1.09325434 -0.35159637 -0.63222978
v -0.47640551 0.75803887 -0.95757737
v -0.90629762 0.89782920 -0.28759049
v -1.28753117 0.21203690 -0.08651462
v -0.59195112 -0.01414860 -1.17057617
v 0.47640551 -0.75803887 0.95757737
v 1.09325434 0.35159637 0.63222978
v 1.28753117 -0.21203690 0.08651462
v 0.90629762 -0.89782920 0.28759049
v -0.13545732 -0.32870346 1.26180225
v 0.48139152 0.78093178 0.93645466
v -0.31434651 0.91197779 0.88298568
v -0.69558005 0.22618550 1.08406155
v 0.59195112 0.01414860 1.17057617
v -0.43161013 -1.06353437 0.63284362
v -0.75513098 -1.07126705 -0.00691496
v 0.75513098 1.07126705 0.00691496
v 0.43161013 1.06353437 -0.63284362
v 0.53168001 1.14392780 0.35516330
v -0.17199833 1.25981297 0.30788021
v 0.42258559 1.24023167 0.01014225
v 0.01799837 1.13164997 -0.66063592
v -0.36215912 1.25526782 -0.06816045
v 0.23024901 1.23563451 -0.37020101
v 0.00424135 1.30912663 -0.01796806
v -0.53259208 -0.77056691 0.91649753
v -1.02791369 -0.27987357 0.75931982
v -0.75073062 -0.87042000 0.62899014
v -1.04627372 -0.78284474 -0.09930170
v -1.21807448 -0.28441873 0.38327917
v -0.94306720 -0.87501716 0.24864689
v -1.04520457 -0.57869761 0.53554633
v -0.78376912 0.97146482 0.38460388
v -1.12089740 0.36501248 0.56241710
v 1.04627372 0.78284474 0.09930170
v 1.21807448 0.28441873 -0.38327917
v 0.94306720 0.87501716 -0.24864689
v 0.53259208 0.77056691 -0.91649753
v 1.02791369 0.27987357 -0.75931982
v 0.75073062 0.87042000 -0.62899014
v 1.04520457 0.57869761 -0.53554633
v -0.01799837 -1.13164997 0.66063592
v 0.36215912 -1.25526782 0.06816045
v -0.23024901 -1.23563451 0.37020101
v -0.53168001 -1.14392780 -0.35516330
v 0.17199833 -1.25981297 -0.30788021
v -0.42258559 -1.24023167 -0.01014225
v -0.00424135 -1.30912663 0.01796806
v 1.12089740 -0.36501248 -0.56241710
v 0.78376912 -0.97146482 -0.38460388
v -0.68472246 -0.90041230 -0.66277936
v -0.24141547 -0.60200417 -1.13884395
v -0.35137146 -1.06742203 -0.67351095
v 0.18139061 0.65761866 -1.11959760
v 0.07921258 -0.02523372 -1.30795437
v 0.49764812 0.45985986 -1.12131349
v 0.96785495 -0.12149698 -0.87003315
v 0.37035532 -0.31365603 -1.21556763
v 0.79212207 0.16813747 -1.02786968
v 0.88616968 -0.48412727 -0.82871402
v 0.43690220 0.05389689 -1.23329358
v 0.43256764 -1.08441307 -0.58770395
v 0.17219628 -0.67011977 -1.11105164
v 0.06697277 -1.13631700 -0.64540064
v 0.68574335 -0.84466961 -0.72300218
v -0.08782076 -0.89001523 -0.95653639
v 0.53094981 -0.59836785 -1.03413793
v -1.00275886 -0.67725070 -0.50464819
v -1.10052772 0.00082262 -0.71168397
v -1.19352839 -0.47649254 -0.25478133
v -0.82784032 -0.59540529 -0.82470621
v -0.13664580 0.88078026 -0.96146643
v -0.77989967 0.57759308 -0.88079438
v -0.34450881 1.05078936 -0.70258387
v -0.17924707 0.57133426 -1.16679692
v -0.74025426 1.07705886 -0.02074261
v -1.00335064 0.65025383 -0.53254604
v -0.57051647 1.12428148 -0.35035092
v -0.99695047 0.83723125 0.10759387
v -0.72693005 0.87054136 -0.65462348
v -1.27554157 0.11414277 0.26158659
v -1.20150967 0.29379008 -0.42803005
v -1.29566577 -0.18017299 0.03211811
v -1.19737680 0.47668891 0.21330571
v -1.25165302 -0.07337076 -0.37786629
v -1.15336405 0.58349114 -0.19667869
v -0.29888256 -0.20344267 -1.26053653
v -0.83995841 0.17622252 -0.99150771
v -0.56428962 -0.41799849 -1.10773166
v -0.23999299 0.16537128 -1.27877701
v -0.88596494 -0.19228351 -0.94779118
v -0.56166832 0.39108626 -1.11883653
v 0.13664580 -0.88078026 0.96146643
v 0.77989967 -0.57759308 0.88079438
v 0.34450881 -1.05078936 0.70258387
v 1.00275886 0.67725070 0.50464819
v 1.10052772 -0.00082262 0.71168397
v 1.19352839 0.47649254 0.25478133
v 1.27554157 -0.11414277 -0.26158659
v 1.20150967 -0.29379008 0.42803005
v 1.29566577 0.18017299 -0.03211811
v 1.19737680 -0.47668891 -0.21330571
v 1.25165302 0.07337076 0.37786629
v 0.74025426 -1.07705886 0.02074261
v 1.00335064 -0.65025383 0.53254604
v 0.57051647 -1.12428148 0.35035092
v 0.99695047 -0.83723125 -0.10759387
v 0.72693005 -0.87054136 0.65462348
v 1.15336405 -0.58349114 0.19667869
v -0.18139061 -0.65761866 1.11959760
v -0.07921258 0.02523372 1.30795437
v -0.49764812 -0.45985986 1.12131349
v 0.17924707 -0.57133426 1.16679692
v 0.68472246 0.90041230 0.66277936
v 0.24141547 0.60200417 1.13884395
v 0.35137146 1.06742203 0.67351095
v 0.82784032 0.59540529 0.82470621
v -0.43256764 1.08441307 0.58770395
v -0.17219628 0.67011977 1.11105164
v -0.06697277 1.13631700 0.64540064
v -0.68574335 0.84466961 0.72300218
v 0.08782076 0.89001523 0.95653639
v -0.96785495 0.12149698 0.87003315
v -0.37035532 0.31365603 1.21556763
v -0.79212207 -0.16813747 1.02786968
v -0.88616968 0.48412727 0.82871402
v -0.43690220 -0.05389689 1.23329358
v -0.53094981 0.59836785 1.03413793
v 0.83995841 -0.17622252 0.99150771
v 0.29888256 0.20344267 1.26053653
v 0.56166832 -0.39108626 1.11883653
v 0.88596494 0.19228351 0.94779118
v 0.23999299 -0.16537128 1.27877701
v 0.56428962 0.41799849 1.10773166
f 1 138 54
f 138 38 140
f 54 140 17
f 138 140 54
f 38 139 155
f 139 12 152
f 155 152 41
f 139 152 155
f 17 153 55
f 153 41 151
f 55 151 6
f 153 151 55
f 38 155 140
f 155 41 153
f 140 153 17
f 155 153 140
f 1 54 43
f 54 17 56
f 43 56 13
f 54 56 43
f 17 55 60
f 55 6 58
f 60 58 18
f 55 58 60
f 13 59 44
f 59 18 57
f 44 57 2
f 59 57 44
f 17 60 56
f 60 18 59
f 56 59 13
f 60 59 56
f 1 43 70
f 43 13 72
f 70 72 22
f 43 72 70
f 13 44 75
f 44 2 73
f 75 73 23
f 44 73 75
f 22 76 71
f 76 23 74
f 71 74 8
f 76 74 71
f 13 75 72
f 75 23 76
f 72 76 22
f 75 76 72
f 1 70 121
f 70 22 123
f 121 123 34
f 70 123 121
f 22 71 134
f 71 8 132
f 134 132 37
f 71 132 134
f 34 136 122
f 136 37 133
f 122 133 11
f 136 133 122
f 22 134 123
f 134 37 136
f 123 136 34
f 134 136 123
f 1 121 138
f 121 34 141
f 138 141 38
f 121 141 138
f 34 122 159
f 122 11 157
f 159 157 42
f 122 157 159
f 38 161 139
f 161 42 158
f 139 158 12
f 161 158 139
f 34 159 141
f 159 42 161
f 141 161 38
f 159 161 141
f 2 57 96
f 57 18 98
f 96 98 29
f 57 98 96
f 18 58 111
f 58 6 109
f 111 109 32
f 58 109 111
f 29 113 97
f 113 32 110
f 97 110 10
f 113 110 97
f 18 111 98
f 111 32 113
f 98 113 29
f 111 113 98
f 6 151 62
f 151 41 154
f 62 154 19
f 151 154 62
f 41 152 156
f 152 12 147
f 156 147 40
f 152 147 156
f 19 149 61
f 149 40 146
f 61 146 5
f 149 146 61
f 41 156 154
f 156 40 149
f 154 149 19
f 156 149 154
f 12 158 143
f 158 42 162
f 143 162 39
f 158 162 143
f 42 157 160
f 157 11 125
f 160 125 35
f 157 125 160
f 39 145 142
f 145 35 124
f 142 124 3
f 145 124 142
f 42 160 162
f 160 35 145
f 162 145 39
f 160 145 162
f 11 133 128
f 133 37 137
f 128 137 36
f 133 137 128
f 37 132 135
f 132 8 78
f 135 78 24
f 132 78 135
f 36 130 127
f 130 24 77
f 127 77 7
f 130 77 127
f 37 135 137
f 135 24 130
f 137 130 36
f 135 130 137
f 8 74 90
f 74 23 92
f 90 92 28
f 74 92 90
f 23 73 81
f 73 2 79
f 81 79 25
f 73 79 81
f 28 94 91
f 94 25 80
f 91 80 9
f 94 80 91
f 23 81 92
f 81 25 94
f 92 94 28
f 81 94 92
f 4 100 50
f 100 30 102
f 50 102 16
f 100 102 50
f 30 101 108
f 101 10 105
f 108 105 31
f 101 105 108
f 16 106 51
f 106 31 104
f 51 104 5
f 106 104 51
f 30 108 102
f 108 31 106
f 102 106 16
f 108 106 102
f 4 50 46
f 50 16 52
f 46 52 14
f 50 52 46
f 16 51 53
f 51 5 48
f 53 48 15
f 51 48 53
f 14 49 45
f 49 15 47
f 45 47 3
f 49 47 45
f 16 53 52
f 53 15 49
f 52 49 14
f 53 49 52
f 4 46 66
f 46 14 68
f 66 68 21
f 46 68 66
f 14 45 65
f 45 3 63
f 65 63 20
f 45 63 65
f 21 69 67
f 69 20 64
f 67 64 7
f 69 64 67
f 14 65 68
f 65 20 69
f 68 69 21
f 65 69 68
f 4 66 82
f 66 21 84
f 82 84 26
f 66 84 82
f 21 67 87
f 67 7 85
f 87 85 27
f 67 85 87
f 26 89 83
f 89 27 86
f 83 86 9
f 89 86 83
f 21 87 84
f 87 27 89
f 84 89 26
f 87 89 84
f 4 82 100
f 82 26 103
f 100 103 30
f 82 103 100
f 26 83 118
f 83 9 115
f 118 115 33
f 83 115 118
f 30 120 101
f 120 33 116
f 101 116 10
f 120 116 101
f 26 118 103
f 118 33 120
f 103 120 30
f 118 120 103
f 5 104 61
f 104 31 107
f 61 107 19
f 104 107 61
f 31 105 114
f 105 10 110
f 114 110 32
f 105 110 114
f 19 112 62
f 112 32 109
f 62 109 6
f 112 109 62
f 31 114 107
f 114 32 112
f 107 112 19
f 114 112 107
f 3 47 142
f 47 15 144
f 142 144 39
f 47 144 142
f 15 48 148
f 48 5 146
f 148 146 40
f 48 146 148
f 39 150 143
f 150 40 147
f 143 147 12
f 150 147 143
f 15 148 144
f 148 40 150
f 144 150 39
f 148 150 144
f 7 64 127
f 64 20 129
f 127 129 36
f 64 129 127
f 20 63 126
f 63 3 124
f 126 124 35
f 63 124 126
f 36 131 128
f 131 35 125
f 128 125 11
f 131 125 128
f 20 126 129
f 126 35 131
f 129 131 36
f 126 131 129
f 9 86 91
f 86 27 95
f 91 95 28
f 86 95 91
f 27 85 88
f 85 7 77
f 88 77 24
f 85 77 88
f 28 93 90
f 93 24 78
f 90 78 8
f 93 78 90
f 27 88 95
f 88 24 93
f 95 93 28
f 88 93 95
f 10 116 97
f 116 33 119
f 97 119 29
f 116 119 97
f 33 115 117
f 115 9 80
f 117 80 25
f 115 80 117
f 29 99 96
f 99 25 79
f 96 79 2
f 99 79 96
f 33 117 119
f 117 25 99
f 119 99 29
f 117 99 119

