# https://github.com/mikedh/trimesh
v 0.94123896 -1.56883347 0.01498165
v -0.24316004 -0.53578152 1.73239864
v -0.60814514 -0.69346676 -1.58008133
v -1.79254414 0.33958518 0.13733565
v 1.79254414 -0.33958518 -0.13733565
v 0.60814514 0.69346676 1.58008133
v 0.24316004 0.53578152 -1.73239864
v -0.94123896 1.56883347 -0.01498165
v 0.34903946 -1.05230749 0.87369015
v 0.16654691 -1.13115011 -0.78254984
v -0.42565259 -0.61462414 0.07615865
v -1.01785209 -0.09809817 0.93486714
v -1.20034464 -0.17694079 -0.72137284
v 1.36689155 -0.95420933 -0.06117700
v 0.77469205 -0.43768335 0.79753149
v 0.59219950 -0.51652597 -0.85870849
v 0.18249255 0.07884262 1.65623999
v 1.20034464 0.17694079 0.72137284
v -0.18249255 -0.07884262 -1.65623999
v 1.01785209 0.09809817 -0.93486714
v 0.42565259 0.61462414 -0.07615865
v -0.59219950 0.51652597 0.85870849
v -0.77469205 0.43768335 -0.79753149
v -1.36689155 0.95420933 0.06117700
v -0.16654691 1.13115011 0.78254984
v -0.34903946 1.05230749 -0.87369015
v 0.64513921 -1.31057048 0.44433590
v 0.05293971 -0.79404451 1.30304439
v 0.55389294 -1.34999179 -0.38378409
v -0.22079911 -0.91230844 -1.18131559
v 0.25779319 -1.09172880 0.04557015
v -1.10909837 -0.13751948 0.10674715
v -0.03830656 -0.83346582 0.47492440
v -0.12955284 -0.87288713 -0.35319559
v -0.63050607 -0.31693984 1.33363289
v -1.40519812 0.12074351 0.53610140
v -0.33440632 -0.57520283 0.90427864
v -0.72175234 -0.35636115 0.50551290
v -0.90424489 -0.43520378 -1.15072709
v -1.49644439 0.08132220 -0.29201860
v -0.51689886 -0.65404545 -0.75196134
v -0.81299861 -0.39578246 -0.32260710
v 1.15406526 -1.26152140 -0.02309767
v 1.57971785 -0.64689726 -0.09925632
v 0.85796551 -1.00325841 0.40625657
v 0.76671923 -1.04267972 -0.42186342
v 0.26576600 -0.48673244 1.26496507
v 1.28361810 -0.38863427 0.33009792
v 0.56186576 -0.74499542 0.83561082
v 1.07079180 -0.69594634 0.36817725
v -0.00797282 -0.60499637 -1.21939491
v 1.19237182 -0.42805558 -0.49802207
v 0.37937321 -0.82383804 -0.82062917
v 0.97954553 -0.73536765 -0.45994274
v -0.03033375 -0.22846945 1.69431931
v 0.39531884 0.38615469 1.61816066
v 0.47859230 -0.17942037 1.22688574
v 1.49644439 -0.08132220 0.29201860
v 0.90424489 0.43520378 1.15072709
v 0.98751835 -0.13037128 0.75945217
v 0.69141859 0.12789171 1.18880641
v -0.39531884 -0.38615469 -1.61816066
v 0.03033375 0.22846945 -1.69431931
v 0.20485348 -0.29768430 -1.25747424
v 1.40519812 -0.12074351 -0.53610140
v 0.63050607 0.31693984 -1.33363289
v 0.80502580 -0.20921390 -0.89678782
v 1.10909837 0.13751948 -0.10674715
v 0.41767977 0.00962777 -1.29555356
v 0.51689886 0.65404545 0.75196134
v 0.33440632 0.57520283 -0.90427864
v 0.81299861 0.39578246 0.32260710
v 0.72175234 0.35636115 -0.50551290
v -0.41767977 -0.00962777 1.29555356
v -0.76671923 1.04267972 0.42186342
v -0.80502580 0.20921390 0.89678782
v -0.20485348 0.29768430 1.25747424
v -0.69141859 -0.12789171 -1.18880641
v -0.85796551 1.00325841 -0.40625657
v -0.98751835 0.13037128 -0.75945217
v -0.47859230 0.17942037 -1.22688574
v -1.57971785 0.64689726 0.09925632
v -1.15406526 1.26152140 0.02309767
v -1.19237182 0.42805558 0.49802207
v -1.28361810 0.38863427 -0.33009792
v -0.97954553 0.73536765 0.45994274
v -1.07079180 0.69594634 -0.36817725
v 0.22079911 0.91230844 1.18131559
v -0.55389294 1.34999179 0.38378409
v 0.00797282 0.60499637 1.21939491
v 0.12955284 0.87288713 0.35319559
v -0.37937321 0.82383804 0.82062917
v -0.05293971 0.79404451 -1.30304439
v -0.64513921 1.31057048 -0.44433590
v -0.26576600 0.48673244 -1.26496507
v 0.03830656 0.83346582 -0.47492440
v -0.56186576 0.74499542 -0.83561082
v -0.25779319 1.09172880 -0.04557015
f 2 35 28
f 35 12 37
f 28 37 9
f 35 37 28
f 12 36 38
f 36 4 32
f 38 32 11
f 36 32 38
f 9 33 27
f 33 11 31
f 27 31 1
f 33 31 27
f 12 38 37
f 38 11 33
f 37 33 9
f 38 33 37
f 5 48 44
f 48 15 50
f 44 50 14
f 48 50 44
f 15 47 49
f 47 2 28
f 49 28 9
f 47 28 49
f 14 45 43
f 45 9 27
f 43 27 1
f 45 27 43
f 15 49 50
f 49 9 45
f 50 45 14
f 49 45 50
f 1 31 29
f 31 11 34
f 29 34 10
f 31 34 29
f 11 32 42
f 32 4 40
f 42 40 13
f 32 40 42
f 10 41 30
f 41 13 39
f 30 39 3
f 41 39 30
f 11 42 34
f 42 13 41
f 34 41 10
f 42 41 34
f 3 51 30
f 51 16 53
f 30 53 10
f 51 53 30
f 16 52 54
f 52 5 44
f 54 44 14
f 52 44 54
f 10 46 29
f 46 14 43
f 29 43 1
f 46 43 29
f 16 54 53
f 54 14 46
f 53 46 10
f 54 46 53
f 2 74 35
f 74 22 76
f 35 76 12
f 74 76 35
f 22 75 86
f 75 8 83
f 86 83 24
f 75 83 86
f 12 84 36
f 84 24 82
f 36 82 4
f 84 82 36
f 22 86 76
f 86 24 84
f 76 84 12
f 86 84 76
f 6 56 59
f 56 17 61
f 59 61 18
f 56 61 59
f 17 55 57
f 55 2 47
f 57 47 15
f 55 47 57
f 18 60 58
f 60 15 48
f 58 48 5
f 60 48 58
f 17 57 61
f 57 15 60
f 61 60 18
f 57 60 61
f 6 88 56
f 88 25 90
f 56 90 17
f 88 90 56
f 25 89 92
f 89 8 75
f 92 75 22
f 89 75 92
f 17 77 55
f 77 22 74
f 55 74 2
f 77 74 55
f 25 92 90
f 92 22 77
f 90 77 17
f 92 77 90
f 4 82 40
f 82 24 85
f 40 85 13
f 82 85 40
f 24 83 87
f 83 8 79
f 87 79 23
f 83 79 87
f 13 80 39
f 80 23 78
f 39 78 3
f 80 78 39
f 24 87 85
f 87 23 80
f 85 80 13
f 87 80 85
f 7 66 63
f 66 20 69
f 63 69 19
f 66 69 63
f 20 65 67
f 65 5 52
f 67 52 16
f 65 52 67
f 19 64 62
f 64 16 51
f 62 51 3
f 64 51 62
f 20 67 69
f 67 16 64
f 69 64 19
f 67 64 69
f 3 78 62
f 78 23 81
f 62 81 19
f 78 81 62
f 23 79 97
f 79 8 94
f 97 94 26
f 79 94 97
f 19 95 63
f 95 26 93
f 63 93 7
f 95 93 63
f 23 97 81
f 97 26 95
f 81 95 19
f 97 95 81
f 7 71 66
f 71 21 73
f 66 73 20
f 71 73 66
f 21 70 72
f 70 6 59
f 72 59 18
f 70 59 72
f 20 68 65
f 68 18 58
f 65 58 5
f 68 58 65
f 21 72 73
f 72 18 68
f 73 68 20
f 72 68 73
f 8 89 94
f 89 25 98
f 94 98 26
f 89 98 94
f 25 88 91
f 88 6 70
f 91 70 21
f 88 70 91
f 26 96 93
f 96 21 71
f 93 71 7
f 96 71 93
f 25 91 98
f 91 21 96
f 98 96 26
f 91 96 98

