# https://github.com/mikedh/trimesh
v 0.25334364 0.68688777 0.81634969
v 0.56346116 -0.84181643 0.41985859
v 0.11518354 0.98947499 -0.45836298
v 0.42530106 -0.53922921 -0.85485408
v -0.42530106 0.53922921 0.85485408
v -0.11518354 -0.98947499 0.45836298
v -0.56346116 0.84181643 -0.41985859
v -0.25334364 -0.68688777 -0.81634969
v 0.40840240 -0.07746433 0.61810414
v 0.18426359 0.83818138 0.17899335
v 0.33932235 0.07382928 -0.01925219
v 0.49438111 -0.69052282 -0.21749774
v 0.27024230 0.22512289 -0.65660853
v -0.08597871 0.61305849 0.83560188
v 0.06908005 -0.15129361 0.63735634
v -0.15505876 0.76435210 0.19824555
v 0.22413881 -0.91564571 0.43911079
v -0.27024230 -0.22512289 0.65660853
v -0.22413881 0.91564571 -0.43911079
v -0.49438111 0.69052282 0.21749774
v -0.33932235 -0.07382928 0.01925219
v 0.15505876 -0.76435210 -0.19824555
v -0.06908005 0.15129361 -0.63735634
v 0.08597871 -0.61305849 -0.83560188
v -0.18426359 -0.83818138 -0.17899335
v -0.40840240 0.07746433 -0.61810414
v 0.33087302 0.30471172 0.71722692
v 0.48593178 -0.45964038 0.51898137
v 0.21880362 0.76253457 0.49767152
v 0.14972356 0.91382818 -0.13968481
v 0.29633300 0.38035852 0.39854875
v 0.38231170 -0.23269996 -0.43705314
v 0.37386238 -0.00181753 0.29942597
v 0.26179297 0.45600533 0.07987058
v 0.52892114 -0.76616962 0.10118043
v 0.45984108 -0.61487601 -0.53617591
v 0.45139176 -0.38399357 0.20030320
v 0.41685173 -0.30834677 -0.11837497
v 0.19271292 0.60729894 -0.55748576
v 0.34777168 -0.15705316 -0.75573130
v 0.22725294 0.53165213 -0.23880759
v 0.30478232 0.14947608 -0.33793036
v 0.08368247 0.64997313 0.82597579
v -0.25563988 0.57614385 0.84522798
v 0.16121185 0.26779708 0.72685301
v 0.04914244 0.72561993 0.50729762
v 0.31627061 -0.49655502 0.52860746
v -0.17811050 0.19396780 0.74610521
v 0.23874123 -0.11437897 0.62773024
v -0.00844933 0.23088244 0.73647911
v -0.01993761 0.87691354 -0.13005872
v -0.29017991 0.65179065 0.52654981
v 0.01460241 0.80126674 0.18861945
v -0.12051873 0.68870529 0.51692372
v 0.39379999 -0.87873107 0.42948469
v 0.05447764 -0.95256035 0.44873688
v 0.14660943 -0.53346966 0.53823356
v -0.34777168 0.15705316 0.75573130
v -0.19271292 -0.60729894 0.55748576
v -0.10058112 -0.18820825 0.64698243
v -0.02305174 -0.57038430 0.54785966
v -0.05447764 0.95256035 -0.44873688
v -0.39379999 0.87873107 -0.42948469
v -0.18959879 0.83999890 -0.12043262
v -0.45984108 0.61487601 0.53617591
v -0.52892114 0.76616962 -0.10118043
v -0.32471994 0.72743746 0.20787164
v -0.38231170 0.23269996 0.43705314
v -0.35925996 0.80308426 -0.11080652
v -0.22725294 -0.53165213 0.23880759
v -0.45139176 0.38399357 -0.20030320
v -0.30478232 -0.14947608 0.33793036
v -0.41685173 0.30834677 0.11837497
v 0.35925996 -0.80308426 0.11080652
v -0.04914244 -0.72561993 -0.50729762
v 0.32471994 -0.72743746 -0.20787164
v 0.18959879 -0.83999890 0.12043262
v 0.02305174 0.57038430 -0.54785966
v -0.16121185 -0.26779708 -0.72685301
v 0.10058112 0.18820825 -0.64698243
v -0.14660943 0.53346966 -0.53823356
v 0.25563988 -0.57614385 -0.84522798
v -0.08368247 -0.64997313 -0.82597579
v 0.29017991 -0.65179065 -0.52654981
v 0.17811050 -0.19396780 -0.74610521
v 0.12051873 -0.68870529 -0.51692372
v 0.00844933 -0.23088244 -0.73647911
v -0.14972356 -0.91382818 0.13968481
v -0.21880362 -0.76253457 -0.49767152
v 0.01993761 -0.87691354 0.13005872
v -0.26179297 -0.45600533 -0.07987058
v -0.01460241 -0.80126674 -0.18861945
v -0.48593178 0.45964038 -0.51898137
v -0.33087302 -0.30471172 -0.71722692
v -0.31627061 0.49655502 -0.52860746
v -0.37386238 0.00181753 -0.29942597
v -0.23874123 0.11437897 -0.62773024
v -0.29633300 -0.38035852 -0.39854875
v 0.29210833 0.49579974 0.76678830
v 0.36963771 0.11362369 0.66766553
v 0.52469647 -0.65072840 0.46941998
v 0.44716709 -0.26855235 0.56854275
v 0.23607363 0.72471117 0.65701061
v 0.20153360 0.80035797 0.33833244
v 0.13245355 0.95165158 -0.29902390
v 0.16699358 0.87600478 0.01965427
v 0.27483832 0.53362314 0.60744922
v 0.31782767 0.22709390 0.18964828
v 0.31360301 0.34253512 0.55788783
v 0.25756831 0.57144655 0.44811013
v 0.40380638 -0.38596458 -0.64595361
v 0.36081703 -0.07943534 -0.22815267
v 0.39113239 -0.03964093 0.45876506
v 0.35659236 0.03600588 0.14008689
v 0.35236770 0.15144710 0.50832644
v 0.33509769 0.18927050 0.34898736
v 0.22302828 0.64709335 0.12943197
v 0.30055766 0.26491730 0.03030919
v 0.24029829 0.60926995 0.28877105
v 0.27906298 0.41818193 0.23920966
v 0.54619115 -0.80399302 0.26051951
v 0.51165112 -0.72834622 -0.05815866
v 0.50742646 -0.61290500 0.31008090
v 0.44257107 -0.57705261 -0.69551499
v 0.47711110 -0.65269941 -0.37683683
v 0.42107639 -0.42378799 -0.48661452
v 0.42989708 -0.23072895 0.40920367
v 0.47288643 -0.53725820 -0.00859727
v 0.46866177 -0.42181698 0.35964228
v 0.41262707 -0.19290555 0.24986459
v 0.49015645 -0.57508160 0.15074181
v 0.37808704 -0.11725874 -0.06881358
v 0.45561642 -0.49943479 -0.16793636
v 0.39958172 -0.27052337 -0.27771405
v 0.39535705 -0.15508215 0.09052550
v 0.43834641 -0.46161139 -0.32727544
v 0.43412174 -0.34617017 0.04096412
v 0.15394823 0.79838696 -0.50792437
v 0.23147761 0.41621091 -0.60704714
v 0.17121824 0.76056356 -0.34858529
v 0.38653637 -0.34814118 -0.80529269
v 0.30900699 0.03403487 -0.70616992
v 0.36504169 -0.19487656 -0.59639222
v 0.20575827 0.68491675 -0.02990712
v 0.24874762 0.37838751 -0.44770806
v 0.18848825 0.72274016 -0.18924620
v 0.24452296 0.49382873 -0.07946850
v 0.20998293 0.56947554 -0.39814667
v 0.32205234 0.11165268 -0.17859128
v 0.28751231 0.18729949 -0.49726945
v 0.34354701 -0.04161194 -0.38749175
v 0.28328765 0.30274071 -0.12902989
v 0.32627700 -0.00378854 -0.54683083
v 0.26601763 0.34056411 -0.28836898
v 0.16851306 0.66843045 0.82116274
v -0.00114812 0.63151581 0.83078883
v 0.20727775 0.47734242 0.77160135
v 0.15124304 0.70625385 0.66182365
v -0.34047047 0.55768653 0.85004103
v -0.17080929 0.59460117 0.84041493
v 0.28480713 0.09516637 0.67247858
v 0.03761657 0.44042778 0.78122745
v 0.24604244 0.28625440 0.72203996
v 0.12244716 0.45888510 0.77641440
v 0.11670302 0.78190065 0.34314549
v -0.01841813 0.66933921 0.67144975
v 0.13397303 0.74407725 0.50248457
v 0.06641245 0.68779653 0.66663670
v 0.43986589 -0.66918572 0.47423303
v 0.19267533 -0.32392431 0.58298190
v 0.40110120 -0.47809770 0.52379442
v -0.30170578 0.36659850 0.80047964
v -0.05451522 0.02133709 0.69173077
v -0.21687519 0.38505582 0.79566659
v 0.32357182 -0.09592165 0.62291719
v 0.15391064 -0.13283629 0.63254329
v 0.36233651 -0.28700967 0.57335580
v 0.19997654 0.07670905 0.67729163
v 0.27750592 -0.30546699 0.57816885
v -0.04721402 0.42197046 0.78604050
v 0.03031536 0.03979441 0.68691772
v -0.13204460 0.40351314 0.79085354
v 0.07638126 0.24933976 0.73166606
v -0.09327991 0.21242512 0.74129216
v 0.11514595 0.05825173 0.68210467
v 0.04762296 0.93319426 -0.29421085
v -0.08749819 0.82063282 0.03409342
v 0.06489297 0.89537086 -0.13487177
v -0.35774048 0.59550993 0.69070195
v -0.22261933 0.70807137 0.36239768
v -0.27290989 0.61396725 0.68588890
v 0.09943300 0.81972406 0.18380640
v -0.07022817 0.78280942 0.19343250
v 0.08216299 0.85754746 0.02446732
v 0.03187243 0.76344333 0.34795853
v -0.00266760 0.83909014 0.02928037
v -0.10324872 0.65088189 0.67626280
v -0.13778875 0.72652869 0.35758463
v -0.18807931 0.63242457 0.68107585
v -0.03568815 0.70716261 0.51211067
v -0.20534932 0.67024797 0.52173676
v -0.05295816 0.74498601 0.35277158
v 0.47863058 -0.86027375 0.42467164
v 0.30896940 -0.89718839 0.43429774
v 0.35503530 -0.68764304 0.47904608
v -0.03035295 -0.97101767 0.45354993
v 0.13930823 -0.93410303 0.44392384
v 0.10784474 -0.34238163 0.58779495
v 0.18537412 -0.72455768 0.48867217
v 0.23144002 -0.51501234 0.53342051
v 0.27020471 -0.70610036 0.48385913
v -0.38653637 0.34814118 0.80529269
v -0.30900699 -0.03403487 0.70616992
v -0.26294109 0.17551048 0.75091826
v -0.15394823 -0.79838696 0.50792437
v -0.23147761 -0.41621091 0.60704714
v -0.06911764 -0.77992964 0.50311132
v -0.01575053 -0.16975093 0.64216938
v -0.18541171 -0.20666557 0.65179548
v -0.13934581 0.00287977 0.69654382
v 0.02301416 -0.36083895 0.59260800
v -0.22417640 -0.01557755 0.70135687
v 0.10054354 -0.74301500 0.49348522
v -0.14664702 -0.39775359 0.60223409
v 0.01571295 -0.76147232 0.49829827
v 0.06177885 -0.55192698 0.54304661
v -0.10788233 -0.58884162 0.55267271
v -0.06181643 -0.37929627 0.59742105
v 0.03035295 0.97101767 -0.45354993
v -0.13930823 0.93410303 -0.44392384
v -0.03720763 0.91473694 -0.28939780
v -0.47863058 0.86027375 -0.42467164
v -0.30896940 0.89718839 -0.43429774
v -0.17232877 0.80217550 0.03890646
v -0.20686880 0.87782230 -0.27977170
v -0.10476820 0.85845622 -0.12524567
v -0.12203821 0.89627962 -0.28458475
v -0.44257107 0.57705261 0.69551499
v -0.47711110 0.65269941 0.37683683
v -0.37501050 0.63333333 0.53136286
v -0.40380638 0.38596458 0.64595361
v -0.54619115 0.80399302 -0.26051951
v -0.51165112 0.72834622 0.05815866
v -0.46136056 0.82245034 -0.26533256
v -0.23988935 0.74589478 0.20305860
v -0.40955052 0.70898014 0.21268469
v -0.30744992 0.68961405 0.36721073
v -0.25715936 0.78371818 0.04371951
v -0.39228051 0.67115673 0.37202378
v -0.32627700 0.00378854 0.54683083
v -0.43834641 0.46161139 0.32727544
v -0.36504169 0.19487656 0.59639222
v -0.42107639 0.42378799 0.48661452
v -0.29169939 0.85936498 -0.27495866
v -0.42682054 0.74680354 0.05334561
v -0.37652998 0.84090766 -0.27014561
v -0.27442937 0.82154158 -0.11561957
v -0.44409055 0.78462694 -0.10599347
v -0.34198995 0.76526086 0.04853256
v -0.17121824 -0.76056356 0.34858529
v -0.28328765 -0.30274071 0.12902989
v -0.20998293 -0.56947554 0.39814667
v -0.50742646 0.61290500 -0.31008090
v -0.39535705 0.15508215 -0.09052550
v -0.49015645 0.57508160 -0.15074181
v -0.28751231 -0.18729949 0.49726945
v -0.32205234 -0.11165268 0.17859128
v -0.24874762 -0.37838751 0.44770806
v -0.34354701 0.04161194 0.38749175
v -0.26601763 -0.34056411 0.28836898
v -0.45561642 0.49943479 0.16793636
v -0.37808704 0.11725874 0.06881358
v -0.47288643 0.53725820 0.00859727
v -0.39958172 0.27052337 0.27771405
v -0.43412174 0.34617017 -0.04096412
v -0.36081703 0.07943534 0.22815267
v 0.46136056 -0.82245034 0.26533256
v 0.25715936 -0.78371818 -0.04371951
v 0.44409055 -0.78462694 0.10599347
v 0.37652998 -0.84090766 0.27014561
v -0.15124304 -0.70625385 -0.66182365
v 0.05295816 -0.74498601 -0.35277158
v 0.40955052 -0.70898014 -0.21268469
v 0.23988935 -0.74589478 -0.20305860
v 0.42682054 -0.74680354 -0.05334561
v 0.34198995 -0.76526086 -0.04853256
v 0.20686880 -0.87782230 0.27977170
v 0.17232877 -0.80217550 -0.03890646
v 0.29169939 -0.85936498 0.27495866
v 0.27442937 -0.82154158 0.11561957
v 0.06911764 0.77992964 -0.50311132
v -0.02301416 0.36083895 -0.59260800
v 0.10788233 0.58884162 -0.55267271
v -0.01571295 0.76147232 -0.49829827
v -0.20727775 -0.47734242 -0.77160135
v -0.11514595 -0.05825173 -0.68210467
v 0.18541171 0.20666557 -0.65179548
v 0.01575053 0.16975093 -0.64216938
v 0.14664702 0.39775359 -0.60223409
v 0.06181643 0.37929627 -0.59742105
v -0.18537412 0.72455768 -0.48867217
v -0.10784474 0.34238163 -0.58779495
v -0.10054354 0.74301500 -0.49348522
v -0.06177885 0.55192698 -0.54304661
v 0.34047047 -0.55768653 -0.85004103
v 0.17080929 -0.59460117 -0.84041493
v 0.35774048 -0.59550993 -0.69070195
v 0.30170578 -0.36659850 -0.80047964
v -0.16851306 -0.66843045 -0.82116274
v 0.00114812 -0.63151581 -0.83078883
v -0.06641245 -0.68779653 -0.66663670
v -0.12244716 -0.45888510 -0.77641440
v 0.39228051 -0.67115673 -0.37202378
v 0.18807931 -0.63242457 -0.68107585
v 0.37501050 -0.63333333 -0.53136286
v 0.30744992 -0.68961405 -0.36721073
v 0.27290989 -0.61396725 -0.68588890
v 0.22417640 0.01557755 -0.70135687
v 0.13204460 -0.40351314 -0.79085354
v 0.26294109 -0.17551048 -0.75091826
v 0.13934581 -0.00287977 -0.69654382
v 0.21687519 -0.38505582 -0.79566659
v 0.13778875 -0.72652869 -0.35758463
v 0.10324872 -0.65088189 -0.67626280
v 0.03568815 -0.70716261 -0.51211067
v 0.22261933 -0.70807137 -0.36239768
v 0.01841813 -0.66933921 -0.67144975
v 0.20534932 -0.67024797 -0.52173676
v -0.03031536 -0.03979441 -0.68691772
v 0.04721402 -0.42197046 -0.78604050
v -0.07638126 -0.24933976 -0.73166606
v 0.05451522 -0.02133709 -0.69173077
v -0.03761657 -0.44042778 -0.78122745
v 0.09327991 -0.21242512 -0.74129216
v -0.13245355 -0.95165158 0.29902390
v -0.16699358 -0.87600478 -0.01965427
v -0.04762296 -0.93319426 0.29421085
v -0.18848825 -0.72274016 0.18924620
v -0.23607363 -0.72471117 -0.65701061
v -0.20153360 -0.80035797 -0.33833244
v -0.13397303 -0.74407725 -0.50248457
v 0.12203821 -0.89627962 0.28458475
v -0.08216299 -0.85754746 -0.02446732
v 0.03720763 -0.91473694 0.28939780
v 0.10476820 -0.85845622 0.12524567
v -0.06489297 -0.89537086 0.13487177
v -0.30055766 -0.26491730 -0.03030919
v -0.22302828 -0.64709335 -0.12943197
v -0.24452296 -0.49382873 0.07946850
v -0.20575827 -0.68491675 0.02990712
v 0.07022817 -0.78280942 -0.19343250
v -0.09943300 -0.81972406 -0.18380640
v -0.03187243 -0.76344333 -0.34795853
v 0.08749819 -0.82063282 -0.03409342
v -0.11670302 -0.78190065 -0.34314549
v 0.00266760 -0.83909014 -0.02928037
v -0.52469647 0.65072840 -0.46941998
v -0.44716709 0.26855235 -0.56854275
v -0.43986589 0.66918572 -0.47423303
v -0.46866177 0.42181698 -0.35964228
v -0.29210833 -0.49579974 -0.76678830
v -0.36963771 -0.11362369 -0.66766553
v -0.24604244 -0.28625440 -0.72203996
v -0.27483832 -0.53362314 -0.60744922
v -0.27020471 0.70610036 -0.48385913
v -0.36233651 0.28700967 -0.57335580
v -0.35503530 0.68764304 -0.47904608
v -0.23144002 0.51501234 -0.53342051
v -0.40110120 0.47809770 -0.52379442
v -0.35659236 -0.03600588 -0.14008689
v -0.39113239 0.03964093 -0.45876506
v -0.41262707 0.19290555 -0.24986459
v -0.31782767 -0.22709390 -0.18964828
v -0.42989708 0.23072895 -0.40920367
v -0.15391064 0.13283629 -0.63254329
v -0.32357182 0.09592165 -0.62291719
v -0.19997654 -0.07670905 -0.67729163
v -0.19267533 0.32392431 -0.58298190
v -0.28480713 -0.09516637 -0.67247858
v -0.27750592 0.30546699 -0.57816885
v -0.24029829 -0.60926995 -0.28877105
v -0.35236770 -0.15144710 -0.50832644
v -0.25756831 -0.57144655 -0.44811013
v -0.27906298 -0.41818193 -0.23920966
v -0.31360301 -0.34253512 -0.55788783
v -0.33509769 -0.18927050 -0.34898736
f 2 121 101
f 121 35 123
f 101 123 28
f 121 123 101
f 35 122 131
f 122 12 128
f 131 128 37
f 122 128 131
f 28 129 102
f 129 37 127
f 102 127 9
f 129 127 102
f 35 131 123
f 131 37 129
f 123 129 28
f 131 129 123
f 12 125 133
f 125 36 136
f 133 136 38
f 125 136 133
f 36 124 126
f 124 4 111
f 126 111 32
f 124 111 126
f 38 134 132
f 134 32 112
f 132 112 11
f 134 112 132
f 36 126 136
f 126 32 134
f 136 134 38
f 126 134 136
f 9 113 100
f 113 33 115
f 100 115 27
f 113 115 100
f 33 114 116
f 114 11 108
f 116 108 31
f 114 108 116
f 27 109 99
f 109 31 107
f 99 107 1
f 109 107 99
f 33 116 115
f 116 31 109
f 115 109 27
f 116 109 115
f 12 133 128
f 133 38 137
f 128 137 37
f 133 137 128
f 38 132 135
f 132 11 114
f 135 114 33
f 132 114 135
f 37 130 127
f 130 33 113
f 127 113 9
f 130 113 127
f 38 135 137
f 135 33 130
f 137 130 37
f 135 130 137
f 5 172 159
f 172 48 174
f 159 174 44
f 172 174 159
f 48 173 184
f 173 15 181
f 184 181 50
f 173 181 184
f 44 182 160
f 182 50 180
f 160 180 14
f 182 180 160
f 48 184 174
f 184 50 182
f 174 182 44
f 184 182 174
f 15 170 176
f 170 47 179
f 176 179 49
f 170 179 176
f 47 169 171
f 169 2 101
f 171 101 28
f 169 101 171
f 49 177 175
f 177 28 102
f 175 102 9
f 177 102 175
f 47 171 179
f 171 28 177
f 179 177 49
f 171 177 179
f 14 162 156
f 162 45 164
f 156 164 43
f 162 164 156
f 45 161 163
f 161 9 100
f 163 100 27
f 161 100 163
f 43 157 155
f 157 27 99
f 155 99 1
f 157 99 155
f 45 163 164
f 163 27 157
f 164 157 43
f 163 157 164
f 15 176 181
f 176 49 185
f 181 185 50
f 176 185 181
f 49 175 178
f 175 9 161
f 178 161 45
f 175 161 178
f 50 183 180
f 183 45 162
f 180 162 14
f 183 162 180
f 49 178 185
f 178 45 183
f 185 183 50
f 178 183 185
f 1 107 103
f 107 31 110
f 103 110 29
f 107 110 103
f 31 108 120
f 108 11 118
f 120 118 34
f 108 118 120
f 29 119 104
f 119 34 117
f 104 117 10
f 119 117 104
f 31 120 110
f 120 34 119
f 110 119 29
f 120 119 110
f 11 112 149
f 112 32 151
f 149 151 42
f 112 151 149
f 32 111 143
f 111 4 141
f 143 141 40
f 111 141 143
f 42 153 150
f 153 40 142
f 150 142 13
f 153 142 150
f 32 143 151
f 143 40 153
f 151 153 42
f 143 153 151
f 10 144 106
f 144 41 146
f 106 146 30
f 144 146 106
f 41 145 148
f 145 13 139
f 148 139 39
f 145 139 148
f 30 140 105
f 140 39 138
f 105 138 3
f 140 138 105
f 41 148 146
f 148 39 140
f 146 140 30
f 148 140 146
f 11 149 118
f 149 42 152
f 118 152 34
f 149 152 118
f 42 150 154
f 150 13 145
f 154 145 41
f 150 145 154
f 34 147 117
f 147 41 144
f 117 144 10
f 147 144 117
f 42 154 152
f 154 41 147
f 152 147 34
f 154 147 152
f 3 186 105
f 186 51 188
f 105 188 30
f 186 188 105
f 51 187 196
f 187 16 193
f 196 193 53
f 187 193 196
f 30 194 106
f 194 53 192
f 106 192 10
f 194 192 106
f 51 196 188
f 196 53 194
f 188 194 30
f 196 194 188
f 16 190 198
f 190 52 201
f 198 201 54
f 190 201 198
f 52 189 191
f 189 5 159
f 191 159 44
f 189 159 191
f 54 199 197
f 199 44 160
f 197 160 14
f 199 160 197
f 52 191 201
f 191 44 199
f 201 199 54
f 191 199 201
f 10 165 104
f 165 46 167
f 104 167 29
f 165 167 104
f 46 166 168
f 166 14 156
f 168 156 43
f 166 156 168
f 29 158 103
f 158 43 155
f 103 155 1
f 158 155 103
f 46 168 167
f 168 43 158
f 167 158 29
f 168 158 167
f 16 198 193
f 198 54 202
f 193 202 53
f 198 202 193
f 54 197 200
f 197 14 166
f 200 166 46
f 197 166 200
f 53 195 192
f 195 46 165
f 192 165 10
f 195 165 192
f 54 200 202
f 200 46 195
f 202 195 53
f 200 195 202
f 2 277 121
f 277 74 279
f 121 279 35
f 277 279 121
f 74 278 286
f 278 22 284
f 286 284 76
f 278 284 286
f 35 285 122
f 285 76 283
f 122 283 12
f 285 283 122
f 74 286 279
f 286 76 285
f 279 285 35
f 286 285 279
f 22 282 323
f 282 75 325
f 323 325 86
f 282 325 323
f 75 281 311
f 281 8 309
f 311 309 83
f 281 309 311
f 86 327 324
f 327 83 310
f 324 310 24
f 327 310 324
f 75 311 325
f 311 83 327
f 325 327 86
f 311 327 325
f 12 313 125
f 313 84 315
f 125 315 36
f 313 315 125
f 84 314 317
f 314 24 306
f 317 306 82
f 314 306 317
f 36 307 124
f 307 82 305
f 124 305 4
f 307 305 124
f 84 317 315
f 317 82 307
f 315 307 36
f 317 307 315
f 22 323 284
f 323 86 326
f 284 326 76
f 323 326 284
f 86 324 328
f 324 24 314
f 328 314 84
f 324 314 328
f 76 316 283
f 316 84 313
f 283 313 12
f 316 313 283
f 86 328 326
f 328 84 316
f 326 316 76
f 328 316 326
f 6 206 215
f 206 56 217
f 215 217 59
f 206 217 215
f 56 207 225
f 207 17 223
f 225 223 61
f 207 223 225
f 59 227 216
f 227 61 224
f 216 224 18
f 227 224 216
f 56 225 217
f 225 61 227
f 217 227 59
f 225 227 217
f 17 204 209
f 204 55 211
f 209 211 57
f 204 211 209
f 55 203 205
f 203 2 169
f 205 169 47
f 203 169 205
f 57 210 208
f 210 47 170
f 208 170 15
f 210 170 208
f 55 205 211
f 205 47 210
f 211 210 57
f 205 210 211
f 18 219 213
f 219 60 222
f 213 222 58
f 219 222 213
f 60 218 220
f 218 15 173
f 220 173 48
f 218 173 220
f 58 214 212
f 214 48 172
f 212 172 5
f 214 172 212
f 60 220 222
f 220 48 214
f 222 214 58
f 220 214 222
f 17 209 223
f 209 57 226
f 223 226 61
f 209 226 223
f 57 208 221
f 208 15 218
f 221 218 60
f 208 218 221
f 61 228 224
f 228 60 219
f 224 219 18
f 228 219 224
f 57 221 226
f 221 60 228
f 226 228 61
f 221 228 226
f 6 335 206
f 335 88 337
f 206 337 56
f 335 337 206
f 88 336 346
f 336 25 343
f 346 343 90
f 336 343 346
f 56 344 207
f 344 90 342
f 207 342 17
f 344 342 207
f 88 346 337
f 346 90 344
f 337 344 56
f 346 344 337
f 25 340 352
f 340 89 355
f 352 355 92
f 340 355 352
f 89 339 341
f 339 8 281
f 341 281 75
f 339 281 341
f 92 353 351
f 353 75 282
f 351 282 22
f 353 282 351
f 89 341 355
f 341 75 353
f 355 353 92
f 341 353 355
f 17 287 204
f 287 77 289
f 204 289 55
f 287 289 204
f 77 288 290
f 288 22 278
f 290 278 74
f 288 278 290
f 55 280 203
f 280 74 277
f 203 277 2
f 280 277 203
f 77 290 289
f 290 74 280
f 289 280 55
f 290 280 289
f 25 352 343
f 352 92 356
f 343 356 90
f 352 356 343
f 92 351 354
f 351 22 288
f 354 288 77
f 351 288 354
f 90 345 342
f 345 77 287
f 342 287 17
f 345 287 342
f 92 354 356
f 354 77 345
f 356 345 90
f 354 345 356
f 4 305 141
f 305 82 308
f 141 308 40
f 305 308 141
f 82 306 322
f 306 24 319
f 322 319 85
f 306 319 322
f 40 320 142
f 320 85 318
f 142 318 13
f 320 318 142
f 82 322 308
f 322 85 320
f 308 320 40
f 322 320 308
f 24 310 330
f 310 83 333
f 330 333 87
f 310 333 330
f 83 309 312
f 309 8 295
f 312 295 79
f 309 295 312
f 87 331 329
f 331 79 296
f 329 296 23
f 331 296 329
f 83 312 333
f 312 79 331
f 333 331 87
f 312 331 333
f 13 297 139
f 297 80 299
f 139 299 39
f 297 299 139
f 80 298 300
f 298 23 292
f 300 292 78
f 298 292 300
f 39 293 138
f 293 78 291
f 138 291 3
f 293 291 138
f 80 300 299
f 300 78 293
f 299 293 39
f 300 293 299
f 24 330 319
f 330 87 334
f 319 334 85
f 330 334 319
f 87 329 332
f 329 23 298
f 332 298 80
f 329 298 332
f 85 321 318
f 321 80 297
f 318 297 13
f 321 297 318
f 87 332 334
f 332 80 321
f 334 321 85
f 332 321 334
f 7 242 232
f 242 66 244
f 232 244 63
f 242 244 232
f 66 243 258
f 243 20 255
f 258 255 69
f 243 255 258
f 63 256 233
f 256 69 254
f 233 254 19
f 256 254 233
f 66 258 244
f 258 69 256
f 244 256 63
f 258 256 244
f 20 239 246
f 239 65 249
f 246 249 67
f 239 249 246
f 65 238 240
f 238 5 189
f 240 189 52
f 238 189 240
f 67 247 245
f 247 52 190
f 245 190 16
f 247 190 245
f 65 240 249
f 240 52 247
f 249 247 67
f 240 247 249
f 19 235 230
f 235 64 237
f 230 237 62
f 235 237 230
f 64 234 236
f 234 16 187
f 236 187 51
f 234 187 236
f 62 231 229
f 231 51 186
f 229 186 3
f 231 186 229
f 64 236 237
f 236 51 231
f 237 231 62
f 236 231 237
f 20 246 255
f 246 67 259
f 255 259 69
f 246 259 255
f 67 245 248
f 245 16 234
f 248 234 64
f 245 234 248
f 69 257 254
f 257 64 235
f 254 235 19
f 257 235 254
f 67 248 259
f 248 64 257
f 259 257 69
f 248 257 259
f 3 291 229
f 291 78 294
f 229 294 62
f 291 294 229
f 78 292 304
f 292 23 302
f 304 302 81
f 292 302 304
f 62 303 230
f 303 81 301
f 230 301 19
f 303 301 230
f 78 304 294
f 304 81 303
f 294 303 62
f 304 303 294
f 23 296 375
f 296 79 377
f 375 377 97
f 296 377 375
f 79 295 363
f 295 8 361
f 363 361 94
f 295 361 363
f 97 379 376
f 379 94 362
f 376 362 26
f 379 362 376
f 79 363 377
f 363 94 379
f 377 379 97
f 363 379 377
f 19 365 233
f 365 95 367
f 233 367 63
f 365 367 233
f 95 366 369
f 366 26 358
f 369 358 93
f 366 358 369
f 63 359 232
f 359 93 357
f 232 357 7
f 359 357 232
f 95 369 367
f 369 93 359
f 367 359 63
f 369 359 367
f 23 375 302
f 375 97 378
f 302 378 81
f 375 378 302
f 97 376 380
f 376 26 366
f 380 366 95
f 376 366 380
f 81 368 301
f 368 95 365
f 301 365 19
f 368 365 301
f 97 380 378
f 380 95 368
f 378 368 81
f 380 368 378
f 7 263 242
f 263 71 265
f 242 265 66
f 263 265 242
f 71 264 275
f 264 21 272
f 275 272 73
f 264 272 275
f 66 273 243
f 273 73 271
f 243 271 20
f 273 271 243
f 71 275 265
f 275 73 273
f 265 273 66
f 275 273 265
f 21 261 267
f 261 70 270
f 267 270 72
f 261 270 267
f 70 260 262
f 260 6 215
f 262 215 59
f 260 215 262
f 72 268 266
f 268 59 216
f 266 216 18
f 268 216 266
f 70 262 270
f 262 59 268
f 270 268 72
f 262 268 270
f 20 251 239
f 251 68 253
f 239 253 65
f 251 253 239
f 68 250 252
f 250 18 213
f 252 213 58
f 250 213 252
f 65 241 238
f 241 58 212
f 238 212 5
f 241 212 238
f 68 252 253
f 252 58 241
f 253 241 65
f 252 241 253
f 21 267 272
f 267 72 276
f 272 276 73
f 267 276 272
f 72 266 269
f 266 18 250
f 269 250 68
f 266 250 269
f 73 274 271
f 274 68 251
f 271 251 20
f 274 251 271
f 72 269 276
f 269 68 274
f 276 274 73
f 269 274 276
f 8 339 361
f 339 89 364
f 361 364 94
f 339 364 361
f 89 340 383
f 340 25 381
f 383 381 98
f 340 381 383
f 94 385 362
f 385 98 382
f 362 382 26
f 385 382 362
f 89 383 364
f 383 98 385
f 364 385 94
f 383 385 364
f 25 336 348
f 336 88 350
f 348 350 91
f 336 350 348
f 88 335 338
f 335 6 260
f 338 260 70
f 335 260 338
f 91 349 347
f 349 70 261
f 347 261 21
f 349 261 347
f 88 338 350
f 338 70 349
f 350 349 91
f 338 349 350
f 26 371 358
f 371 96 374
f 358 374 93
f 371 374 358
f 96 370 372
f 370 21 264
f 372 264 71
f 370 264 372
f 93 360 357
f 360 71 263
f 357 263 7
f 360 263 357
f 96 372 374
f 372 71 360
f 374 360 93
f 372 360 374
f 25 348 381
f 348 91 384
f 381 384 98
f 348 384 381
f 91 347 373
f 347 21 370
f 373 370 96
f 347 370 373
f 98 386 382
f 386 96 371
f 382 371 26
f 386 371 382
f 91 373 384
f 373 96 386
f 384 386 98
f 373 386 384

