# https://github.com/mikedh/trimesh
v -1.00000000 -0.60000000 -0.50000000
v -1.00000000 -0.60000000 0.50000000
v -1.00000000 0.60000000 0.50000000
v 1.00000000 -0.60000000 -0.50000000
v 1.00000000 -0.60000000 0.50000000
v 1.00000000 0.60000000 -0.50000000
v 1.00000000 0.60000000 0.50000000
v -1.00000000 0.60000000 -0.50000000
v 1.00000000 0.00000000 -0.50000000
v 1.00000000 0.00000000 0.00000000
v 0.00000000 0.60000000 0.50000000
v 1.00000000 0.00000000 0.50000000
v 1.00000000 0.60000000 0.00000000
v 1.00000000 -0.30000000 -0.50000000
v 1.00000000 -0.30000000 -0.25000000
v 1.00000000 -0.30000000 0.25000000
v 1.00000000 0.30000000 -0.25000000
v 1.00000000 -0.30000000 0.00000000
v 1.00000000 0.00000000 -0.25000000
v 0.50000000 0.60000000 0.50000000
v 1.00000000 0.30000000 0.50000000
v 1.00000000 0.00000000 0.25000000
v 1.00000000 0.60000000 -0.25000000
v 1.00000000 0.60000000 0.25000000
v 1.00000000 0.30000000 0.00000000
v 1.00000000 0.30000000 0.25000000
f 4 2 1
f 1 2 8
f 2 3 8
f 8 4 1
f 2 7 20
f 2 20 11
f 2 11 3
f 5 2 4
f 5 12 2
f 12 21 2
f 21 7 2
f 3 11 8
f 11 20 8
f 20 7 8
f 6 9 8
f 9 14 8
f 14 4 8
f 8 7 24
f 8 24 13
f 8 13 23
f 8 23 6
f 17 10 19
f 6 19 9
f 17 19 6
f 10 16 18
f 16 5 4
f 16 4 18
f 9 15 14
f 15 4 14
f 10 18 19
f 18 4 15
f 19 15 9
f 18 15 19
f 7 21 24
f 21 12 26
f 24 26 13
f 21 26 24
f 12 5 22
f 22 16 10
f 5 16 22
f 13 25 23
f 25 10 17
f 23 17 6
f 25 17 23
f 12 22 26
f 22 10 25
f 26 25 13
f 22 25 26

