# https://github.com/mikedh/trimesh
v -0.44746233 0.89229447 -0.27229121
v 0.27917711 0.99630046 0.00000000
v -0.27917711 -0.99630046 0.00000000
v 0.44746233 -0.89229447 -0.27229121
v 0.16828522 -0.71975353 0.72400925
v -0.16828522 0.71975353 0.72400925
v -0.16828522 -0.71975353 -0.72400925
v -0.00000000 0.27917711 -0.99630046
v 0.89229447 0.27229121 -0.44746233
v 0.89229447 -0.27229121 0.44746233
v -0.89229447 0.27229121 -0.44746233
v -0.98811278 0.18630387 0.30924128
v -0.30901699 -0.80901699 0.50000000
v 0.30901699 0.80901699 0.50000000
v 0.24622875 -0.21517636 0.99279791
v 0.39840649 0.61358285 -0.74656916
v 0.99279791 -0.24622875 -0.21517636
v 0.50000000 -0.30901699 -0.80901699
v 0.74656916 0.39840649 0.61358285
v -0.85981161 -0.59439142 -0.00000000
v -0.59439142 -0.00000000 -0.85981161
v -0.59439142 0.00000000 0.85981161
f 1 12 6
f 12 22 6
f 1 6 2
f 6 14 2
f 1 16 8
f 2 16 1
f 1 8 21
f 1 21 11
f 1 11 12
f 2 14 19
f 14 6 19
f 6 22 15
f 15 22 5
f 12 11 20
f 21 8 7
f 16 2 9
f 4 10 5
f 10 15 5
f 4 5 3
f 5 13 3
f 3 7 4
f 4 7 18
f 17 18 9
f 4 18 17
f 4 17 10
f 15 10 19
f 15 19 6
f 3 13 20
f 13 5 22
f 20 22 12
f 13 22 20
f 7 3 20
f 21 20 11
f 7 20 21
f 9 18 16
f 18 7 8
f 18 8 16
f 10 17 19
f 19 9 2
f 17 9 19

