# https://github.com/mikedh/trimesh
v -0.58381664 0.85593886 0.01783511
v 0.46103286 0.84557833 0.03345369
v -0.63454932 -0.90074622 -0.07079396
v 0.55800264 -0.76235526 -0.02807715
v 0.01783511 -0.58381664 0.85593886
v 0.00654066 0.50507008 0.81966695
v -0.10409349 -0.55619251 -0.94912810
v -0.03147098 0.56069827 -0.76006263
v 0.88179591 -0.04985950 -0.54197906
v 0.84557833 0.03345369 0.46103286
v -0.89558893 -0.08037875 -0.64804569
v -0.80390437 0.08330818 0.48976084
v 0.04670406 0.94081304 0.03408315
v 0.02660947 -1.01567600 0.02059374
v -0.20353626 -0.80678547 0.47645417
v 0.24366402 -0.74214608 0.48018448
v -0.25228227 0.72450327 0.54844511
v 0.30304799 0.78007337 0.44261511
v 0.01485823 0.06712420 0.93881661
v -0.38514044 -0.84116479 -0.52333661
v 0.36681805 -0.74896277 -0.58278862
v -0.23369162 0.72394740 -0.51113349
v 0.31115623 0.93748511 -0.50633155
v 0.00765710 0.01981570 -1.01257068
v 0.74620519 0.51912148 -0.24452763
v 0.72394740 -0.51113349 -0.23369162
v 0.53300181 -0.35157991 -0.71528947
v 0.48018448 0.24366402 -0.74214608
v 0.77045360 0.46578523 0.28925250
v 0.93748511 -0.50633155 0.31115623
v 0.49765862 -0.23980134 0.76374296
v 0.46578523 0.28925250 0.77045360
v 0.94644549 0.07914859 -0.01128606
v -0.80678547 0.47645417 -0.20353626
v -0.84116479 -0.52333661 -0.38514044
v -0.47577915 -0.40898344 -0.85915530
v -0.53656619 0.33803860 -0.78977354
v -0.74214608 0.48018448 0.24366402
v -0.75256955 -0.57994200 0.34885547
v -0.43561287 -0.32232987 0.73964517
v -0.54375154 0.40912305 0.87693829
v -1.01603475 0.03602230 0.01484547
v -0.32684383 1.06033245 0.00052756
v 0.19975149 0.95683733 0.05060304
v -0.31169712 -0.98119784 0.01097649
v 0.24583760 -0.95062799 0.03187600
v -0.50466325 -0.80360965 0.23216936
v -0.24681798 -0.57778765 0.69192587
v -0.26419444 -0.88127287 0.35645471
v 0.35587515 -0.84051357 0.25006785
v 0.21783595 -0.73313110 0.66519207
v 0.19181434 -0.92030272 0.19355625
v 0.05320294 -0.88300084 0.44928851
v -0.48136761 0.94383215 0.32541317
v -0.15347253 0.71933452 0.64485082
v -0.18743662 0.85432619 0.35630464
v 0.42169141 0.85708128 0.17548678
v 0.08133085 0.74673201 0.61811434
v 0.13785927 0.91380839 0.26963987
v 0.00770006 0.82666859 0.49869496
v 0.02689889 -0.34630309 1.05557417
v 0.03164203 0.26745209 0.93826317
v -0.36634228 -0.99027123 -0.34732264
v -0.13680587 -0.70570663 -0.85130693
v -0.13063899 -1.00691933 -0.13356235
v 0.43609000 -0.83656680 -0.27802839
v 0.15949817 -0.71544715 -0.71624221
v 0.27306182 -0.92990479 -0.31135458
v -0.08269014 -0.94461760 -0.54590899
v -0.39588822 0.87361963 -0.32783449
v -0.19693247 0.63668576 -0.67182926
v -0.11737660 1.01106493 -0.32387783
v 0.37432372 0.84801035 -0.21209127
v 0.11544307 0.72788636 -0.69399962
v 0.17173051 1.01799710 -0.39971555
v 0.08965811 0.90592276 -0.56574363
v -0.02147345 -0.26831161 -0.98981731
v 0.02043632 0.25162867 -0.95057017
v 0.71933452 0.64485082 -0.15347253
v 0.97444043 0.23930979 -0.47758024
v 0.54785687 0.79116257 -0.53845159
v 0.63668576 -0.67182926 -0.19693247
v 0.87361963 -0.32783449 -0.39588822
v 0.54759417 -0.66832617 -0.41388839
v 0.22252935 -0.46982612 -0.82529714
v 0.69192587 -0.24681798 -0.57778765
v 0.43214475 -0.49929065 -0.73114298
v 0.26707056 -0.12663321 -0.94332682
v 0.64950927 -0.44610506 -0.60747666
v 0.25006785 0.35587515 -0.84051357
v 0.66519207 0.21783595 -0.73313110
v 0.46204685 0.66201427 -0.70048877
v 0.19355625 0.19181434 -0.92030272
v 0.69230116 0.51065656 -0.63314722
v 0.44928851 0.05320294 -0.88300084
v 0.64908634 0.71735097 0.08797415
v 0.87980167 0.22440192 0.34535140
v 0.57419379 0.66687471 0.41609074
v 0.78456267 0.55671601 -0.02683265
v 0.72939798 -0.69194803 0.11364456
v 0.76469302 -0.23836044 0.49739075
v 0.70788151 -0.69108905 0.41389277
v 0.90447003 -0.56649690 0.08401508
v 0.26558099 -0.49065585 0.95909105
v 0.64485082 -0.15347253 0.71933452
v 0.51065656 -0.63314722 0.69230116
v 0.34791110 -0.18212066 0.85643837
v 0.66394924 -0.55165001 0.68805668
v 0.27145990 0.29489607 0.88562251
v 0.59302379 0.09431278 0.76325158
v 0.41111757 0.58657185 0.65745000
v 0.26963987 0.13785927 0.91380839
v 0.61382914 0.39758358 0.63672147
v 0.49869496 0.00770006 0.82666859
v 1.06033245 0.00052756 -0.32684383
v 0.95683733 0.05060304 0.19975149
v 0.85432619 0.35630464 -0.18743662
v 1.01106493 -0.32387783 -0.11737660
v 0.87591844 0.38201128 0.18293515
v 0.99649925 -0.41430558 0.22233278
v -0.57778765 0.69192587 -0.24681798
v -0.88183025 0.18382637 -0.37809966
v -0.53729612 0.66294577 -0.50615904
v -0.73386424 -0.82397383 -0.13997860
v -0.96343286 -0.32368645 -0.42524520
v -0.68320392 -0.63983792 -0.48188262
v -0.21839601 -0.49628475 -0.97476863
v -0.82577232 -0.15740035 -0.72055224
v -0.52865600 -0.58041220 -0.70313447
v -0.23324961 -0.04257428 -0.99615550
v -0.66625053 -0.45566702 -0.67566933
v -0.30527563 0.42996586 -0.83073886
v -0.71624221 0.15949817 -0.71544715
v -0.35726551 0.53487784 -0.71290507
v -0.33410090 0.17750454 -0.90317295
v -0.73114298 0.43214475 -0.49929065
v -0.56787579 0.13778148 -0.84102635
v -0.73313110 0.66519207 0.21783595
v -0.83873425 0.24003045 0.36662782
v -0.63314722 0.69230116 0.51065656
v -0.88300084 0.44928851 0.05320294
v -0.71544715 -0.71624221 0.15949817
v -0.83073886 -0.30527563 0.42996586
v -0.49354352 -0.73437803 0.43293908
v -0.94830594 -0.56757632 -0.11784141
v -0.32783449 -0.39588822 0.87361963
v -0.66492730 -0.20962295 0.63997969
v -0.50615904 -0.53729612 0.66294577
v -0.32387783 -0.11737660 1.01106493
v -0.71290507 -0.35726551 0.53487784
v -0.20157763 0.39207241 0.83192842
v -0.72940398 0.21093413 0.67052527
v -0.55309677 0.57238125 0.76979540
v -0.35826728 0.14952592 1.02206684
v -0.69110136 0.41054098 0.70979743
v -0.56123184 0.07622649 0.90814457
v -0.98981731 -0.02147345 -0.26831161
v -0.95057017 0.02043632 0.25162867
v -0.94332682 0.26707056 -0.12663321
v -1.00691933 -0.13356235 -0.13063899
v -0.92030272 0.19355625 0.19181434
v -0.91608893 -0.30662627 0.15434558
v -0.44852573 0.96697895 0.05216379
v -0.09473884 1.01633601 0.02344832
v 0.38085155 0.90094795 -0.06634245
v -0.51290276 -0.96317607 -0.10641976
v -0.07884518 -0.97329841 -0.02342676
v 0.35193146 -0.89285934 0.00777528
v 0.11171748 -0.97697066 0.07070861
v -0.53343999 -0.86237262 0.13547144
v -0.33058877 -0.90477858 0.16188910
v -0.06891806 -0.60072609 0.79807238
v -0.18378791 -0.79248298 0.57411671
v -0.05850761 -1.00135587 0.13075359
v -0.13449892 -0.90504693 0.35987157
v -0.19031087 -0.95365673 0.07044537
v -0.34564979 -0.91001367 0.29419436
v 0.46655605 -0.81436591 0.11577970
v 0.37580857 -0.75317588 0.35902196
v 0.37668747 -0.91088179 0.10955854
v 0.00036354 -0.65754740 0.63720202
v 0.23340922 -0.83636281 0.37351158
v 0.06971289 -0.96113726 0.20854866
v 0.24279707 -0.92439779 0.27912167
v 0.10913628 -0.80921493 0.47426947
v -0.08249487 -0.74546395 0.58255196
v -0.08841893 -0.85955564 0.41381538
v 0.10375532 -0.70100737 0.57862118
v 0.09534547 -0.90773006 0.38913582
v -0.34908111 0.82953421 0.47030332
v -0.37757374 1.03180557 0.13466192
v -0.14616841 0.59142651 0.76687577
v -0.07195887 0.92339945 0.17208459
v -0.24155106 0.95302630 0.24766702
v 0.09014480 0.61930661 0.74162768
v 0.23307120 0.68562804 0.60932273
v 0.08212818 0.96007757 0.17360656
v 0.28841976 0.88816341 0.26914894
v 0.26431434 0.91787593 0.12446499
v -0.06284345 0.91114044 0.35380278
v -0.12606380 0.81792299 0.52389358
v 0.15261595 0.85206918 0.44156653
v -0.01687339 -0.39847790 0.99372429
v 0.05837846 -0.11708169 1.00951349
v -0.04284529 0.33976464 0.91692458
v -0.50115763 -0.97797010 -0.19249225
v -0.39257142 -1.00000307 -0.14891059
v -0.30674391 -1.02303405 -0.27102081
v 0.46768277 -0.81435697 -0.19005753
v 0.41496374 -0.78955416 -0.41995415
v 0.35368669 -0.90852881 -0.12329219
v -0.03721129 -0.67000488 -0.86245773
v 0.25221074 -0.74515928 -0.58025044
v -0.05423794 -0.83673744 -0.72430506
v 0.04549598 -0.96211934 -0.15657512
v 0.20847765 -0.84735990 -0.43658076
v 0.15949839 -0.99776356 -0.12243821
v -0.00745362 -0.98573796 -0.27837478
v -0.17829260 -0.96116986 -0.53001672
v 0.14310394 -0.83399990 -0.57402576
v 0.07946321 -0.93314245 -0.41627114
v -0.42169013 0.97200142 -0.12689499
v -0.32902605 0.99423874 -0.22195739
v -0.19023391 1.08707905 -0.10194807
v -0.14016070 0.90575898 -0.48288051
v -0.19060499 1.07916968 -0.15968640
v -0.27753726 0.98187906 -0.30102530
v 0.57923297 0.77666297 -0.14522031
v 0.45516794 0.84060372 -0.34405146
v 0.33510737 0.86792316 -0.15992799
v 0.13928258 0.55530835 -0.71350497
v 0.30175746 0.78599444 -0.66170057
v 0.03733022 0.63620717 -0.66950763
v 0.13749785 0.99136570 -0.17329138
v 0.34080281 0.93527456 -0.47674956
v 0.18164791 0.92063031 -0.07971803
v 0.00474309 1.06818608 -0.27855898
v 0.32517497 0.91645592 -0.28630057
v -0.16860286 0.84727133 -0.52904514
v 0.12398855 0.93916379 -0.49666791
v -0.01819580 0.79333944 -0.62793394
v -0.11041728 0.97241065 -0.43349476
v 0.08805465 0.82282829 -0.62339692
v 0.00246771 -0.10459466 -0.97035555
v 0.00861646 0.35144365 -0.89298696
v 0.07070861 0.11171748 -0.97697066
v 0.50879916 0.75597660 -0.24080457
v 0.91863959 0.17970092 -0.51996750
v 0.82785904 0.47275616 -0.35059174
v 0.67289684 0.66047093 -0.37779560
v 0.64913754 0.63202952 -0.25726905
v 0.58475664 -0.77843555 -0.20762449
v 0.67733215 -0.56200335 -0.34477080
v 0.51296270 -0.75512837 -0.29226351
v 0.63286733 -0.68332111 -0.35202528
v 0.13266903 -0.53637896 -0.86379167
v 0.38484160 -0.33335353 -0.84192602
v 0.25845532 -0.61192133 -0.71739798
v 0.17250376 -0.35199807 -0.89350714
v 0.79682966 -0.06566458 -0.60273685
v 0.57791562 -0.19022314 -0.78853897
v 0.71779186 -0.21231355 -0.52676086
v 0.50356763 -0.51070011 -0.67254181
v 0.50058361 -0.69484451 -0.48861480
v 0.35647641 -0.52093879 -0.79707678
v 0.18472799 -0.15839716 -0.98820277
v 0.37408769 -0.15238648 -0.89688716
v 0.09537845 -0.22458914 -0.94541708
v 0.29419436 -0.34564979 -0.91001367
v 0.68832136 -0.45125886 -0.46287168
v 0.62901339 -0.33922127 -0.69417527
v 0.73661522 -0.30987845 -0.44536765
v 0.65423205 -0.56445337 -0.49440938
v 0.66040803 -0.28632471 -0.61949018
v 0.55619151 -0.46116448 -0.62918622
v 0.11093296 0.46904232 -0.81412227
v 0.35902196 0.37580857 -0.75317588
v 0.10955854 0.37668747 -0.91088179
v 0.85001326 0.19041318 -0.61689156
v 0.63720202 0.00036354 -0.65754740
v 0.37708303 0.79798688 -0.60354847
v 0.47025967 0.48335728 -0.76408350
v 0.23708607 0.64792060 -0.73852994
v 0.54093592 0.66408281 -0.63555320
v 0.37805959 0.53898542 -0.76896618
v 0.37351158 0.23340922 -0.83636281
v 0.20854866 0.06971289 -0.96113726
v 0.27912167 0.24279707 -0.92439779
v 0.90675544 0.38992427 -0.49598571
v 0.56201803 0.35029255 -0.76490837
v 0.85212360 0.43472798 -0.55797327
v 0.72343551 0.62400974 -0.55307505
v 0.76704122 0.32701582 -0.66801040
v 0.62767205 0.50478087 -0.70655484
v 0.47426947 0.10913628 -0.80921493
v 0.56137932 -0.04208742 -0.76069069
v 0.41869309 -0.09496011 -0.85667382
v 0.57862118 0.10375532 -0.70100737
v 0.38913582 0.09534547 -0.90773006
v 0.54443998 0.79736102 0.09233858
v 0.68867173 0.60581534 0.23385200
v 0.81846950 0.12451014 0.51089018
v 0.78732315 0.34308150 0.39761733
v 0.43943347 0.68735185 0.52797346
v 0.69913252 0.52327374 0.41458703
v 0.50140999 0.75533555 0.27991635
v 0.81792299 0.52389358 -0.12606380
v 0.76398716 0.59424659 0.08749836
v 0.60726165 -0.68227434 0.05712395
v 0.82423876 -0.63815734 0.24260113
v 0.54017936 -0.71965400 0.16291052
v 0.89371219 -0.07666280 0.39697258
v 0.88441885 -0.31820947 0.38677943
v 0.48382362 -0.77344141 0.43896326
v 0.72336957 -0.63003608 0.47315094
v 0.67529209 -0.71457930 0.32677322
v 0.84531032 -0.53309067 -0.16218883
v 0.89056675 -0.54633096 0.22728565
v 0.79271854 -0.62598034 -0.02080150
v 0.22048340 -0.54151469 0.89387882
v 0.36301765 -0.48222220 0.92157852
v 0.24056665 -0.64173190 0.81547166
v 0.10964001 -0.36038959 1.04203394
v 0.77189870 -0.14591716 0.58529794
v 0.34782549 -0.76423391 0.56484451
v 0.47563979 -0.53165131 0.84603210
v 0.36073653 -0.67726296 0.74660137
v 0.53083312 -0.70640468 0.60407018
v 0.43472798 -0.55797327 0.85212360
v 0.16334591 -0.06893652 0.92747966
v 0.32137774 -0.28876388 0.92213795
v 0.84881210 -0.52608137 0.47292012
v 0.57198209 -0.37564487 0.75391632
v 0.76296831 -0.36549508 0.56070923
v 0.63190563 -0.25815970 0.64881426
v 0.15295358 0.44707470 0.84856457
v 0.34308150 0.39761733 0.78732315
v 0.70295056 0.06235558 0.66612472
v 0.60581534 0.23385200 0.68867173
v 0.48552984 0.45198874 0.70497881
v 0.25133100 0.55541165 0.72342650
v 0.53329147 0.61765523 0.54647068
v 0.17360656 0.08212818 0.96007757
v 0.12446499 0.26431434 0.91787593
v 0.35380278 -0.06284345 0.91114044
v 0.69129475 0.43472773 0.52203674
v 0.59151075 0.54190146 0.57353144
v 0.72342650 0.25133100 0.55541165
v 0.52389358 -0.12606380 0.81792299
v 0.43922136 0.15183826 0.85324915
v 1.00074210 -0.05928830 -0.36860627
v 1.01208407 0.01212722 -0.06938234
v 1.04156332 0.10990271 -0.35730859
v 0.99030028 -0.21324512 -0.34372281
v 0.93475388 -0.02096527 0.12168446
v 0.86209363 -0.17566308 0.33776525
v 0.94929167 0.26049908 -0.25554607
v 0.91039877 0.35478833 -0.06430565
v 0.97999416 -0.32529053 -0.25239064
v 1.08300034 -0.07294989 -0.21067514
v 0.97241065 -0.43349476 -0.11041728
v 1.07916968 -0.15968640 -0.19060499
v 0.96007757 0.17360656 0.08212818
v 0.88222542 0.38426799 0.05361885
v 0.91787593 0.12446499 0.26431434
v 0.99136570 -0.17329138 0.13749785
v 0.96606449 -0.44891825 0.05231928
v 0.91043416 -0.10304769 0.21421216
v 1.06818608 -0.27855898 0.00474309
v -0.60273685 0.79682966 -0.06566458
v -0.72234085 0.61746693 -0.29728026
v -0.52538584 0.71888235 -0.21347835
v -0.86379167 0.13266903 -0.53637896
v -0.84192602 0.38484160 -0.33335353
v -0.46287168 0.68832136 -0.45125886
v -0.44536765 0.73661522 -0.30987845
v -0.61949018 0.66040803 -0.28632471
v -0.95597152 -0.17969242 -0.54053682
v -0.64207029 -0.78559728 -0.31778547
v -0.23812378 -0.35232046 -1.02250952
v -0.75245877 -0.31345356 -0.68351568
v -0.31778547 -0.64207029 -0.78559728
v -0.52155342 -0.71533416 -0.57254760
v -0.12384272 -0.13512448 -1.00595452
v -0.44784609 -0.26480846 -0.98449323
v -0.18447343 0.46475271 -0.81718647
v -0.41995415 0.41496374 -0.78955416
v -0.20762449 0.58475664 -0.77843555
v -0.13002648 0.35784871 -0.90595654
v -0.60263238 0.25603768 -0.72563978
v -0.76986770 0.24526860 -0.54887915
v -0.74504284 -0.04158279 -0.81478408
v -0.34477080 0.67733215 -0.56200335
v -0.35202528 0.63286733 -0.68332111
v -0.49697851 0.64299424 -0.56926451
v -0.24565213 0.10626231 -0.94010909
v -0.21284326 0.24759498 -0.95784798
v -0.67254181 0.50356763 -0.51070011
v -0.58990454 0.38306128 -0.72836536
v -0.72443987 0.36804328 -0.60943011
v -0.63454453 0.55597654 -0.45437285
v -0.48861480 0.50058361 -0.69484451
v -0.67343180 -0.15356859 -0.87092152
v -0.40596545 0.07412216 -0.93722251
v -0.63118512 0.83220232 0.22454223
v -0.65695558 0.63732710 -0.00165406
v -0.75317588 0.35902196 0.37580857
v -0.53165131 0.84603210 0.47563979
v -0.75850062 0.58329293 0.33267077
v -0.55797327 0.85212360 0.43472798
v -0.67726296 0.74660137 0.36073653
v -0.79665823 0.56941697 -0.17860840
v -0.80921493 0.47426947 0.10913628
v -0.76069069 0.56137932 -0.04208742
v -0.70100737 0.57862118 0.10375532
v -0.73332053 -0.59297612 0.25599923
v -0.77401494 -0.78554172 -0.04580359
v -0.81718647 -0.18447343 0.46475271
v -0.78955416 -0.41995415 0.41496374
v -0.49146309 -0.68732628 0.50360343
v -0.54653332 -0.78051843 0.35833065
v -0.83399990 -0.57402576 0.14310394
v -0.87747190 -0.66692252 -0.06397523
v -0.15221108 -0.40184067 0.97783811
v -0.21231355 -0.52676086 0.71779186
v -0.74811432 -0.06187810 0.57584543
v -0.54595234 -0.18349631 0.71110330
v -0.77843555 -0.20762449 0.58475664
v -0.30460853 -0.71878587 0.61754473
v -0.45125886 -0.46287168 0.68832136
v -0.32171631 -0.58787053 0.66818805
v -0.45437285 -0.63454453 0.55597654
v -0.30987845 -0.44536765 0.73661522
v -0.07857681 -0.20615604 1.08329361
v -0.48288051 -0.14016070 0.90575898
v -0.15968640 -0.19060499 1.07916968
v -0.28044062 -0.28454033 0.99190696
v -0.56200335 -0.34477080 0.67733215
v -0.69484451 -0.48861480 0.50058361
v -0.68332111 -0.35202528 0.63286733
v -0.56926451 -0.49697851 0.64299424
v -0.10398561 0.45283300 0.86132995
v -0.50025598 0.40887157 0.89226885
v -0.22780319 0.50117316 0.76536875
v -0.70854192 0.12311665 0.56708596
v -0.63312856 0.23022074 0.83113864
v -0.63935508 -0.03390791 0.65430774
v -0.37779560 0.67289684 0.66047093
v -0.25583750 0.59650767 0.68241245
v -0.55307505 0.72343551 0.62400974
v -0.34008331 0.45068951 0.84484264
v -0.09735814 0.03365940 1.01356102
v -0.46581036 0.26341068 0.97518811
v -0.07887413 0.18209357 0.92067857
v -0.27855898 0.00474309 1.06818608
v -0.22793908 0.21946811 0.96399814
v -0.77358908 0.46744419 0.45617572
v -0.63003608 0.47315094 0.72336957
v -0.76226249 0.33348093 0.57599127
v -0.70640468 0.60407018 0.53083312
v -0.71457930 0.32677322 0.67529209
v -0.52904514 -0.16860286 0.84727133
v -0.54633096 0.22728565 0.89056675
v -0.62598034 -0.02080150 0.79271854
v -0.43349476 -0.11041728 0.97241065
v -0.68849616 0.10506709 0.73301305
v -0.44891825 0.05231928 0.96606449
v -0.96570309 -0.10945253 -0.50738465
v -0.96886494 0.02368716 -0.12511963
v -1.00852167 -0.19677044 -0.40730096
v -0.89298696 0.00861646 0.35144365
v -0.97697066 0.07070861 0.11171748
v -0.91088179 0.10955854 0.37668747
v -0.90595654 -0.13002648 0.35784871
v -0.89688716 0.37408769 -0.15238648
v -0.98820277 0.18472799 -0.15839716
v -0.91001367 0.29419436 -0.34564979
v -0.85955564 0.41381538 -0.08841893
v -0.98591710 -0.43866113 -0.26481067
v -1.02234026 -0.28284267 -0.33434369
v -0.98573796 -0.27837478 -0.00745362
v -0.83636281 0.37351158 0.23340922
v -0.92439779 0.27912167 0.24279707
v -0.90773006 0.38913582 0.09534547
v -0.96113726 0.20854866 0.06971289
v -0.97193571 -0.09913503 -0.00368071
v -0.90105967 -0.33214788 0.31436340
v -0.93314245 -0.41627114 0.07946321
v -0.96350013 -0.22445661 0.23462038
v -0.48849979 0.95017474 -0.04049542
v -0.30874908 1.01343372 -0.13937434
v 0.51002959 -0.85356503 -0.06117259
v 0.28675662 -0.93283953 -0.17850738
v -0.30341437 -0.82222197 0.44625587
v 0.04942246 -0.66424311 0.76549736
v -0.10028663 -0.60002675 0.68298410
v -0.18448432 -0.98012141 0.19761968
v 0.39129447 -0.89927974 0.13673688
v -0.06099626 -0.95697626 0.22166658
v 0.03453339 -0.89839292 0.33122105
v -0.06859804 -0.84915002 0.51284501
v -0.03772166 -0.70661888 0.61023424
v -0.57971528 0.89098656 0.11225593
v -0.54414650 0.89073806 0.22372895
v -0.48156414 0.97120639 0.23676400
v -0.05085526 0.65100653 0.70922554
v -0.04049542 -0.48849979 0.95017474
v 0.04646524 0.17932280 0.95579517
v -0.15526154 -0.86432117 -0.67983653
v -0.20737286 -1.01379948 -0.38782380
v 0.34127594 -0.85358741 -0.42867536
v 0.12583740 -0.92685432 -0.28760249
v -0.51947453 0.85052997 -0.18259324
v -0.29281797 0.87293339 -0.42484267
v -0.03890035 0.64706869 -0.64823302
v -0.03359659 1.06529667 -0.30187191
v -0.12044168 0.70345354 -0.58392090
v 0.13261403 1.01627572 -0.42196857
v 0.04384836 -0.35292989 -0.96082074
v -0.08737884 -0.01334445 -0.97282659
v -0.06117259 0.51002959 -0.85356503
v -0.00115979 0.07079696 -1.01464750
v -0.09901271 0.24630403 -0.94884251
v 0.91976246 0.04680842 -0.54414582
v 0.51963627 0.79746085 -0.57397214
v 0.85052997 -0.18259324 -0.51947453
v 0.46709829 -0.35216011 -0.78963925
v 0.76549736 0.04942246 -0.66424311
v 0.68217827 -0.09870381 -0.60117426
v 0.36799493 -0.64815588 -0.68987417
v 0.56284883 -0.57187602 -0.52361129
v 0.44455582 -0.64452788 -0.59633388
v 0.74074504 -0.40363277 -0.35608603
v 0.13673688 0.39129447 -0.89927974
v 0.25031082 0.47249895 -0.74169380
v 0.33122105 0.03453339 -0.89839292
v 0.80679160 0.35969447 -0.59755525
v 0.72500843 0.60732732 -0.58614960
v 0.47789500 -0.20948629 -0.80307658
v 0.51284501 -0.06859804 -0.84915002
v 0.61023424 -0.03772166 -0.70661888
v 0.65100653 0.70922554 -0.05085526
v 0.47249895 -0.74169380 0.25031082
v 0.62626874 -0.74969295 0.27668294
v 0.65505030 -0.63800655 -0.05770378
v 0.69951940 -0.59249298 -0.10738854
v 0.12880619 -0.58563940 0.88592039
v 0.35969447 -0.59755525 0.80679160
v 0.83822338 -0.56152446 0.45733129
v 0.73926448 -0.58426484 0.58581620
v 0.59875167 -0.59021257 0.72128908
v 0.70922554 -0.05085526 0.65100653
v 0.96884634 -0.09904686 -0.44365524
v 0.87293339 -0.42484267 -0.29281797
v 1.01721008 -0.19118826 -0.25709100
v 0.93534956 0.13437979 -0.03117421
v 1.01553664 -0.42126426 0.14935958
v 1.07133798 -0.29937523 -0.02577660
v -0.66424311 0.76549736 0.04942246
v -0.59220066 0.68782089 -0.11294952
v -0.78963925 0.46709829 -0.35216011
v -0.35608603 0.74074504 -0.40363277
v -0.71869394 0.53004634 -0.34602028
v -0.63854981 0.64300309 -0.40935633
v -0.86483384 -0.67267893 -0.16561396
v -0.37583141 -0.19087492 -1.01257331
v -0.67340271 -0.56712137 -0.58130287
v -0.41672613 0.34561938 -0.85454037
v -0.47020763 0.22325676 -0.82659901
v -0.28225891 0.24483648 -0.94334922
v -0.79673524 0.35709169 -0.52312492
v -0.52361129 0.56284883 -0.57187602
v -0.59633388 0.44455582 -0.64452788
v -0.55482376 -0.10416120 -0.95001117
v -0.59755525 0.80679160 0.35969447
v -0.84915002 0.51284501 -0.06859804
v -0.70661888 0.61023424 -0.03772166
v -0.85424257 -0.43175090 0.20361508
v -0.85356503 -0.06117259 0.51002959
v -0.82617587 -0.48457223 0.34430685
v -0.66275518 -0.66175745 0.38670332
v -0.63099674 -0.70017954 0.25740576
v -0.18259324 -0.51947453 0.85052997
v -0.34602028 -0.71869394 0.53004634
v -0.40935633 -0.63854981 0.64300309
v -0.42484267 -0.29281797 0.87293339
v -0.19118826 -0.25709100 1.01721008
v -0.64452788 -0.59633388 0.44455582
v -0.57187602 -0.52361129 0.56284883
v -0.74169380 0.25031082 0.47249895
v -0.59021257 0.72128908 0.59875167
v -0.15557545 0.29574167 0.88015122
v -0.29937523 -0.02577660 1.07133798
v -0.58911920 0.57022006 0.74582032
v -0.42126426 0.14935958 1.01553664
v -0.96082074 0.04384836 -0.35292989
v -0.89927974 0.13673688 0.39129447
v -0.94884251 -0.09901271 0.24630403
v -0.94011961 0.10911464 -0.24276556
v -1.01444457 -0.38366005 -0.20976359
v -0.89839292 0.33122105 0.03453339
v -1.00561134 -0.08295759 0.12353782
f 1 503 490
f 1 405 503
f 559 405 1
f 559 138 405
f 503 504 163
f 405 504 503
f 405 409 411
f 138 409 405
f 38 409 138
f 505 410 54
f 54 190 194
f 575 140 410
f 410 408 54
f 54 408 190
f 411 140 575
f 575 410 505
f 575 505 504
f 411 504 405
f 575 504 411
f 139 590 407
f 407 590 459
f 457 459 461
f 457 461 155
f 407 459 457
f 590 12 445
f 12 590 139
f 12 426 445
f 445 466 152
f 461 152 466
f 461 466 446
f 155 446 463
f 155 463 458
f 461 446 155
f 445 152 459
f 445 459 590
f 152 461 459
f 17 448 449
f 17 449 55
f 153 451 448
f 443 451 153
f 444 151 442
f 444 442 192
f 192 442 6
f 451 449 448
f 451 151 449
f 151 444 449
f 449 444 192
f 449 192 55
f 38 407 409
f 407 457 409
f 457 155 460
f 409 460 411
f 411 460 140
f 460 409 457
f 458 463 41
f 458 41 594
f 41 443 153
f 41 153 594
f 140 591 410
f 591 450 408
f 591 408 410
f 153 448 450
f 450 448 190
f 190 448 17
f 450 190 408
f 458 460 155
f 594 450 591
f 153 450 594
f 458 140 460
f 594 591 458
f 591 140 458
f 503 163 490
f 505 54 191
f 163 43 491
f 505 191 43
f 504 505 163
f 505 43 163
f 190 17 56
f 190 56 194
f 56 193 194
f 194 193 164
f 164 193 13
f 194 191 54
f 191 224 43
f 194 164 191
f 164 224 191
f 55 201 17
f 55 60 201
f 55 192 506
f 192 6 506
f 506 6 195
f 195 58 506
f 60 58 202
f 196 18 202
f 58 196 202
f 55 506 60
f 58 60 506
f 13 197 44
f 197 59 199
f 197 199 44
f 198 18 57
f 18 306 57
f 44 2 165
f 57 300 2
f 199 57 2
f 198 199 59
f 199 2 44
f 198 57 199
f 17 201 56
f 201 200 56
f 202 18 198
f 60 202 59
f 202 198 59
f 200 197 193
f 197 13 193
f 60 200 201
f 60 59 200
f 59 197 200
f 200 193 56
f 1 490 222
f 163 491 222
f 222 491 223
f 513 222 70
f 163 222 490
f 43 224 226
f 491 226 72
f 223 72 227
f 70 514 22
f 227 225 514
f 227 514 70
f 43 226 491
f 491 72 223
f 222 227 70
f 223 227 222
f 13 236 234
f 13 44 236
f 165 228 247
f 165 247 230
f 230 247 73
f 234 238 75
f 238 229 75
f 229 235 75
f 44 165 236
f 230 236 165
f 236 238 234
f 73 238 236
f 230 73 236
f 239 517 22
f 225 76 243
f 225 243 241
f 225 241 239
f 22 515 71
f 517 515 22
f 239 241 517
f 76 281 232
f 240 281 76
f 243 232 283
f 243 283 74
f 232 243 76
f 515 8 71
f 515 233 231
f 8 231 276
f 515 231 8
f 241 74 233
f 517 233 515
f 243 74 241
f 241 233 517
f 13 234 164
f 164 234 237
f 234 75 237
f 226 516 72
f 237 516 224
f 224 516 226
f 164 237 224
f 23 281 240
f 23 240 518
f 235 23 75
f 23 518 75
f 72 242 227
f 242 225 227
f 242 76 225
f 225 239 514
f 239 22 514
f 237 518 516
f 518 237 75
f 76 242 240
f 240 242 72
f 240 516 518
f 72 516 240
f 222 513 1
f 559 513 370
f 1 513 559
f 513 376 372
f 370 372 560
f 513 372 370
f 513 70 376
f 70 562 376
f 70 22 562
f 121 375 377
f 376 375 121
f 562 375 376
f 377 123 564
f 377 564 371
f 412 371 34
f 371 563 34
f 372 121 560
f 376 121 372
f 22 71 393
f 71 394 393
f 8 521 71
f 71 521 388
f 521 386 388
f 134 132 402
f 132 387 402
f 71 388 394
f 386 134 388
f 386 132 134
f 134 394 388
f 561 398 136
f 561 136 374
f 374 571 477
f 477 571 122
f 571 374 136
f 399 37 400
f 37 569 390
f 37 390 400
f 122 391 373
f 373 133 11
f 136 400 571
f 391 133 373
f 390 133 391
f 391 122 571
f 390 391 400
f 391 571 400
f 22 393 562
f 562 393 375
f 393 394 123
f 394 134 395
f 394 395 123
f 375 123 377
f 123 375 393
f 134 402 572
f 387 568 399
f 568 37 399
f 573 399 400
f 573 400 136
f 399 573 387
f 387 573 402
f 564 401 371
f 563 561 34
f 398 561 563
f 401 563 371
f 398 563 401
f 134 572 395
f 573 136 398
f 573 398 402
f 572 401 395
f 401 564 123
f 401 123 395
f 402 398 572
f 398 401 572
f 370 560 406
f 560 121 577
f 560 577 406
f 559 406 415
f 406 559 370
f 121 377 577
f 377 412 414
f 371 412 377
f 377 414 577
f 414 576 141
f 412 576 414
f 559 415 138
f 138 415 38
f 577 414 413
f 577 413 415
f 415 413 38
f 577 415 406
f 561 374 475
f 374 477 159
f 477 476 159
f 374 159 475
f 373 468 596
f 11 468 373
f 373 596 122
f 596 157 599
f 476 469 42
f 469 486 42
f 122 599 477
f 596 599 122
f 599 469 476
f 599 476 477
f 38 482 407
f 482 483 139
f 482 139 407
f 42 602 472
f 158 472 598
f 485 158 161
f 472 158 485
f 597 473 579
f 473 471 579
f 597 579 12
f 139 597 12
f 161 471 473
f 158 471 161
f 483 597 139
f 473 597 483
f 473 483 161
f 561 475 34
f 412 34 576
f 34 478 576
f 475 478 34
f 601 485 161
f 476 42 159
f 42 472 159
f 472 485 159
f 141 413 414
f 161 483 484
f 141 483 482
f 484 483 141
f 413 482 38
f 482 413 141
f 159 485 475
f 161 484 601
f 601 484 478
f 478 141 576
f 484 141 478
f 485 601 475
f 601 478 475
f 57 96 300
f 18 304 306
f 304 98 306
f 306 98 301
f 301 305 29
f 98 305 301
f 57 306 96
f 306 301 96
f 18 196 304
f 196 341 111
f 196 111 304
f 195 6 336
f 111 337 340
f 340 337 32
f 58 195 196
f 195 336 341
f 195 341 196
f 341 336 337
f 336 109 337
f 341 337 111
f 29 305 303
f 346 303 305
f 113 339 348
f 113 32 339
f 113 348 346
f 339 110 302
f 339 302 348
f 346 348 303
f 303 348 302
f 303 302 97
f 304 111 342
f 304 342 98
f 111 340 347
f 340 32 113
f 340 113 347
f 98 347 305
f 347 346 305
f 347 342 111
f 113 346 347
f 347 98 342
f 442 205 6
f 442 151 205
f 443 41 453
f 453 154 443
f 443 154 456
f 443 456 451
f 508 454 19
f 454 452 19
f 456 452 454
f 151 456 592
f 451 456 151
f 592 456 454
f 151 592 205
f 205 454 508
f 205 508 62
f 454 205 592
f 156 466 464
f 446 156 463
f 466 156 446
f 466 445 447
f 426 147 447
f 426 447 445
f 156 464 435
f 464 462 435
f 464 447 427
f 447 147 427
f 464 427 462
f 466 447 464
f 19 452 204
f 593 436 434
f 436 149 587
f 204 434 323
f 434 436 61
f 586 40 146
f 435 586 437
f 586 146 437
f 424 146 583
f 507 424 5
f 424 507 203
f 149 437 587
f 437 146 424
f 436 587 61
f 203 61 587
f 424 203 437
f 437 203 587
f 463 453 41
f 156 467 463
f 595 154 453
f 463 467 595
f 463 595 453
f 156 435 465
f 427 40 586
f 427 586 462
f 462 586 435
f 435 437 465
f 465 437 149
f 456 455 452
f 154 455 456
f 593 149 436
f 455 593 434
f 455 204 452
f 455 434 204
f 465 467 156
f 467 593 595
f 593 455 595
f 455 154 595
f 465 149 467
f 593 467 149
f 579 471 418
f 158 474 471
f 418 474 143
f 471 474 418
f 598 602 489
f 472 602 598
f 42 486 602
f 489 602 162
f 602 486 162
f 143 487 419
f 489 162 580
f 489 580 487
f 598 474 158
f 489 487 143
f 598 143 474
f 489 143 598
f 469 599 160
f 599 157 160
f 596 468 157
f 468 378 470
f 157 468 470
f 600 480 479
f 480 125 479
f 470 378 480
f 378 125 480
f 480 600 160
f 470 160 157
f 480 160 470
f 416 422 582
f 422 142 582
f 145 565 423
f 417 124 3
f 142 3 170
f 417 3 142
f 145 423 422
f 565 417 423
f 565 124 417
f 417 142 422
f 417 422 423
f 469 160 486
f 486 481 162
f 160 481 486
f 125 35 565
f 479 565 145
f 125 565 479
f 479 145 600
f 600 145 481
f 145 422 488
f 162 578 580
f 578 422 416
f 580 578 39
f 488 422 578
f 600 481 160
f 481 145 488
f 481 488 162
f 488 578 162
f 392 128 11
f 133 392 11
f 390 137 133
f 392 574 403
f 381 403 36
f 137 574 392
f 392 403 128
f 137 392 133
f 37 570 135
f 568 570 37
f 568 132 397
f 387 132 568
f 568 397 570
f 132 386 389
f 386 245 389
f 386 521 245
f 245 78 389
f 135 570 396
f 570 397 522
f 570 522 24
f 570 24 396
f 397 523 522
f 523 246 522
f 78 523 389
f 389 523 132
f 523 397 132
f 385 566 380
f 380 127 385
f 384 244 268
f 384 268 77
f 380 7 127
f 77 519 7
f 380 77 7
f 130 384 380
f 130 380 566
f 77 380 384
f 37 135 569
f 390 569 137
f 569 396 404
f 135 396 569
f 569 404 137
f 396 520 130
f 396 24 520
f 520 244 384
f 520 384 130
f 403 385 36
f 404 566 574
f 574 385 403
f 566 385 574
f 396 130 404
f 130 566 404
f 404 574 137
f 233 74 231
f 74 283 231
f 276 231 535
f 535 90 276
f 283 232 285
f 232 92 285
f 535 277 90
f 535 285 277
f 285 92 282
f 277 285 290
f 285 282 290
f 285 535 283
f 283 535 231
f 23 235 525
f 525 235 81
f 235 229 81
f 238 73 229
f 229 250 81
f 165 2 228
f 251 79 25
f 251 25 250
f 73 247 229
f 228 79 251
f 228 251 247
f 247 251 250
f 247 250 229
f 290 91 28
f 290 294 293
f 294 94 293
f 293 91 290
f 94 291 537
f 538 289 291
f 291 289 80
f 91 279 528
f 279 524 9
f 248 524 279
f 94 537 293
f 291 80 537
f 80 248 537
f 293 279 91
f 248 279 293
f 248 293 537
f 23 525 281
f 232 281 92
f 284 92 281
f 525 284 281
f 250 292 81
f 250 249 292
f 250 25 249
f 292 289 538
f 538 291 94
f 249 289 292
f 92 294 282
f 277 290 28
f 290 282 294
f 525 538 284
f 292 538 525
f 292 525 81
f 294 92 284
f 94 294 284
f 94 284 538
f 4 309 178
f 309 100 311
f 100 544 311
f 178 311 543
f 543 50 178
f 309 311 178
f 100 316 544
f 100 310 316
f 310 318 102
f 318 315 102
f 310 102 316
f 543 179 50
f 543 314 179
f 544 316 314
f 316 102 314
f 179 314 325
f 314 543 544
f 544 543 311
f 30 332 549
f 120 313 332
f 332 313 108
f 334 108 313
f 356 312 324
f 356 324 101
f 312 10 324
f 335 105 31
f 335 31 333
f 335 333 334
f 324 105 335
f 324 335 101
f 101 335 334
f 325 51 16
f 325 327 322
f 325 322 51
f 106 329 548
f 333 31 331
f 333 331 321
f 329 321 104
f 326 321 329
f 51 322 495
f 322 547 5
f 322 5 495
f 322 320 547
f 547 507 5
f 106 548 327
f 329 104 548
f 104 320 548
f 320 322 327
f 320 327 548
f 318 549 315
f 30 549 318
f 108 550 332
f 332 550 549
f 550 315 549
f 334 333 108
f 108 333 321
f 551 329 106
f 108 326 551
f 326 329 551
f 321 326 108
f 102 328 314
f 328 106 327
f 328 327 325
f 179 325 16
f 325 314 328
f 108 551 550
f 328 102 315
f 106 328 315
f 551 315 550
f 106 315 551
f 4 178 492
f 178 498 492
f 492 498 180
f 492 180 168
f 178 50 498
f 179 16 182
f 179 182 50
f 50 182 184
f 493 46 169
f 169 14 217
f 52 183 46
f 183 169 46
f 50 184 498
f 180 52 168
f 52 46 168
f 184 180 498
f 52 180 184
f 16 51 188
f 51 495 188
f 185 502 186
f 188 502 185
f 16 188 185
f 188 495 181
f 502 496 48
f 172 496 181
f 172 181 495
f 53 186 501
f 186 173 501
f 502 48 186
f 173 429 15
f 181 496 502
f 181 502 188
f 14 174 497
f 14 497 176
f 14 176 167
f 49 177 497
f 175 494 49
f 171 47 170
f 45 170 166
f 171 170 45
f 47 171 177
f 171 45 176
f 177 171 497
f 497 171 176
f 16 185 182
f 186 53 185
f 182 53 184
f 189 52 184
f 53 189 184
f 53 182 185
f 501 173 15
f 501 15 187
f 15 494 175
f 15 175 187
f 52 500 183
f 499 49 497
f 499 497 174
f 169 174 14
f 499 174 169
f 499 169 183
f 501 187 53
f 187 500 189
f 187 189 53
f 49 499 175
f 175 499 183
f 500 52 189
f 175 500 187
f 175 183 500
f 492 168 209
f 46 211 168
f 168 211 209
f 211 66 209
f 169 217 493
f 14 215 217
f 217 215 68
f 493 68 511
f 493 511 210
f 68 21 511
f 46 493 211
f 493 66 211
f 217 68 493
f 167 176 65
f 176 45 65
f 45 166 207
f 207 166 206
f 208 63 510
f 207 65 45
f 207 206 208
f 206 63 208
f 208 510 65
f 208 65 207
f 213 220 258
f 220 67 258
f 69 219 214
f 219 509 214
f 214 64 212
f 214 212 67
f 69 214 220
f 509 64 214
f 214 67 220
f 167 65 215
f 14 167 215
f 215 218 512
f 215 512 68
f 65 218 215
f 63 20 509
f 63 509 219
f 63 219 510
f 510 69 218
f 219 69 510
f 512 221 216
f 68 512 216
f 69 220 221
f 216 220 213
f 68 216 21
f 221 220 216
f 510 218 65
f 218 69 221
f 218 221 512
f 209 254 252
f 209 252 492
f 492 252 82
f 492 82 4
f 493 210 66
f 254 264 84
f 66 264 254
f 210 264 66
f 255 253 82
f 82 253 26
f 66 254 209
f 84 255 254
f 252 255 82
f 255 252 254
f 216 213 21
f 21 213 530
f 67 212 256
f 258 256 85
f 265 85 269
f 265 269 257
f 263 87 527
f 87 257 527
f 257 87 265
f 67 256 258
f 85 265 258
f 530 265 87
f 258 265 530
f 258 530 213
f 26 533 83
f 270 274 86
f 270 86 272
f 533 272 83
f 83 272 526
f 270 272 533
f 89 271 274
f 271 261 274
f 272 262 526
f 262 86 529
f 526 260 528
f 526 528 9
f 262 529 260
f 262 260 526
f 86 262 272
f 511 21 210
f 21 530 532
f 530 87 532
f 264 531 84
f 532 264 210
f 532 210 21
f 27 271 89
f 27 89 275
f 527 27 263
f 27 275 263
f 84 273 255
f 255 273 253
f 89 274 270
f 89 270 273
f 253 270 533
f 253 533 26
f 270 253 273
f 87 263 532
f 263 264 532
f 275 273 531
f 89 273 275
f 531 273 84
f 275 531 263
f 263 531 264
f 82 545 4
f 545 309 4
f 82 26 545
f 26 546 545
f 26 317 546
f 319 317 103
f 546 317 319
f 100 319 103
f 103 318 310
f 100 103 310
f 545 546 309
f 309 319 100
f 319 309 546
f 26 83 554
f 83 354 359
f 359 354 118
f 83 359 554
f 83 526 354
f 354 9 553
f 526 9 354
f 9 524 553
f 354 553 351
f 118 555 362
f 362 360 558
f 362 115 360
f 360 353 352
f 555 115 362
f 115 555 351
f 354 555 118
f 351 555 354
f 30 120 332
f 120 366 313
f 313 101 334
f 368 33 355
f 366 33 368
f 355 116 368
f 366 368 313
f 368 116 312
f 312 356 368
f 313 356 101
f 368 356 313
f 554 317 26
f 554 359 317
f 359 118 361
f 317 361 103
f 361 317 359
f 118 362 558
f 558 360 369
f 352 33 366
f 369 352 366
f 369 366 120
f 360 352 369
f 367 318 103
f 367 557 318
f 557 30 318
f 120 30 557
f 558 557 367
f 369 557 558
f 120 557 369
f 367 103 361
f 118 367 361
f 367 118 558
f 547 320 203
f 547 203 507
f 104 323 61
f 320 104 203
f 104 61 203
f 331 31 107
f 331 107 330
f 331 330 204
f 204 330 19
f 104 321 323
f 323 434 61
f 331 323 321
f 331 204 323
f 105 349 31
f 105 114 349
f 105 324 552
f 324 10 552
f 552 302 338
f 10 302 552
f 338 302 110
f 114 110 350
f 350 339 32
f 110 339 350
f 105 552 114
f 338 114 552
f 110 114 338
f 19 343 508
f 343 112 344
f 343 344 62
f 343 62 508
f 32 337 109
f 205 62 6
f 336 6 62
f 344 336 62
f 109 344 112
f 109 336 344
f 349 345 31
f 345 107 31
f 32 109 350
f 114 350 112
f 350 109 112
f 343 19 330
f 345 343 330
f 114 345 349
f 114 112 345
f 112 343 345
f 345 330 107
f 3 166 170
f 47 177 421
f 177 49 421
f 49 494 144
f 494 420 144
f 49 144 421
f 421 581 39
f 416 39 578
f 421 39 416
f 421 582 47
f 421 144 581
f 170 47 142
f 582 142 47
f 421 416 582
f 15 429 584
f 429 186 431
f 173 186 429
f 186 48 431
f 585 431 148
f 429 431 585
f 48 496 425
f 496 172 425
f 172 495 583
f 5 424 583
f 495 5 583
f 425 583 433
f 172 583 425
f 431 48 430
f 48 433 430
f 433 583 146
f 433 146 40
f 433 40 430
f 425 433 48
f 580 419 487
f 439 150 143
f 439 143 419
f 438 40 427
f 438 427 147
f 438 147 440
f 147 426 428
f 579 426 12
f 428 426 579
f 428 579 418
f 440 147 428
f 428 418 150
f 150 418 143
f 428 150 440
f 15 584 494
f 584 420 494
f 429 585 432
f 429 432 584
f 432 420 584
f 431 430 148
f 430 40 438
f 148 438 440
f 441 440 150
f 148 440 441
f 438 148 430
f 144 588 581
f 589 150 439
f 581 580 39
f 588 580 581
f 439 419 588
f 419 580 588
f 441 589 432
f 148 432 585
f 441 432 148
f 441 150 589
f 420 588 144
f 439 588 420
f 589 439 420
f 589 420 432
f 212 64 7
f 64 127 7
f 64 509 382
f 509 20 382
f 383 129 382
f 20 383 382
f 127 382 36
f 127 36 385
f 382 129 36
f 64 382 127
f 20 63 379
f 20 379 383
f 63 206 124
f 166 3 206
f 3 124 206
f 379 124 565
f 379 565 35
f 379 35 126
f 63 124 379
f 379 126 383
f 403 381 128
f 567 35 381
f 381 35 125
f 128 125 378
f 378 468 11
f 128 378 11
f 567 381 131
f 381 125 128
f 126 35 567
f 129 131 36
f 131 381 36
f 126 567 383
f 567 131 129
f 383 567 129
f 9 528 279
f 260 529 280
f 529 86 541
f 528 280 298
f 280 528 260
f 86 274 541
f 274 261 296
f 274 296 541
f 271 27 261
f 27 539 261
f 296 540 95
f 261 540 296
f 528 298 91
f 91 298 28
f 541 296 295
f 541 295 298
f 298 295 28
f 529 541 280
f 541 298 280
f 527 257 267
f 257 269 88
f 269 266 88
f 257 88 267
f 85 256 259
f 256 7 519
f 212 7 256
f 256 519 259
f 519 77 268
f 266 244 24
f 244 520 24
f 268 244 266
f 85 259 269
f 519 268 259
f 259 266 269
f 268 266 259
f 28 286 277
f 286 288 90
f 286 90 277
f 78 246 523
f 287 78 93
f 246 78 287
f 90 534 276
f 534 278 521
f 278 245 521
f 276 521 8
f 534 521 276
f 93 245 278
f 78 245 93
f 288 534 90
f 278 534 288
f 278 288 93
f 27 527 539
f 527 267 539
f 261 297 540
f 539 297 261
f 267 297 539
f 24 522 266
f 536 287 93
f 266 522 88
f 522 246 88
f 246 287 88
f 95 295 296
f 93 288 299
f 95 288 286
f 299 288 95
f 295 286 28
f 286 295 95
f 88 287 267
f 93 299 536
f 536 299 297
f 297 95 540
f 299 95 297
f 287 536 267
f 536 297 267
f 312 116 10
f 10 365 302
f 365 97 302
f 116 556 363
f 355 556 116
f 33 556 355
f 365 363 119
f 116 363 365
f 119 29 303
f 97 119 303
f 116 365 10
f 365 119 97
f 33 357 117
f 352 357 33
f 353 357 352
f 115 80 353
f 351 553 248
f 553 524 248
f 351 248 115
f 248 80 115
f 357 249 117
f 117 249 25
f 289 249 357
f 115 353 360
f 80 289 353
f 289 357 353
f 29 308 301
f 301 308 96
f 25 79 307
f 307 79 99
f 542 79 228
f 96 542 300
f 542 228 2
f 542 2 300
f 99 79 542
f 542 96 308
f 542 308 99
f 33 117 556
f 556 358 363
f 117 25 307
f 117 307 358
f 364 99 308
f 364 308 119
f 119 308 29
f 117 358 556
f 307 364 358
f 307 99 364
f 358 364 363
f 364 119 363

