# https://github.com/mikedh/trimesh
v 3.30391629 0.12978425 0.00230068
v 3.26381435 0.09341674 -0.17281191
v 3.17849731 -0.15629284 -0.22119285
v 3.06863986 -0.09700820 -0.28325560
v 2.91110328 0.16903803 -0.33154394
v 2.78086400 -0.26440589 -0.16306676
v 2.71138620 -0.11228676 -0.08068556
v 2.70274673 -0.19751559 0.12975135
v 2.75906133 0.04568541 0.17386316
v 2.94075488 -0.28436439 0.37061272
v 3.05487546 -0.12004793 0.33394201
v 3.21356921 0.15529377 0.18980342
v 2.73792081 0.25871047 -0.24417941
v 2.66919802 0.38716508 -0.08069494
v 3.21689103 0.64304720 -0.25242190
v 3.07688301 0.76302108 -0.41358326
v 2.93265480 0.80260806 -0.48419877
v 2.69364886 0.52200582 0.05141001
v 2.71594135 0.98857830 0.05773132
v 2.97273055 0.79616051 0.12335872
v 3.11146618 0.77329487 0.06199243
v 3.23321802 0.50115982 0.03084373
v 3.18282732 0.84205388 -0.14208948
v 2.64378590 0.64667148 -0.32056170
v 2.65654552 1.03924413 -0.52741012
v 2.46302529 1.02571855 -0.29896627
v 2.57586685 0.89495086 -0.04378587
v 2.54530386 1.62214913 -0.06463231
v 2.94485951 1.21348838 -0.03301998
v 3.00569820 1.29069225 -0.23642241
v 2.98208791 1.24303916 -0.41201709
v 2.50320843 1.09880308 -0.47356274
v 2.75454357 1.58146150 -0.54737285
v 2.53988310 1.57354910 -0.66806640
v 2.39925160 1.24075159 -0.13692045
v 2.75839513 1.70108162 -0.32829805
v 2.24315575 1.63176091 -0.67931619
v 2.25409324 1.40646869 -0.50099990
v 2.54560746 1.86670857 -0.20606475
v 2.04162498 1.62970576 -0.36253460
v 2.22167191 1.60506077 -0.15225110
v 1.80132803 2.08657035 -0.25394318
v 2.44940493 2.06162157 -0.41685926
v 2.42422865 1.99084156 -0.64049391
v 2.00086935 1.68753185 -0.58890767
v 1.92869370 2.16568345 -0.83920596
v 1.89693014 1.81250894 -0.31355742
v 1.96947281 2.23945176 -0.25540496
v 2.09618716 2.35771445 -0.55398101
v 2.06683378 2.26991774 -0.74203555
v 1.62843245 2.12628128 -0.84660272
v 1.68852631 1.94283913 -0.69279113
v 2.04038643 2.33062222 -0.35380318
v 1.58581348 1.95961696 -0.56838365
v 1.60478991 2.03293366 -0.37033145
v 1.16615291 2.56197191 -0.38900919
v 1.69706024 2.59325947 -0.63354514
v 1.68131500 2.50245059 -0.82177766
v 1.64816064 2.55652662 -0.43310797
v 1.17540240 2.55750610 -0.98294120
v 1.29390465 2.13503239 -0.77243295
v 1.09649013 2.18539261 -0.65592722
v 1.25693492 2.17775755 -0.47192956
v 1.01584643 2.41175827 -0.41845415
v 1.27139153 2.75700722 -0.70744825
v 1.26917568 2.66533617 -0.89588346
v 0.47659416 2.57455872 -1.10618398
v 0.91084445 2.38377102 -0.99223070
v 1.23129944 2.71211021 -0.50672859
v 0.78357355 2.27354643 -0.87605156
v 0.73605584 2.30594876 -0.57652600
v 0.83269522 2.84663483 -0.77500052
v 0.84357293 2.75609802 -0.96365695
v 0.80303155 2.79545826 -0.57398356
v 0.20367840 2.67645541 -1.11905573
v 0.41611387 2.26470222 -0.78389197
v 0.24859961 2.44925270 -0.54755838
v 0.38219387 2.69162097 -0.53606813
v 0.38777553 2.85764936 -0.78297239
v 0.40730611 2.83547893 -0.93763257
v 0.14749855 2.40261425 -1.12231192
v 0.37644640 2.80724649 -0.63425276
v 0.28140438 2.27835719 -0.98512613
v 0.05928220 2.26536002 -0.68930205
v -0.40208892 2.44477003 -0.61688965
v -0.03863510 2.79608339 -0.78316135
v -0.01491967 2.78250452 -0.99081300
v -0.64648617 2.27925613 -1.24947447
v -0.17425299 2.66464617 -0.64996430
v -0.20771819 2.17110414 -1.05737172
v -0.12730747 2.15303128 -0.89619699
v -0.49612602 2.18687474 -0.65715253
v -0.43032229 2.68643137 -0.93357548
v -0.57017961 2.53649190 -1.14375027
v -0.47158971 2.17540027 -1.19756007
v -0.61198055 2.56785605 -0.77527207
v -0.44303679 2.04108358 -0.80694650
v -0.84345209 2.29629856 -0.68843960
v -0.79469143 2.50690039 -0.97009248
v -0.61038227 1.91210837 -0.98481232
v -0.73018959 1.86541375 -1.11960294
v -0.97198589 1.86027477 -0.69848367
v -1.10750225 2.27181561 -1.05030565
v -1.17980085 2.07803362 -1.21573381
v -1.23161458 1.76733700 -1.30023187
v -0.98385892 1.78469565 -1.24935369
v -0.74657472 1.82707310 -0.84215058
v -1.10124057 2.25316389 -0.84182807
v -1.04590396 1.54804466 -0.82498628
v -1.34230077 1.39926571 -0.70808466
v -1.28880899 1.98359938 -0.77030530
v -1.38575252 2.00757807 -0.96309913
v -1.50027290 1.85727107 -1.07839697
v -0.99445560 1.52761158 -1.01952702
v -1.53170447 1.48448365 -0.72247272
v -1.17168614 1.41445210 -1.21050513
v -1.64590046 1.52904157 -1.17767937
v -1.54743930 1.39464560 -1.28704794
v -1.56958509 1.71235808 -0.87696137
v -1.53339146 0.91582410 -1.28402383
v -1.20529936 1.15398870 -1.00504936
v -1.28463629 1.08432655 -0.82633103
v -1.74267701 1.29296053 -0.82416891
v -1.75893845 1.39446308 -0.97261260
v -1.26164709 1.09011470 -1.13931726
v -1.39057382 0.74975330 -1.18946564
v -1.80502076 0.84250577 -0.74993913
v -1.89843336 0.91248054 -0.95712852
v -1.84713632 0.88627715 -1.15878426
v -1.71114460 0.78764290 -1.26372856
v -1.52173764 0.82434169 -0.68553637
v -1.31622302 0.66642649 -1.01842764
v -1.37590775 0.59727230 -0.77613843
v -1.59147110 0.17967780 -1.21465353
v -1.31565152 0.60802286 -0.90925299
v -1.74134206 0.35237108 -0.65841479
v -1.89915061 0.42574872 -0.86204179
v -1.88022389 0.41888768 -1.07201005
v -1.78623965 0.22632446 -1.14496275
v -1.35140340 0.21129544 -1.11727762
v -1.51659885 0.34256059 -0.62911394
v -1.35317139 -0.24313015 -1.11429065
v -1.28771813 0.31878787 -0.98557000
v -1.31627791 0.19039728 -0.70622132
v -1.86178811 0.13672492 -0.93398262
v -1.77739749 0.04032690 -0.70429773
v -1.68188058 -0.12871932 -1.07840210
v -1.21362671 0.09355930 -0.84318282
v -1.77335281 -0.11601829 -0.78221383
v -1.72510268 -0.20754801 -0.95065006
v -1.14331710 -0.18463363 -0.96793230
v -1.32746879 -0.03851477 -0.57260674
v -1.47146703 -0.47359460 -1.00892726
v -1.42905963 -0.32658234 -1.09234835
v -1.40946678 -0.15118941 -0.51819384
v -1.47452545 -0.35217570 -0.50685384
v -1.60410902 -0.46686729 -0.83963518
v -1.05631657 -0.41419664 -0.96279983
v -1.08180363 -0.16125967 -0.82928464
v -1.16297114 -0.13646210 -0.61579401
v -1.50470131 -0.56717915 -0.61784243
v -0.98262469 -0.28350039 -0.69029731
v -1.13927773 -0.34001974 -0.45666906
v -1.32585452 -0.78643317 -0.77028107
v -1.07334184 -0.78795598 -0.90152364
v -0.77894549 -0.73946518 -0.83865735
v -1.14401194 -0.52454350 -0.36978645
v -1.21259857 -0.70493137 -0.38628636
v -0.71907235 -0.61028810 -0.74666042
v -0.89976091 -0.40893165 -0.49915560
v -1.08701284 -0.94765494 -0.72192348
v -1.01978855 -0.94170388 -0.32843311
v -1.21191643 -0.87094358 -0.51485049
v -0.70601307 -0.51941942 -0.61879903
v -0.84867605 -0.60173722 -0.28413629
v -0.85888309 -0.73693629 -0.20470947
v -0.92908163 -1.08591651 -0.46542739
v -0.62971677 -0.99013096 -0.71253286
v -0.72713704 -1.07150658 -0.66183567
v -0.68672804 -0.54817286 -0.37269417
v -0.70657610 -1.17377655 -0.47385292
v -0.30052538 -0.69648046 -0.35910847
v -0.58001507 -0.88260428 -0.02830287
v -0.38388916 -1.07395254 0.09380177
v -0.17064913 -0.79537035 -0.39845333
v -0.39212227 -0.64776196 -0.26402972
v -0.40825762 -0.74255663 -0.03590505
v -0.53940005 -1.15752196 -0.07868715
v -0.24601243 -1.24681126 -0.33924123
v -0.15294380 -0.97037293 -0.46619594
v -0.38253669 -1.24606915 -0.06873902
v -0.08308755 -1.15876900 -0.35909286
v -0.21808521 -1.29718097 -0.09319774
v -0.20289990 -0.72841775 0.02903803
v -0.10777672 -0.69536573 -0.08976577
v 0.15294380 -0.97037293 0.46619594
v 0.05684440 -1.30141751 0.00230948
v 0.38388916 -1.07395254 -0.09380177
v 0.20289990 -0.72841775 -0.02903803
v 0.08308755 -1.15876900 0.35909286
v 0.21571927 -1.25540998 -0.04933725
v 0.37569789 -0.79797273 -0.03135883
v 0.11932910 -0.71331339 0.22409336
v 0.01238805 -0.80919428 0.29514667
v 0.12650937 -1.27214052 0.23113305
v 0.51983502 -1.18230099 0.08685205
v 0.58001507 -0.88260428 0.02830287
v 0.25066488 -0.68399723 0.16160511
v 0.47018813 -1.25391723 0.29242331
v 0.42843458 -0.74037562 0.57254799
v 0.63771870 -0.73645841 0.74092192
v 0.38511250 -1.19935482 0.44772395
v 0.62922929 -0.62489018 0.26298548
v 0.45999212 -0.64769930 0.47853844
v 1.06188297 -0.83774964 0.30947719
v 0.64343483 -1.00889503 0.70772956
v 0.75498371 -1.15884358 0.38104927
v 0.85888309 -0.73693629 0.20470947
v 0.56345889 -0.58978288 0.37363192
v 0.75803432 -0.79952627 0.82138379
v 0.89608348 -1.05520161 0.32147574
v 0.84867605 -0.60173722 0.28413629
v 0.81699596 -1.10867333 0.58584805
v 0.81512889 -0.48544519 0.74050895
v 1.11158243 -0.96758434 0.54880637
v 0.77686443 -0.46435525 0.58072394
v 1.32673894 -0.75291974 0.52409622
v 1.14401194 -0.52454350 0.36978645
v 0.93178215 -0.39634753 0.49332906
v 1.11500189 -0.86483316 0.82978307
v 1.27487849 -0.84888044 0.68183311
v 1.13927773 -0.34001974 0.45666906
v 1.13087881 -0.67498044 0.95699557
v 1.47452545 -0.35217570 0.50685384
v 1.02041615 -0.24618767 0.68229274
v 1.09158104 -0.19506460 0.90534218
v 1.25219284 -0.14641537 1.06557839
v 1.35317139 -0.24313015 1.11429065
v 1.41948970 -0.60197654 0.93541221
v 1.58586171 -0.48659535 0.73081182
v 1.16297114 -0.13646210 0.61579401
v 1.74205281 -0.08618893 0.68550073
v 1.40946678 -0.15118941 0.51819384
v 1.32746879 -0.03851477 0.57260674
v 1.48819005 -0.35751654 1.07359032
v 1.61599620 -0.42843458 0.88100944
v 1.21625443 0.06212054 0.75153436
v 1.74134206 0.35237108 0.65841479
v 1.29855016 0.14268747 1.06120317
v 1.82889767 -0.00119183 0.91482413
v 1.26383397 0.25748505 0.89665469
v 1.68188058 -0.12871932 1.07840210
v 1.51659885 0.34256059 0.62911394
v 1.36366620 0.36983515 0.73310692
v 1.59147110 0.17967780 1.21465353
v 1.78623965 0.22632446 1.14496275
v 1.89915061 0.42574872 0.86204179
v 1.31939171 0.63441823 0.92254149
v 1.53339146 0.91582410 1.28402383
v 1.32429076 0.64866666 1.04309213
v 1.88022389 0.41888768 1.07201005
v 1.80502076 0.84250577 0.74993913
v 1.52173764 0.82434169 0.68553637
v 1.36164765 0.71861892 0.79150223
v 1.39057382 0.74975330 1.18946564
v 1.71114460 0.78764290 1.26372856
v 1.89843336 0.91248054 0.95712852
v 1.84713632 0.88627715 1.15878426
v 1.53170447 1.48448365 0.72247272
v 1.74267701 1.29296053 0.82416891
v 1.28463629 1.08432655 0.82633103
v 1.20529936 1.15398870 1.00504936
v 1.34230077 1.39926571 0.70808466
v 1.26164709 1.09011470 1.13931726
v 1.54976363 1.39371845 1.28663194
v 1.75893845 1.39446308 0.97261260
v 1.17168614 1.41445210 1.21050513
v 1.25998397 1.73663215 1.30177562
v 1.64590046 1.52904157 1.17767937
v 1.50027290 1.85727107 1.07839697
v 1.56958509 1.71235808 0.87696137
v 1.04590396 1.54804466 0.82498628
v 0.99445560 1.52761158 1.01952702
v 0.98385892 1.78469565 1.24935369
v 1.38575252 2.00757807 0.96309913
v 1.28880899 1.98359938 0.77030530
v 0.97198589 1.86027477 0.69848367
v 1.17980085 2.07803362 1.21573381
v 0.84345209 2.29629856 0.68843960
v 0.73018959 1.86541375 1.11960294
v 1.10750225 2.27181561 1.05030565
v 1.10124057 2.25316389 0.84182807
v 0.40208892 2.44477003 0.61688965
v 0.74657472 1.82707310 0.84215058
v 0.61038227 1.91210837 0.98481232
v 0.61351310 2.29892699 1.24649659
v 0.49612602 2.18687474 0.65715253
v 0.47158971 2.17540027 1.19756007
v 0.79469143 2.50690039 0.97009248
v 0.61198055 2.56785605 0.77527207
v 0.44303679 2.04108358 0.80694650
v 0.57017961 2.53649190 1.14375027
v 0.20771819 2.17110414 1.05737172
v 0.43032229 2.68643137 0.93357548
v 0.17425299 2.66464617 0.64996430
v 0.12730747 2.15303128 0.89619699
v -0.05928220 2.26536002 0.68930205
v -0.14749855 2.40261425 1.12231192
v -0.03099386 2.59549691 1.15423628
v 0.03863510 2.79608339 0.78316135
v -0.38159132 2.47053198 0.52837093
v -0.28140438 2.27835719 0.98512613
v -0.00410131 2.72414235 1.07771403
v 0.02202175 2.79521238 0.93972242
v -0.38219387 2.69162097 0.53606813
v -0.41611387 2.26470222 0.78389197
v -0.39443503 2.86246170 0.83557127
v -0.37644640 2.80724649 0.63425276
v -1.16615291 2.56197191 0.38900919
v -0.87663336 2.57301567 1.04461844
v -0.41766696 2.77483852 1.02445925
v -0.73605584 2.30594876 0.57652600
v -0.78357355 2.27354643 0.87605156
v -0.91084445 2.38377102 0.99223070
v -0.83269522 2.84663483 0.77500052
v -0.80303155 2.79545826 0.57398356
v -0.84357293 2.75609802 0.96365695
v -1.09649013 2.18539261 0.65592722
v -1.27139153 2.75700722 0.70744825
v -1.23129944 2.71211021 0.50672859
v -1.31057973 2.32274970 0.36184502
v -1.47221184 2.60858572 0.85721881
v -1.42583460 2.11572742 0.43577728
v -1.46648597 2.06660684 0.73403100
v -1.62843245 2.12628128 0.84660272
v -1.83547911 2.31843017 0.84905171
v -1.69706024 2.59325947 0.63354514
v -1.64816064 2.55652662 0.43310797
v -1.96947281 2.23945176 0.25540496
v -1.74392690 1.87513023 0.50257771
v -2.08614831 2.35931131 0.50172465
v -2.19770405 2.21602437 0.31078957
v -2.54530386 1.62214913 0.06463231
v -1.99433618 1.93357099 0.20301273
v -2.24723830 1.86919061 0.75619993
v -2.09337093 2.32595022 0.65546839
v -2.04153717 1.69482216 0.27225888
v -1.92209038 1.75660283 0.61313146
v -2.24315575 1.63176091 0.67931619
v -2.44940493 2.06162157 0.41685926
v -2.42422865 1.99084156 0.64049391
v -2.15022302 1.49625225 0.37376879
v -2.18706974 1.48860557 0.52633063
v -2.63232482 1.52004922 0.64163054
v -2.75839513 1.70108162 0.32829805
v -2.81720401 1.50466684 0.12284694
v -2.53097402 1.32439116 0.02594005
v -2.78731889 0.86389390 0.49336476
v -2.74254977 1.65080589 0.50402827
v -2.39925160 1.24075159 0.13692045
v -2.41560352 1.11058461 0.31613960
v -2.50320843 1.09880308 0.47356274
v -3.00569820 1.29069225 0.23642241
v -2.95958424 1.23039426 0.45983830
v -2.96712112 0.94084160 -0.08139110
v -2.57586685 0.89495086 0.04378587
v -2.61058317 0.67179980 0.14327192
v -2.71525489 0.73760165 0.43532276
v -3.09006166 0.55915999 0.39841456
v -3.18282732 0.84205388 0.14208948
v -3.11146618 0.77329487 -0.06199243
v -2.84589930 0.55838448 -0.16280440
v -2.62565428 0.64710480 0.26960071
v -3.06338417 0.10480727 0.32913163
v -3.17562564 0.70801390 0.30584282
v -3.06338417 -0.10480727 -0.32913163
v -2.69364886 0.52200582 -0.05141001
v -3.28873918 0.36397748 0.07242654
v -3.20196024 0.31169049 -0.15817774
v -2.71975300 0.26434941 0.22455343
v -2.82850068 0.06391452 -0.24267890
v -2.70693702 0.10979460 -0.06088163
v -2.82850068 -0.06391452 0.24267890
v -3.27387435 0.04714576 0.15033593
v -3.29752664 -0.06556809 -0.07736853
v -3.21468039 -0.15944351 -0.25493108
v -2.70412490 -0.11268799 0.05329163
v -2.84589930 -0.55838448 0.16280440
v -3.20196024 -0.31169049 0.15817774
v -3.28364661 -0.36826565 -0.04617940
v -2.78731889 -0.86389390 -0.49336476
v -2.71975300 -0.26434941 -0.22455343
v -3.18625215 -0.68462813 -0.29423306
v -2.61058317 -0.67179980 -0.14327192
v -2.69364886 -0.52200582 0.05141001
v -2.96712112 -0.94084160 0.08139110
v -3.11146618 -0.77329487 0.06199243
v -3.18282732 -0.84205388 -0.14208948
v -2.96510182 -0.86742725 -0.48693787
v -2.71525489 -0.73760165 -0.43532276
v -2.62565428 -0.64710480 -0.26960071
v -2.57586685 -0.89495086 -0.04378587
v -2.53097402 -1.32439116 -0.02594005
v -2.54530386 -1.62214913 -0.06463231
v -3.00569820 -1.29069225 -0.23642241
v -2.95958424 -1.23039426 -0.45983830
v -2.50320843 -1.09880308 -0.47356274
v -2.41560352 -1.11058461 -0.31613960
v -2.81720401 -1.50466684 -0.12284694
v -2.39925160 -1.24075159 -0.13692045
v -2.75839513 -1.70108162 -0.32829805
v -2.74254977 -1.65080589 -0.50402827
v -2.62038589 -1.59308559 -0.63699054
v -2.24315575 -1.63176091 -0.67931619
v -2.18706974 -1.48860557 -0.52633063
v -2.15022302 -1.49625225 -0.37376879
v -2.04153717 -1.69482216 -0.27225888
v -1.99433618 -1.93357099 -0.20301273
v -2.44940493 -2.06162157 -0.41685926
v -2.42422865 -1.99084156 -0.64049391
v -2.24723830 -1.86919061 -0.75619993
v -2.19770405 -2.21602437 -0.31078957
v -1.92209038 -1.75660283 -0.61313146
v -1.74392690 -1.87513023 -0.50257771
v -1.96947281 -2.23945176 -0.25540496
v -2.08614831 -2.35931131 -0.50172465
v -2.09337093 -2.32595022 -0.65546839
v -1.83547911 -2.31843017 -0.84905171
v -1.62843245 -2.12628128 -0.84660272
v -1.46648597 -2.06660684 -0.73403100
v -1.42583460 -2.11572742 -0.43577728
v -1.31057973 -2.32274970 -0.36184502
v -1.16615291 -2.56197191 -0.38900919
v -1.69706024 -2.59325947 -0.63354514
v -1.47221184 -2.60858572 -0.85721881
v -0.87663336 -2.57301567 -1.04461844
v -1.64816064 -2.55652662 -0.43310797
v -1.09649013 -2.18539261 -0.65592722
v -1.27139153 -2.75700722 -0.70744825
v -0.91084445 -2.38377102 -0.99223070
v -1.23129944 -2.71211021 -0.50672859
v -0.78357355 -2.27354643 -0.87605156
v -0.73605584 -2.30594876 -0.57652600
v -0.38159132 -2.47053198 -0.52837093
v -0.83269522 -2.84663483 -0.77500052
v -0.84357293 -2.75609802 -0.96365695
v -0.80303155 -2.79545826 -0.57398356
v -0.41611387 -2.26470222 -0.78389197
v -0.38219387 -2.69162097 -0.53606813
v -0.39443503 -2.86246170 -0.83557127
v -0.41766696 -2.77483852 -1.02445925
v -0.14749855 -2.40261425 -1.12231192
v -0.37644640 -2.80724649 -0.63425276
v -0.03099386 -2.59549691 -1.15423628
v -0.28140438 -2.27835719 -0.98512613
v -0.05928220 -2.26536002 -0.68930205
v 0.40208892 -2.44477003 -0.61688965
v 0.03863510 -2.79608339 -0.78316135
v 0.02202175 -2.79521238 -0.93972242
v -0.00410131 -2.72414235 -1.07771403
v 0.61351310 -2.29892699 -1.24649659
v 0.17425299 -2.66464617 -0.64996430
v 0.20771819 -2.17110414 -1.05737172
v 0.12730747 -2.15303128 -0.89619699
v 0.49612602 -2.18687474 -0.65715253
v 0.43032229 -2.68643137 -0.93357548
v 0.57017961 -2.53649190 -1.14375027
v 0.47158971 -2.17540027 -1.19756007
v 0.61198055 -2.56785605 -0.77527207
v 0.44303679 -2.04108358 -0.80694650
v 0.84345209 -2.29629856 -0.68843960
v 0.79469143 -2.50690039 -0.97009248
v 0.61038227 -1.91210837 -0.98481232
v 0.73018959 -1.86541375 -1.11960294
v 0.97198589 -1.86027477 -0.69848367
v 1.10750225 -2.27181561 -1.05030565
v 1.17980085 -2.07803362 -1.21573381
v 0.98385892 -1.78469565 -1.24935369
v 0.74657472 -1.82707310 -0.84215058
v 1.10124057 -2.25316389 -0.84182807
v 1.25998397 -1.73663215 -1.30177562
v 1.04590396 -1.54804466 -0.82498628
v 1.34230077 -1.39926571 -0.70808466
v 1.28880899 -1.98359938 -0.77030530
v 1.38575252 -2.00757807 -0.96309913
v 1.50027290 -1.85727107 -1.07839697
v 0.99445560 -1.52761158 -1.01952702
v 1.53170447 -1.48448365 -0.72247272
v 1.17168614 -1.41445210 -1.21050513
v 1.64590046 -1.52904157 -1.17767937
v 1.54976363 -1.39371845 -1.28663194
v 1.56958509 -1.71235808 -0.87696137
v 1.53339146 -0.91582410 -1.28402383
v 1.20529936 -1.15398870 -1.00504936
v 1.28463629 -1.08432655 -0.82633103
v 1.74267701 -1.29296053 -0.82416891
v 1.75893845 -1.39446308 -0.97261260
v 1.26164709 -1.09011470 -1.13931726
v 1.39057382 -0.74975330 -1.18946564
v 1.80502076 -0.84250577 -0.74993913
v 1.89843336 -0.91248054 -0.95712852
v 1.84713632 -0.88627715 -1.15878426
v 1.71114460 -0.78764290 -1.26372856
v 1.52173764 -0.82434169 -0.68553637
v 1.32429076 -0.64866666 -1.04309213
v 1.31939171 -0.63441823 -0.92254149
v 1.36164765 -0.71861892 -0.79150223
v 1.59147110 -0.17967780 -1.21465353
v 1.74134206 -0.35237108 -0.65841479
v 1.89915061 -0.42574872 -0.86204179
v 1.88022389 -0.41888768 -1.07201005
v 1.78623965 -0.22632446 -1.14496275
v 1.29855016 -0.14268747 -1.06120317
v 1.36366620 -0.36983515 -0.73310692
v 1.51659885 -0.34256059 -0.62911394
v 1.35317139 0.24313015 -1.11429065
v 1.26383397 -0.25748505 -0.89665469
v 1.86178811 -0.13672492 -0.93398262
v 1.77739749 -0.04032690 -0.70429773
v 1.68188058 0.12871932 -1.07840210
v 1.25219284 0.14641537 -1.06557839
v 1.21625443 -0.06212054 -0.75153436
v 1.77335281 0.11601829 -0.78221383
v 1.72510268 0.20754801 -0.95065006
v 1.32746879 0.03851477 -0.57260674
v 1.47146703 0.47359460 -1.00892726
v 1.42905963 0.32658234 -1.09234835
v 1.09158104 0.19506460 -0.90534218
v 1.40946678 0.15118941 -0.51819384
v 1.47452545 0.35217570 -0.50685384
v 1.60410902 0.46686729 -0.83963518
v 1.16297114 0.13646210 -0.61579401
v 1.50470131 0.56717915 -0.61784243
v 1.02041615 0.24618767 -0.68229274
v 1.13927773 0.34001974 -0.45666906
v 1.32585452 0.78643317 -0.77028107
v 1.07334184 0.78795598 -0.90152364
v 0.75803432 0.79952627 -0.82138379
v 0.81512889 0.48544519 -0.74050895
v 1.14401194 0.52454350 -0.36978645
v 1.21259857 0.70493137 -0.38628636
v 0.63771870 0.73645841 -0.74092192
v 0.93178215 0.39634753 -0.49332906
v 1.08701284 0.94765494 -0.72192348
v 0.77686443 0.46435525 -0.58072394
v 1.01978855 0.94170388 -0.32843311
v 1.21191643 0.87094358 -0.51485049
v 0.84867605 0.60173722 -0.28413629
v 0.85888309 0.73693629 -0.20470947
v 0.92908163 1.08591651 -0.46542739
v 0.62971677 0.99013096 -0.71253286
v 0.72713704 1.07150658 -0.66183567
v 0.42843458 0.74037562 -0.57254799
v 0.62922929 0.62489018 -0.26298548
v 0.70657610 1.17377655 -0.47385292
v 0.45999212 0.64769930 -0.47853844
v 0.56345889 0.58978288 -0.37363192
v 0.58001507 0.88260428 -0.02830287
v 0.38388916 1.07395254 0.09380177
v 0.53940005 1.15752196 -0.07868715
v 0.24601243 1.24681126 -0.33924123
v 0.15294380 0.97037293 -0.46619594
v 0.25066488 0.68399723 -0.16160511
v 0.37569789 0.79797273 0.03135883
v 0.38253669 1.24606915 -0.06873902
v 0.08308755 1.15876900 -0.35909286
v 0.11932910 0.71331339 -0.22409336
v 0.21808521 1.29718097 -0.09319774
v 0.20289990 0.72841775 0.02903803
v 0.01238805 0.80919428 -0.29514667
v -0.15294380 0.97037293 0.46619594
v -0.05684440 1.30141751 0.00230948
v -0.38388916 1.07395254 -0.09380177
v -0.20289990 0.72841775 -0.02903803
v -0.08308755 1.15876900 0.35909286
v -0.21571927 1.25540998 -0.04933725
v -0.40825762 0.74255663 0.03590505
v -0.10777672 0.69536573 0.08976577
v -0.17064913 0.79537035 0.39845333
v -0.12650937 1.27214052 0.23113305
v -0.51983502 1.18230099 0.08685205
v -0.58001507 0.88260428 0.02830287
v -0.30052538 0.69648046 0.35910847
v -0.47018813 1.25391723 0.29242331
v -0.39212227 0.64776196 0.26402972
v -0.77894549 0.73946518 0.83865735
v -0.38511250 1.19935482 0.44772395
v -1.06188297 0.83774964 0.30947719
v -0.64343483 1.00889503 0.70772956
v -0.75498371 1.15884358 0.38104927
v -0.85888309 0.73693629 0.20470947
v -0.89608348 1.05520161 0.32147574
v -0.84867605 0.60173722 0.28413629
v -0.68672804 0.54817286 0.37269417
v -0.71907235 0.61028810 0.74666042
v -0.81699596 1.10867333 0.58584805
v -0.70601307 0.51941942 0.61879903
v -1.11158243 0.96758434 0.54880637
v -0.89976091 0.40893165 0.49915560
v -1.32673894 0.75291974 0.52409622
v -1.14401194 0.52454350 0.36978645
v -1.05631657 0.41419664 0.96279983
v -1.11500189 0.86483316 0.82978307
v -1.27487849 0.84888044 0.68183311
v -1.13927773 0.34001974 0.45666906
v -0.98262469 0.28350039 0.69029731
v -1.13087881 0.67498044 0.95699557
v -1.47452545 0.35217570 0.50685384
v -1.14331710 0.18463363 0.96793230
v -1.35317139 0.24313015 1.11429065
v -1.41948970 0.60197654 0.93541221
v -1.58586171 0.48659535 0.73081182
v -1.16297114 0.13646210 0.61579401
v -1.08180363 0.16125967 0.82928464
v -1.74205281 0.08618893 0.68550073
v -1.48047290 0.00205845 0.56303681
v -1.32746879 0.03851477 0.57260674
v -1.48819005 0.35751654 1.07359032
v -1.61599620 0.42843458 0.88100944
v -1.26492018 -0.13436489 0.73989506
v -1.74134206 -0.35237108 0.65841479
v -1.23354292 -0.13184909 0.88953899
v -1.35140340 -0.21129544 1.11727762
v -1.82889767 0.00119183 0.91482413
v -1.68188058 0.12871932 1.07840210
v -1.46751647 -0.35626420 0.64947738
v -1.28771813 -0.31878787 0.98557000
v -1.59147110 -0.17967780 1.21465353
v -1.78623965 -0.22632446 1.14496275
v -1.89915061 -0.42574872 0.86204179
v -1.46762221 -0.72781213 1.23702680
v -1.39302162 -0.67161787 0.75996641
v -1.31565152 -0.60802286 0.90925299
v -1.31622302 -0.66642649 1.01842764
v -1.88022389 -0.41888768 1.07201005
v -1.80502076 -0.84250577 0.74993913
v -1.54405478 -0.84974012 0.68398011
v -1.36075716 -0.86648851 1.16793640
v -1.71114460 -0.78764290 1.26372856
v -1.89843336 -0.91248054 0.95712852
v -1.84713632 -0.88627715 1.15878426
v -1.49647271 -1.44392900 0.70835552
v -1.53062114 -0.99158459 1.29048630
v -1.74267701 -1.29296053 0.82416891
v -1.28000522 -1.06541462 0.84551531
v -1.20529936 -1.15398870 1.00504936
v -1.32499067 -1.32513568 0.72356404
v -1.54743930 -1.39464560 1.28704794
v -1.75893845 -1.39446308 0.97261260
v -1.54329222 -1.55697988 0.75348725
v -1.17168614 -1.41445210 1.21050513
v -1.64590046 -1.52904157 1.17767937
v -1.18590573 -1.82017440 1.29741834
v -1.50027290 -1.85727107 1.07839697
v -1.56958509 -1.71235808 0.87696137
v -1.04757186 -1.52819279 0.84547852
v -0.99445560 -1.52761158 1.01952702
v -1.00042618 -1.80152749 0.70789698
v -0.98385892 -1.78469565 1.24935369
v -1.38575252 -2.00757807 0.96309913
v -1.28880899 -1.98359938 0.77030530
v -1.17980085 -2.07803362 1.21573381
v -0.84345209 -2.29629856 0.68843960
v -0.73018959 -1.86541375 1.11960294
v -1.10750225 -2.27181561 1.05030565
v -1.10124057 -2.25316389 0.84182807
v -0.40208892 -2.44477003 0.61688965
v -0.74657472 -1.82707310 0.84215058
v -0.61038227 -1.91210837 0.98481232
v -0.50193162 -2.18592490 0.65624964
v -0.47158971 -2.17540027 1.19756007
v -0.67452269 -2.32188666 1.23599377
v -0.79469143 -2.50690039 0.97009248
v -0.61198055 -2.56785605 0.77527207
v -0.44303679 -2.04108358 0.80694650
v -0.57017961 -2.53649190 1.14375027
v -0.20771819 -2.17110414 1.05737172
v 0.04439132 -2.54934499 1.16726100
v -0.43032229 -2.68643137 0.93357548
v -0.17425299 -2.66464617 0.64996430
v -0.12730747 -2.15303128 0.89619699
v 0.05928220 -2.26536002 0.68930205
v 0.14749855 -2.40261425 1.12231192
v -0.03863510 -2.79608339 0.78316135
v 0.18612699 -2.43959771 0.55581252
v 0.28140438 -2.27835719 0.98512613
v 0.00410131 -2.72414235 1.07771403
v 0.21835753 -2.85404958 0.87328334
v 0.38219387 -2.69162097 0.53606813
v 0.41611387 -2.26470222 0.78389197
v 0.37644640 -2.80724649 0.63425276
v 1.16615291 -2.56197191 0.38900919
v 0.41766696 -2.77483852 1.02445925
v 0.73605584 -2.30594876 0.57652600
v 0.78357355 -2.27354643 0.87605156
v 0.91084445 -2.38377102 0.99223070
v 0.82763401 -2.62602525 1.04036832
v 0.83269522 -2.84663483 0.77500052
v 0.80303155 -2.79545826 0.57398356
v 1.10484652 -2.40060851 0.40383794
v 0.84357293 -2.75609802 0.96365695
v 1.09649013 -2.18539261 0.65592722
v 1.70005417 -2.27750176 0.88904242
v 1.27139153 -2.75700722 0.70744825
v 1.23129944 -2.71211021 0.50672859
v 1.47221184 -2.60858572 0.85721881
v 1.42583460 -2.11572742 0.43577728
v 1.46648597 -2.06660684 0.73403100
v 1.62843245 -2.12628128 0.84660272
v 1.83547911 -2.31843017 0.84905171
v 1.69706024 -2.59325947 0.63354514
v 1.64816064 -2.55652662 0.43310797
v 1.95740875 -2.19743677 0.23265040
v 1.74392690 -1.87513023 0.50257771
v 2.08614831 -2.35931131 0.50172465
v 2.04038643 -2.33062222 0.35380318
v 1.97707988 -1.94756763 0.20751149
v 2.09337093 -2.32595022 0.65546839
v 2.04153717 -1.69482216 0.27225888
v 1.92209038 -1.75660283 0.61313146
v 2.24315575 -1.63176091 0.67931619
v 2.40161476 -1.84900485 0.70967722
v 2.44940493 -2.06162157 0.41685926
v 2.54560746 -1.86670857 0.20606475
v 2.60558526 -1.84366683 0.55037878
v 2.60277101 -1.62698718 0.08269941
v 2.15022302 -1.49625225 0.37376879
v 2.18706974 -1.48860557 0.52633063
v 2.84065510 -1.02718677 0.53934185
v 2.75839513 -1.70108162 0.32829805
v 2.80494749 -1.09015932 -0.06376281
v 2.51888185 -1.34314523 0.03092714
v 2.80660730 -1.39944903 0.55449276
v 2.39925160 -1.24075159 0.13692045
v 2.41560352 -1.11058461 0.31613960
v 2.50320843 -1.09880308 0.47356274
v 2.65654552 -1.03924413 0.52741012
v 3.00569820 -1.29069225 0.23642241
v 3.01282039 -1.09874278 0.01706147
v 2.98208791 -1.24303916 0.41201709
v 2.97066579 -0.98219947 -0.06128835
v 2.70427658 -0.77785362 -0.06938749
v 2.56519132 -0.80326304 0.12368428
v 3.18282732 -0.84205388 0.14208948
v 2.60334066 -0.64389643 0.21033380
v 2.74638022 -0.54668740 0.36820120
v 3.13245693 -0.53559333 0.36448428
v 3.21787631 -0.56957364 0.27026220
v 3.21628990 -0.48341828 -0.07060411
v 3.28304172 -0.37169717 0.04596777
f 6 13 5
f 6 7 13
f 7 14 13
f 7 8 14
f 8 9 14
f 1 2 15
f 2 3 15
f 3 16 15
f 3 4 16
f 4 17 16
f 14 9 18
f 9 10 18
f 10 19 18
f 10 11 19
f 11 12 20
f 12 21 20
f 12 22 21
f 12 1 22
f 1 15 22
f 4 5 17
f 13 24 5
f 13 14 24
f 22 23 21
f 22 15 23
f 5 24 25
f 14 26 24
f 14 18 26
f 18 27 26
f 18 19 27
f 11 28 19
f 11 20 28
f 21 29 20
f 23 15 30
f 15 31 30
f 15 16 31
f 5 25 17
f 24 32 25
f 24 26 32
f 21 23 29
f 23 30 29
f 16 33 31
f 16 17 33
f 17 34 33
f 27 35 26
f 27 19 35
f 20 29 28
f 30 31 36
f 31 33 36
f 32 37 25
f 26 38 32
f 29 39 28
f 29 30 39
f 30 36 39
f 25 37 17
f 32 38 37
f 26 40 38
f 26 35 40
f 35 41 40
f 35 19 41
f 19 42 41
f 19 28 42
f 36 33 43
f 33 44 43
f 33 34 44
f 17 37 34
f 38 40 45
f 36 43 39
f 34 46 44
f 38 45 37
f 40 41 47
f 41 42 47
f 28 39 48
f 43 44 49
f 44 50 49
f 44 46 50
f 37 45 51
f 45 40 52
f 39 53 48
f 39 43 53
f 43 49 53
f 37 51 34
f 45 52 51
f 52 40 54
f 40 47 54
f 47 55 54
f 47 42 55
f 28 56 42
f 49 50 57
f 50 58 57
f 50 46 58
f 34 51 46
f 28 48 56
f 53 59 48
f 53 49 59
f 49 57 59
f 46 60 58
f 52 61 51
f 52 54 61
f 54 62 61
f 54 55 62
f 55 63 62
f 55 42 63
f 42 56 64
f 48 59 56
f 57 58 65
f 58 66 65
f 58 60 66
f 46 67 60
f 51 61 68
f 42 64 63
f 59 69 56
f 59 57 69
f 57 65 69
f 51 68 46
f 61 70 68
f 61 62 70
f 63 71 62
f 63 64 71
f 65 66 72
f 66 73 72
f 66 60 73
f 46 68 67
f 69 74 56
f 69 65 74
f 65 72 74
f 60 75 73
f 62 76 70
f 62 71 76
f 64 56 77
f 56 74 78
f 72 80 79
f 72 73 80
f 73 75 80
f 60 67 75
f 68 70 81
f 64 77 71
f 74 82 78
f 74 72 82
f 72 79 82
f 68 81 67
f 70 83 81
f 70 76 83
f 71 84 76
f 71 77 84
f 56 85 77
f 79 80 86
f 80 87 86
f 80 75 87
f 67 81 88
f 56 78 85
f 82 89 78
f 82 86 89
f 82 79 86
f 83 91 90
f 83 76 91
f 76 84 91
f 77 85 92
f 78 89 85
f 86 87 93
f 87 94 93
f 87 75 94
f 67 88 75
f 83 95 81
f 83 90 95
f 77 92 84
f 89 86 96
f 86 93 96
f 75 88 94
f 81 95 88
f 91 84 97
f 84 92 97
f 85 89 98
f 93 94 99
f 91 100 90
f 91 97 100
f 89 96 98
f 93 99 96
f 90 101 95
f 90 100 101
f 92 85 102
f 99 94 103
f 94 104 103
f 94 88 104
f 95 101 106
f 97 107 100
f 97 92 107
f 96 108 98
f 96 99 108
f 99 103 108
f 88 105 104
f 95 106 88
f 92 109 107
f 92 102 109
f 85 110 102
f 103 113 112
f 103 104 113
f 88 106 105
f 101 100 114
f 100 107 114
f 107 109 114
f 85 115 110
f 85 98 115
f 98 108 111
f 108 112 111
f 108 103 112
f 101 116 106
f 101 114 116
f 98 111 115
f 113 104 117
f 104 118 117
f 104 105 118
f 102 110 109
f 111 119 115
f 111 112 119
f 112 113 119
f 106 120 105
f 106 116 120
f 114 109 121
f 109 110 122
f 119 123 115
f 113 117 124
f 114 125 116
f 114 121 125
f 109 122 121
f 119 124 123
f 119 113 124
f 116 126 120
f 124 117 128
f 117 129 128
f 117 118 129
f 118 130 129
f 105 120 118
f 116 125 126
f 110 131 122
f 115 123 127
f 124 128 123
f 118 120 130
f 125 121 126
f 121 122 132
f 122 131 133
f 110 115 131
f 121 132 126
f 132 122 135
f 122 133 135
f 115 136 131
f 123 128 127
f 120 134 130
f 115 127 136
f 128 138 137
f 128 129 138
f 129 139 138
f 129 130 139
f 126 140 120
f 131 141 133
f 127 128 137
f 130 134 139
f 120 142 134
f 126 132 140
f 132 135 143
f 133 141 144
f 131 136 141
f 127 137 136
f 137 138 145
f 138 139 145
f 132 143 140
f 135 133 143
f 137 146 136
f 120 140 142
f 143 133 148
f 133 144 148
f 137 145 146
f 145 150 149
f 145 139 150
f 139 147 150
f 139 134 147
f 143 148 151
f 141 152 144
f 145 149 146
f 134 154 147
f 134 142 154
f 140 143 151
f 141 155 152
f 141 136 155
f 136 146 156
f 149 150 157
f 147 153 150
f 147 154 153
f 140 151 158
f 151 148 159
f 144 152 160
f 136 156 155
f 149 161 146
f 150 153 157
f 140 158 142
f 148 144 159
f 144 160 162
f 146 161 156
f 149 157 161
f 144 162 159
f 152 155 163
f 157 153 164
f 154 165 153
f 154 142 165
f 142 158 166
f 152 163 160
f 155 167 163
f 155 156 167
f 157 164 161
f 159 169 151
f 159 162 169
f 160 170 162
f 160 163 170
f 156 161 168
f 153 165 164
f 142 166 165
f 151 169 158
f 161 172 168
f 164 165 171
f 169 162 174
f 163 167 175
f 156 176 167
f 156 168 176
f 161 173 172
f 161 164 173
f 165 166 178
f 162 170 174
f 163 175 170
f 164 177 173
f 164 171 177
f 171 165 179
f 165 178 179
f 170 175 180
f 171 179 181
f 158 169 166
f 167 176 175
f 173 177 172
f 171 181 177
f 170 180 174
f 176 168 183
f 168 184 183
f 174 185 169
f 174 182 185
f 174 180 182
f 168 172 184
f 169 185 166
f 180 175 187
f 172 177 188
f 181 179 189
f 179 178 189
f 166 190 178
f 180 186 182
f 180 187 186
f 175 176 187
f 177 191 188
f 178 192 189
f 176 183 187
f 177 181 191
f 181 189 193
f 178 190 192
f 186 187 194
f 172 188 184
f 181 193 191
f 186 194 195
f 166 185 190
f 186 195 182
f 183 196 187
f 193 189 197
f 192 190 198
f 182 199 185
f 184 188 200
f 189 201 197
f 189 192 201
f 182 195 199
f 195 194 203
f 194 187 204
f 187 196 204
f 183 184 196
f 188 191 200
f 191 193 205
f 192 206 201
f 190 207 198
f 185 202 190
f 185 199 202
f 195 208 199
f 195 203 208
f 191 205 200
f 192 198 206
f 194 204 203
f 184 200 196
f 193 197 205
f 197 201 209
f 190 202 207
f 197 209 205
f 201 206 209
f 204 210 203
f 204 196 211
f 200 205 212
f 199 213 202
f 204 211 210
f 205 209 212
f 198 215 206
f 199 208 213
f 203 210 214
f 196 200 216
f 209 206 217
f 207 202 218
f 208 203 219
f 203 214 219
f 196 220 211
f 200 212 216
f 206 221 217
f 202 222 218
f 202 213 222
f 208 219 213
f 196 216 220
f 212 209 223
f 209 217 223
f 206 215 221
f 212 223 216
f 214 210 224
f 217 221 225
f 198 207 215
f 207 218 215
f 219 214 226
f 217 225 223
f 221 227 225
f 221 215 227
f 218 222 228
f 219 229 213
f 219 226 229
f 214 224 226
f 210 211 224
f 216 223 230
f 223 225 231
f 213 229 222
f 223 231 230
f 222 229 232
f 216 233 220
f 216 230 233
f 225 227 231
f 218 234 215
f 218 228 234
f 222 232 228
f 226 235 229
f 226 224 235
f 224 211 236
f 211 220 237
f 220 233 238
f 230 231 239
f 231 227 240
f 215 234 227
f 229 241 232
f 229 235 241
f 211 237 236
f 230 239 233
f 227 234 242
f 228 243 234
f 228 232 243
f 232 241 244
f 224 236 235
f 220 238 237
f 233 245 238
f 233 239 245
f 231 246 239
f 231 240 246
f 227 242 240
f 232 244 243
f 235 236 247
f 239 246 245
f 235 247 241
f 236 237 249
f 246 240 250
f 240 242 250
f 234 243 248
f 241 247 244
f 236 249 251
f 245 246 252
f 246 250 252
f 234 248 242
f 243 253 248
f 243 244 253
f 244 247 254
f 236 251 247
f 245 255 238
f 245 252 255
f 244 254 253
f 252 256 255
f 252 250 256
f 242 257 250
f 247 251 254
f 251 249 258
f 237 259 249
f 237 238 259
f 242 248 257
f 249 260 258
f 256 250 261
f 250 257 261
f 248 262 257
f 253 263 248
f 254 264 253
f 251 264 254
f 251 258 264
f 249 265 260
f 238 255 259
f 255 256 266
f 257 262 267
f 253 264 263
f 249 259 265
f 256 268 266
f 256 261 268
f 261 267 268
f 261 257 267
f 248 269 262
f 255 266 259
f 262 270 267
f 248 263 269
f 264 258 271
f 260 265 272
f 263 273 269
f 264 271 263
f 258 272 271
f 258 260 272
f 265 274 272
f 266 275 259
f 267 270 276
f 262 269 270
f 263 271 273
f 265 277 274
f 259 275 278
f 266 268 275
f 268 279 275
f 268 267 279
f 267 276 279
f 265 259 277
f 276 281 280
f 276 270 281
f 271 272 282
f 274 283 272
f 274 277 283
f 276 280 279
f 270 269 281
f 271 282 273
f 272 283 282
f 277 259 284
f 259 278 284
f 280 281 285
f 281 286 285
f 281 269 286
f 273 282 287
f 275 288 278
f 275 279 288
f 279 280 288
f 269 289 286
f 277 290 283
f 277 284 290
f 285 292 291
f 285 286 292
f 286 289 292
f 269 293 289
f 269 273 293
f 282 283 294
f 283 295 294
f 283 290 295
f 278 296 284
f 280 291 288
f 280 285 291
f 273 287 293
f 282 297 287
f 282 294 297
f 284 296 298
f 278 288 296
f 291 292 299
f 292 300 299
f 292 289 300
f 294 301 297
f 294 295 301
f 284 298 290
f 288 302 296
f 288 291 302
f 291 299 302
f 287 297 293
f 290 303 295
f 290 298 303
f 299 300 304
f 289 305 300
f 295 306 301
f 295 303 306
f 299 304 302
f 289 293 305
f 297 301 307
f 301 306 307
f 298 296 308
f 296 302 309
f 304 300 310
f 300 305 310
f 297 307 311
f 298 312 303
f 298 308 312
f 302 313 309
f 302 304 313
f 304 314 313
f 304 310 314
f 305 293 315
f 297 311 293
f 306 316 307
f 306 312 316
f 306 303 312
f 310 318 317
f 310 305 318
f 305 315 318
f 293 319 315
f 296 320 308
f 296 309 320
f 313 321 309
f 313 314 321
f 314 317 321
f 314 310 317
f 293 311 319
f 307 322 311
f 307 316 322
f 312 323 316
f 312 308 323
f 308 320 324
f 309 321 320
f 317 318 325
f 318 326 325
f 318 315 326
f 308 324 323
f 321 327 320
f 321 317 327
f 317 325 327
f 315 319 326
f 316 328 322
f 316 323 328
f 325 326 329
f 326 330 329
f 326 319 330
f 311 322 331
f 327 332 320
f 327 325 332
f 325 329 332
f 311 331 319
f 322 333 331
f 322 328 333
f 323 334 328
f 323 324 334
f 324 320 335
f 320 332 336
f 329 330 337
f 330 338 337
f 330 319 338
f 324 335 334
f 329 337 332
f 319 339 338
f 328 340 333
f 328 334 340
f 337 338 341
f 338 342 341
f 338 339 342
f 319 343 339
f 331 333 344
f 320 345 335
f 320 336 345
f 332 346 336
f 332 337 346
f 337 341 346
f 319 331 343
f 331 344 343
f 333 347 344
f 333 340 347
f 334 348 340
f 334 335 348
f 335 345 349
f 341 342 350
f 335 349 348
f 336 351 345
f 336 346 351
f 346 350 351
f 346 341 350
f 339 343 342
f 340 352 347
f 340 348 352
f 348 353 352
f 348 349 353
f 350 342 355
f 342 356 355
f 342 343 356
f 344 347 357
f 345 358 349
f 345 354 358
f 345 351 354
f 351 359 354
f 351 350 359
f 350 355 359
f 344 357 343
f 347 360 357
f 347 352 360
f 352 361 360
f 352 353 361
f 353 362 361
f 353 349 362
f 355 356 363
f 349 358 362
f 354 359 364
f 359 355 364
f 355 363 364
f 356 343 365
f 360 366 357
f 360 361 366
f 361 367 366
f 358 368 362
f 363 356 370
f 356 371 370
f 356 365 371
f 357 366 372
f 361 373 367
f 361 362 373
f 362 368 373
f 354 374 358
f 354 369 374
f 354 364 369
f 364 375 369
f 364 363 375
f 363 370 375
f 343 376 365
f 343 357 376
f 357 372 376
f 366 377 372
f 366 367 377
f 370 371 378
f 371 379 378
f 373 380 367
f 373 368 380
f 368 358 380
f 375 370 378
f 371 365 379
f 365 376 379
f 377 381 372
f 377 382 381
f 377 367 382
f 367 380 382
f 358 383 380
f 375 384 369
f 375 378 384
f 378 379 385
f 379 386 385
f 382 380 387
f 380 383 387
f 358 388 383
f 358 374 388
f 369 389 374
f 369 384 389
f 378 385 384
f 379 376 386
f 372 391 376
f 372 381 391
f 381 382 392
f 382 387 392
f 384 390 389
f 384 385 390
f 385 393 390
f 385 386 393
f 381 392 391
f 387 394 392
f 387 395 394
f 387 383 395
f 383 388 395
f 374 389 396
f 389 397 396
f 390 393 398
f 386 399 393
f 386 376 399
f 392 400 391
f 392 401 400
f 392 394 401
f 389 390 397
f 390 398 397
f 395 402 394
f 395 388 402
f 388 374 403
f 374 404 403
f 374 396 404
f 398 393 405
f 393 406 405
f 393 399 406
f 376 391 399
f 400 401 407
f 401 408 407
f 401 394 408
f 388 403 402
f 397 409 396
f 397 398 409
f 398 405 409
f 400 407 391
f 394 402 408
f 402 410 408
f 402 403 410
f 396 409 404
f 405 406 411
f 406 412 411
f 406 413 412
f 406 399 413
f 407 414 391
f 405 411 409
f 407 415 414
f 407 408 415
f 408 416 415
f 408 410 416
f 410 417 416
f 410 403 417
f 403 404 418
f 411 412 419
f 412 420 419
f 412 413 420
f 413 421 420
f 399 421 413
f 399 391 421
f 391 414 421
f 403 418 417
f 409 422 404
f 409 411 422
f 411 419 422
f 415 423 414
f 415 416 423
f 416 424 423
f 416 417 424
f 404 422 425
f 419 427 426
f 419 420 427
f 420 428 427
f 420 421 428
f 414 423 429
f 419 426 422
f 414 429 421
f 423 430 429
f 423 424 430
f 417 431 424
f 417 418 431
f 418 404 432
f 404 433 432
f 426 427 434
f 427 435 434
f 427 428 435
f 421 436 428
f 421 429 436
f 418 432 431
f 404 425 433
f 422 437 425
f 422 426 437
f 426 434 437
f 424 438 430
f 424 431 438
f 425 437 433
f 434 435 439
f 429 430 440
f 437 441 433
f 437 434 441
f 434 439 441
f 428 436 435
f 429 440 436
f 430 442 440
f 430 438 442
f 431 443 438
f 431 432 443
f 432 433 444
f 439 435 445
f 435 446 445
f 435 436 446
f 432 444 443
f 441 447 433
f 441 439 447
f 439 445 447
f 438 448 442
f 438 443 448
f 433 447 449
f 445 446 450
f 446 451 450
f 446 436 451
f 440 442 452
f 447 453 449
f 447 445 453
f 445 450 453
f 436 454 451
f 440 452 436
f 442 455 452
f 442 448 455
f 443 456 448
f 443 444 456
f 433 457 444
f 450 459 458
f 450 451 459
f 451 460 459
f 451 454 460
f 436 461 454
f 436 452 461
f 433 449 457
f 453 462 449
f 453 458 462
f 453 450 458
f 455 464 463
f 455 448 464
f 448 456 464
f 444 457 465
f 449 462 457
f 458 459 466
f 459 460 466
f 460 467 466
f 460 454 467
f 455 468 452
f 455 463 468
f 444 465 456
f 462 458 469
f 458 466 469
f 454 461 467
f 452 468 461
f 464 456 470
f 456 465 470
f 457 462 471
f 466 467 472
f 464 473 463
f 464 470 473
f 462 469 471
f 466 472 469
f 463 474 468
f 463 473 474
f 465 457 475
f 472 467 476
f 467 477 476
f 467 461 477
f 468 474 478
f 470 479 473
f 470 465 479
f 469 480 471
f 469 472 480
f 472 476 480
f 461 481 477
f 468 478 461
f 465 482 479
f 465 475 482
f 457 483 475
f 476 486 485
f 476 477 486
f 461 478 481
f 474 473 487
f 473 479 487
f 479 482 487
f 457 488 483
f 457 471 488
f 471 480 484
f 480 485 484
f 480 476 485
f 474 489 478
f 474 487 489
f 471 484 488
f 486 477 490
f 477 491 490
f 477 481 491
f 475 483 482
f 484 492 488
f 484 485 492
f 485 486 492
f 478 493 481
f 478 489 493
f 487 482 494
f 482 483 495
f 492 496 488
f 486 490 497
f 487 498 489
f 487 494 498
f 482 495 494
f 492 497 496
f 492 486 497
f 489 499 493
f 497 490 501
f 490 502 501
f 490 491 502
f 491 503 502
f 481 493 491
f 489 498 499
f 483 504 495
f 488 496 500
f 497 501 496
f 491 493 503
f 498 494 499
f 494 506 505
f 494 495 506
f 495 504 507
f 483 488 504
f 494 505 499
f 495 507 506
f 488 509 504
f 496 501 500
f 493 508 503
f 488 500 509
f 501 511 510
f 501 502 511
f 502 512 511
f 502 503 512
f 499 513 493
f 504 515 507
f 500 501 510
f 503 508 512
f 493 516 508
f 499 505 513
f 507 517 506
f 507 514 517
f 507 515 514
f 504 509 515
f 500 510 509
f 510 511 518
f 511 512 518
f 505 506 513
f 510 519 509
f 493 521 516
f 493 513 521
f 506 517 513
f 517 514 522
f 510 518 519
f 518 524 523
f 518 512 524
f 512 520 524
f 512 508 520
f 515 525 514
f 518 523 519
f 508 527 520
f 508 516 527
f 517 522 528
f 514 525 522
f 515 529 525
f 515 509 529
f 509 519 530
f 523 524 531
f 520 526 524
f 520 527 526
f 517 528 513
f 522 525 532
f 509 530 529
f 523 533 519
f 524 526 531
f 513 528 521
f 522 532 534
f 519 533 530
f 523 531 533
f 522 534 528
f 525 529 535
f 531 526 536
f 527 537 526
f 527 516 537
f 516 521 538
f 528 534 539
f 525 535 532
f 529 540 535
f 529 530 540
f 531 536 533
f 521 528 542
f 532 543 534
f 532 535 543
f 530 533 541
f 526 537 536
f 516 538 537
f 521 542 538
f 528 539 542
f 539 534 545
f 533 546 541
f 536 537 544
f 534 543 545
f 535 540 548
f 530 549 540
f 530 541 549
f 533 547 546
f 533 536 547
f 537 538 551
f 535 548 543
f 536 550 547
f 536 544 550
f 544 537 552
f 537 551 552
f 543 548 554
f 544 552 555
f 542 539 553
f 545 556 539
f 543 557 545
f 543 554 557
f 540 549 548
f 547 550 546
f 544 555 550
f 545 557 556
f 549 541 558
f 541 559 558
f 539 556 553
f 541 546 559
f 546 550 560
f 555 552 561
f 552 551 561
f 538 562 551
f 557 554 563
f 548 564 554
f 548 549 564
f 550 565 560
f 551 566 561
f 538 542 562
f 557 567 556
f 557 563 567
f 549 558 564
f 550 555 565
f 555 561 568
f 551 562 566
f 556 567 553
f 563 554 569
f 546 560 559
f 555 568 565
f 553 570 542
f 554 564 569
f 542 570 562
f 553 567 570
f 558 571 564
f 568 561 572
f 566 562 573
f 567 574 570
f 559 560 575
f 561 576 572
f 561 566 576
f 563 578 567
f 563 569 578
f 569 564 579
f 564 571 579
f 558 559 571
f 560 565 575
f 565 568 580
f 566 581 576
f 562 582 573
f 570 577 562
f 570 574 577
f 567 578 574
f 569 583 578
f 565 580 575
f 566 573 581
f 569 579 583
f 559 575 571
f 568 572 580
f 572 576 584
f 562 577 582
f 572 584 580
f 576 581 584
f 578 583 585
f 579 571 586
f 575 580 587
f 578 585 574
f 580 584 587
f 573 588 581
f 574 585 577
f 571 575 589
f 584 581 590
f 582 577 591
f 575 587 589
f 581 592 590
f 577 593 591
f 585 594 577
f 585 583 594
f 571 589 586
f 587 584 596
f 584 590 596
f 581 588 592
f 577 594 593
f 579 586 595
f 587 596 589
f 594 583 597
f 579 597 583
f 579 595 597
f 590 592 598
f 573 582 588
f 582 591 588
f 594 597 599
f 590 598 596
f 592 600 598
f 592 588 600
f 591 593 601
f 586 602 595
f 589 596 603
f 596 598 604
f 594 599 593
f 596 604 603
f 593 599 605
f 597 606 599
f 589 607 586
f 589 603 607
f 598 600 604
f 591 608 588
f 591 601 608
f 593 605 601
f 597 595 606
f 595 602 609
f 586 607 610
f 603 604 611
f 604 600 612
f 588 608 600
f 599 613 605
f 599 606 613
f 595 614 606
f 595 609 614
f 603 611 607
f 600 608 615
f 601 616 608
f 601 605 616
f 605 613 617
f 586 610 602
f 607 618 610
f 607 611 618
f 604 619 611
f 604 612 619
f 600 615 612
f 605 617 616
f 606 614 620
f 611 619 618
f 606 620 613
f 614 622 620
f 602 610 623
f 619 612 624
f 612 615 624
f 608 616 621
f 613 620 617
f 614 609 622
f 602 623 609
f 618 619 625
f 619 624 625
f 608 621 615
f 617 620 626
f 609 623 627
f 618 628 610
f 618 625 628
f 617 626 616
f 609 627 622
f 625 629 628
f 625 624 629
f 615 630 624
f 623 610 631
f 615 621 630
f 620 632 626
f 620 622 632
f 622 627 633
f 627 623 634
f 629 624 635
f 624 630 635
f 621 636 630
f 616 637 621
f 616 626 637
f 622 633 632
f 627 634 633
f 623 638 634
f 610 628 631
f 628 629 639
f 630 636 640
f 626 632 637
f 623 631 638
f 629 641 639
f 629 635 641
f 635 640 641
f 635 630 640
f 621 642 636
f 628 639 643
f 636 644 640
f 621 637 642
f 632 633 645
f 633 634 645
f 634 638 646
f 628 643 631
f 632 645 647
f 634 646 645
f 639 648 643
f 640 644 649
f 636 650 644
f 637 647 642
f 637 632 647
f 631 651 638
f 639 641 648
f 641 652 648
f 641 640 652
f 640 649 652
f 636 642 650
f 631 643 651
f 643 648 653
f 649 655 654
f 649 644 655
f 645 656 647
f 645 646 656
f 638 657 646
f 638 651 657
f 649 654 652
f 644 650 655
f 647 656 658
f 646 657 656
f 651 643 659
f 643 653 659
f 654 655 660
f 655 661 660
f 655 650 661
f 647 658 642
f 648 662 653
f 648 652 662
f 652 654 662
f 650 642 661
f 642 663 661
f 651 664 657
f 651 659 664
f 660 666 665
f 660 661 666
f 661 663 666
f 642 667 663
f 656 668 658
f 656 657 668
f 657 669 668
f 657 664 669
f 654 665 662
f 654 660 665
f 642 658 667
f 658 668 670
f 659 653 671
f 653 662 672
f 665 666 673
f 666 674 673
f 666 663 674
f 658 670 667
f 668 675 670
f 668 669 675
f 659 671 664
f 662 676 672
f 662 665 676
f 665 673 676
f 664 677 669
f 664 671 677
f 653 672 678
f 673 674 679
f 663 680 674
f 669 681 675
f 669 677 681
f 653 678 671
f 673 679 676
f 663 667 680
f 670 675 682
f 675 681 682
f 671 678 683
f 672 676 678
f 679 674 684
f 674 680 684
f 670 685 667
f 670 682 685
f 671 686 677
f 671 683 686
f 676 687 678
f 676 679 687
f 679 688 687
f 679 684 688
f 680 667 689
f 681 690 682
f 681 686 690
f 681 677 686
f 684 691 688
f 684 680 691
f 680 689 691
f 667 692 689
f 687 693 678
f 687 688 693
f 667 685 692
f 682 694 685
f 682 690 694
f 686 695 690
f 686 683 695
f 683 678 696
f 678 693 697
f 688 691 698
f 691 699 698
f 691 689 699
f 685 700 692
f 685 694 700
f 683 696 695
f 693 701 697
f 693 688 701
f 688 698 701
f 689 692 699
f 690 702 694
f 690 695 702
f 678 697 703
f 698 699 704
f 699 705 704
f 699 692 705
f 678 703 696
f 701 706 697
f 701 698 706
f 698 704 706
f 694 707 700
f 694 702 707
f 695 708 702
f 695 696 708
f 696 703 709
f 697 710 703
f 697 706 710
f 704 705 711
f 705 712 711
f 705 692 712
f 696 709 708
f 704 711 706
f 692 713 712
f 702 714 707
f 702 708 714
f 711 712 715
f 712 716 715
f 712 713 716
f 700 717 692
f 700 707 717
f 706 718 710
f 706 711 718
f 711 715 718
f 692 717 713
f 707 719 717
f 707 714 719
f 708 720 714
f 708 709 720
f 709 703 721
f 710 722 703
f 715 716 723
f 716 724 723
f 716 713 724
f 709 721 720
f 710 718 722
f 718 725 722
f 718 723 725
f 718 715 723
f 713 726 724
f 714 727 719
f 714 720 727
f 720 728 727
f 720 721 728
f 703 722 729
f 723 724 730
f 713 731 726
f 717 732 713
f 717 719 732
f 703 729 721
f 722 725 733
f 723 730 725
f 713 732 731
f 719 734 732
f 719 727 734
f 727 735 734
f 727 728 735
f 728 736 735
f 728 721 736
f 721 729 737
f 730 724 738
f 724 739 738
f 724 726 739
f 721 737 736
f 722 733 729
f 725 740 733
f 725 730 740
f 730 738 740
f 739 726 741
f 726 731 741
f 734 742 732
f 734 743 742
f 734 735 743
f 738 739 744
f 732 742 731
f 735 745 743
f 735 736 745
f 736 746 745
f 736 737 746
f 729 10 737
f 733 747 729
f 733 740 747
f 740 748 747
f 740 738 748
f 738 744 748
f 739 749 744
f 737 10 746
f 729 11 10
f 744 749 750
f 739 3 749
f 739 741 3
f 741 4 3
f 741 731 4
f 742 743 6
f 743 745 6
f 745 746 8
f 729 747 11
f 744 750 748
f 731 742 5
f 742 6 5
f 6 745 7
f 745 8 7
f 8 746 9
f 746 10 9
f 750 2 1
f 750 749 2
f 749 3 2
f 731 5 4
f 747 12 11
f 747 748 12
f 748 1 12
f 748 750 1

